  0
SECTION
  2
HEADER
  9
$ACADVER
  1
AC1024
  9
$ACADMAINTVER
 70
6
  9
$DWGCODEPAGE
  3
ANSI_1252
  9
$LASTSAVEDBY
  1
ezdxf
  9
$INSBASE
 10
0.0
 20
0.0
 30
0.0
  9
$EXTMIN
 10
1e+20
 20
1e+20
 30
1e+20
  9
$EXTMAX
 10
-1e+20
 20
-1e+20
 30
-1e+20
  9
$LIMMIN
 10
0.0
 20
0.0
  9
$LIMMAX
 10
420.0
 20
297.0
  9
$ORTHOMODE
 70
0
  9
$REGENMODE
 70
1
  9
$FILLMODE
 70
1
  9
$QTEXTMODE
 70
0
  9
$MIRRTEXT
 70
1
  9
$LTSCALE
 40
1.0
  9
$ATTMODE
 70
1
  9
$TEXTSIZE
 40
2.5
  9
$TRACEWID
 40
1.0
  9
$TEXTSTYLE
  7
Standard
  9
$CLAYER
  8
0
  9
$CELTYPE
  6
ByLayer
  9
$CECOLOR
 62
256
  9
$CELTSCALE
 40
1.0
  9
$DISPSILH
 70
0
  9
$DIMSCALE
 40
1.0
  9
$DIMASZ
 40
2.5
  9
$DIMEXO
 40
0.625
  9
$DIMDLI
 40
3.75
  9
$DIMRND
 40
0.0
  9
$DIMDLE
 40
0.0
  9
$DIMEXE
 40
1.25
  9
$DIMTP
 40
0.0
  9
$DIMTM
 40
0.0
  9
$DIMTXT
 40
2.5
  9
$DIMCEN
 40
2.5
  9
$DIMTSZ
 40
0.0
  9
$DIMTOL
 70
0
  9
$DIMLIM
 70
0
  9
$DIMTIH
 70
0
  9
$DIMTOH
 70
0
  9
$DIMSE1
 70
0
  9
$DIMSE2
 70
0
  9
$DIMTAD
 70
1
  9
$DIMZIN
 70
8
  9
$DIMBLK
  1

  9
$DIMASO
 70
1
  9
$DIMSHO
 70
1
  9
$DIMPOST
  1

  9
$DIMAPOST
  1

  9
$DIMALT
 70
0
  9
$DIMALTD
 70
3
  9
$DIMALTF
 40
0.03937007874
  9
$DIMLFAC
 40
1.0
  9
$DIMTOFL
 70
1
  9
$DIMTVP
 40
0.0
  9
$DIMTIX
 70
0
  9
$DIMSOXD
 70
0
  9
$DIMSAH
 70
0
  9
$DIMBLK1
  1

  9
$DIMBLK2
  1

  9
$DIMSTYLE
  2
ISO-25
  9
$DIMCLRD
 70
0
  9
$DIMCLRE
 70
0
  9
$DIMCLRT
 70
0
  9
$DIMTFAC
 40
1.0
  9
$DIMGAP
 40
0.625
  9
$DIMJUST
 70
0
  9
$DIMSD1
 70
0
  9
$DIMSD2
 70
0
  9
$DIMTOLJ
 70
0
  9
$DIMTZIN
 70
8
  9
$DIMALTZ
 70
0
  9
$DIMALTTZ
 70
0
  9
$DIMUPT
 70
0
  9
$DIMDEC
 70
2
  9
$DIMTDEC
 70
2
  9
$DIMALTU
 70
2
  9
$DIMALTTD
 70
3
  9
$DIMTXSTY
  7
Standard
  9
$DIMAUNIT
 70
0
  9
$DIMADEC
 70
0
  9
$DIMALTRND
 40
0.0
  9
$DIMAZIN
 70
0
  9
$DIMDSEP
 70
44
  9
$DIMATFIT
 70
3
  9
$DIMFRAC
 70
0
  9
$DIMLDRBLK
  1

  9
$DIMLUNIT
 70
2
  9
$DIMLWD
 70
-2
  9
$DIMLWE
 70
-2
  9
$DIMTMOVE
 70
0
  9
$DIMFXL
 40
1.0
  9
$DIMFXLON
 70
0
  9
$DIMJOGANG
 40
0.785398163397
  9
$DIMTFILL
 70
0
  9
$DIMTFILLCLR
 70
0
  9
$DIMARCSYM
 70
0
  9
$DIMLTYPE
  6

  9
$DIMLTEX1
  6

  9
$DIMLTEX2
  6

  9
$DIMTXTDIRECTION
 70
0
  9
$LUNITS
 70
2
  9
$LUPREC
 70
4
  9
$SKETCHINC
 40
1.0
  9
$FILLETRAD
 40
10.0
  9
$AUNITS
 70
0
  9
$AUPREC
 70
2
  9
$MENU
  1
.
  9
$ELEVATION
 40
0.0
  9
$PELEVATION
 40
0.0
  9
$THICKNESS
 40
0.0
  9
$LIMCHECK
 70
0
  9
$CHAMFERA
 40
0.0
  9
$CHAMFERB
 40
0.0
  9
$CHAMFERC
 40
0.0
  9
$CHAMFERD
 40
0.0
  9
$SKPOLY
 70
0
  9
$TDCREATE
 40
2461297.7954513887
  9
$TDUCREATE
 40
2458532.153996898
  9
$TDUPDATE
 40
2461297.7954513887
  9
$TDUUPDATE
 40
2458532.1544311
  9
$TDINDWG
 40
0.0
  9
$TDUSRTIMER
 40
0.0
  9
$USRTIMER
 70
1
  9
$ANGBASE
 50
0.0
  9
$ANGDIR
 70
0
  9
$PDMODE
 70
0
  9
$PDSIZE
 40
0.0
  9
$PLINEWID
 40
0.0
  9
$SPLFRAME
 70
0
  9
$SPLINETYPE
 70
6
  9
$SPLINESEGS
 70
8
  9
$HANDSEED
  5
126
  9
$SURFTAB1
 70
6
  9
$SURFTAB2
 70
6
  9
$SURFTYPE
 70
6
  9
$SURFU
 70
6
  9
$SURFV
 70
6
  9
$UCSBASE
  2

  9
$UCSNAME
  2

  9
$UCSORG
 10
0.0
 20
0.0
 30
0.0
  9
$UCSXDIR
 10
1.0
 20
0.0
 30
0.0
  9
$UCSYDIR
 10
0.0
 20
1.0
 30
0.0
  9
$UCSORTHOREF
  2

  9
$UCSORTHOVIEW
 70
0
  9
$UCSORGTOP
 10
0.0
 20
0.0
 30
0.0
  9
$UCSORGBOTTOM
 10
0.0
 20
0.0
 30
0.0
  9
$UCSORGLEFT
 10
0.0
 20
0.0
 30
0.0
  9
$UCSORGRIGHT
 10
0.0
 20
0.0
 30
0.0
  9
$UCSORGFRONT
 10
0.0
 20
0.0
 30
0.0
  9
$UCSORGBACK
 10
0.0
 20
0.0
 30
0.0
  9
$PUCSBASE
  2

  9
$PUCSNAME
  2

  9
$PUCSORG
 10
0.0
 20
0.0
 30
0.0
  9
$PUCSXDIR
 10
1.0
 20
0.0
 30
0.0
  9
$PUCSYDIR
 10
0.0
 20
1.0
 30
0.0
  9
$PUCSORTHOREF
  2

  9
$PUCSORTHOVIEW
 70
0
  9
$PUCSORGTOP
 10
0.0
 20
0.0
 30
0.0
  9
$PUCSORGBOTTOM
 10
0.0
 20
0.0
 30
0.0
  9
$PUCSORGLEFT
 10
0.0
 20
0.0
 30
0.0
  9
$PUCSORGRIGHT
 10
0.0
 20
0.0
 30
0.0
  9
$PUCSORGFRONT
 10
0.0
 20
0.0
 30
0.0
  9
$PUCSORGBACK
 10
0.0
 20
0.0
 30
0.0
  9
$USERI1
 70
0
  9
$USERI2
 70
0
  9
$USERI3
 70
0
  9
$USERI4
 70
0
  9
$USERI5
 70
0
  9
$USERR1
 40
0.0
  9
$USERR2
 40
0.0
  9
$USERR3
 40
0.0
  9
$USERR4
 40
0.0
  9
$USERR5
 40
0.0
  9
$WORLDVIEW
 70
1
  9
$SHADEDGE
 70
3
  9
$SHADEDIF
 70
70
  9
$TILEMODE
 70
1
  9
$MAXACTVP
 70
64
  9
$PINSBASE
 10
0.0
 20
0.0
 30
0.0
  9
$PLIMCHECK
 70
0
  9
$PEXTMIN
 10
1e+20
 20
1e+20
 30
1e+20
  9
$PEXTMAX
 10
-1e+20
 20
-1e+20
 30
-1e+20
  9
$PLIMMIN
 10
0.0
 20
0.0
  9
$PLIMMAX
 10
420.0
 20
297.0
  9
$UNITMODE
 70
0
  9
$VISRETAIN
 70
1
  9
$PLINEGEN
 70
0
  9
$PSLTSCALE
 70
1
  9
$TREEDEPTH
 70
3020
  9
$CMLSTYLE
  2
Standard
  9
$CMLJUST
 70
0
  9
$CMLSCALE
 40
20.0
  9
$PROXYGRAPHICS
 70
1
  9
$MEASUREMENT
 70
1
  9
$CELWEIGHT
370
-1
  9
$ENDCAPS
280
0
  9
$JOINSTYLE
280
0
  9
$LWDISPLAY
290
0
  9
$INSUNITS
 70
4
  9
$HYPERLINKBASE
  1

  9
$STYLESHEET
  1

  9
$XEDIT
290
1
  9
$CEPSNTYPE
380
0
  9
$PSTYLEMODE
290
1
  9
$FINGERPRINTGUID
  2
{4223B4C4-83A7-46B9-B175-97C049FAA4E9}
  9
$VERSIONGUID
  2
{C9DBFF73-D5DB-4425-AC8F-48BF43171D05}
  9
$EXTNAMES
290
1
  9
$PSVPSCALE
 40
0.0
  9
$OLESTARTUP
290
0
  9
$SORTENTS
280
127
  9
$INDEXCTL
280
0
  9
$HIDETEXT
280
1
  9
$XCLIPFRAME
280
1
  9
$HALOGAP
280
0
  9
$OBSCOLOR
 70
257
  9
$OBSLTYPE
280
0
  9
$INTERSECTIONDISPLAY
280
0
  9
$INTERSECTIONCOLOR
 70
257
  9
$DIMASSOC
280
2
  9
$PROJECTNAME
  1

  9
$CAMERADISPLAY
290
0
  9
$LENSLENGTH
 40
50.0
  9
$CAMERAHEIGHT
 40
0.0
  9
$STEPSPERSEC
 40
24.0
  9
$STEPSIZE
 40
100.0
  9
$3DDWFPREC
 40
2.0
  9
$PSOLWIDTH
 40
0.005
  9
$PSOLHEIGHT
 40
0.08
  9
$LOFTANG1
 40
1.570796326795
  9
$LOFTANG2
 40
1.570796326795
  9
$LOFTMAG1
 40
0.0
  9
$LOFTMAG2
 40
0.0
  9
$LOFTPARAM
 70
7
  9
$LOFTNORMALS
280
1
  9
$LATITUDE
 40
37.795
  9
$LONGITUDE
 40
-122.394
  9
$NORTHDIRECTION
 40
0.0
  9
$TIMEZONE
 70
-8000
  9
$LIGHTGLYPHDISPLAY
280
1
  9
$TILEMODELIGHTSYNCH
280
1
  9
$CMATERIAL
347
20
  9
$SOLIDHIST
280
0
  9
$SHOWHIST
280
1
  9
$DWFFRAME
280
2
  9
$DGNFRAME
280
2
  9
$REALWORLDSCALE
290
1
  9
$INTERFERECOLOR
 62
256
  9
$CSHADOW
280
0
  9
$SHADOWPLANELOCATION
 40
0.0
  0
ENDSEC
  0
SECTION
  2
CLASSES
  0
CLASS
  1
ACDBDICTIONARYWDFLT
  2
AcDbDictionaryWithDefault
  3
ObjectDBX Classes
 90
0
 91
0
280
0
281
0
  0
CLASS
  1
SUN
  2
AcDbSun
  3
SCENEOE
 90
1153
 91
0
280
0
281
0
  0
CLASS
  1
VISUALSTYLE
  2
AcDbVisualStyle
  3
ObjectDBX Classes
 90
4095
 91
0
280
0
281
0
  0
CLASS
  1
MATERIAL
  2
AcDbMaterial
  3
ObjectDBX Classes
 90
1153
 91
0
280
0
281
0
  0
CLASS
  1
SCALE
  2
AcDbScale
  3
ObjectDBX Classes
 90
1153
 91
0
280
0
281
0
  0
CLASS
  1
TABLESTYLE
  2
AcDbTableStyle
  3
ObjectDBX Classes
 90
4095
 91
0
280
0
281
0
  0
CLASS
  1
MLEADERSTYLE
  2
AcDbMLeaderStyle
  3
ACDB_MLEADERSTYLE_CLASS
 90
4095
 91
0
280
0
281
0
  0
CLASS
  1
DICTIONARYVAR
  2
AcDbDictionaryVar
  3
ObjectDBX Classes
 90
0
 91
0
280
0
281
0
  0
CLASS
  1
CELLSTYLEMAP
  2
AcDbCellStyleMap
  3
ObjectDBX Classes
 90
1152
 91
0
280
0
281
0
  0
CLASS
  1
MENTALRAYRENDERSETTINGS
  2
AcDbMentalRayRenderSettings
  3
SCENEOE
 90
1024
 91
0
280
0
281
0
  0
CLASS
  1
ACDBDETAILVIEWSTYLE
  2
AcDbDetailViewStyle
  3
ObjectDBX Classes
 90
1025
 91
0
280
0
281
0
  0
CLASS
  1
ACDBSECTIONVIEWSTYLE
  2
AcDbSectionViewStyle
  3
ObjectDBX Classes
 90
1025
 91
0
280
0
281
0
  0
CLASS
  1
RASTERVARIABLES
  2
AcDbRasterVariables
  3
ISM
 90
0
 91
0
280
0
281
0
  0
CLASS
  1
LAYOUT
  2
AcDbLayout
  3
ObjectDBX Classes
 90
0
 91
0
280
0
281
0
  0
CLASS
  1
ACDBPLACEHOLDER
  2
AcDbPlaceHolder
  3
ObjectDBX Classes
 90
0
 91
0
280
0
281
0
  0
ENDSEC
  0
SECTION
  2
TABLES
  0
TABLE
  2
VPORT
  5
8
330
0
100
AcDbSymbolTable
 70
1
  0
VPORT
  5
23
330
8
100
AcDbSymbolTableRecord
100
AcDbViewportTableRecord
  2
*Active
 70
0
 10
0.0
 20
0.0
 11
1.0
 21
1.0
 12
0.0
 22
0.0
 13
0.0
 23
0.0
 14
0.5
 24
0.5
 15
0.5
 25
0.5
 16
0.0
 26
0.0
 36
1.0
 17
0.0
 27
0.0
 37
0.0
 40
1000.0
 41
1.34
 42
50.0
 43
0.0
 44
0.0
 50
0.0
 51
0.0
 71
0
 72
1000
 73
1
 74
3
 75
0
 76
0
 77
0
 78
0
281
0
 65
0
146
0.0
  0
ENDTAB
  0
TABLE
  2
LTYPE
  5
2
330
0
100
AcDbSymbolTable
 70
3
  0
LTYPE
  5
24
330
2
100
AcDbSymbolTableRecord
100
AcDbLinetypeTableRecord
  2
ByBlock
 70
0
  3

 72
65
 73
0
 40
0.0
  0
LTYPE
  5
25
330
2
100
AcDbSymbolTableRecord
100
AcDbLinetypeTableRecord
  2
ByLayer
 70
0
  3

 72
65
 73
0
 40
0.0
  0
LTYPE
  5
26
330
2
100
AcDbSymbolTableRecord
100
AcDbLinetypeTableRecord
  2
Continuous
 70
0
  3

 72
65
 73
0
 40
0.0
  0
ENDTAB
  0
TABLE
  2
LAYER
  5
1
330
0
100
AcDbSymbolTable
 70
9
  0
LAYER
  5
27
330
1
100
AcDbSymbolTableRecord
100
AcDbLayerTableRecord
  2
0
 70
0
 62
7
  6
Continuous
370
-3
390
13
347
21
  0
LAYER
  5
28
330
1
100
AcDbSymbolTableRecord
100
AcDbLayerTableRecord
  2
Defpoints
 70
0
 62
7
  6
Continuous
290
0
370
-3
390
13
347
21
  0
LAYER
  5
2F
330
1
100
AcDbSymbolTableRecord
100
AcDbLayerTableRecord
  2
OUTLINE
 70
0
 62
7
  6
Continuous
370
-3
390
13
347
21
  0
LAYER
  5
30
330
1
100
AcDbSymbolTableRecord
100
AcDbLayerTableRecord
  2
TANGENT
 70
0
 62
8
  6
Continuous
370
-3
390
13
347
21
  0
LAYER
  5
31
330
1
100
AcDbSymbolTableRecord
100
AcDbLayerTableRecord
  2
HIDDEN
 70
0
 62
8
  6
Continuous
370
-3
390
13
347
21
  0
LAYER
  5
32
330
1
100
AcDbSymbolTableRecord
100
AcDbLayerTableRecord
  2
DIM
 70
0
 62
7
  6
Continuous
370
-3
390
13
347
21
  0
LAYER
  5
33
330
1
100
AcDbSymbolTableRecord
100
AcDbLayerTableRecord
  2
TEXT
 70
0
 62
7
  6
Continuous
370
-3
390
13
347
21
  0
LAYER
  5
34
330
1
100
AcDbSymbolTableRecord
100
AcDbLayerTableRecord
  2
HOLD
 70
0
 62
1
  6
Continuous
370
-3
390
13
347
21
  0
LAYER
  5
35
330
1
100
AcDbSymbolTableRecord
100
AcDbLayerTableRecord
  2
CENTER
 70
0
 62
4
  6
Continuous
370
-3
390
13
347
21
  0
ENDTAB
  0
TABLE
  2
STYLE
  5
5
330
0
100
AcDbSymbolTable
 70
2
  0
STYLE
  5
29
330
5
100
AcDbSymbolTableRecord
100
AcDbTextStyleTableRecord
  2
Standard
 70
0
 40
0.0
 41
1.0
 50
0.0
 71
0
 42
2.5
  3
txt
  4

  0
STYLE
  5
36
330
5
100
AcDbSymbolTableRecord
100
AcDbTextStyleTableRecord
  2
CJK
 70
0
 40
0.0
 41
1.0
 50
0.0
 71
0
 42
2.5
  3
Arial Unicode.ttf
  4

  0
ENDTAB
  0
TABLE
  2
VIEW
  5
7
330
0
100
AcDbSymbolTable
 70
0
  0
ENDTAB
  0
TABLE
  2
UCS
  5
6
330
0
100
AcDbSymbolTable
 70
0
  0
ENDTAB
  0
TABLE
  2
APPID
  5
3
330
0
100
AcDbSymbolTable
 70
3
  0
APPID
  5
2A
330
3
100
AcDbSymbolTableRecord
100
AcDbRegAppTableRecord
  2
ACAD
 70
0
  0
APPID
  5
123
330
3
100
AcDbSymbolTableRecord
100
AcDbRegAppTableRecord
  2
HATCHBACKGROUNDCOLOR
 70
0
  0
APPID
  5
124
330
3
100
AcDbSymbolTableRecord
100
AcDbRegAppTableRecord
  2
EZDXF
 70
0
  0
ENDTAB
  0
TABLE
  2
DIMSTYLE
  5
4
330
0
100
AcDbSymbolTable
 70
1
100
AcDbDimStyleTable
  0
DIMSTYLE
105
2B
330
4
100
AcDbSymbolTableRecord
100
AcDbDimStyleTableRecord
  2
Standard
 70
0
 40
1.0
 41
2.5
 42
0.625
 43
3.75
 44
1.25
 45
0.0
 46
0.0
 47
0.0
 48
0.0
 49
2.5
140
2.5
141
2.5
142
0.0
143
0.03937007874
144
1.0
145
0.0
146
1.0
147
0.625
148
0.0
 69
0
 70
0
 71
0
 72
0
 73
0
 74
0
 75
0
 76
0
 77
1
 78
8
 79
3
170
0
171
3
172
1
173
0
174
0
175
0
176
0
177
0
178
0
179
2
271
2
272
2
273
2
274
3
275
0
276
0
277
2
278
44
279
0
280
0
281
0
282
0
283
0
284
8
285
0
286
0
288
0
289
3
290
0
371
-2
372
-2
  0
ENDTAB
  0
TABLE
  2
BLOCK_RECORD
  5
9
330
0
100
AcDbSymbolTable
 70
2
  0
BLOCK_RECORD
  5
17
330
9
100
AcDbSymbolTableRecord
100
AcDbBlockTableRecord
  2
*Model_Space
340
1A
 70
0
280
1
281
0
  0
BLOCK_RECORD
  5
1B
330
9
100
AcDbSymbolTableRecord
100
AcDbBlockTableRecord
  2
*Paper_Space
340
1E
 70
0
280
1
281
0
  0
ENDTAB
  0
ENDSEC
  0
SECTION
  2
BLOCKS
  0
BLOCK
  5
18
330
17
100
AcDbEntity
  8
0
100
AcDbBlockBegin
  2
*Model_Space
 70
0
 10
0.0
 20
0.0
 30
0.0
  3
*Model_Space
  1

  0
ENDBLK
  5
19
330
17
100
AcDbEntity
  8
0
100
AcDbBlockEnd
  0
BLOCK
  5
1C
330
1B
100
AcDbEntity
  8
0
100
AcDbBlockBegin
  2
*Paper_Space
 70
0
 10
0.0
 20
0.0
 30
0.0
  3
*Paper_Space
  1

  0
ENDBLK
  5
1D
330
1B
100
AcDbEntity
  8
0
100
AcDbBlockEnd
  0
ENDSEC
  0
SECTION
  2
ENTITIES
  0
LWPOLYLINE
  5
37
330
17
100
AcDbEntity
  8
OUTLINE
100
AcDbPolyline
 90
5
 70
0
 10
10.0
 20
10.0
 10
410.0
 20
10.0
 10
410.0
 20
287.0
 10
10.0
 20
287.0
 10
10.0
 20
10.0
  0
TEXT
  5
38
330
17
100
AcDbEntity
  8
TEXT
100
AcDbText
 10
15.0
 20
278.0
 30
0.0
 40
5.0
  1
PEEK 槽块 / 局部坐标和真实剖面
  7
CJK
 11
15.0
 21
278.0
 31
0.0
100
AcDbText
  0
TEXT
  5
39
330
17
100
AcDbEntity
  8
TEXT
100
AcDbText
 10
405.0
 20
279.0
 30
0.0
 40
3.0
  1
WF300-DH | P1D1 | 05/12
  7
CJK
 72
2
 11
405.0
 21
279.0
 31
0.0
100
AcDbText
  0
LINE
  5
3A
330
17
100
AcDbEntity
  8
OUTLINE
100
AcDbLine
 10
10.0
 20
273.0
 30
0.0
 11
410.0
 21
273.0
 31
0.0
  0
LINE
  5
3B
330
17
100
AcDbEntity
  8
OUTLINE
100
AcDbLine
 10
10.0
 20
38.0
 30
0.0
 11
410.0
 21
38.0
 31
0.0
  0
TEXT
  5
3C
330
17
100
AcDbEntity
  8
HOLD
100
AcDbText
 10
15.0
 20
30.0
 30
0.0
 40
3.3
  1
状态：工程试制 / 首件评审后执行；未获实片使用批准
  7
CJK
 11
15.0
 21
30.0
 31
0.0
100
AcDbText
  0
TEXT
  5
3D
330
17
100
AcDbEntity
  8
TEXT
100
AcDbText
 10
15.0
 20
22.0
 30
0.0
 40
2.6
  1
单位mm；成品尺寸；试制公差见第11页。复杂轮廓依同版STEP；不得量图。
  7
CJK
 11
15.0
 21
22.0
 31
0.0
100
AcDbText
  0
TEXT
  5
3E
330
17
100
AcDbEntity
  8
TEXT
100
AcDbText
 10
15.0
 20
15.0
 30
0.0
 40
2.5
  1
源模型 SHA-256：11d3f112668962898e65…；晶圆厚0.50–0.90；外缘2接触；先假片验收。
  7
CJK
 11
15.0
 21
15.0
 31
0.0
100
AcDbText
  0
LINE
  5
3F
330
17
100
AcDbEntity
  8
OUTLINE
100
AcDbLine
 10
282.0
 20
10.0
 30
0.0
 11
282.0
 21
38.0
 31
0.0
  0
TEXT
  5
40
330
17
100
AcDbEntity
  8
TEXT
100
AcDbText
 10
287.0
 20
30.0
 30
0.0
 40
2.7
  1
图号 WF300-P1-PAD  |  比例 4:1 / 剖6:1
  7
CJK
 11
287.0
 21
30.0
 31
0.0
100
AcDbText
  0
TEXT
  5
41
330
17
100
AcDbEntity
  8
TEXT
100
AcDbText
 10
287.0
 20
22.0
 30
0.0
 40
2.6
  1
材料/来源：TECAPEEK SX natural
  7
CJK
 11
287.0
 21
22.0
 31
0.0
100
AcDbText
  0
TEXT
  5
42
330
17
100
AcDbEntity
  8
TEXT
100
AcDbText
 10
287.0
 20
15.0
 30
0.0
 40
2.6
  1
工艺/质量首件评审签署：待完成
  7
CJK
 11
287.0
 21
15.0
 31
0.0
100
AcDbText
  0
LWPOLYLINE
  5
43
330
17
100
AcDbEntity
  8
HIDDEN
100
AcDbPolyline
 90
2
 70
0
 10
38.0
 20
234.4
 10
38.0
 20
149.6
  0
LWPOLYLINE
  5
44
330
17
100
AcDbEntity
  8
HIDDEN
100
AcDbPolyline
 90
2
 70
0
 10
38.0
 20
149.6
 10
38.0
 20
234.4
  0
LWPOLYLINE
  5
45
330
17
100
AcDbEntity
  8
HIDDEN
100
AcDbPolyline
 90
5
 70
0
 10
38.0
 20
149.6
 10
38.1217928
 20
148.9877064
 10
38.4686292
 20
148.4686292
 10
38.9877064
 20
148.1217928
 10
39.6
 20
148.0
  0
LWPOLYLINE
  5
46
330
17
100
AcDbEntity
  8
HIDDEN
100
AcDbPolyline
 90
2
 70
0
 10
44.4
 20
148.0
 10
44.4
 20
236.0
  0
LWPOLYLINE
  5
47
330
17
100
AcDbEntity
  8
HIDDEN
100
AcDbPolyline
 90
2
 70
0
 10
39.6
 20
148.0
 10
44.4
 20
148.0
  0
LWPOLYLINE
  5
48
330
17
100
AcDbEntity
  8
HIDDEN
100
AcDbPolyline
 90
5
 70
0
 10
39.6
 20
236.0
 10
38.9877064
 20
235.8782072
 10
38.4686292
 20
235.5313708
 10
38.1217928
 20
235.0122936
 10
38.0
 20
234.4
  0
LWPOLYLINE
  5
49
330
17
100
AcDbEntity
  8
HIDDEN
100
AcDbPolyline
 90
2
 70
0
 10
39.6
 20
236.0
 10
44.4
 20
236.0
  0
LWPOLYLINE
  5
4A
330
17
100
AcDbEntity
  8
HIDDEN
100
AcDbPolyline
 90
2
 70
0
 10
39.6
 20
148.0
 10
90.0
 20
148.0
  0
LWPOLYLINE
  5
4B
330
17
100
AcDbEntity
  8
HIDDEN
100
AcDbPolyline
 90
2
 70
0
 10
39.6
 20
148.0
 10
44.4
 20
148.0
  0
LWPOLYLINE
  5
4C
330
17
100
AcDbEntity
  8
HIDDEN
100
AcDbPolyline
 90
5
 70
0
 10
38.0
 20
149.6
 10
38.1217928
 20
148.9877064
 10
38.4686292
 20
148.4686292
 10
38.9877064
 20
148.1217928
 10
39.6
 20
148.0
  0
LWPOLYLINE
  5
4D
330
17
100
AcDbEntity
  8
HIDDEN
100
AcDbPolyline
 90
2
 70
0
 10
44.4
 20
148.0
 10
44.4
 20
236.0
  0
LWPOLYLINE
  5
4E
330
17
100
AcDbEntity
  8
HIDDEN
100
AcDbPolyline
 90
2
 70
0
 10
39.6
 20
236.0
 10
90.0
 20
236.0
  0
LWPOLYLINE
  5
4F
330
17
100
AcDbEntity
  8
HIDDEN
100
AcDbPolyline
 90
2
 70
0
 10
39.6
 20
236.0
 10
44.4
 20
236.0
  0
LWPOLYLINE
  5
50
330
17
100
AcDbEntity
  8
HIDDEN
100
AcDbPolyline
 90
5
 70
0
 10
38.0
 20
234.4
 10
38.1217928
 20
235.0122936
 10
38.4686292
 20
235.5313708
 10
38.9877064
 20
235.8782072
 10
39.6
 20
236.0
  0
LWPOLYLINE
  5
51
330
17
100
AcDbEntity
  8
HIDDEN
100
AcDbPolyline
 90
34
 70
0
 10
76.4
 20
170.0
 10
76.2771152
 20
171.28690840000002
 10
75.912902
 20
172.5273048
 10
75.320524
 20
173.6763576
 10
74.5213916
 20
174.6925372
 10
73.5443868
 20
175.5391164
 10
72.424822
 20
176.1854976
 10
71.2031608
 20
176.6083188
 10
69.9235572
 20
176.792298
 10
68.6322592
 20
176.730786
 10
67.375938
 20
176.4260056
 10
66.2
 20
175.8889728
 10
65.1469472
 20
175.1390972
 10
64.2548388
 20
174.2034812
 10
63.5559188
 20
173.1159404
 10
63.075447600000004
 20
171.9157812
 10
62.8307908
 20
170.6463812
 10
62.8307908
 20
169.3536188
 10
63.075447600000004
 20
168.0842188
 10
63.5559188
 20
166.8840596
 10
64.2548388
 20
165.7965188
 10
65.1469472
 20
164.8609028
 10
66.2
 20
164.1110272
 10
67.375938
 20
163.5739944
 10
68.6322592
 20
163.269214
 10
69.9235572
 20
163.207702
 10
71.2031608
 20
163.3916812
 10
72.424822
 20
163.8145024
 10
73.5443868
 20
164.4608836
 10
74.5213916
 20
165.3074628
 10
75.320524
 20
166.3236424
 10
75.912902
 20
167.4726952
 10
76.2771152
 20
168.71309159999998
 10
76.4
 20
170.0
  0
LWPOLYLINE
  5
52
330
17
100
AcDbEntity
  8
HIDDEN
100
AcDbPolyline
 90
6
 70
0
 10
55.519999999999996
 20
185.92
 10
55.6178868
 20
185.301966
 10
55.901966
 20
184.7444296
 10
56.3444296
 20
184.301966
 10
56.901966
 20
184.0178868
 10
57.519999999999996
 20
183.92
  0
LWPOLYLINE
  5
53
330
17
100
AcDbEntity
  8
HIDDEN
100
AcDbPolyline
 90
2
 70
0
 10
55.519999999999996
 20
185.92
 10
55.519999999999996
 20
198.08
  0
LWPOLYLINE
  5
54
330
17
100
AcDbEntity
  8
HIDDEN
100
AcDbPolyline
 90
2
 70
0
 10
81.68
 20
183.92
 10
57.519999999999996
 20
183.92
  0
LWPOLYLINE
  5
55
330
17
100
AcDbEntity
  8
HIDDEN
100
AcDbPolyline
 90
6
 70
0
 10
57.519999999999996
 20
200.08
 10
56.901966
 20
199.9821132
 10
56.3444296
 20
199.698034
 10
55.901966
 20
199.2555704
 10
55.6178868
 20
198.698034
 10
55.519999999999996
 20
198.08
  0
LWPOLYLINE
  5
56
330
17
100
AcDbEntity
  8
HIDDEN
100
AcDbPolyline
 90
6
 70
0
 10
81.68
 20
183.92
 10
82.298034
 20
184.0178868
 10
82.8555704
 20
184.301966
 10
83.298034
 20
184.7444296
 10
83.58211320000001
 20
185.301966
 10
83.68
 20
185.92
  0
LWPOLYLINE
  5
57
330
17
100
AcDbEntity
  8
HIDDEN
100
AcDbPolyline
 90
2
 70
0
 10
81.68
 20
200.08
 10
57.519999999999996
 20
200.08
  0
LWPOLYLINE
  5
58
330
17
100
AcDbEntity
  8
HIDDEN
100
AcDbPolyline
 90
2
 70
0
 10
83.68
 20
185.92
 10
83.68
 20
198.08
  0
LWPOLYLINE
  5
59
330
17
100
AcDbEntity
  8
HIDDEN
100
AcDbPolyline
 90
6
 70
0
 10
83.68
 20
198.08
 10
83.58211320000001
 20
198.698034
 10
83.298034
 20
199.2555704
 10
82.8555704
 20
199.698034
 10
82.298034
 20
199.9821132
 10
81.68
 20
200.08
  0
LWPOLYLINE
  5
5A
330
17
100
AcDbEntity
  8
HIDDEN
100
AcDbPolyline
 90
34
 70
0
 10
76.4
 20
214.0
 10
76.2771152
 20
215.28690840000002
 10
75.912902
 20
216.5273048
 10
75.320524
 20
217.6763576
 10
74.5213916
 20
218.6925372
 10
73.5443868
 20
219.5391164
 10
72.424822
 20
220.1854976
 10
71.2031608
 20
220.6083188
 10
69.9235572
 20
220.792298
 10
68.6322592
 20
220.730786
 10
67.375938
 20
220.4260056
 10
66.2
 20
219.8889728
 10
65.1469472
 20
219.1390972
 10
64.2548388
 20
218.2034812
 10
63.5559188
 20
217.1159404
 10
63.075447600000004
 20
215.9157812
 10
62.8307908
 20
214.6463812
 10
62.8307908
 20
213.3536188
 10
63.075447600000004
 20
212.0842188
 10
63.5559188
 20
210.8840596
 10
64.2548388
 20
209.7965188
 10
65.1469472
 20
208.8609028
 10
66.2
 20
208.1110272
 10
67.375938
 20
207.5739944
 10
68.6322592
 20
207.269214
 10
69.9235572
 20
207.207702
 10
71.2031608
 20
207.3916812
 10
72.424822
 20
207.8145024
 10
73.5443868
 20
208.4608836
 10
74.5213916
 20
209.3074628
 10
75.320524
 20
210.3236424
 10
75.912902
 20
211.4726952
 10
76.2771152
 20
212.71309159999998
 10
76.4
 20
214.0
  0
LWPOLYLINE
  5
5B
330
17
100
AcDbEntity
  8
HIDDEN
100
AcDbPolyline
 90
5
 70
0
 10
38.0
 20
149.6
 10
38.1217928
 20
148.9877064
 10
38.4686292
 20
148.4686292
 10
38.9877064
 20
148.1217928
 10
39.6
 20
148.0
  0
LWPOLYLINE
  5
5C
330
17
100
AcDbEntity
  8
HIDDEN
100
AcDbPolyline
 90
2
 70
0
 10
38.0
 20
234.4
 10
38.0
 20
149.6
  0
LWPOLYLINE
  5
5D
330
17
100
AcDbEntity
  8
HIDDEN
100
AcDbPolyline
 90
5
 70
0
 10
39.6
 20
236.0
 10
38.9877064
 20
235.8782072
 10
38.4686292
 20
235.5313708
 10
38.1217928
 20
235.0122936
 10
38.0
 20
234.4
  0
LWPOLYLINE
  5
5E
330
17
100
AcDbEntity
  8
HIDDEN
100
AcDbPolyline
 90
2
 70
0
 10
91.6
 20
149.6
 10
91.6
 20
234.4
  0
LWPOLYLINE
  5
5F
330
17
100
AcDbEntity
  8
HIDDEN
100
AcDbPolyline
 90
6
 70
0
 10
55.519999999999996
 20
185.92
 10
55.6178868
 20
185.301966
 10
55.901966
 20
184.7444296
 10
56.3444296
 20
184.301966
 10
56.901966
 20
184.0178868
 10
57.519999999999996
 20
183.92
  0
LWPOLYLINE
  5
60
330
17
100
AcDbEntity
  8
HIDDEN
100
AcDbPolyline
 90
2
 70
0
 10
55.519999999999996
 20
185.92
 10
55.519999999999996
 20
198.08
  0
LWPOLYLINE
  5
61
330
17
100
AcDbEntity
  8
HIDDEN
100
AcDbPolyline
 90
2
 70
0
 10
57.519999999999996
 20
183.92
 10
81.68
 20
183.92
  0
LWPOLYLINE
  5
62
330
17
100
AcDbEntity
  8
HIDDEN
100
AcDbPolyline
 90
6
 70
0
 10
55.519999999999996
 20
198.08
 10
55.6178868
 20
198.698034
 10
55.901966
 20
199.2555704
 10
56.3444296
 20
199.698034
 10
56.901966
 20
199.9821132
 10
57.519999999999996
 20
200.08
  0
LWPOLYLINE
  5
63
330
17
100
AcDbEntity
  8
HIDDEN
100
AcDbPolyline
 90
6
 70
0
 10
83.68
 20
185.92
 10
83.58211320000001
 20
185.301966
 10
83.298034
 20
184.7444296
 10
82.8555704
 20
184.301966
 10
82.298034
 20
184.0178868
 10
81.68
 20
183.92
  0
LWPOLYLINE
  5
64
330
17
100
AcDbEntity
  8
HIDDEN
100
AcDbPolyline
 90
2
 70
0
 10
57.519999999999996
 20
200.08
 10
81.68
 20
200.08
  0
LWPOLYLINE
  5
65
330
17
100
AcDbEntity
  8
HIDDEN
100
AcDbPolyline
 90
2
 70
0
 10
83.68
 20
185.92
 10
83.68
 20
198.08
  0
LWPOLYLINE
  5
66
330
17
100
AcDbEntity
  8
HIDDEN
100
AcDbPolyline
 90
6
 70
0
 10
83.68
 20
198.08
 10
83.58211320000001
 20
198.698034
 10
83.298034
 20
199.2555704
 10
82.8555704
 20
199.698034
 10
82.298034
 20
199.9821132
 10
81.68
 20
200.08
  0
LWPOLYLINE
  5
67
330
17
100
AcDbEntity
  8
HIDDEN
100
AcDbPolyline
 90
5
 70
0
 10
91.6
 20
149.6
 10
91.4782072
 20
148.9877064
 10
91.1313708
 20
148.4686292
 10
90.6122936
 20
148.1217928
 10
90.0
 20
148.0
  0
LWPOLYLINE
  5
68
330
17
100
AcDbEntity
  8
TANGENT
100
AcDbPolyline
 90
5
 70
0
 10
91.6
 20
149.6
 10
91.4782072
 20
148.9877064
 10
91.1313708
 20
148.4686292
 10
90.6122936
 20
148.1217928
 10
90.0
 20
148.0
  0
LWPOLYLINE
  5
69
330
17
100
AcDbEntity
  8
TANGENT
100
AcDbPolyline
 90
15
 70
0
 10
39.6
 20
149.6
 10
39.6
 20
149.4208568
 10
39.6
 20
149.2439664
 10
39.6
 20
149.07155360000002
 10
39.6
 20
148.905786
 10
39.6
 20
148.7487488
 10
39.6
 20
148.6024164
 10
39.6
 20
148.4686292
 10
39.6
 20
148.3490696
 10
39.6
 20
148.2452412
 10
39.6
 20
148.15845000000002
 10
39.6
 20
148.0897868
 10
39.6
 20
148.0401152
 10
39.6
 20
148.0100604
 10
39.6
 20
148.0
  0
LWPOLYLINE
  5
6A
330
17
100
AcDbEntity
  8
TANGENT
100
AcDbPolyline
 90
2
 70
0
 10
39.6
 20
149.6
 10
90.0
 20
149.6
  0
LWPOLYLINE
  5
6B
330
17
100
AcDbEntity
  8
TANGENT
100
AcDbPolyline
 90
15
 70
0
 10
90.0
 20
149.6
 10
90.0
 20
149.4208568
 10
90.0
 20
149.2439664
 10
90.0
 20
149.07155360000002
 10
90.0
 20
148.905786
 10
90.0
 20
148.7487488
 10
90.0
 20
148.6024164
 10
90.0
 20
148.4686292
 10
90.0
 20
148.3490696
 10
90.0
 20
148.2452412
 10
90.0
 20
148.15845000000002
 10
90.0
 20
148.0897868
 10
90.0
 20
148.0401152
 10
90.0
 20
148.0100604
 10
90.0
 20
148.0
  0
LWPOLYLINE
  5
6C
330
17
100
AcDbEntity
  8
TANGENT
100
AcDbPolyline
 90
5
 70
0
 10
38.0
 20
149.6
 10
38.1217928
 20
148.9877064
 10
38.4686292
 20
148.4686292
 10
38.9877064
 20
148.1217928
 10
39.6
 20
148.0
  0
LWPOLYLINE
  5
6D
330
17
100
AcDbEntity
  8
TANGENT
100
AcDbPolyline
 90
5
 70
0
 10
91.6
 20
234.4
 10
91.4782072
 20
235.0122936
 10
91.1313708
 20
235.5313708
 10
90.6122936
 20
235.8782072
 10
90.0
 20
236.0
  0
LWPOLYLINE
  5
6E
330
17
100
AcDbEntity
  8
TANGENT
100
AcDbPolyline
 90
5
 70
0
 10
90.0
 20
236.0
 10
90.6122936
 20
235.8782072
 10
91.1313708
 20
235.5313708
 10
91.4782072
 20
235.0122936
 10
91.6
 20
234.4
  0
LWPOLYLINE
  5
6F
330
17
100
AcDbEntity
  8
TANGENT
100
AcDbPolyline
 90
15
 70
0
 10
39.6
 20
236.0
 10
39.6
 20
235.9899396
 10
39.6
 20
235.9598848
 10
39.6
 20
235.9102132
 10
39.6
 20
235.84154999999998
 10
39.6
 20
235.7547588
 10
39.6
 20
235.6509304
 10
39.6
 20
235.5313708
 10
39.6
 20
235.3975836
 10
39.6
 20
235.2512512
 10
39.6
 20
235.094214
 10
39.6
 20
234.92844639999998
 10
39.6
 20
234.7560336
 10
39.6
 20
234.5791432
 10
39.6
 20
234.4
  0
LWPOLYLINE
  5
70
330
17
100
AcDbEntity
  8
TANGENT
100
AcDbPolyline
 90
2
 70
0
 10
39.6
 20
234.4
 10
90.0
 20
234.4
  0
LWPOLYLINE
  5
71
330
17
100
AcDbEntity
  8
TANGENT
100
AcDbPolyline
 90
15
 70
0
 10
90.0
 20
236.0
 10
90.0
 20
235.9899396
 10
90.0
 20
235.9598848
 10
90.0
 20
235.9102132
 10
90.0
 20
235.84154999999998
 10
90.0
 20
235.7547588
 10
90.0
 20
235.6509304
 10
90.0
 20
235.5313708
 10
90.0
 20
235.3975836
 10
90.0
 20
235.2512512
 10
90.0
 20
235.094214
 10
90.0
 20
234.92844639999998
 10
90.0
 20
234.7560336
 10
90.0
 20
234.5791432
 10
90.0
 20
234.4
  0
LWPOLYLINE
  5
72
330
17
100
AcDbEntity
  8
TANGENT
100
AcDbPolyline
 90
5
 70
0
 10
39.6
 20
236.0
 10
38.9877064
 20
235.8782072
 10
38.4686292
 20
235.5313708
 10
38.1217928
 20
235.0122936
 10
38.0
 20
234.4
  0
LWPOLYLINE
  5
73
330
17
100
AcDbEntity
  8
TANGENT
100
AcDbPolyline
 90
15
 70
0
 10
90.0
 20
149.6
 10
90.1791432
 20
149.6
 10
90.3560336
 20
149.6
 10
90.5284464
 20
149.6
 10
90.694214
 20
149.6
 10
90.85125120000001
 20
149.6
 10
90.9975836
 20
149.6
 10
91.1313708
 20
149.6
 10
91.2509304
 20
149.6
 10
91.3547588
 20
149.6
 10
91.44155
 20
149.6
 10
91.51021320000001
 20
149.6
 10
91.55988479999999
 20
149.6
 10
91.58993960000001
 20
149.6
 10
91.6
 20
149.6
  0
LWPOLYLINE
  5
74
330
17
100
AcDbEntity
  8
TANGENT
100
AcDbPolyline
 90
15
 70
0
 10
39.6
 20
149.6
 10
39.4208568
 20
149.6
 10
39.2439664
 20
149.6
 10
39.0715536
 20
149.6
 10
38.905786
 20
149.6
 10
38.7487488
 20
149.6
 10
38.6024164
 20
149.6
 10
38.4686292
 20
149.6
 10
38.3490696
 20
149.6
 10
38.2452412
 20
149.6
 10
38.15845
 20
149.6
 10
38.0897868
 20
149.6
 10
38.0401152
 20
149.6
 10
38.0100604
 20
149.6
 10
38.0
 20
149.6
  0
LWPOLYLINE
  5
75
330
17
100
AcDbEntity
  8
TANGENT
100
AcDbPolyline
 90
2
 70
0
 10
39.6
 20
149.6
 10
39.6
 20
234.4
  0
LWPOLYLINE
  5
76
330
17
100
AcDbEntity
  8
TANGENT
100
AcDbPolyline
 90
2
 70
0
 10
90.0
 20
149.6
 10
90.0
 20
234.4
  0
LWPOLYLINE
  5
77
330
17
100
AcDbEntity
  8
TANGENT
100
AcDbPolyline
 90
15
 70
0
 10
91.6
 20
234.4
 10
91.58993960000001
 20
234.4
 10
91.55988479999999
 20
234.4
 10
91.51021320000001
 20
234.4
 10
91.44155
 20
234.4
 10
91.3547588
 20
234.4
 10
91.2509304
 20
234.4
 10
91.1313708
 20
234.4
 10
90.9975836
 20
234.4
 10
90.85125120000001
 20
234.4
 10
90.694214
 20
234.4
 10
90.5284464
 20
234.4
 10
90.3560336
 20
234.4
 10
90.1791432
 20
234.4
 10
90.0
 20
234.4
  0
LWPOLYLINE
  5
78
330
17
100
AcDbEntity
  8
TANGENT
100
AcDbPolyline
 90
15
 70
0
 10
38.0
 20
234.4
 10
38.0100604
 20
234.4
 10
38.0401152
 20
234.4
 10
38.0897868
 20
234.4
 10
38.15845
 20
234.4
 10
38.2452412
 20
234.4
 10
38.3490696
 20
234.4
 10
38.4686292
 20
234.4
 10
38.6024164
 20
234.4
 10
38.7487488
 20
234.4
 10
38.905786
 20
234.4
 10
39.0715536
 20
234.4
 10
39.2439664
 20
234.4
 10
39.4208568
 20
234.4
 10
39.6
 20
234.4
  0
LWPOLYLINE
  5
79
330
17
100
AcDbEntity
  8
OUTLINE
100
AcDbPolyline
 90
2
 70
0
 10
39.6
 20
148.0
 10
90.0
 20
148.0
  0
LWPOLYLINE
  5
7A
330
17
100
AcDbEntity
  8
OUTLINE
100
AcDbPolyline
 90
2
 70
0
 10
39.6
 20
236.0
 10
90.0
 20
236.0
  0
LWPOLYLINE
  5
7B
330
17
100
AcDbEntity
  8
OUTLINE
100
AcDbPolyline
 90
34
 70
0
 10
76.4
 20
170.0
 10
76.2771152
 20
171.28690840000002
 10
75.912902
 20
172.5273048
 10
75.320524
 20
173.6763576
 10
74.5213916
 20
174.6925372
 10
73.5443868
 20
175.5391164
 10
72.424822
 20
176.1854976
 10
71.2031608
 20
176.6083188
 10
69.9235572
 20
176.792298
 10
68.6322592
 20
176.730786
 10
67.375938
 20
176.4260056
 10
66.2
 20
175.8889728
 10
65.1469472
 20
175.1390972
 10
64.2548388
 20
174.2034812
 10
63.5559188
 20
173.1159404
 10
63.075447600000004
 20
171.9157812
 10
62.8307908
 20
170.6463812
 10
62.8307908
 20
169.3536188
 10
63.075447600000004
 20
168.0842188
 10
63.5559188
 20
166.8840596
 10
64.2548388
 20
165.7965188
 10
65.1469472
 20
164.8609028
 10
66.2
 20
164.1110272
 10
67.375938
 20
163.5739944
 10
68.6322592
 20
163.269214
 10
69.9235572
 20
163.207702
 10
71.2031608
 20
163.3916812
 10
72.424822
 20
163.8145024
 10
73.5443868
 20
164.4608836
 10
74.5213916
 20
165.3074628
 10
75.320524
 20
166.3236424
 10
75.912902
 20
167.4726952
 10
76.2771152
 20
168.71309159999998
 10
76.4
 20
170.0
  0
LWPOLYLINE
  5
7C
330
17
100
AcDbEntity
  8
OUTLINE
100
AcDbPolyline
 90
34
 70
0
 10
76.4
 20
214.0
 10
76.2771152
 20
215.28690840000002
 10
75.912902
 20
216.5273048
 10
75.320524
 20
217.6763576
 10
74.5213916
 20
218.6925372
 10
73.5443868
 20
219.5391164
 10
72.424822
 20
220.1854976
 10
71.2031608
 20
220.6083188
 10
69.9235572
 20
220.792298
 10
68.6322592
 20
220.730786
 10
67.375938
 20
220.4260056
 10
66.2
 20
219.8889728
 10
65.1469472
 20
219.1390972
 10
64.2548388
 20
218.2034812
 10
63.5559188
 20
217.1159404
 10
63.075447600000004
 20
215.9157812
 10
62.8307908
 20
214.6463812
 10
62.8307908
 20
213.3536188
 10
63.075447600000004
 20
212.0842188
 10
63.5559188
 20
210.8840596
 10
64.2548388
 20
209.7965188
 10
65.1469472
 20
208.8609028
 10
66.2
 20
208.1110272
 10
67.375938
 20
207.5739944
 10
68.6322592
 20
207.269214
 10
69.9235572
 20
207.207702
 10
71.2031608
 20
207.3916812
 10
72.424822
 20
207.8145024
 10
73.5443868
 20
208.4608836
 10
74.5213916
 20
209.3074628
 10
75.320524
 20
210.3236424
 10
75.912902
 20
211.4726952
 10
76.2771152
 20
212.71309159999998
 10
76.4
 20
214.0
  0
LWPOLYLINE
  5
7D
330
17
100
AcDbEntity
  8
OUTLINE
100
AcDbPolyline
 90
2
 70
0
 10
91.6
 20
149.6
 10
91.6
 20
234.4
  0
LWPOLYLINE
  5
7E
330
17
100
AcDbEntity
  8
OUTLINE
100
AcDbPolyline
 90
5
 70
0
 10
91.6
 20
149.6
 10
91.4782072
 20
148.9877064
 10
91.1313708
 20
148.4686292
 10
90.6122936
 20
148.1217928
 10
90.0
 20
148.0
  0
LWPOLYLINE
  5
7F
330
17
100
AcDbEntity
  8
OUTLINE
100
AcDbPolyline
 90
5
 70
0
 10
38.0
 20
149.6
 10
38.1217928
 20
148.9877064
 10
38.4686292
 20
148.4686292
 10
38.9877064
 20
148.1217928
 10
39.6
 20
148.0
  0
LWPOLYLINE
  5
80
330
17
100
AcDbEntity
  8
OUTLINE
100
AcDbPolyline
 90
2
 70
0
 10
38.0
 20
149.6
 10
38.0
 20
234.4
  0
LWPOLYLINE
  5
81
330
17
100
AcDbEntity
  8
OUTLINE
100
AcDbPolyline
 90
5
 70
0
 10
91.6
 20
234.4
 10
91.4782072
 20
235.0122936
 10
91.1313708
 20
235.5313708
 10
90.6122936
 20
235.8782072
 10
90.0
 20
236.0
  0
LWPOLYLINE
  5
82
330
17
100
AcDbEntity
  8
OUTLINE
100
AcDbPolyline
 90
5
 70
0
 10
90.0
 20
236.0
 10
90.6122936
 20
235.8782072
 10
91.1313708
 20
235.5313708
 10
91.4782072
 20
235.0122936
 10
91.6
 20
234.4
  0
LWPOLYLINE
  5
83
330
17
100
AcDbEntity
  8
OUTLINE
100
AcDbPolyline
 90
5
 70
0
 10
39.6
 20
236.0
 10
38.9877064
 20
235.8782072
 10
38.4686292
 20
235.5313708
 10
38.1217928
 20
235.0122936
 10
38.0
 20
234.4
  0
LINE
  5
84
330
17
100
AcDbEntity
  8
DIM
100
AcDbLine
 10
38.0
 20
236.0
 30
0.0
 11
38.0
 21
247.5
 31
0.0
  0
LINE
  5
85
330
17
100
AcDbEntity
  8
DIM
100
AcDbLine
 10
91.6
 20
236.0
 30
0.0
 11
91.6
 21
247.5
 31
0.0
  0
LINE
  5
86
330
17
100
AcDbEntity
  8
DIM
100
AcDbLine
 10
38.0
 20
246.0
 30
0.0
 11
91.6
 21
246.0
 31
0.0
  0
LINE
  5
87
330
17
100
AcDbEntity
  8
DIM
100
AcDbLine
 10
38.0
 20
246.0
 30
0.0
 11
39.87874542569476
 21
245.31420438508908
 31
0.0
  0
LINE
  5
88
330
17
100
AcDbEntity
  8
DIM
100
AcDbLine
 10
38.0
 20
246.0
 30
0.0
 11
39.87874542569476
 21
246.68579561491092
 31
0.0
  0
LINE
  5
89
330
17
100
AcDbEntity
  8
DIM
100
AcDbLine
 10
91.6
 20
246.0
 30
0.0
 11
89.72125457430523
 21
246.68579561491092
 31
0.0
  0
LINE
  5
8A
330
17
100
AcDbEntity
  8
DIM
100
AcDbLine
 10
91.6
 20
246.0
 30
0.0
 11
89.72125457430523
 21
245.31420438508908
 31
0.0
  0
TEXT
  5
8B
330
17
100
AcDbEntity
  8
TEXT
100
AcDbText
 10
64.8
 20
247.8
 30
0.0
 40
2.8
  1
13.40±0.03
  7
CJK
 72
1
 11
64.8
 21
247.8
 31
0.0
100
AcDbText
  0
LINE
  5
8C
330
17
100
AcDbEntity
  8
DIM
100
AcDbLine
 10
91.6
 20
148.0
 30
0.0
 11
108.5
 21
148.0
 31
0.0
  0
LINE
  5
8D
330
17
100
AcDbEntity
  8
DIM
100
AcDbLine
 10
91.6
 20
236.0
 30
0.0
 11
108.5
 21
236.0
 31
0.0
  0
LINE
  5
8E
330
17
100
AcDbEntity
  8
DIM
100
AcDbLine
 10
107.0
 20
148.0
 30
0.0
 11
107.0
 21
236.0
 31
0.0
  0
LINE
  5
8F
330
17
100
AcDbEntity
  8
DIM
100
AcDbLine
 10
107.0
 20
148.0
 30
0.0
 11
107.6857956149109
 21
149.87874542569475
 31
0.0
  0
LINE
  5
90
330
17
100
AcDbEntity
  8
DIM
100
AcDbLine
 10
107.0
 20
148.0
 30
0.0
 11
106.3142043850891
 21
149.87874542569475
 31
0.0
  0
LINE
  5
91
330
17
100
AcDbEntity
  8
DIM
100
AcDbLine
 10
107.0
 20
236.0
 30
0.0
 11
106.3142043850891
 21
234.12125457430525
 31
0.0
  0
LINE
  5
92
330
17
100
AcDbEntity
  8
DIM
100
AcDbLine
 10
107.0
 20
236.0
 30
0.0
 11
107.6857956149109
 21
234.12125457430525
 31
0.0
  0
TEXT
  5
93
330
17
100
AcDbEntity
  8
TEXT
100
AcDbText
 10
105.2
 20
192.0
 30
0.0
 40
2.8
  1
22±0.05
 50
90.0
  7
CJK
 72
1
 11
105.2
 21
192.0
 31
0.0
100
AcDbText
  0
LINE
  5
94
330
17
100
AcDbEntity
  8
DIM
100
AcDbLine
 10
38.0
 20
148.0
 30
0.0
 11
38.0
 21
134.5
 31
0.0
  0
LINE
  5
95
330
17
100
AcDbEntity
  8
DIM
100
AcDbLine
 10
69.6
 20
170.0
 30
0.0
 11
69.6
 21
134.5
 31
0.0
  0
LINE
  5
96
330
17
100
AcDbEntity
  8
DIM
100
AcDbLine
 10
38.0
 20
133.0
 30
0.0
 11
69.6
 21
133.0
 31
0.0
  0
LINE
  5
97
330
17
100
AcDbEntity
  8
DIM
100
AcDbLine
 10
38.0
 20
133.0
 30
0.0
 11
39.87874542569476
 21
132.31420438508908
 31
0.0
  0
LINE
  5
98
330
17
100
AcDbEntity
  8
DIM
100
AcDbLine
 10
38.0
 20
133.0
 30
0.0
 11
39.87874542569476
 21
133.68579561491092
 31
0.0
  0
LINE
  5
99
330
17
100
AcDbEntity
  8
DIM
100
AcDbLine
 10
69.6
 20
133.0
 30
0.0
 11
67.72125457430523
 21
133.68579561491092
 31
0.0
  0
LINE
  5
9A
330
17
100
AcDbEntity
  8
DIM
100
AcDbLine
 10
69.6
 20
133.0
 30
0.0
 11
67.72125457430523
 21
132.31420438508908
 31
0.0
  0
TEXT
  5
9B
330
17
100
AcDbEntity
  8
TEXT
100
AcDbText
 10
53.8
 20
134.8
 30
0.0
 40
2.8
  1
7.90±0.02
  7
CJK
 72
1
 11
53.8
 21
134.8
 31
0.0
100
AcDbText
  0
LINE
  5
9C
330
17
100
AcDbEntity
  8
DIM
100
AcDbLine
 10
69.6
 20
170.0
 30
0.0
 11
120.5
 21
170.0
 31
0.0
  0
LINE
  5
9D
330
17
100
AcDbEntity
  8
DIM
100
AcDbLine
 10
69.6
 20
214.0
 30
0.0
 11
120.5
 21
214.0
 31
0.0
  0
LINE
  5
9E
330
17
100
AcDbEntity
  8
DIM
100
AcDbLine
 10
119.0
 20
170.0
 30
0.0
 11
119.0
 21
214.0
 31
0.0
  0
LINE
  5
9F
330
17
100
AcDbEntity
  8
DIM
100
AcDbLine
 10
119.0
 20
170.0
 30
0.0
 11
119.6857956149109
 21
171.87874542569475
 31
0.0
  0
LINE
  5
A0
330
17
100
AcDbEntity
  8
DIM
100
AcDbLine
 10
119.0
 20
170.0
 30
0.0
 11
118.3142043850891
 21
171.87874542569475
 31
0.0
  0
LINE
  5
A1
330
17
100
AcDbEntity
  8
DIM
100
AcDbLine
 10
119.0
 20
214.0
 30
0.0
 11
118.3142043850891
 21
212.12125457430525
 31
0.0
  0
LINE
  5
A2
330
17
100
AcDbEntity
  8
DIM
100
AcDbLine
 10
119.0
 20
214.0
 30
0.0
 11
119.6857956149109
 21
212.12125457430525
 31
0.0
  0
TEXT
  5
A3
330
17
100
AcDbEntity
  8
TEXT
100
AcDbText
 10
117.2
 20
192.0
 30
0.0
 40
2.8
  1
11±0.03
 50
90.0
  7
CJK
 72
1
 11
117.2
 21
192.0
 31
0.0
100
AcDbText
  0
LWPOLYLINE
  5
A4
330
17
100
AcDbEntity
  8
DIM
100
AcDbPolyline
 90
3
 70
0
 10
69.6
 20
214.0
 10
133.0
 20
231.0
 10
136.0
 20
231.0
  0
LINE
  5
A5
330
17
100
AcDbEntity
  8
DIM
100
AcDbLine
 10
69.6
 20
214.0
 30
0.0
 11
71.59225682748313
 21
213.8241798266784
 31
0.0
  0
LINE
  5
A6
330
17
100
AcDbEntity
  8
DIM
100
AcDbLine
 10
69.6
 20
214.0
 30
0.0
 11
71.23702853499161
 21
215.14897239985268
 31
0.0
  0
TEXT
  5
A7
330
17
100
AcDbEntity
  8
TEXT
100
AcDbText
 10
137.0
 20
232.0
 30
0.0
 40
2.8
  1
2× Ø3.4 +0.10/0 通孔
  7
CJK
 11
137.0
 21
232.0
 31
0.0
100
AcDbText
  0
TEXT
  5
A8
330
17
100
AcDbEntity
  8
TEXT
100
AcDbText
 10
135.0
 20
216.0
 30
0.0
 40
2.7
  1
原点：内缘理论面/底面
  7
CJK
 11
135.0
 21
216.0
 31
0.0
100
AcDbText
  0
TEXT
  5
A9
330
17
100
AcDbEntity
  8
TEXT
100
AcDbText
 10
135.0
 20
209.0
 30
0.0
 40
2.7
  1
U=0 → 总装R148.60
  7
CJK
 11
135.0
 21
209.0
 31
0.0
100
AcDbText
  0
TEXT
  5
AA
330
17
100
AcDbEntity
  8
TEXT
100
AcDbText
 10
135.0
 20
202.0
 30
0.0
 40
2.7
  1
孔 (U,V)=(7.90,±5.50)
  7
CJK
 11
135.0
 21
202.0
 31
0.0
100
AcDbText
  0
TEXT
  5
AB
330
17
100
AcDbEntity
  8
TEXT
100
AcDbText
 10
135.0
 20
195.0
 30
0.0
 40
2.7
  1
槽中心 (7.90,0)
  7
CJK
 11
135.0
 21
195.0
 31
0.0
100
AcDbText
  0
TEXT
  5
AC
330
17
100
AcDbEntity
  8
TEXT
100
AcDbText
 10
135.0
 20
188.0
 30
0.0
 40
2.7
  1
底槽7.04×4.04 +0.02/0
  7
CJK
 11
135.0
 21
188.0
 31
0.0
100
AcDbText
  0
TEXT
  5
AD
330
17
100
AcDbEntity
  8
TEXT
100
AcDbText
 10
135.0
 20
181.0
 30
0.0
 40
2.7
  1
底槽深2.05 +0.03/0
  7
CJK
 11
135.0
 21
181.0
 31
0.0
100
AcDbText
  0
TEXT
  5
AE
330
17
100
AcDbEntity
  8
TEXT
100
AcDbText
 10
135.0
 20
174.0
 30
0.0
 40
2.7
  1
底槽竖角R0.50±0.05
  7
CJK
 11
135.0
 21
174.0
 31
0.0
100
AcDbText
  0
TEXT
  5
AF
330
17
100
AcDbEntity
  8
TEXT
100
AcDbText
 10
135.0
 20
167.0
 30
0.0
 40
2.7
  1
外轮廓圆角R0.40±0.10
  7
CJK
 11
135.0
 21
167.0
 31
0.0
100
AcDbText
  0
LWPOLYLINE
  5
B0
330
17
100
AcDbEntity
  8
OUTLINE
100
AcDbPolyline
 90
2
 70
0
 10
279.0
 20
209.4
 10
279.0
 20
191.4
  0
LWPOLYLINE
  5
B1
330
17
100
AcDbEntity
  8
OUTLINE
100
AcDbPolyline
 90
2
 70
0
 10
279.0
 20
209.4
 10
288.6
 20
209.4
  0
LWPOLYLINE
  5
B2
330
17
100
AcDbEntity
  8
OUTLINE
100
AcDbPolyline
 90
5
 70
0
 10
281.4
 20
189.0
 10
280.4815596
 20
189.1826892
 10
279.7029438
 20
189.7029438
 10
279.1826892
 20
190.4815596
 10
279.0
 20
191.4
  0
LWPOLYLINE
  5
B3
330
17
100
AcDbEntity
  8
OUTLINE
100
AcDbPolyline
 90
2
 70
0
 10
288.6
 20
216.6
 10
288.6
 20
209.4
  0
LWPOLYLINE
  5
B4
330
17
100
AcDbEntity
  8
OUTLINE
100
AcDbPolyline
 90
2
 70
0
 10
281.4
 20
189.0
 10
305.28
 20
189.0
  0
LWPOLYLINE
  5
B5
330
17
100
AcDbEntity
  8
OUTLINE
100
AcDbPolyline
 90
2
 70
0
 10
279.0
 20
216.6
 10
288.6
 20
216.6
  0
LWPOLYLINE
  5
B6
330
17
100
AcDbEntity
  8
OUTLINE
100
AcDbPolyline
 90
2
 70
0
 10
305.28
 20
201.3
 10
305.28
 20
189.0
  0
LWPOLYLINE
  5
B7
330
17
100
AcDbEntity
  8
OUTLINE
100
AcDbPolyline
 90
2
 70
0
 10
347.52
 20
189.0
 10
357.0
 20
189.0
  0
LWPOLYLINE
  5
B8
330
17
100
AcDbEntity
  8
OUTLINE
100
AcDbPolyline
 90
2
 70
0
 10
347.52
 20
201.3
 10
347.52
 20
189.0
  0
LWPOLYLINE
  5
B9
330
17
100
AcDbEntity
  8
OUTLINE
100
AcDbPolyline
 90
5
 70
0
 10
359.4
 20
191.4
 10
359.2173108
 20
190.4815596
 10
358.6970562
 20
189.7029438
 10
357.9184404
 20
189.1826892
 10
357.0
 20
189.0
  0
LWPOLYLINE
  5
BA
330
17
100
AcDbEntity
  8
OUTLINE
100
AcDbPolyline
 90
2
 70
0
 10
279.0
 20
234.6
 10
279.0
 20
216.6
  0
LWPOLYLINE
  5
BB
330
17
100
AcDbEntity
  8
OUTLINE
100
AcDbPolyline
 90
2
 70
0
 10
359.4
 20
234.6
 10
359.4
 20
191.4
  0
LWPOLYLINE
  5
BC
330
17
100
AcDbEntity
  8
OUTLINE
100
AcDbPolyline
 90
2
 70
0
 10
305.28
 20
201.3
 10
347.52
 20
201.3
  0
LWPOLYLINE
  5
BD
330
17
100
AcDbEntity
  8
OUTLINE
100
AcDbPolyline
 90
5
 70
0
 10
357.0
 20
237.0
 10
357.9184404
 20
236.8173108
 10
358.6970562
 20
236.2970562
 10
359.2173108
 20
235.5184404
 10
359.4
 20
234.6
  0
LWPOLYLINE
  5
BE
330
17
100
AcDbEntity
  8
OUTLINE
100
AcDbPolyline
 90
2
 70
0
 10
281.4
 20
237.0
 10
357.0
 20
237.0
  0
LWPOLYLINE
  5
BF
330
17
100
AcDbEntity
  8
OUTLINE
100
AcDbPolyline
 90
5
 70
0
 10
279.0
 20
234.6
 10
279.1826892
 20
235.5184404
 10
279.7029438
 20
236.2970562
 10
280.4815596
 20
236.8173108
 10
281.4
 20
237.0
  0
TEXT
  5
C0
330
17
100
AcDbEntity
  8
TEXT
100
AcDbText
 10
319.0
 20
256.0
 30
0.0
 40
3.0
  1
V=0 真实剖面 | 6:1
  7
CJK
 72
1
 11
319.0
 21
256.0
 31
0.0
100
AcDbText
  0
LINE
  5
C1
330
17
100
AcDbEntity
  8
DIM
100
AcDbLine
 10
279.0
 20
237.0
 30
0.0
 11
279.0
 21
246.5
 31
0.0
  0
LINE
  5
C2
330
17
100
AcDbEntity
  8
DIM
100
AcDbLine
 10
359.4
 20
237.0
 30
0.0
 11
359.4
 21
246.5
 31
0.0
  0
LINE
  5
C3
330
17
100
AcDbEntity
  8
DIM
100
AcDbLine
 10
279.0
 20
245.0
 30
0.0
 11
359.4
 21
245.0
 31
0.0
  0
LINE
  5
C4
330
17
100
AcDbEntity
  8
DIM
100
AcDbLine
 10
279.0
 20
245.0
 30
0.0
 11
280.8787454256948
 21
244.31420438508908
 31
0.0
  0
LINE
  5
C5
330
17
100
AcDbEntity
  8
DIM
100
AcDbLine
 10
279.0
 20
245.0
 30
0.0
 11
280.8787454256948
 21
245.68579561491092
 31
0.0
  0
LINE
  5
C6
330
17
100
AcDbEntity
  8
DIM
100
AcDbLine
 10
359.4
 20
245.0
 30
0.0
 11
357.5212545743052
 21
245.68579561491092
 31
0.0
  0
LINE
  5
C7
330
17
100
AcDbEntity
  8
DIM
100
AcDbLine
 10
359.4
 20
245.0
 30
0.0
 11
357.5212545743052
 21
244.31420438508908
 31
0.0
  0
TEXT
  5
C8
330
17
100
AcDbEntity
  8
TEXT
100
AcDbText
 10
319.2
 20
246.8
 30
0.0
 40
2.8
  1
13.40±0.03
  7
CJK
 72
1
 11
319.2
 21
246.8
 31
0.0
100
AcDbText
  0
LINE
  5
C9
330
17
100
AcDbEntity
  8
DIM
100
AcDbLine
 10
359.4
 20
189.0
 30
0.0
 11
377.5
 21
189.0
 31
0.0
  0
LINE
  5
CA
330
17
100
AcDbEntity
  8
DIM
100
AcDbLine
 10
359.4
 20
237.0
 30
0.0
 11
377.5
 21
237.0
 31
0.0
  0
LINE
  5
CB
330
17
100
AcDbEntity
  8
DIM
100
AcDbLine
 10
376.0
 20
189.0
 30
0.0
 11
376.0
 21
237.0
 31
0.0
  0
LINE
  5
CC
330
17
100
AcDbEntity
  8
DIM
100
AcDbLine
 10
376.0
 20
189.0
 30
0.0
 11
376.6857956149109
 21
190.87874542569475
 31
0.0
  0
LINE
  5
CD
330
17
100
AcDbEntity
  8
DIM
100
AcDbLine
 10
376.0
 20
189.0
 30
0.0
 11
375.3142043850891
 21
190.87874542569475
 31
0.0
  0
LINE
  5
CE
330
17
100
AcDbEntity
  8
DIM
100
AcDbLine
 10
376.0
 20
237.0
 30
0.0
 11
375.3142043850891
 21
235.12125457430525
 31
0.0
  0
LINE
  5
CF
330
17
100
AcDbEntity
  8
DIM
100
AcDbLine
 10
376.0
 20
237.0
 30
0.0
 11
376.6857956149109
 21
235.12125457430525
 31
0.0
  0
TEXT
  5
D0
330
17
100
AcDbEntity
  8
TEXT
100
AcDbText
 10
374.2
 20
213.0
 30
0.0
 40
2.8
  1
8±0.03
 50
90.0
  7
CJK
 72
1
 11
374.2
 21
213.0
 31
0.0
100
AcDbText
  0
LWPOLYLINE
  5
D1
330
17
100
AcDbEntity
  8
DIM
100
AcDbPolyline
 90
3
 70
0
 10
288.6
 20
213.0
 10
303.0
 20
168.0
 10
306.0
 20
168.0
  0
LINE
  5
D2
330
17
100
AcDbEntity
  8
DIM
100
AcDbLine
 10
288.6
 20
213.0
 30
0.0
 11
288.5194276994745
 21
211.001623632949
 31
0.0
  0
LINE
  5
D3
330
17
100
AcDbEntity
  8
DIM
100
AcDbLine
 10
288.6
 20
213.0
 30
0.0
 11
289.8257643068436
 21
211.41965134730708
 31
0.0
  0
TEXT
  5
D4
330
17
100
AcDbEntity
  8
TEXT
100
AcDbText
 10
307.0
 20
169.0
 30
0.0
 40
2.8
  1
槽深1.60±0.02
  7
CJK
 11
307.0
 21
169.0
 31
0.0
100
AcDbText
  0
LWPOLYLINE
  5
D5
330
17
100
AcDbEntity
  8
DIM
100
AcDbPolyline
 90
3
 70
0
 10
280.8
 20
216.6
 10
248.0
 20
219.0
 10
251.0
 20
219.0
  0
LINE
  5
D6
330
17
100
AcDbEntity
  8
DIM
100
AcDbLine
 10
280.8
 20
216.6
 30
0.0
 11
278.9763102016606
 21
217.4210697409069
 31
0.0
  0
LINE
  5
D7
330
17
100
AcDbEntity
  8
DIM
100
AcDbLine
 10
280.8
 20
216.6
 30
0.0
 11
278.87621745616184
 21
216.05313555242316
 31
0.0
  0
TEXT
  5
D8
330
17
100
AcDbEntity
  8
TEXT
100
AcDbText
 10
252.0
 20
220.0
 30
0.0
 40
2.8
  1
槽高1.20±0.02
  7
CJK
 11
252.0
 21
220.0
 31
0.0
100
AcDbText
  0
LWPOLYLINE
  5
D9
330
17
100
AcDbEntity
  8
DIM
100
AcDbPolyline
 90
3
 70
0
 10
326.4
 20
201.3
 10
277.0
 20
147.0
 10
280.0
 20
147.0
  0
LINE
  5
DA
330
17
100
AcDbEntity
  8
DIM
100
AcDbLine
 10
326.4
 20
201.3
 30
0.0
 11
324.62843107289996
 21
200.3718063044097
 31
0.0
  0
LINE
  5
DB
330
17
100
AcDbEntity
  8
DIM
100
AcDbLine
 10
326.4
 20
201.3
 30
0.0
 11
325.6429881427534
 21
199.4488022666425
 31
0.0
  0
TEXT
  5
DC
330
17
100
AcDbEntity
  8
TEXT
100
AcDbText
 10
281.0
 20
148.0
 30
0.0
 40
2.8
  1
定位槽深2.05 +0.03/0
  7
CJK
 11
281.0
 21
148.0
 31
0.0
100
AcDbText
  0
TEXT
  5
DD
330
17
100
AcDbEntity
  8
TEXT
100
AcDbText
 10
144.0
 20
115.0
 30
0.0
 40
2.65
  1
底面为A；U=0理论面为B；宽度中面V=0为C。
  7
CJK
 11
144.0
 21
115.0
 31
0.0
100
AcDbText
  0
TEXT
  5
DE
330
17
100
AcDbEntity
  8
TEXT
100
AcDbText
 10
144.0
 20
106.0
 30
0.0
 40
2.65
  1
下承托唇W=3.40±0.02；上唇下表面由槽高控制。
  7
CJK
 11
144.0
 21
106.0
 31
0.0
100
AcDbText
  0
TEXT
  5
DF
330
17
100
AcDbEntity
  8
TEXT
100
AcDbText
 10
144.0
 20
97.0
 30
0.0
 40
2.65
  1
接触面Ra≤0.4μm；承托面对A平行度0.02。
  7
CJK
 11
144.0
 21
97.0
 31
0.0
100
AcDbText
  0
TEXT
  5
E0
330
17
100
AcDbEntity
  8
TEXT
100
AcDbText
 10
144.0
 20
88.0
 30
0.0
 40
2.65
  1
接触边缘R0.05±0.02，不套用金属C0.2；不得削薄槽唇。
  7
CJK
 11
144.0
 21
88.0
 31
0.0
100
AcDbText
  0
TEXT
  5
E1
330
17
100
AcDbEntity
  8
TEXT
100
AcDbText
 10
144.0
 20
79.0
 30
0.0
 40
2.65
  1
底面平面度0.02；两孔位置度Ø0.08对A|B|C。
  7
CJK
 11
144.0
 21
79.0
 31
0.0
100
AcDbText
  0
TEXT
  5
E2
330
17
100
AcDbEntity
  8
TEXT
100
AcDbText
 10
144.0
 20
70.0
 30
0.0
 40
2.65
  1
4件同批同装夹；不可现场磨槽或以胶调整。
  7
CJK
 11
144.0
 21
70.0
 31
0.0
100
AcDbText
  0
LWPOLYLINE
  5
E3
330
17
100
AcDbEntity
  8
TANGENT
100
AcDbPolyline
 90
2
 70
0
 10
40.135951821244994
 20
88.49840021766188
 10
40.135951821244994
 20
81.41082575606254
  0
LWPOLYLINE
  5
E4
330
17
100
AcDbEntity
  8
TANGENT
100
AcDbPolyline
 90
2
 70
0
 10
75.20621514138105
 20
117.22627828647661
 10
75.20621514138105
 20
110.13870353646625
  0
LWPOLYLINE
  5
E5
330
17
100
AcDbEntity
  8
TANGENT
100
AcDbPolyline
 90
2
 70
0
 10
40.135951821244994
 20
88.49840021766188
 10
75.20621514138105
 20
117.22627828647661
  0
LWPOLYLINE
  5
E6
330
17
100
AcDbEntity
  8
TANGENT
100
AcDbPolyline
 90
3
 70
0
 10
40.135951821244994
 20
88.49840021766188
 10
39.980711699978926
 20
88.317840780441
 10
39.92731758908413
 20
88.11886283799164
  0
LWPOLYLINE
  5
E7
330
17
100
AcDbEntity
  8
TANGENT
100
AcDbPolyline
 90
2
 70
0
 10
76.81292818883554
 20
117.38877627132472
 10
76.81292818883554
 20
110.30120180972537
  0
LWPOLYLINE
  5
E8
330
17
100
AcDbEntity
  8
TANGENT
100
AcDbPolyline
 90
5
 70
0
 10
75.20621514138105
 20
117.22627828647661
 10
75.57169450219261
 20
117.41889272794947
 10
76.09868807782729
 20
117.50775735783886
 10
76.47298358701855
 20
117.48218654746549
 10
76.81292818883554
 20
117.38877627132472
  0
LWPOLYLINE
  5
E9
330
17
100
AcDbEntity
  8
TANGENT
100
AcDbPolyline
 90
3
 70
0
 10
40.349912139905726
 20
89.01130952903411
 10
40.179545725324076
 20
88.76460475243888
 10
40.135951821244994
 20
88.49840021766188
  0
LWPOLYLINE
  5
EA
330
17
100
AcDbEntity
  8
TANGENT
100
AcDbPolyline
 90
3
 70
0
 10
75.42017546004179
 20
117.73918759784884
 10
75.24980904546014
 20
117.49248253284259
 10
75.20621514138105
 20
117.22627828647661
  0
LWPOLYLINE
  5
EB
330
17
100
AcDbEntity
  8
TANGENT
100
AcDbPolyline
 90
2
 70
0
 10
76.81292818883554
 20
117.38877627132472
 10
106.5807414466926
 20
105.43335140741169
  0
LWPOLYLINE
  5
EC
330
17
100
AcDbEntity
  8
TANGENT
100
AcDbPolyline
 90
2
 70
0
 10
106.5807414466926
 20
105.43335140741169
 10
106.5807414466926
 20
88.42317252652667
  0
LWPOLYLINE
  5
ED
330
17
100
AcDbEntity
  8
TANGENT
100
AcDbPolyline
 90
2
 70
0
 10
76.81292818883554
 20
100.37859739043968
 10
106.5807414466926
 20
88.42317252652667
  0
LWPOLYLINE
  5
EE
330
17
100
AcDbEntity
  8
TANGENT
100
AcDbPolyline
 90
2
 70
0
 10
76.81292818883554
 20
107.46617185203903
 10
76.81292818883554
 20
100.37859739043968
  0
LWPOLYLINE
  5
EF
330
17
100
AcDbEntity
  8
TANGENT
100
AcDbPolyline
 90
3
 70
0
 10
76.58117492847143
 20
117.9172724684282
 10
76.73749716792385
 20
117.76516535618623
 10
76.81292818883554
 20
117.38877627132472
  0
LWPOLYLINE
  5
F0
330
17
100
AcDbEntity
  8
TANGENT
100
AcDbPolyline
 90
3
 70
0
 10
41.08096171100344
 20
70.16367406734818
 10
40.78903610370618
 20
70.0214796422238
 10
40.65101210208255
 20
70.03815239548481
  0
LWPOLYLINE
  5
F1
330
17
100
AcDbEntity
  8
TANGENT
100
AcDbPolyline
 90
2
 70
0
 10
41.08096171100344
 20
70.16367406734818
 10
70.8487749688605
 20
58.20824920343516
  0
LWPOLYLINE
  5
F2
330
17
100
AcDbEntity
  8
TANGENT
100
AcDbPolyline
 90
3
 70
0
 10
70.8487749688605
 20
58.20824920343516
 10
70.55684907315222
 20
58.066054778310786
 10
70.41882507152857
 20
58.08272753157179
  0
LWPOLYLINE
  5
F3
330
17
100
AcDbEntity
  8
TANGENT
100
AcDbPolyline
 90
2
 70
0
 10
40.135951821244994
 20
78.57579579837619
 10
40.135951821244994
 20
71.48822133677686
  0
LWPOLYLINE
  5
F4
330
17
100
AcDbEntity
  8
TANGENT
100
AcDbPolyline
 90
3
 70
0
 10
40.135951821244994
 20
71.48822133677686
 10
39.980711699978926
 20
71.307661899556
 10
39.92731758908413
 20
71.10868395710662
  0
LWPOLYLINE
  5
F5
330
17
100
AcDbEntity
  8
TANGENT
100
AcDbPolyline
 90
3
 70
0
 10
106.34898789791745
 20
105.96184760451517
 10
106.50531042578092
 20
105.8097404922732
 10
106.5807414466926
 20
105.43335140741169
  0
LWPOLYLINE
  5
F6
330
17
100
AcDbEntity
  8
TANGENT
100
AcDbPolyline
 90
3
 70
0
 10
107.07268241091586
 20
104.89131604289337
 10
106.98979308075596
 20
105.13760608442676
 10
106.5807414466926
 20
105.43335140741169
  0
LWPOLYLINE
  5
F7
330
17
100
AcDbEntity
  8
TANGENT
100
AcDbPolyline
 90
3
 70
0
 10
106.5807414466926
 20
88.42317252652667
 10
106.93641713975609
 20
88.19310935480115
 10
107.07268241091586
 20
87.88113716200834
  0
LWPOLYLINE
  5
F8
330
17
100
AcDbEntity
  8
TANGENT
100
AcDbPolyline
 90
5
 70
0
 10
76.81292818883554
 20
100.37859739043968
 10
76.7307849780115
 20
99.85528220908775
 10
76.47731436705223
 20
99.2813869432654
 10
76.31983559936758
 20
99.0608638316061
 10
76.1512250311395
 20
98.89155213616291
  0
LWPOLYLINE
  5
F9
330
17
100
AcDbEntity
  8
TANGENT
100
AcDbPolyline
 90
2
 70
0
 10
76.1512250311395
 20
98.89155213616291
 10
105.91903828899657
 20
86.9361272722499
  0
LWPOLYLINE
  5
FA
330
17
100
AcDbEntity
  8
TANGENT
100
AcDbPolyline
 90
5
 70
0
 10
106.5807414466926
 20
88.42317252652667
 10
106.49859823586856
 20
87.89985734517472
 10
106.24512762490932
 20
87.3259620793524
 10
106.08764856881362
 20
87.10543896769309
 10
105.91903828899657
 20
86.9361272722499
  0
LWPOLYLINE
  5
FB
330
17
100
AcDbEntity
  8
TANGENT
100
AcDbPolyline
 90
2
 70
0
 10
75.20621514138105
 20
107.30367386719092
 10
75.20621514138105
 20
100.21609940559159
  0
LWPOLYLINE
  5
FC
330
17
100
AcDbEntity
  8
TANGENT
100
AcDbPolyline
 90
5
 70
0
 10
76.81292818883554
 20
100.37859739043968
 10
76.30961315880326
 20
100.49199887715817
 10
75.74024017793883
 20
100.45485124802134
 10
75.44200240682851
 20
100.35845274519376
 10
75.20621514138105
 20
100.21609940559159
  0
LWPOLYLINE
  5
FD
330
17
100
AcDbEntity
  8
TANGENT
100
AcDbPolyline
 90
3
 70
0
 10
70.8487749688605
 20
58.20824920343516
 10
71.24910101560772
 20
58.13645187309648
 10
71.57982453995821
 20
58.26081240215114
  0
LWPOLYLINE
  5
FE
330
17
100
AcDbEntity
  8
TANGENT
100
AcDbPolyline
 90
5
 70
0
 10
41.08096171100344
 20
70.16367406734818
 10
40.680635664256215
 20
70.41343657768856
 10
40.34124336956259
 20
70.817672612776
 10
40.18874949812876
 20
71.15556632375524
 10
40.135951821244994
 20
71.48822133677686
  0
LWPOLYLINE
  5
FF
330
17
100
AcDbEntity
  8
TANGENT
100
AcDbPolyline
 90
2
 70
0
 10
41.08096171100344
 20
70.16367406734818
 10
76.1512250311395
 20
98.89155213616291
  0
LWPOLYLINE
  5
100
330
17
100
AcDbEntity
  8
TANGENT
100
AcDbPolyline
 90
2
 70
0
 10
70.8487749688605
 20
58.20824920343516
 10
105.91903828899657
 20
86.9361272722499
  0
LWPOLYLINE
  5
101
330
17
100
AcDbEntity
  8
TANGENT
100
AcDbPolyline
 90
2
 70
0
 10
40.135951821244994
 20
71.48822133677686
 10
75.20621514138105
 20
100.21609940559159
  0
LWPOLYLINE
  5
102
330
17
100
AcDbEntity
  8
TANGENT
100
AcDbPolyline
 90
3
 70
0
 10
106.65008786009426
 20
86.98869047096588
 10
106.37466974653756
 20
86.87022996636175
 10
105.91903828899657
 20
86.9361272722499
  0
LWPOLYLINE
  5
103
330
17
100
AcDbEntity
  8
TANGENT
100
AcDbPolyline
 90
5
 70
0
 10
75.20621514138105
 20
100.21609940559159
 10
75.2888823950475
 20
99.79636387331514
 10
75.54449157379776
 20
99.35572748207085
 10
75.93433272594291
 20
99.00388736730172
 10
76.1512250311395
 20
98.89155213616291
  0
LWPOLYLINE
  5
104
330
17
100
AcDbEntity
  8
OUTLINE
100
AcDbPolyline
 90
2
 70
0
 10
75.20621514138105
 20
110.13870353646625
 10
40.135951821244994
 20
81.41082575606254
  0
LWPOLYLINE
  5
105
330
17
100
AcDbEntity
  8
OUTLINE
100
AcDbPolyline
 90
3
 70
0
 10
40.135951821244994
 20
81.41082575606254
 10
39.980711699978926
 20
81.23026631884167
 10
39.92731758908413
 20
81.03128837639231
  0
LWPOLYLINE
  5
106
330
17
100
AcDbEntity
  8
OUTLINE
100
AcDbPolyline
 90
3
 70
0
 10
39.92731758908413
 20
81.03128837639231
 10
40.010206919244034
 20
80.78499833485891
 10
40.41925855330739
 20
80.48925301187398
  0
LWPOLYLINE
  5
107
330
17
100
AcDbEntity
  8
OUTLINE
100
AcDbPolyline
 90
2
 70
0
 10
77.32563763136365
 20
107.2602564706625
 10
79.6479581465219
 20
109.16258995912571
  0
LWPOLYLINE
  5
108
330
17
100
AcDbEntity
  8
OUTLINE
100
AcDbPolyline
 90
2
 70
0
 10
40.41925855330739
 20
80.48925301187398
 10
41.796569178707195
 20
79.93609392232108
  0
LWPOLYLINE
  5
109
330
17
100
AcDbEntity
  8
OUTLINE
100
AcDbPolyline
 90
5
 70
0
 10
76.81292818883554
 20
110.30120180972537
 10
76.30961315880326
 20
110.41460329644386
 10
75.74024017793883
 20
110.37745566730703
 10
75.44200240682851
 20
110.28105716447945
 10
75.20621514138105
 20
110.13870353646625
  0
LWPOLYLINE
  5
10A
330
17
100
AcDbEntity
  8
OUTLINE
100
AcDbPolyline
 90
2
 70
0
 10
76.81292818883554
 20
110.30120180972537
 10
79.6479581465219
 20
109.16258995912571
  0
LWPOLYLINE
  5
10B
330
17
100
AcDbEntity
  8
OUTLINE
100
AcDbPolyline
 90
2
 70
0
 10
79.6479581465219
 20
106.32756000143935
 10
79.6479581465219
 20
109.16258995912571
  0
LWPOLYLINE
  5
10C
330
17
100
AcDbEntity
  8
OUTLINE
100
AcDbPolyline
 90
2
 70
0
 10
76.81292818883554
 20
107.46617185203903
 10
79.6479581465219
 20
106.32756000143935
  0
LWPOLYLINE
  5
10D
330
17
100
AcDbEntity
  8
OUTLINE
100
AcDbPolyline
 90
3
 70
0
 10
40.135951821244994
 20
78.57579579837619
 10
39.980711699978926
 20
78.39523636115533
 10
39.92731758908413
 20
78.19625841870595
  0
LWPOLYLINE
  5
10E
330
17
100
AcDbEntity
  8
OUTLINE
100
AcDbPolyline
 90
2
 70
0
 10
75.20621514138105
 20
107.30367386719092
 10
40.135951821244994
 20
78.57579579837619
  0
LWPOLYLINE
  5
10F
330
17
100
AcDbEntity
  8
OUTLINE
100
AcDbPolyline
 90
5
 70
0
 10
76.81292818883554
 20
107.46617185203903
 10
76.30961315880326
 20
107.57957362716854
 10
75.74024017793883
 20
107.5424259980317
 10
75.44200240682851
 20
107.44602749520413
 10
75.20621514138105
 20
107.30367386719092
  0
LWPOLYLINE
  5
110
330
17
100
AcDbEntity
  8
OUTLINE
100
AcDbPolyline
 90
5
 70
0
 10
71.25290458027769
 20
68.34526790034357
 10
71.75155225460372
 20
68.86179417444905
 10
72.03931032251054
 20
69.39241105785965
 10
72.11446302677783
 20
69.67389820473073
 10
72.13959977855032
 20
69.95830147553102
  0
LWPOLYLINE
  5
111
330
17
100
AcDbEntity
  8
OUTLINE
100
AcDbPolyline
 90
17
 70
0
 10
72.13959977855032
 20
69.95830147553102
 10
72.05593750682873
 20
70.47559982596509
 10
71.80226529655917
 20
70.98339993593237
 10
71.36566089152099
 20
71.4747842668668
 10
70.73123766796493
 20
71.93084430319908
 10
69.89611266923033
 20
72.32087551821333
 10
68.88147603054861
 20
72.6075609854978
 10
67.73874480520061
 20
72.75575262958996
 10
66.54637775309598
 20
72.7425330215969
 10
65.39659891580717
 20
72.56499267104309
 10
64.37589583951033
 20
72.2422298679559
 10
63.54687159930348
 20
71.81026051658857
 10
62.938820391963475
 20
71.31178012066022
 10
62.550194027078696
 20
70.78488258589867
 10
62.360972741379435
 20
70.25491578095077
 10
62.34046671711232
 20
70.1068158515663
 10
62.333624742236246
 20
69.95830147553102
  0
LWPOLYLINE
  5
112
330
17
100
AcDbEntity
  8
OUTLINE
100
AcDbPolyline
 90
14
 70
0
 10
62.333624742236246
 20
69.95830147553102
 10
62.41728730236886
 20
69.44100312509694
 10
62.670959512638426
 20
68.93320301512966
 10
63.10756391767661
 20
68.44181868419523
 10
63.74198714123266
 20
67.98575864786294
 10
64.57711213996726
 20
67.59572743284869
 10
65.59174877864899
 20
67.30904196556423
 10
66.73448000399699
 20
67.16085032147205
 10
67.92684705610161
 20
67.17407021787616
 10
69.07662589339041
 20
67.35161028001895
 10
70.09732896968725
 20
67.67437308310612
 10
70.92635320989412
 20
68.10634243447346
 10
71.0952542080299
 20
68.2232758026712
 10
71.25290458027769
 20
68.34526790034357
  0
LWPOLYLINE
  5
113
330
17
100
AcDbEntity
  8
OUTLINE
100
AcDbPolyline
 90
5
 70
0
 10
89.44973939804177
 20
83.25124229926925
 10
89.94838707236781
 20
83.76776857337474
 10
90.23614514027463
 20
84.29838574519637
 10
90.3112978445419
 20
84.57987260365644
 10
90.3364345963144
 20
84.86427587445671
  0
LWPOLYLINE
  5
114
330
17
100
AcDbEntity
  8
OUTLINE
100
AcDbPolyline
 90
17
 70
0
 10
90.3364345963144
 20
84.86427587445671
 10
90.25277232459281
 20
85.38157451330181
 10
89.99910011432326
 20
85.88937433485806
 10
89.56249570928506
 20
86.38075866579248
 10
88.92807248572902
 20
86.83681870212479
 10
88.09294748699442
 20
87.22684991713902
 10
87.0783108483127
 20
87.51353538442349
 10
85.93557962296468
 20
87.66172702851566
 10
84.74321257086007
 20
87.64850742052259
 10
83.59343373357126
 20
87.4709670699688
 10
82.5727306572744
 20
87.1482042668816
 10
81.74370641706756
 20
86.7162352039253
 10
81.13565520972755
 20
86.21775480799693
 10
80.74702884484277
 20
85.69085698482436
 10
80.55780755914351
 20
85.16089017987647
 10
80.5373015348764
 20
85.01279025049199
 10
80.53045956000032
 20
84.86427587445671
  0
LWPOLYLINE
  5
115
330
17
100
AcDbEntity
  8
OUTLINE
100
AcDbPolyline
 90
14
 70
0
 10
80.53045956000032
 20
84.86427587445671
 10
80.61412212013295
 20
84.34697752402263
 10
80.8677943304025
 20
83.83917741405536
 10
81.30439873544069
 20
83.34779308312093
 10
81.93882195899674
 20
82.89173333519966
 10
82.77394695773134
 20
82.5017018317744
 10
83.78858359641306
 20
82.21501636448993
 10
84.93131482176108
 20
82.06682472039776
 10
86.12368187386568
 20
82.08004461680186
 10
87.2734607111545
 20
82.25758467894462
 10
88.29416378745134
 20
82.58034777044284
 10
89.12318802765819
 20
83.01231683339915
 10
89.29208902579397
 20
83.1292502015969
 10
89.44973939804177
 20
83.25124229926925
  0
LWPOLYLINE
  5
116
330
17
100
AcDbEntity
  8
OUTLINE
100
AcDbPolyline
 90
2
 70
0
 10
39.92731758908413
 20
88.11886283799164
 10
39.92731758908413
 20
81.03128837639231
  0
LWPOLYLINE
  5
117
330
17
100
AcDbEntity
  8
OUTLINE
100
AcDbPolyline
 90
2
 70
0
 10
40.349912139905726
 20
89.01130952903411
 10
75.42017546004179
 20
117.73918759784884
  0
LWPOLYLINE
  5
118
330
17
100
AcDbEntity
  8
OUTLINE
100
AcDbPolyline
 90
4
 70
0
 10
40.349912139905726
 20
89.01130952903411
 10
40.12213202989749
 20
88.76037693514307
 10
39.97709502565671
 20
88.45408413236247
 10
39.92731758908413
 20
88.11886283799164
  0
LWPOLYLINE
  5
119
330
17
100
AcDbEntity
  8
OUTLINE
100
AcDbPolyline
 90
4
 70
0
 10
76.58117492847143
 20
117.9172724684282
 10
76.18102365880867
 20
118.0
 10
75.77713429377988
 20
117.93804786859778
 10
75.42017546004179
 20
117.73918759784884
  0
LWPOLYLINE
  5
11A
330
17
100
AcDbEntity
  8
OUTLINE
100
AcDbPolyline
 90
2
 70
0
 10
40.65101210208255
 20
70.03815239548481
 10
70.41882507152857
 20
58.08272753157179
  0
LWPOLYLINE
  5
11B
330
17
100
AcDbEntity
  8
OUTLINE
100
AcDbPolyline
 90
2
 70
0
 10
39.92731758908413
 20
78.19625841870595
 10
39.92731758908413
 20
71.10868395710662
  0
LWPOLYLINE
  5
11C
330
17
100
AcDbEntity
  8
OUTLINE
100
AcDbPolyline
 90
2
 70
0
 10
76.58117492847143
 20
117.9172724684282
 10
106.34898789791745
 20
105.96184760451517
  0
LWPOLYLINE
  5
11D
330
17
100
AcDbEntity
  8
OUTLINE
100
AcDbPolyline
 90
2
 70
0
 10
107.07268241091586
 20
104.89131604289337
 10
107.07268241091586
 20
87.88113716200834
  0
LWPOLYLINE
  5
11E
330
17
100
AcDbEntity
  8
OUTLINE
100
AcDbPolyline
 90
4
 70
0
 10
70.41882507152857
 20
58.08272753157179
 10
70.81897634119133
 20
57.99999999999999
 10
71.22286570622012
 20
58.06195213140221
 10
71.57982453995821
 20
58.26081240215114
  0
LWPOLYLINE
  5
11F
330
17
100
AcDbEntity
  8
OUTLINE
100
AcDbPolyline
 90
4
 70
0
 10
39.92731758908413
 20
71.10868395710662
 10
40.01672904628731
 20
70.66337126941413
 10
40.27110382582711
 20
70.2870851472905
 10
40.65101210208255
 20
70.03815239548481
  0
LWPOLYLINE
  5
120
330
17
100
AcDbEntity
  8
OUTLINE
100
AcDbPolyline
 90
4
 70
0
 10
107.07268241091586
 20
104.89131604289337
 10
106.98327095371269
 20
105.33662873058586
 10
106.72889617417289
 20
105.71291514112052
 10
106.34898789791745
 20
105.96184760451517
  0
LWPOLYLINE
  5
121
330
17
100
AcDbEntity
  8
OUTLINE
100
AcDbPolyline
 90
4
 70
0
 10
106.65008786009426
 20
86.98869047096588
 10
106.8778679701025
 20
87.23962306485691
 10
107.02290497434329
 20
87.54591586763752
 10
107.07268241091586
 20
87.88113716200834
  0
LWPOLYLINE
  5
122
330
17
100
AcDbEntity
  8
OUTLINE
100
AcDbPolyline
 90
2
 70
0
 10
71.57982453995821
 20
58.26081240215114
 10
106.65008786009426
 20
86.98869047096588
  0
ENDSEC
  0
SECTION
  2
OBJECTS
  0
DICTIONARY
  5
A
330
0
100
AcDbDictionary
281
1
  3
ACAD_COLOR
350
B
  3
ACAD_GROUP
350
C
  3
ACAD_LAYOUT
350
D
  3
ACAD_MATERIAL
350
E
  3
ACAD_MLEADERSTYLE
350
F
  3
ACAD_MLINESTYLE
350
10
  3
ACAD_PLOTSETTINGS
350
11
  3
ACAD_PLOTSTYLENAME
350
12
  3
ACAD_SCALELIST
350
14
  3
ACAD_TABLESTYLE
350
15
  3
ACAD_VISUALSTYLE
350
16
  3
EZDXF_META
350
2D
  0
DICTIONARY
  5
B
330
A
100
AcDbDictionary
281
1
  0
DICTIONARY
  5
C
330
A
100
AcDbDictionary
281
1
  0
DICTIONARY
  5
D
330
A
100
AcDbDictionary
281
1
  3
Model
350
1A
  3
Layout1
350
1E
  0
DICTIONARY
  5
E
330
A
100
AcDbDictionary
281
1
  3
ByBlock
350
1F
  3
ByLayer
350
20
  3
Global
350
21
  0
DICTIONARY
  5
F
330
A
100
AcDbDictionary
281
1
  3
Standard
350
2C
  0
DICTIONARY
  5
10
330
A
100
AcDbDictionary
281
1
  3
Standard
350
22
  0
DICTIONARY
  5
11
330
A
100
AcDbDictionary
281
1
  0
ACDBDICTIONARYWDFLT
  5
12
330
A
100
AcDbDictionary
281
1
  3
Normal
350
13
100
AcDbDictionaryWithDefault
340
13
  0
ACDBPLACEHOLDER
  5
13
330
12
  0
DICTIONARY
  5
14
330
A
100
AcDbDictionary
281
1
  0
DICTIONARY
  5
15
330
A
100
AcDbDictionary
281
1
  0
DICTIONARY
  5
16
330
A
100
AcDbDictionary
281
1
  0
LAYOUT
  5
1A
330
D
100
AcDbPlotSettings
  1

  4
A3
  6

 40
7.5
 41
20.0
 42
7.5
 43
20.0
 44
420.0
 45
297.0
 46
0.0
 47
0.0
 48
0.0
 49
0.0
140
0.0
141
0.0
142
1.0
143
1.0
 70
1024
 72
1
 73
0
 74
5
  7

 75
16
 76
0
 77
2
 78
300
147
1.0
148
0.0
149
0.0
100
AcDbLayout
  1
Model
 70
1
 71
0
 10
0.0
 20
0.0
 11
420.0
 21
297.0
 12
0.0
 22
0.0
 32
0.0
 14
1e+20
 24
1e+20
 34
1e+20
 15
-1e+20
 25
-1e+20
 35
-1e+20
146
0.0
 13
0.0
 23
0.0
 33
0.0
 16
1.0
 26
0.0
 36
0.0
 17
0.0
 27
1.0
 37
0.0
 76
1
330
17
  0
LAYOUT
  5
1E
330
D
100
AcDbPlotSettings
  1

  4
A3
  6

 40
7.5
 41
20.0
 42
7.5
 43
20.0
 44
420.0
 45
297.0
 46
0.0
 47
0.0
 48
0.0
 49
0.0
140
0.0
141
0.0
142
1.0
143
1.0
 70
0
 72
1
 73
0
 74
5
  7

 75
16
 76
0
 77
2
 78
300
147
1.0
148
0.0
149
0.0
100
AcDbLayout
  1
Layout1
 70
1
 71
1
 10
0.0
 20
0.0
 11
420.0
 21
297.0
 12
0.0
 22
0.0
 32
0.0
 14
1e+20
 24
1e+20
 34
1e+20
 15
-1e+20
 25
-1e+20
 35
-1e+20
146
0.0
 13
0.0
 23
0.0
 33
0.0
 16
1.0
 26
0.0
 36
0.0
 17
0.0
 27
1.0
 37
0.0
 76
1
330
1B
  0
MATERIAL
  5
1F
102
{ACAD_REACTORS
330
E
102
}
330
E
100
AcDbMaterial
  1
ByBlock
  2

 70
0
 40
1.0
 71
1
 41
1.0
 91
-1023410177
 42
1.0
 72
1
  3

 73
1
 74
1
 75
1
 44
0.5
 73
0
 45
1.0
 46
1.0
 77
1
  4

 78
1
 79
1
170
1
 48
1.0
171
1
  6

172
1
173
1
174
1
140
1.0
141
1.0
175
1
  7

176
1
177
1
178
1
143
1.0
179
1
  8

270
1
271
1
272
1
145
1.0
146
1.0
273
1
  9

274
1
275
1
276
1
 42
1.0
 72
1
  3

 73
1
 74
1
 75
1
 94
63
  0
MATERIAL
  5
20
102
{ACAD_REACTORS
330
E
102
}
330
E
100
AcDbMaterial
  1
ByLayer
  2

 70
0
 40
1.0
 71
1
 41
1.0
 91
-1023410177
 42
1.0
 72
1
  3

 73
1
 74
1
 75
1
 44
0.5
 73
0
 45
1.0
 46
1.0
 77
1
  4

 78
1
 79
1
170
1
 48
1.0
171
1
  6

172
1
173
1
174
1
140
1.0
141
1.0
175
1
  7

176
1
177
1
178
1
143
1.0
179
1
  8

270
1
271
1
272
1
145
1.0
146
1.0
273
1
  9

274
1
275
1
276
1
 42
1.0
 72
1
  3

 73
1
 74
1
 75
1
 94
63
  0
MATERIAL
  5
21
102
{ACAD_REACTORS
330
E
102
}
330
E
100
AcDbMaterial
  1
Global
  2

 70
0
 40
1.0
 71
1
 41
1.0
 91
-1023410177
 42
1.0
 72
1
  3

 73
1
 74
1
 75
1
 44
0.5
 73
0
 45
1.0
 46
1.0
 77
1
  4

 78
1
 79
1
170
1
 48
1.0
171
1
  6

172
1
173
1
174
1
140
1.0
141
1.0
175
1
  7

176
1
177
1
178
1
143
1.0
179
1
  8

270
1
271
1
272
1
145
1.0
146
1.0
273
1
  9

274
1
275
1
276
1
 42
1.0
 72
1
  3

 73
1
 74
1
 75
1
 94
63
  0
MLINESTYLE
  5
22
102
{ACAD_REACTORS
330
10
102
}
330
10
100
AcDbMlineStyle
  2
Standard
 70
0
  3

 62
256
 51
90.0
 52
90.0
 71
2
 49
0.5
 62
256
  6
BYLAYER
 49
-0.5
 62
256
  6
BYLAYER
  0
MLEADERSTYLE
  5
2C
102
{ACAD_REACTORS
330
F
102
}
330
F
100
AcDbMLeaderStyle
179
2
170
2
171
1
172
0
 90
2
 40
0.0
 41
0.0
173
1
 91
-1056964608
 92
-2
290
1
 42
2.0
291
1
 43
8.0
  3
Standard
 44
4.0
300

342
29
174
1
175
1
176
0
178
1
 93
-1056964608
 45
4.0
292
0
297
0
 46
4.0
 94
-1056964608
 47
1.0
 49
1.0
140
1.0
294
1
141
0.0
177
0
142
1.0
295
0
296
0
143
3.75
271
0
272
9
273
9
  0
DICTIONARY
  5
2D
330
A
100
AcDbDictionary
280
1
281
1
  3
CREATED_BY_EZDXF
350
2E
  3
WRITTEN_BY_EZDXF
350
125
  0
DICTIONARYVAR
  5
2E
330
2D
100
DictionaryVariables
280
0
  1
1.4.4 @ 2026-09-13T11:05:27.806986+00:00
  0
DICTIONARYVAR
  5
125
330
2D
100
DictionaryVariables
280
0
  1
1.4.4 @ 2026-09-13T11:05:27.821176+00:00
  0
ENDSEC
  0
EOF
