  0
SECTION
  2
HEADER
  9
$ACADVER
  1
AC1024
  9
$ACADMAINTVER
 70
6
  9
$DWGCODEPAGE
  3
ANSI_1252
  9
$LASTSAVEDBY
  1
ezdxf
  9
$INSBASE
 10
0.0
 20
0.0
 30
0.0
  9
$EXTMIN
 10
1e+20
 20
1e+20
 30
1e+20
  9
$EXTMAX
 10
-1e+20
 20
-1e+20
 30
-1e+20
  9
$LIMMIN
 10
0.0
 20
0.0
  9
$LIMMAX
 10
420.0
 20
297.0
  9
$ORTHOMODE
 70
0
  9
$REGENMODE
 70
1
  9
$FILLMODE
 70
1
  9
$QTEXTMODE
 70
0
  9
$MIRRTEXT
 70
1
  9
$LTSCALE
 40
1.0
  9
$ATTMODE
 70
1
  9
$TEXTSIZE
 40
2.5
  9
$TRACEWID
 40
1.0
  9
$TEXTSTYLE
  7
Standard
  9
$CLAYER
  8
0
  9
$CELTYPE
  6
ByLayer
  9
$CECOLOR
 62
256
  9
$CELTSCALE
 40
1.0
  9
$DISPSILH
 70
0
  9
$DIMSCALE
 40
1.0
  9
$DIMASZ
 40
2.5
  9
$DIMEXO
 40
0.625
  9
$DIMDLI
 40
3.75
  9
$DIMRND
 40
0.0
  9
$DIMDLE
 40
0.0
  9
$DIMEXE
 40
1.25
  9
$DIMTP
 40
0.0
  9
$DIMTM
 40
0.0
  9
$DIMTXT
 40
2.5
  9
$DIMCEN
 40
2.5
  9
$DIMTSZ
 40
0.0
  9
$DIMTOL
 70
0
  9
$DIMLIM
 70
0
  9
$DIMTIH
 70
0
  9
$DIMTOH
 70
0
  9
$DIMSE1
 70
0
  9
$DIMSE2
 70
0
  9
$DIMTAD
 70
1
  9
$DIMZIN
 70
8
  9
$DIMBLK
  1

  9
$DIMASO
 70
1
  9
$DIMSHO
 70
1
  9
$DIMPOST
  1

  9
$DIMAPOST
  1

  9
$DIMALT
 70
0
  9
$DIMALTD
 70
3
  9
$DIMALTF
 40
0.03937007874
  9
$DIMLFAC
 40
1.0
  9
$DIMTOFL
 70
1
  9
$DIMTVP
 40
0.0
  9
$DIMTIX
 70
0
  9
$DIMSOXD
 70
0
  9
$DIMSAH
 70
0
  9
$DIMBLK1
  1

  9
$DIMBLK2
  1

  9
$DIMSTYLE
  2
ISO-25
  9
$DIMCLRD
 70
0
  9
$DIMCLRE
 70
0
  9
$DIMCLRT
 70
0
  9
$DIMTFAC
 40
1.0
  9
$DIMGAP
 40
0.625
  9
$DIMJUST
 70
0
  9
$DIMSD1
 70
0
  9
$DIMSD2
 70
0
  9
$DIMTOLJ
 70
0
  9
$DIMTZIN
 70
8
  9
$DIMALTZ
 70
0
  9
$DIMALTTZ
 70
0
  9
$DIMUPT
 70
0
  9
$DIMDEC
 70
2
  9
$DIMTDEC
 70
2
  9
$DIMALTU
 70
2
  9
$DIMALTTD
 70
3
  9
$DIMTXSTY
  7
Standard
  9
$DIMAUNIT
 70
0
  9
$DIMADEC
 70
0
  9
$DIMALTRND
 40
0.0
  9
$DIMAZIN
 70
0
  9
$DIMDSEP
 70
44
  9
$DIMATFIT
 70
3
  9
$DIMFRAC
 70
0
  9
$DIMLDRBLK
  1

  9
$DIMLUNIT
 70
2
  9
$DIMLWD
 70
-2
  9
$DIMLWE
 70
-2
  9
$DIMTMOVE
 70
0
  9
$DIMFXL
 40
1.0
  9
$DIMFXLON
 70
0
  9
$DIMJOGANG
 40
0.785398163397
  9
$DIMTFILL
 70
0
  9
$DIMTFILLCLR
 70
0
  9
$DIMARCSYM
 70
0
  9
$DIMLTYPE
  6

  9
$DIMLTEX1
  6

  9
$DIMLTEX2
  6

  9
$DIMTXTDIRECTION
 70
0
  9
$LUNITS
 70
2
  9
$LUPREC
 70
4
  9
$SKETCHINC
 40
1.0
  9
$FILLETRAD
 40
10.0
  9
$AUNITS
 70
0
  9
$AUPREC
 70
2
  9
$MENU
  1
.
  9
$ELEVATION
 40
0.0
  9
$PELEVATION
 40
0.0
  9
$THICKNESS
 40
0.0
  9
$LIMCHECK
 70
0
  9
$CHAMFERA
 40
0.0
  9
$CHAMFERB
 40
0.0
  9
$CHAMFERC
 40
0.0
  9
$CHAMFERD
 40
0.0
  9
$SKPOLY
 70
0
  9
$TDCREATE
 40
2461297.7954513887
  9
$TDUCREATE
 40
2458532.153996898
  9
$TDUPDATE
 40
2461297.7954513887
  9
$TDUUPDATE
 40
2458532.1544311
  9
$TDINDWG
 40
0.0
  9
$TDUSRTIMER
 40
0.0
  9
$USRTIMER
 70
1
  9
$ANGBASE
 50
0.0
  9
$ANGDIR
 70
0
  9
$PDMODE
 70
0
  9
$PDSIZE
 40
0.0
  9
$PLINEWID
 40
0.0
  9
$SPLFRAME
 70
0
  9
$SPLINETYPE
 70
6
  9
$SPLINESEGS
 70
8
  9
$HANDSEED
  5
CB
  9
$SURFTAB1
 70
6
  9
$SURFTAB2
 70
6
  9
$SURFTYPE
 70
6
  9
$SURFU
 70
6
  9
$SURFV
 70
6
  9
$UCSBASE
  2

  9
$UCSNAME
  2

  9
$UCSORG
 10
0.0
 20
0.0
 30
0.0
  9
$UCSXDIR
 10
1.0
 20
0.0
 30
0.0
  9
$UCSYDIR
 10
0.0
 20
1.0
 30
0.0
  9
$UCSORTHOREF
  2

  9
$UCSORTHOVIEW
 70
0
  9
$UCSORGTOP
 10
0.0
 20
0.0
 30
0.0
  9
$UCSORGBOTTOM
 10
0.0
 20
0.0
 30
0.0
  9
$UCSORGLEFT
 10
0.0
 20
0.0
 30
0.0
  9
$UCSORGRIGHT
 10
0.0
 20
0.0
 30
0.0
  9
$UCSORGFRONT
 10
0.0
 20
0.0
 30
0.0
  9
$UCSORGBACK
 10
0.0
 20
0.0
 30
0.0
  9
$PUCSBASE
  2

  9
$PUCSNAME
  2

  9
$PUCSORG
 10
0.0
 20
0.0
 30
0.0
  9
$PUCSXDIR
 10
1.0
 20
0.0
 30
0.0
  9
$PUCSYDIR
 10
0.0
 20
1.0
 30
0.0
  9
$PUCSORTHOREF
  2

  9
$PUCSORTHOVIEW
 70
0
  9
$PUCSORGTOP
 10
0.0
 20
0.0
 30
0.0
  9
$PUCSORGBOTTOM
 10
0.0
 20
0.0
 30
0.0
  9
$PUCSORGLEFT
 10
0.0
 20
0.0
 30
0.0
  9
$PUCSORGRIGHT
 10
0.0
 20
0.0
 30
0.0
  9
$PUCSORGFRONT
 10
0.0
 20
0.0
 30
0.0
  9
$PUCSORGBACK
 10
0.0
 20
0.0
 30
0.0
  9
$USERI1
 70
0
  9
$USERI2
 70
0
  9
$USERI3
 70
0
  9
$USERI4
 70
0
  9
$USERI5
 70
0
  9
$USERR1
 40
0.0
  9
$USERR2
 40
0.0
  9
$USERR3
 40
0.0
  9
$USERR4
 40
0.0
  9
$USERR5
 40
0.0
  9
$WORLDVIEW
 70
1
  9
$SHADEDGE
 70
3
  9
$SHADEDIF
 70
70
  9
$TILEMODE
 70
1
  9
$MAXACTVP
 70
64
  9
$PINSBASE
 10
0.0
 20
0.0
 30
0.0
  9
$PLIMCHECK
 70
0
  9
$PEXTMIN
 10
1e+20
 20
1e+20
 30
1e+20
  9
$PEXTMAX
 10
-1e+20
 20
-1e+20
 30
-1e+20
  9
$PLIMMIN
 10
0.0
 20
0.0
  9
$PLIMMAX
 10
420.0
 20
297.0
  9
$UNITMODE
 70
0
  9
$VISRETAIN
 70
1
  9
$PLINEGEN
 70
0
  9
$PSLTSCALE
 70
1
  9
$TREEDEPTH
 70
3020
  9
$CMLSTYLE
  2
Standard
  9
$CMLJUST
 70
0
  9
$CMLSCALE
 40
20.0
  9
$PROXYGRAPHICS
 70
1
  9
$MEASUREMENT
 70
1
  9
$CELWEIGHT
370
-1
  9
$ENDCAPS
280
0
  9
$JOINSTYLE
280
0
  9
$LWDISPLAY
290
0
  9
$INSUNITS
 70
4
  9
$HYPERLINKBASE
  1

  9
$STYLESHEET
  1

  9
$XEDIT
290
1
  9
$CEPSNTYPE
380
0
  9
$PSTYLEMODE
290
1
  9
$FINGERPRINTGUID
  2
{5292EEE4-EE71-476A-9CF3-A2F2073AA73E}
  9
$VERSIONGUID
  2
{15C36412-0BBC-4233-8ECA-003A81F52F49}
  9
$EXTNAMES
290
1
  9
$PSVPSCALE
 40
0.0
  9
$OLESTARTUP
290
0
  9
$SORTENTS
280
127
  9
$INDEXCTL
280
0
  9
$HIDETEXT
280
1
  9
$XCLIPFRAME
280
1
  9
$HALOGAP
280
0
  9
$OBSCOLOR
 70
257
  9
$OBSLTYPE
280
0
  9
$INTERSECTIONDISPLAY
280
0
  9
$INTERSECTIONCOLOR
 70
257
  9
$DIMASSOC
280
2
  9
$PROJECTNAME
  1

  9
$CAMERADISPLAY
290
0
  9
$LENSLENGTH
 40
50.0
  9
$CAMERAHEIGHT
 40
0.0
  9
$STEPSPERSEC
 40
24.0
  9
$STEPSIZE
 40
100.0
  9
$3DDWFPREC
 40
2.0
  9
$PSOLWIDTH
 40
0.005
  9
$PSOLHEIGHT
 40
0.08
  9
$LOFTANG1
 40
1.570796326795
  9
$LOFTANG2
 40
1.570796326795
  9
$LOFTMAG1
 40
0.0
  9
$LOFTMAG2
 40
0.0
  9
$LOFTPARAM
 70
7
  9
$LOFTNORMALS
280
1
  9
$LATITUDE
 40
37.795
  9
$LONGITUDE
 40
-122.394
  9
$NORTHDIRECTION
 40
0.0
  9
$TIMEZONE
 70
-8000
  9
$LIGHTGLYPHDISPLAY
280
1
  9
$TILEMODELIGHTSYNCH
280
1
  9
$CMATERIAL
347
20
  9
$SOLIDHIST
280
0
  9
$SHOWHIST
280
1
  9
$DWFFRAME
280
2
  9
$DGNFRAME
280
2
  9
$REALWORLDSCALE
290
1
  9
$INTERFERECOLOR
 62
256
  9
$CSHADOW
280
0
  9
$SHADOWPLANELOCATION
 40
0.0
  0
ENDSEC
  0
SECTION
  2
CLASSES
  0
CLASS
  1
ACDBDICTIONARYWDFLT
  2
AcDbDictionaryWithDefault
  3
ObjectDBX Classes
 90
0
 91
0
280
0
281
0
  0
CLASS
  1
SUN
  2
AcDbSun
  3
SCENEOE
 90
1153
 91
0
280
0
281
0
  0
CLASS
  1
VISUALSTYLE
  2
AcDbVisualStyle
  3
ObjectDBX Classes
 90
4095
 91
0
280
0
281
0
  0
CLASS
  1
MATERIAL
  2
AcDbMaterial
  3
ObjectDBX Classes
 90
1153
 91
0
280
0
281
0
  0
CLASS
  1
SCALE
  2
AcDbScale
  3
ObjectDBX Classes
 90
1153
 91
0
280
0
281
0
  0
CLASS
  1
TABLESTYLE
  2
AcDbTableStyle
  3
ObjectDBX Classes
 90
4095
 91
0
280
0
281
0
  0
CLASS
  1
MLEADERSTYLE
  2
AcDbMLeaderStyle
  3
ACDB_MLEADERSTYLE_CLASS
 90
4095
 91
0
280
0
281
0
  0
CLASS
  1
DICTIONARYVAR
  2
AcDbDictionaryVar
  3
ObjectDBX Classes
 90
0
 91
0
280
0
281
0
  0
CLASS
  1
CELLSTYLEMAP
  2
AcDbCellStyleMap
  3
ObjectDBX Classes
 90
1152
 91
0
280
0
281
0
  0
CLASS
  1
MENTALRAYRENDERSETTINGS
  2
AcDbMentalRayRenderSettings
  3
SCENEOE
 90
1024
 91
0
280
0
281
0
  0
CLASS
  1
ACDBDETAILVIEWSTYLE
  2
AcDbDetailViewStyle
  3
ObjectDBX Classes
 90
1025
 91
0
280
0
281
0
  0
CLASS
  1
ACDBSECTIONVIEWSTYLE
  2
AcDbSectionViewStyle
  3
ObjectDBX Classes
 90
1025
 91
0
280
0
281
0
  0
CLASS
  1
RASTERVARIABLES
  2
AcDbRasterVariables
  3
ISM
 90
0
 91
0
280
0
281
0
  0
CLASS
  1
LAYOUT
  2
AcDbLayout
  3
ObjectDBX Classes
 90
0
 91
0
280
0
281
0
  0
CLASS
  1
ACDBPLACEHOLDER
  2
AcDbPlaceHolder
  3
ObjectDBX Classes
 90
0
 91
0
280
0
281
0
  0
ENDSEC
  0
SECTION
  2
TABLES
  0
TABLE
  2
VPORT
  5
8
330
0
100
AcDbSymbolTable
 70
1
  0
VPORT
  5
23
330
8
100
AcDbSymbolTableRecord
100
AcDbViewportTableRecord
  2
*Active
 70
0
 10
0.0
 20
0.0
 11
1.0
 21
1.0
 12
0.0
 22
0.0
 13
0.0
 23
0.0
 14
0.5
 24
0.5
 15
0.5
 25
0.5
 16
0.0
 26
0.0
 36
1.0
 17
0.0
 27
0.0
 37
0.0
 40
1000.0
 41
1.34
 42
50.0
 43
0.0
 44
0.0
 50
0.0
 51
0.0
 71
0
 72
1000
 73
1
 74
3
 75
0
 76
0
 77
0
 78
0
281
0
 65
0
146
0.0
  0
ENDTAB
  0
TABLE
  2
LTYPE
  5
2
330
0
100
AcDbSymbolTable
 70
3
  0
LTYPE
  5
24
330
2
100
AcDbSymbolTableRecord
100
AcDbLinetypeTableRecord
  2
ByBlock
 70
0
  3

 72
65
 73
0
 40
0.0
  0
LTYPE
  5
25
330
2
100
AcDbSymbolTableRecord
100
AcDbLinetypeTableRecord
  2
ByLayer
 70
0
  3

 72
65
 73
0
 40
0.0
  0
LTYPE
  5
26
330
2
100
AcDbSymbolTableRecord
100
AcDbLinetypeTableRecord
  2
Continuous
 70
0
  3

 72
65
 73
0
 40
0.0
  0
ENDTAB
  0
TABLE
  2
LAYER
  5
1
330
0
100
AcDbSymbolTable
 70
9
  0
LAYER
  5
27
330
1
100
AcDbSymbolTableRecord
100
AcDbLayerTableRecord
  2
0
 70
0
 62
7
  6
Continuous
370
-3
390
13
347
21
  0
LAYER
  5
28
330
1
100
AcDbSymbolTableRecord
100
AcDbLayerTableRecord
  2
Defpoints
 70
0
 62
7
  6
Continuous
290
0
370
-3
390
13
347
21
  0
LAYER
  5
2F
330
1
100
AcDbSymbolTableRecord
100
AcDbLayerTableRecord
  2
OUTLINE
 70
0
 62
7
  6
Continuous
370
-3
390
13
347
21
  0
LAYER
  5
30
330
1
100
AcDbSymbolTableRecord
100
AcDbLayerTableRecord
  2
TANGENT
 70
0
 62
8
  6
Continuous
370
-3
390
13
347
21
  0
LAYER
  5
31
330
1
100
AcDbSymbolTableRecord
100
AcDbLayerTableRecord
  2
HIDDEN
 70
0
 62
8
  6
Continuous
370
-3
390
13
347
21
  0
LAYER
  5
32
330
1
100
AcDbSymbolTableRecord
100
AcDbLayerTableRecord
  2
DIM
 70
0
 62
7
  6
Continuous
370
-3
390
13
347
21
  0
LAYER
  5
33
330
1
100
AcDbSymbolTableRecord
100
AcDbLayerTableRecord
  2
TEXT
 70
0
 62
7
  6
Continuous
370
-3
390
13
347
21
  0
LAYER
  5
34
330
1
100
AcDbSymbolTableRecord
100
AcDbLayerTableRecord
  2
HOLD
 70
0
 62
1
  6
Continuous
370
-3
390
13
347
21
  0
LAYER
  5
35
330
1
100
AcDbSymbolTableRecord
100
AcDbLayerTableRecord
  2
CENTER
 70
0
 62
4
  6
Continuous
370
-3
390
13
347
21
  0
ENDTAB
  0
TABLE
  2
STYLE
  5
5
330
0
100
AcDbSymbolTable
 70
2
  0
STYLE
  5
29
330
5
100
AcDbSymbolTableRecord
100
AcDbTextStyleTableRecord
  2
Standard
 70
0
 40
0.0
 41
1.0
 50
0.0
 71
0
 42
2.5
  3
txt
  4

  0
STYLE
  5
36
330
5
100
AcDbSymbolTableRecord
100
AcDbTextStyleTableRecord
  2
CJK
 70
0
 40
0.0
 41
1.0
 50
0.0
 71
0
 42
2.5
  3
Arial Unicode.ttf
  4

  0
ENDTAB
  0
TABLE
  2
VIEW
  5
7
330
0
100
AcDbSymbolTable
 70
0
  0
ENDTAB
  0
TABLE
  2
UCS
  5
6
330
0
100
AcDbSymbolTable
 70
0
  0
ENDTAB
  0
TABLE
  2
APPID
  5
3
330
0
100
AcDbSymbolTable
 70
3
  0
APPID
  5
2A
330
3
100
AcDbSymbolTableRecord
100
AcDbRegAppTableRecord
  2
ACAD
 70
0
  0
APPID
  5
C8
330
3
100
AcDbSymbolTableRecord
100
AcDbRegAppTableRecord
  2
HATCHBACKGROUNDCOLOR
 70
0
  0
APPID
  5
C9
330
3
100
AcDbSymbolTableRecord
100
AcDbRegAppTableRecord
  2
EZDXF
 70
0
  0
ENDTAB
  0
TABLE
  2
DIMSTYLE
  5
4
330
0
100
AcDbSymbolTable
 70
1
100
AcDbDimStyleTable
  0
DIMSTYLE
105
2B
330
4
100
AcDbSymbolTableRecord
100
AcDbDimStyleTableRecord
  2
Standard
 70
0
 40
1.0
 41
2.5
 42
0.625
 43
3.75
 44
1.25
 45
0.0
 46
0.0
 47
0.0
 48
0.0
 49
2.5
140
2.5
141
2.5
142
0.0
143
0.03937007874
144
1.0
145
0.0
146
1.0
147
0.625
148
0.0
 69
0
 70
0
 71
0
 72
0
 73
0
 74
0
 75
0
 76
0
 77
1
 78
8
 79
3
170
0
171
3
172
1
173
0
174
0
175
0
176
0
177
0
178
0
179
2
271
2
272
2
273
2
274
3
275
0
276
0
277
2
278
44
279
0
280
0
281
0
282
0
283
0
284
8
285
0
286
0
288
0
289
3
290
0
371
-2
372
-2
  0
ENDTAB
  0
TABLE
  2
BLOCK_RECORD
  5
9
330
0
100
AcDbSymbolTable
 70
2
  0
BLOCK_RECORD
  5
17
330
9
100
AcDbSymbolTableRecord
100
AcDbBlockTableRecord
  2
*Model_Space
340
1A
 70
0
280
1
281
0
  0
BLOCK_RECORD
  5
1B
330
9
100
AcDbSymbolTableRecord
100
AcDbBlockTableRecord
  2
*Paper_Space
340
1E
 70
0
280
1
281
0
  0
ENDTAB
  0
ENDSEC
  0
SECTION
  2
BLOCKS
  0
BLOCK
  5
18
330
17
100
AcDbEntity
  8
0
100
AcDbBlockBegin
  2
*Model_Space
 70
0
 10
0.0
 20
0.0
 30
0.0
  3
*Model_Space
  1

  0
ENDBLK
  5
19
330
17
100
AcDbEntity
  8
0
100
AcDbBlockEnd
  0
BLOCK
  5
1C
330
1B
100
AcDbEntity
  8
0
100
AcDbBlockBegin
  2
*Paper_Space
 70
0
 10
0.0
 20
0.0
 30
0.0
  3
*Paper_Space
  1

  0
ENDBLK
  5
1D
330
1B
100
AcDbEntity
  8
0
100
AcDbBlockEnd
  0
ENDSEC
  0
SECTION
  2
ENTITIES
  0
LWPOLYLINE
  5
37
330
17
100
AcDbEntity
  8
OUTLINE
100
AcDbPolyline
 90
5
 70
0
 10
10.0
 20
10.0
 10
410.0
 20
10.0
 10
410.0
 20
287.0
 10
10.0
 20
287.0
 10
10.0
 20
10.0
  0
TEXT
  5
38
330
17
100
AcDbEntity
  8
TEXT
100
AcDbText
 10
15.0
 20
278.0
 30
0.0
 40
5.0
  1
阶梯导杆 / 滑动配合和独立接地孔
  7
CJK
 11
15.0
 21
278.0
 31
0.0
100
AcDbText
  0
TEXT
  5
39
330
17
100
AcDbEntity
  8
TEXT
100
AcDbText
 10
405.0
 20
279.0
 30
0.0
 40
3.0
  1
WF300-DH | P1D1 | 06/12
  7
CJK
 72
2
 11
405.0
 21
279.0
 31
0.0
100
AcDbText
  0
LINE
  5
3A
330
17
100
AcDbEntity
  8
OUTLINE
100
AcDbLine
 10
10.0
 20
273.0
 30
0.0
 11
410.0
 21
273.0
 31
0.0
  0
LINE
  5
3B
330
17
100
AcDbEntity
  8
OUTLINE
100
AcDbLine
 10
10.0
 20
38.0
 30
0.0
 11
410.0
 21
38.0
 31
0.0
  0
TEXT
  5
3C
330
17
100
AcDbEntity
  8
HOLD
100
AcDbText
 10
15.0
 20
30.0
 30
0.0
 40
3.3
  1
状态：工程试制 / 首件评审后执行；未获实片使用批准
  7
CJK
 11
15.0
 21
30.0
 31
0.0
100
AcDbText
  0
TEXT
  5
3D
330
17
100
AcDbEntity
  8
TEXT
100
AcDbText
 10
15.0
 20
22.0
 30
0.0
 40
2.6
  1
单位mm；成品尺寸；试制公差见第11页。复杂轮廓依同版STEP；不得量图。
  7
CJK
 11
15.0
 21
22.0
 31
0.0
100
AcDbText
  0
TEXT
  5
3E
330
17
100
AcDbEntity
  8
TEXT
100
AcDbText
 10
15.0
 20
15.0
 30
0.0
 40
2.5
  1
源模型 SHA-256：11d3f112668962898e65…；晶圆厚0.50–0.90；外缘2接触；先假片验收。
  7
CJK
 11
15.0
 21
15.0
 31
0.0
100
AcDbText
  0
LINE
  5
3F
330
17
100
AcDbEntity
  8
OUTLINE
100
AcDbLine
 10
282.0
 20
10.0
 30
0.0
 11
282.0
 21
38.0
 31
0.0
  0
TEXT
  5
40
330
17
100
AcDbEntity
  8
TEXT
100
AcDbText
 10
287.0
 20
30.0
 30
0.0
 40
2.7
  1
图号 WF300-P1-ROD  |  比例 1:2
  7
CJK
 11
287.0
 21
30.0
 31
0.0
100
AcDbText
  0
TEXT
  5
41
330
17
100
AcDbEntity
  8
TEXT
100
AcDbText
 10
287.0
 20
22.0
 30
0.0
 40
2.6
  1
材料/来源：316L / UNS S31603
  7
CJK
 11
287.0
 21
22.0
 31
0.0
100
AcDbText
  0
TEXT
  5
42
330
17
100
AcDbEntity
  8
TEXT
100
AcDbText
 10
287.0
 20
15.0
 30
0.0
 40
2.6
  1
工艺/质量首件评审签署：待完成
  7
CJK
 11
287.0
 21
15.0
 31
0.0
100
AcDbText
  0
LWPOLYLINE
  5
43
330
17
100
AcDbEntity
  8
HIDDEN
100
AcDbPolyline
 90
15
 70
0
 10
257.0
 20
220.0
 10
257.0
 20
219.7200888
 10
257.0
 20
219.44369765
 10
257.0
 20
219.17430235
 10
257.0
 20
218.91529065
 10
257.0
 20
218.6699198
 10
257.0
 20
218.4412755
 10
257.0
 20
218.23223305
 10
257.0
 20
218.0454213
 10
257.0
 20
217.8831895
 10
257.0
 20
217.74757785
 10
257.0
 20
217.64029165
 10
257.0
 20
217.5626802
 10
257.0
 20
217.5157195
 10
257.0
 20
217.5
  0
LWPOLYLINE
  5
44
330
17
100
AcDbEntity
  8
HIDDEN
100
AcDbPolyline
 90
15
 70
0
 10
257.0
 20
217.5
 10
257.0
 20
217.5626802
 10
257.0
 20
217.74757785
 10
257.0
 20
218.0454213
 10
257.0
 20
218.4412755
 10
257.0
 20
218.91529065
 10
257.0
 20
219.44369765
 10
257.0
 20
220.0
 10
257.0
 20
220.55630235
 10
257.0
 20
221.08470935
 10
257.0
 20
221.5587245
 10
257.0
 20
221.9545787
 10
257.0
 20
222.25242215
 10
257.0
 20
222.4373198
 10
257.0
 20
222.5
  0
LWPOLYLINE
  5
45
330
17
100
AcDbEntity
  8
HIDDEN
100
AcDbPolyline
 90
15
 70
0
 10
257.0
 20
222.5
 10
257.0
 20
222.4842805
 10
257.0
 20
222.4373198
 10
257.0
 20
222.35970835
 10
257.0
 20
222.25242215
 10
257.0
 20
222.1168105
 10
257.0
 20
221.9545787
 10
257.0
 20
221.76776695
 10
257.0
 20
221.5587245
 10
257.0
 20
221.3300802
 10
257.0
 20
221.08470935
 10
257.0
 20
220.82569765
 10
257.0
 20
220.55630235
 10
257.0
 20
220.2799112
 10
257.0
 20
220.0
  0
LWPOLYLINE
  5
46
330
17
100
AcDbEntity
  8
HIDDEN
100
AcDbPolyline
 90
15
 70
0
 10
286.0
 20
217.5
 10
286.0
 20
217.5626802
 10
286.0
 20
217.74757785
 10
286.0
 20
218.0454213
 10
286.0
 20
218.4412755
 10
286.0
 20
218.91529065
 10
286.0
 20
219.44369765
 10
286.0
 20
220.0
 10
286.0
 20
220.55630235
 10
286.0
 20
221.08470935
 10
286.0
 20
221.5587245
 10
286.0
 20
221.9545787
 10
286.0
 20
222.25242215
 10
286.0
 20
222.4373198
 10
286.0
 20
222.5
  0
LWPOLYLINE
  5
47
330
17
100
AcDbEntity
  8
HIDDEN
100
AcDbPolyline
 90
15
 70
0
 10
257.0
 20
216.5
 10
257.0
 20
216.5877523
 10
257.0
 20
216.84660895
 10
257.0
 20
217.2635898
 10
257.0
 20
217.8177857
 10
257.0
 20
218.4814069
 10
257.0
 20
219.22117675
 10
257.0
 20
220.0
 10
257.0
 20
220.77882325
 10
257.0
 20
221.5185931
 10
257.0
 20
222.1822143
 10
257.0
 20
222.7364102
 10
257.0
 20
223.15339105
 10
257.0
 20
223.4122477
 10
257.0
 20
223.5
  0
LWPOLYLINE
  5
48
330
17
100
AcDbEntity
  8
HIDDEN
100
AcDbPolyline
 90
15
 70
0
 10
286.0
 20
220.0
 10
286.0
 20
219.9076293
 10
286.0
 20
219.81642025
 10
286.0
 20
219.72751975
 10
286.0
 20
219.6420459
 10
286.0
 20
219.56107355
 10
286.0
 20
219.4856209
 10
286.0
 20
219.4166369
 10
286.0
 20
219.35498905
 10
286.0
 20
219.30145255
 10
286.0
 20
219.2567007
 10
286.0
 20
219.22129625
 10
286.0
 20
219.19568445
 10
286.0
 20
219.18018745
 10
286.0
 20
219.175
  0
LWPOLYLINE
  5
49
330
17
100
AcDbEntity
  8
HIDDEN
100
AcDbPolyline
 90
15
 70
0
 10
286.0
 20
219.175
 10
286.0
 20
219.19568445
 10
286.0
 20
219.2567007
 10
286.0
 20
219.35498905
 10
286.0
 20
219.4856209
 10
286.0
 20
219.6420459
 10
286.0
 20
219.81642025
 10
286.0
 20
220.0
 10
286.0
 20
220.18357975
 10
286.0
 20
220.3579541
 10
286.0
 20
220.5143791
 10
286.0
 20
220.64501095
 10
286.0
 20
220.7432993
 10
286.0
 20
220.80431555
 10
286.0
 20
220.825
  0
LWPOLYLINE
  5
4A
330
17
100
AcDbEntity
  8
HIDDEN
100
AcDbPolyline
 90
15
 70
0
 10
286.0
 20
220.825
 10
286.0
 20
220.81981255
 10
286.0
 20
220.80431555
 10
286.0
 20
220.77870375
 10
286.0
 20
220.7432993
 10
286.0
 20
220.69854745
 10
286.0
 20
220.64501095
 10
286.0
 20
220.5833631
 10
286.0
 20
220.5143791
 10
286.0
 20
220.43892645
 10
286.0
 20
220.3579541
 10
286.0
 20
220.27248025
 10
286.0
 20
220.18357975
 10
286.0
 20
220.0923707
 10
286.0
 20
220.0
  0
LWPOLYLINE
  5
4B
330
17
100
AcDbEntity
  8
HIDDEN
100
AcDbPolyline
 90
15
 70
0
 10
71.0
 20
216.5
 10
71.0
 20
216.5877523
 10
71.0
 20
216.84660895
 10
71.0
 20
217.2635898
 10
71.0
 20
217.8177857
 10
71.0
 20
218.4814069
 10
71.0
 20
219.22117675
 10
71.0
 20
220.0
 10
71.0
 20
220.77882325
 10
71.0
 20
221.5185931
 10
71.0
 20
222.1822143
 10
71.0
 20
222.7364102
 10
71.0
 20
223.15339105
 10
71.0
 20
223.4122477
 10
71.0
 20
223.5
  0
LWPOLYLINE
  5
4C
330
17
100
AcDbEntity
  8
HIDDEN
100
AcDbPolyline
 90
15
 70
0
 10
281.0
 20
220.0
 10
281.0
 20
219.9076293
 10
281.0
 20
219.81642025
 10
281.0
 20
219.72751975
 10
281.0
 20
219.6420459
 10
281.0
 20
219.56107355
 10
281.0
 20
219.4856209
 10
281.0
 20
219.4166369
 10
281.0
 20
219.35498905
 10
281.0
 20
219.30145255
 10
281.0
 20
219.2567007
 10
281.0
 20
219.22129625
 10
281.0
 20
219.19568445
 10
281.0
 20
219.18018745
 10
281.0
 20
219.175
  0
LWPOLYLINE
  5
4D
330
17
100
AcDbEntity
  8
HIDDEN
100
AcDbPolyline
 90
15
 70
0
 10
281.0
 20
219.175
 10
281.0
 20
219.19568445
 10
281.0
 20
219.2567007
 10
281.0
 20
219.35498905
 10
281.0
 20
219.4856209
 10
281.0
 20
219.6420459
 10
281.0
 20
219.81642025
 10
281.0
 20
220.0
 10
281.0
 20
220.18357975
 10
281.0
 20
220.3579541
 10
281.0
 20
220.5143791
 10
281.0
 20
220.64501095
 10
281.0
 20
220.7432993
 10
281.0
 20
220.80431555
 10
281.0
 20
220.825
  0
LWPOLYLINE
  5
4E
330
17
100
AcDbEntity
  8
HIDDEN
100
AcDbPolyline
 90
15
 70
0
 10
281.0
 20
220.825
 10
281.0
 20
220.81981255
 10
281.0
 20
220.80431555
 10
281.0
 20
220.77870375
 10
281.0
 20
220.7432993
 10
281.0
 20
220.69854745
 10
281.0
 20
220.64501095
 10
281.0
 20
220.5833631
 10
281.0
 20
220.5143791
 10
281.0
 20
220.43892645
 10
281.0
 20
220.3579541
 10
281.0
 20
220.27248025
 10
281.0
 20
220.18357975
 10
281.0
 20
220.0923707
 10
281.0
 20
220.0
  0
LWPOLYLINE
  5
4F
330
17
100
AcDbEntity
  8
HIDDEN
100
AcDbPolyline
 90
2
 70
0
 10
252.5
 20
217.8349365
 10
252.5
 20
222.1650635
  0
LWPOLYLINE
  5
50
330
17
100
AcDbEntity
  8
HIDDEN
100
AcDbPolyline
 90
2
 70
0
 10
244.0
 20
217.8349365
 10
244.0
 20
222.1650635
  0
LWPOLYLINE
  5
51
330
17
100
AcDbEntity
  8
HIDDEN
100
AcDbPolyline
 90
15
 70
0
 10
71.0
 20
220.0
 10
71.0
 20
219.7200888
 10
71.0
 20
219.44369765
 10
71.0
 20
219.17430235
 10
71.0
 20
218.91529065
 10
71.0
 20
218.6699198
 10
71.0
 20
218.4412755
 10
71.0
 20
218.23223305
 10
71.0
 20
218.0454213
 10
71.0
 20
217.8831895
 10
71.0
 20
217.74757785
 10
71.0
 20
217.64029165
 10
71.0
 20
217.5626802
 10
71.0
 20
217.5157195
 10
71.0
 20
217.5
  0
LWPOLYLINE
  5
52
330
17
100
AcDbEntity
  8
HIDDEN
100
AcDbPolyline
 90
15
 70
0
 10
71.0
 20
217.5
 10
71.0
 20
217.5626802
 10
71.0
 20
217.74757785
 10
71.0
 20
218.0454213
 10
71.0
 20
218.4412755
 10
71.0
 20
218.91529065
 10
71.0
 20
219.44369765
 10
71.0
 20
220.0
 10
71.0
 20
220.55630235
 10
71.0
 20
221.08470935
 10
71.0
 20
221.5587245
 10
71.0
 20
221.9545787
 10
71.0
 20
222.25242215
 10
71.0
 20
222.4373198
 10
71.0
 20
222.5
  0
LWPOLYLINE
  5
53
330
17
100
AcDbEntity
  8
HIDDEN
100
AcDbPolyline
 90
15
 70
0
 10
71.0
 20
222.5
 10
71.0
 20
222.4842805
 10
71.0
 20
222.4373198
 10
71.0
 20
222.35970835
 10
71.0
 20
222.25242215
 10
71.0
 20
222.1168105
 10
71.0
 20
221.9545787
 10
71.0
 20
221.76776695
 10
71.0
 20
221.5587245
 10
71.0
 20
221.3300802
 10
71.0
 20
221.08470935
 10
71.0
 20
220.82569765
 10
71.0
 20
220.55630235
 10
71.0
 20
220.2799112
 10
71.0
 20
220.0
  0
LWPOLYLINE
  5
54
330
17
100
AcDbEntity
  8
HIDDEN
100
AcDbPolyline
 90
29
 70
0
 10
247.125
 20
220.0
 10
247.10932995
 20
220.1390756
 10
247.06310555
 20
220.27117735
 10
246.9886447
 20
220.38968115
 10
246.88968115
 20
220.4886447
 10
246.77117735
 20
220.56310555
 10
246.6390756
 20
220.60932995
 10
246.5
 20
220.625
 10
246.3609244
 20
220.60932995
 10
246.22882265
 20
220.56310555
 10
246.11031885
 20
220.4886447
 10
246.0113553
 20
220.38968115
 10
245.93689445
 20
220.27117735
 10
245.89067005
 20
220.1390756
 10
245.875
 20
220.0
 10
245.89067005
 20
219.8609244
 10
245.93689445
 20
219.72882265
 10
246.0113553
 20
219.61031885
 10
246.11031885
 20
219.5113553
 10
246.22882265
 20
219.43689445
 10
246.3609244
 20
219.39067005
 10
246.5
 20
219.375
 10
246.6390756
 20
219.39067005
 10
246.77117735
 20
219.43689445
 10
246.88968115
 20
219.5113553
 10
246.9886447
 20
219.61031885
 10
247.06310555
 20
219.72882265
 10
247.10932995
 20
219.8609244
 10
247.125
 20
220.0
  0
LWPOLYLINE
  5
55
330
17
100
AcDbEntity
  8
HIDDEN
100
AcDbPolyline
 90
15
 70
0
 10
42.0
 20
217.5
 10
42.0
 20
217.5626802
 10
42.0
 20
217.74757785
 10
42.0
 20
218.0454213
 10
42.0
 20
218.4412755
 10
42.0
 20
218.91529065
 10
42.0
 20
219.44369765
 10
42.0
 20
220.0
 10
42.0
 20
220.55630235
 10
42.0
 20
221.08470935
 10
42.0
 20
221.5587245
 10
42.0
 20
221.9545787
 10
42.0
 20
222.25242215
 10
42.0
 20
222.4373198
 10
42.0
 20
222.5
  0
LWPOLYLINE
  5
56
330
17
100
AcDbEntity
  8
HIDDEN
100
AcDbPolyline
 90
15
 70
0
 10
42.0
 20
220.0
 10
42.0
 20
219.9076293
 10
42.0
 20
219.81642025
 10
42.0
 20
219.72751975
 10
42.0
 20
219.6420459
 10
42.0
 20
219.56107355
 10
42.0
 20
219.4856209
 10
42.0
 20
219.4166369
 10
42.0
 20
219.35498905
 10
42.0
 20
219.30145255
 10
42.0
 20
219.2567007
 10
42.0
 20
219.22129625
 10
42.0
 20
219.19568445
 10
42.0
 20
219.18018745
 10
42.0
 20
219.175
  0
LWPOLYLINE
  5
57
330
17
100
AcDbEntity
  8
HIDDEN
100
AcDbPolyline
 90
15
 70
0
 10
42.0
 20
219.175
 10
42.0
 20
219.19568445
 10
42.0
 20
219.2567007
 10
42.0
 20
219.35498905
 10
42.0
 20
219.4856209
 10
42.0
 20
219.6420459
 10
42.0
 20
219.81642025
 10
42.0
 20
220.0
 10
42.0
 20
220.18357975
 10
42.0
 20
220.3579541
 10
42.0
 20
220.5143791
 10
42.0
 20
220.64501095
 10
42.0
 20
220.7432993
 10
42.0
 20
220.80431555
 10
42.0
 20
220.825
  0
LWPOLYLINE
  5
58
330
17
100
AcDbEntity
  8
HIDDEN
100
AcDbPolyline
 90
15
 70
0
 10
42.0
 20
220.825
 10
42.0
 20
220.81981255
 10
42.0
 20
220.80431555
 10
42.0
 20
220.77870375
 10
42.0
 20
220.7432993
 10
42.0
 20
220.69854745
 10
42.0
 20
220.64501095
 10
42.0
 20
220.5833631
 10
42.0
 20
220.5143791
 10
42.0
 20
220.43892645
 10
42.0
 20
220.3579541
 10
42.0
 20
220.27248025
 10
42.0
 20
220.18357975
 10
42.0
 20
220.0923707
 10
42.0
 20
220.0
  0
LWPOLYLINE
  5
59
330
17
100
AcDbEntity
  8
HIDDEN
100
AcDbPolyline
 90
15
 70
0
 10
47.0
 20
220.0
 10
47.0
 20
219.9076293
 10
47.0
 20
219.81642025
 10
47.0
 20
219.72751975
 10
47.0
 20
219.6420459
 10
47.0
 20
219.56107355
 10
47.0
 20
219.4856209
 10
47.0
 20
219.4166369
 10
47.0
 20
219.35498905
 10
47.0
 20
219.30145255
 10
47.0
 20
219.2567007
 10
47.0
 20
219.22129625
 10
47.0
 20
219.19568445
 10
47.0
 20
219.18018745
 10
47.0
 20
219.175
  0
LWPOLYLINE
  5
5A
330
17
100
AcDbEntity
  8
HIDDEN
100
AcDbPolyline
 90
15
 70
0
 10
47.0
 20
219.175
 10
47.0
 20
219.19568445
 10
47.0
 20
219.2567007
 10
47.0
 20
219.35498905
 10
47.0
 20
219.4856209
 10
47.0
 20
219.6420459
 10
47.0
 20
219.81642025
 10
47.0
 20
220.0
 10
47.0
 20
220.18357975
 10
47.0
 20
220.3579541
 10
47.0
 20
220.5143791
 10
47.0
 20
220.64501095
 10
47.0
 20
220.7432993
 10
47.0
 20
220.80431555
 10
47.0
 20
220.825
  0
LWPOLYLINE
  5
5B
330
17
100
AcDbEntity
  8
HIDDEN
100
AcDbPolyline
 90
15
 70
0
 10
47.0
 20
220.825
 10
47.0
 20
220.81981255
 10
47.0
 20
220.80431555
 10
47.0
 20
220.77870375
 10
47.0
 20
220.7432993
 10
47.0
 20
220.69854745
 10
47.0
 20
220.64501095
 10
47.0
 20
220.5833631
 10
47.0
 20
220.5143791
 10
47.0
 20
220.43892645
 10
47.0
 20
220.3579541
 10
47.0
 20
220.27248025
 10
47.0
 20
220.18357975
 10
47.0
 20
220.0923707
 10
47.0
 20
220.0
  0
LWPOLYLINE
  5
5C
330
17
100
AcDbEntity
  8
HIDDEN
100
AcDbPolyline
 90
2
 70
0
 10
281.0
 20
219.175
 10
286.0
 20
219.175
  0
LWPOLYLINE
  5
5D
330
17
100
AcDbEntity
  8
HIDDEN
100
AcDbPolyline
 90
2
 70
0
 10
281.0
 20
220.825
 10
286.0
 20
220.825
  0
LWPOLYLINE
  5
5E
330
17
100
AcDbEntity
  8
HIDDEN
100
AcDbPolyline
 90
2
 70
0
 10
42.0
 20
219.175
 10
47.0
 20
219.175
  0
LWPOLYLINE
  5
5F
330
17
100
AcDbEntity
  8
HIDDEN
100
AcDbPolyline
 90
2
 70
0
 10
42.0
 20
220.825
 10
47.0
 20
220.825
  0
LWPOLYLINE
  5
60
330
17
100
AcDbEntity
  8
OUTLINE
100
AcDbPolyline
 90
15
 70
0
 10
286.0
 20
220.0
 10
286.0
 20
219.7200888
 10
286.0
 20
219.44369765
 10
286.0
 20
219.17430235
 10
286.0
 20
218.91529065
 10
286.0
 20
218.6699198
 10
286.0
 20
218.4412755
 10
286.0
 20
218.23223305
 10
286.0
 20
218.0454213
 10
286.0
 20
217.8831895
 10
286.0
 20
217.74757785
 10
286.0
 20
217.64029165
 10
286.0
 20
217.5626802
 10
286.0
 20
217.5157195
 10
286.0
 20
217.5
  0
LWPOLYLINE
  5
61
330
17
100
AcDbEntity
  8
OUTLINE
100
AcDbPolyline
 90
15
 70
0
 10
286.0
 20
222.5
 10
286.0
 20
222.4842805
 10
286.0
 20
222.4373198
 10
286.0
 20
222.35970835
 10
286.0
 20
222.25242215
 10
286.0
 20
222.1168105
 10
286.0
 20
221.9545787
 10
286.0
 20
221.76776695
 10
286.0
 20
221.5587245
 10
286.0
 20
221.3300802
 10
286.0
 20
221.08470935
 10
286.0
 20
220.82569765
 10
286.0
 20
220.55630235
 10
286.0
 20
220.2799112
 10
286.0
 20
220.0
  0
LWPOLYLINE
  5
62
330
17
100
AcDbEntity
  8
OUTLINE
100
AcDbPolyline
 90
15
 70
0
 10
257.0
 20
220.0
 10
257.0
 20
219.60812435
 10
257.0
 20
219.22117675
 10
257.0
 20
218.8440233
 10
257.0
 20
218.4814069
 10
257.0
 20
218.13788775
 10
257.0
 20
217.8177857
 10
257.0
 20
217.52512625
 10
257.0
 20
217.2635898
 10
257.0
 20
217.0364653
 10
257.0
 20
216.84660895
 10
257.0
 20
216.69640835
 10
257.0
 20
216.5877523
 10
257.0
 20
216.52200725
 10
257.0
 20
216.5
  0
LWPOLYLINE
  5
63
330
17
100
AcDbEntity
  8
OUTLINE
100
AcDbPolyline
 90
15
 70
0
 10
257.0
 20
223.5
 10
257.0
 20
223.47799275
 10
257.0
 20
223.4122477
 10
257.0
 20
223.30359165
 10
257.0
 20
223.15339105
 10
257.0
 20
222.9635347
 10
257.0
 20
222.7364102
 10
257.0
 20
222.47487375
 10
257.0
 20
222.1822143
 10
257.0
 20
221.86211225
 10
257.0
 20
221.5185931
 10
257.0
 20
221.1559767
 10
257.0
 20
220.77882325
 10
257.0
 20
220.39187565
 10
257.0
 20
220.0
  0
LWPOLYLINE
  5
64
330
17
100
AcDbEntity
  8
OUTLINE
100
AcDbPolyline
 90
15
 70
0
 10
252.5
 20
222.1650635
 10
252.5
 20
222.0316494
 10
252.5
 20
221.89362545
 10
252.5
 20
221.7513047
 10
252.5
 20
221.6050102
 10
252.5
 20
221.45507385
 10
252.5
 20
221.30183585
 10
252.5
 20
221.1456439
 10
252.5
 20
220.9868525
 10
252.5
 20
220.82582185
 10
252.5
 20
220.66291735
 10
252.5
 20
220.4985087
 10
252.5
 20
220.33296885
 10
252.5
 20
220.16667355
 10
252.5
 20
220.0
  0
LWPOLYLINE
  5
65
330
17
100
AcDbEntity
  8
OUTLINE
100
AcDbPolyline
 90
2
 70
0
 10
244.0
 20
222.1650635
 10
252.5
 20
222.1650635
  0
LWPOLYLINE
  5
66
330
17
100
AcDbEntity
  8
OUTLINE
100
AcDbPolyline
 90
15
 70
0
 10
244.0
 20
222.1650635
 10
244.0
 20
222.0316494
 10
244.0
 20
221.89362545
 10
244.0
 20
221.7513047
 10
244.0
 20
221.6050102
 10
244.0
 20
221.45507385
 10
244.0
 20
221.30183585
 10
244.0
 20
221.1456439
 10
244.0
 20
220.9868525
 10
244.0
 20
220.82582185
 10
244.0
 20
220.66291735
 10
244.0
 20
220.4985087
 10
244.0
 20
220.33296885
 10
244.0
 20
220.16667355
 10
244.0
 20
220.0
  0
LWPOLYLINE
  5
67
330
17
100
AcDbEntity
  8
OUTLINE
100
AcDbPolyline
 90
15
 70
0
 10
71.0
 20
220.0
 10
71.0
 20
219.60812435
 10
71.0
 20
219.22117675
 10
71.0
 20
218.8440233
 10
71.0
 20
218.4814069
 10
71.0
 20
218.13788775
 10
71.0
 20
217.8177857
 10
71.0
 20
217.52512625
 10
71.0
 20
217.2635898
 10
71.0
 20
217.0364653
 10
71.0
 20
216.84660895
 10
71.0
 20
216.69640835
 10
71.0
 20
216.5877523
 10
71.0
 20
216.52200725
 10
71.0
 20
216.5
  0
LWPOLYLINE
  5
68
330
17
100
AcDbEntity
  8
OUTLINE
100
AcDbPolyline
 90
15
 70
0
 10
71.0
 20
223.5
 10
71.0
 20
223.47799275
 10
71.0
 20
223.4122477
 10
71.0
 20
223.30359165
 10
71.0
 20
223.15339105
 10
71.0
 20
222.9635347
 10
71.0
 20
222.7364102
 10
71.0
 20
222.47487375
 10
71.0
 20
222.1822143
 10
71.0
 20
221.86211225
 10
71.0
 20
221.5185931
 10
71.0
 20
221.1559767
 10
71.0
 20
220.77882325
 10
71.0
 20
220.39187565
 10
71.0
 20
220.0
  0
LWPOLYLINE
  5
69
330
17
100
AcDbEntity
  8
OUTLINE
100
AcDbPolyline
 90
15
 70
0
 10
244.0
 20
220.0
 10
244.0
 20
219.83332645
 10
244.0
 20
219.66703115
 10
244.0
 20
219.5014913
 10
244.0
 20
219.33708265
 10
244.0
 20
219.17417815
 10
244.0
 20
219.0131475
 10
244.0
 20
218.8543561
 10
244.0
 20
218.69816415
 10
244.0
 20
218.54492615
 10
244.0
 20
218.3949898
 10
244.0
 20
218.2486953
 10
244.0
 20
218.10637455
 10
244.0
 20
217.9683506
 10
244.0
 20
217.8349365
  0
LWPOLYLINE
  5
6A
330
17
100
AcDbEntity
  8
OUTLINE
100
AcDbPolyline
 90
2
 70
0
 10
244.0
 20
217.8349365
 10
252.5
 20
217.8349365
  0
LWPOLYLINE
  5
6B
330
17
100
AcDbEntity
  8
OUTLINE
100
AcDbPolyline
 90
15
 70
0
 10
252.5
 20
220.0
 10
252.5
 20
219.83332645
 10
252.5
 20
219.66703115
 10
252.5
 20
219.5014913
 10
252.5
 20
219.33708265
 10
252.5
 20
219.17417815
 10
252.5
 20
219.0131475
 10
252.5
 20
218.8543561
 10
252.5
 20
218.69816415
 10
252.5
 20
218.54492615
 10
252.5
 20
218.3949898
 10
252.5
 20
218.2486953
 10
252.5
 20
218.10637455
 10
252.5
 20
217.9683506
 10
252.5
 20
217.8349365
  0
LWPOLYLINE
  5
6C
330
17
100
AcDbEntity
  8
OUTLINE
100
AcDbPolyline
 90
29
 70
0
 10
247.125
 20
220.0
 10
247.10932995
 20
220.1390756
 10
247.06310555
 20
220.27117735
 10
246.9886447
 20
220.38968115
 10
246.88968115
 20
220.4886447
 10
246.77117735
 20
220.56310555
 10
246.6390756
 20
220.60932995
 10
246.5
 20
220.625
 10
246.3609244
 20
220.60932995
 10
246.22882265
 20
220.56310555
 10
246.11031885
 20
220.4886447
 10
246.0113553
 20
220.38968115
 10
245.93689445
 20
220.27117735
 10
245.89067005
 20
220.1390756
 10
245.875
 20
220.0
 10
245.89067005
 20
219.8609244
 10
245.93689445
 20
219.72882265
 10
246.0113553
 20
219.61031885
 10
246.11031885
 20
219.5113553
 10
246.22882265
 20
219.43689445
 10
246.3609244
 20
219.39067005
 10
246.5
 20
219.375
 10
246.6390756
 20
219.39067005
 10
246.77117735
 20
219.43689445
 10
246.88968115
 20
219.5113553
 10
246.9886447
 20
219.61031885
 10
247.06310555
 20
219.72882265
 10
247.10932995
 20
219.8609244
 10
247.125
 20
220.0
  0
LWPOLYLINE
  5
6D
330
17
100
AcDbEntity
  8
OUTLINE
100
AcDbPolyline
 90
15
 70
0
 10
42.0
 20
220.0
 10
42.0
 20
219.7200888
 10
42.0
 20
219.44369765
 10
42.0
 20
219.17430235
 10
42.0
 20
218.91529065
 10
42.0
 20
218.6699198
 10
42.0
 20
218.4412755
 10
42.0
 20
218.23223305
 10
42.0
 20
218.0454213
 10
42.0
 20
217.8831895
 10
42.0
 20
217.74757785
 10
42.0
 20
217.64029165
 10
42.0
 20
217.5626802
 10
42.0
 20
217.5157195
 10
42.0
 20
217.5
  0
LWPOLYLINE
  5
6E
330
17
100
AcDbEntity
  8
OUTLINE
100
AcDbPolyline
 90
15
 70
0
 10
42.0
 20
222.5
 10
42.0
 20
222.4842805
 10
42.0
 20
222.4373198
 10
42.0
 20
222.35970835
 10
42.0
 20
222.25242215
 10
42.0
 20
222.1168105
 10
42.0
 20
221.9545787
 10
42.0
 20
221.76776695
 10
42.0
 20
221.5587245
 10
42.0
 20
221.3300802
 10
42.0
 20
221.08470935
 10
42.0
 20
220.82569765
 10
42.0
 20
220.55630235
 10
42.0
 20
220.2799112
 10
42.0
 20
220.0
  0
LWPOLYLINE
  5
6F
330
17
100
AcDbEntity
  8
OUTLINE
100
AcDbPolyline
 90
2
 70
0
 10
257.0
 20
217.5
 10
286.0
 20
217.5
  0
LWPOLYLINE
  5
70
330
17
100
AcDbEntity
  8
OUTLINE
100
AcDbPolyline
 90
2
 70
0
 10
257.0
 20
222.5
 10
286.0
 20
222.5
  0
LWPOLYLINE
  5
71
330
17
100
AcDbEntity
  8
OUTLINE
100
AcDbPolyline
 90
2
 70
0
 10
71.0
 20
216.5
 10
257.0
 20
216.5
  0
LWPOLYLINE
  5
72
330
17
100
AcDbEntity
  8
OUTLINE
100
AcDbPolyline
 90
2
 70
0
 10
71.0
 20
223.5
 10
257.0
 20
223.5
  0
LWPOLYLINE
  5
73
330
17
100
AcDbEntity
  8
OUTLINE
100
AcDbPolyline
 90
2
 70
0
 10
42.0
 20
217.5
 10
71.0
 20
217.5
  0
LWPOLYLINE
  5
74
330
17
100
AcDbEntity
  8
OUTLINE
100
AcDbPolyline
 90
2
 70
0
 10
42.0
 20
222.5
 10
71.0
 20
222.5
  0
LINE
  5
75
330
17
100
AcDbEntity
  8
DIM
100
AcDbLine
 10
42.0
 20
223.5
 30
0.0
 11
42.0
 21
246.5
 31
0.0
  0
LINE
  5
76
330
17
100
AcDbEntity
  8
DIM
100
AcDbLine
 10
286.0
 20
223.5
 30
0.0
 11
286.0
 21
246.5
 31
0.0
  0
LINE
  5
77
330
17
100
AcDbEntity
  8
DIM
100
AcDbLine
 10
42.0
 20
245.0
 30
0.0
 11
286.0
 21
245.0
 31
0.0
  0
LINE
  5
78
330
17
100
AcDbEntity
  8
DIM
100
AcDbLine
 10
42.0
 20
245.0
 30
0.0
 11
43.87874542569476
 21
244.31420438508908
 31
0.0
  0
LINE
  5
79
330
17
100
AcDbEntity
  8
DIM
100
AcDbLine
 10
42.0
 20
245.0
 30
0.0
 11
43.87874542569476
 21
245.68579561491092
 31
0.0
  0
LINE
  5
7A
330
17
100
AcDbEntity
  8
DIM
100
AcDbLine
 10
286.0
 20
245.0
 30
0.0
 11
284.1212545743052
 21
245.68579561491092
 31
0.0
  0
LINE
  5
7B
330
17
100
AcDbEntity
  8
DIM
100
AcDbLine
 10
286.0
 20
245.0
 30
0.0
 11
284.1212545743052
 21
244.31420438508908
 31
0.0
  0
TEXT
  5
7C
330
17
100
AcDbEntity
  8
TEXT
100
AcDbText
 10
164.0
 20
246.8
 30
0.0
 40
2.8
  1
488±0.05
  7
CJK
 72
1
 11
164.0
 21
246.8
 31
0.0
100
AcDbText
  0
LINE
  5
7D
330
17
100
AcDbEntity
  8
DIM
100
AcDbLine
 10
71.0
 20
216.5
 30
0.0
 11
71.0
 21
197.5
 31
0.0
  0
LINE
  5
7E
330
17
100
AcDbEntity
  8
DIM
100
AcDbLine
 10
257.0
 20
216.5
 30
0.0
 11
257.0
 21
197.5
 31
0.0
  0
LINE
  5
7F
330
17
100
AcDbEntity
  8
DIM
100
AcDbLine
 10
71.0
 20
196.0
 30
0.0
 11
257.0
 21
196.0
 31
0.0
  0
LINE
  5
80
330
17
100
AcDbEntity
  8
DIM
100
AcDbLine
 10
71.0
 20
196.0
 30
0.0
 11
72.87874542569476
 21
195.31420438508908
 31
0.0
  0
LINE
  5
81
330
17
100
AcDbEntity
  8
DIM
100
AcDbLine
 10
71.0
 20
196.0
 30
0.0
 11
72.87874542569476
 21
196.68579561491092
 31
0.0
  0
LINE
  5
82
330
17
100
AcDbEntity
  8
DIM
100
AcDbLine
 10
257.0
 20
196.0
 30
0.0
 11
255.12125457430525
 21
196.68579561491092
 31
0.0
  0
LINE
  5
83
330
17
100
AcDbEntity
  8
DIM
100
AcDbLine
 10
257.0
 20
196.0
 30
0.0
 11
255.12125457430525
 21
195.31420438508908
 31
0.0
  0
TEXT
  5
84
330
17
100
AcDbEntity
  8
TEXT
100
AcDbText
 10
164.0
 20
197.8
 30
0.0
 40
2.8
  1
372±0.03 肩距
  7
CJK
 72
1
 11
164.0
 21
197.8
 31
0.0
100
AcDbText
  0
LINE
  5
85
330
17
100
AcDbEntity
  8
DIM
100
AcDbLine
 10
42.0
 20
216.5
 30
0.0
 11
42.0
 21
181.5
 31
0.0
  0
LINE
  5
86
330
17
100
AcDbEntity
  8
DIM
100
AcDbLine
 10
71.0
 20
216.5
 30
0.0
 11
71.0
 21
181.5
 31
0.0
  0
LINE
  5
87
330
17
100
AcDbEntity
  8
DIM
100
AcDbLine
 10
42.0
 20
180.0
 30
0.0
 11
71.0
 21
180.0
 31
0.0
  0
LINE
  5
88
330
17
100
AcDbEntity
  8
DIM
100
AcDbLine
 10
42.0
 20
180.0
 30
0.0
 11
43.87874542569476
 21
179.31420438508908
 31
0.0
  0
LINE
  5
89
330
17
100
AcDbEntity
  8
DIM
100
AcDbLine
 10
42.0
 20
180.0
 30
0.0
 11
43.87874542569476
 21
180.68579561491092
 31
0.0
  0
LINE
  5
8A
330
17
100
AcDbEntity
  8
DIM
100
AcDbLine
 10
71.0
 20
180.0
 30
0.0
 11
69.12125457430524
 21
180.68579561491092
 31
0.0
  0
LINE
  5
8B
330
17
100
AcDbEntity
  8
DIM
100
AcDbLine
 10
71.0
 20
180.0
 30
0.0
 11
69.12125457430524
 21
179.31420438508908
 31
0.0
  0
TEXT
  5
8C
330
17
100
AcDbEntity
  8
TEXT
100
AcDbText
 10
56.5
 20
181.8
 30
0.0
 40
2.8
  1
58 REF
  7
CJK
 72
1
 11
56.5
 21
181.8
 31
0.0
100
AcDbText
  0
LINE
  5
8D
330
17
100
AcDbEntity
  8
DIM
100
AcDbLine
 10
257.0
 20
216.5
 30
0.0
 11
257.0
 21
181.5
 31
0.0
  0
LINE
  5
8E
330
17
100
AcDbEntity
  8
DIM
100
AcDbLine
 10
286.0
 20
216.5
 30
0.0
 11
286.0
 21
181.5
 31
0.0
  0
LINE
  5
8F
330
17
100
AcDbEntity
  8
DIM
100
AcDbLine
 10
257.0
 20
180.0
 30
0.0
 11
286.0
 21
180.0
 31
0.0
  0
LINE
  5
90
330
17
100
AcDbEntity
  8
DIM
100
AcDbLine
 10
257.0
 20
180.0
 30
0.0
 11
258.8787454256948
 21
179.31420438508908
 31
0.0
  0
LINE
  5
91
330
17
100
AcDbEntity
  8
DIM
100
AcDbLine
 10
257.0
 20
180.0
 30
0.0
 11
258.8787454256948
 21
180.68579561491092
 31
0.0
  0
LINE
  5
92
330
17
100
AcDbEntity
  8
DIM
100
AcDbLine
 10
286.0
 20
180.0
 30
0.0
 11
284.1212545743052
 21
180.68579561491092
 31
0.0
  0
LINE
  5
93
330
17
100
AcDbEntity
  8
DIM
100
AcDbLine
 10
286.0
 20
180.0
 30
0.0
 11
284.1212545743052
 21
179.31420438508908
 31
0.0
  0
TEXT
  5
94
330
17
100
AcDbEntity
  8
TEXT
100
AcDbText
 10
271.5
 20
181.8
 30
0.0
 40
2.8
  1
58 REF
  7
CJK
 72
1
 11
271.5
 21
181.8
 31
0.0
100
AcDbText
  0
LWPOLYLINE
  5
95
330
17
100
AcDbEntity
  8
DIM
100
AcDbPolyline
 90
3
 70
0
 10
142.0
 20
223.5
 10
297.0
 20
234.0
 10
300.0
 20
234.0
  0
LINE
  5
96
330
17
100
AcDbEntity
  8
DIM
100
AcDbLine
 10
142.0
 20
223.5
 30
0.0
 11
143.9208003451982
 21
222.94275137157055
 31
0.0
  0
LINE
  5
97
330
17
100
AcDbEntity
  8
DIM
100
AcDbLine
 10
142.0
 20
223.5
 30
0.0
 11
143.82809855998138
 21
224.31120629619969
 31
0.0
  0
TEXT
  5
98
330
17
100
AcDbEntity
  8
TEXT
100
AcDbText
 10
301.0
 20
235.0
 30
0.0
 40
2.8
  1
中段Ø14±0.05
  7
CJK
 11
301.0
 21
235.0
 31
0.0
100
AcDbText
  0
LWPOLYLINE
  5
99
330
17
100
AcDbEntity
  8
DIM
100
AcDbPolyline
 90
3
 70
0
 10
52.0
 20
222.5
 10
57.0
 20
256.0
 10
60.0
 20
256.0
  0
LINE
  5
9A
330
17
100
AcDbEntity
  8
DIM
100
AcDbLine
 10
52.0
 20
222.5
 30
0.0
 11
52.95561998848461
 21
224.25692641781285
 31
0.0
  0
LINE
  5
9B
330
17
100
AcDbEntity
  8
DIM
100
AcDbLine
 10
52.0
 20
222.5
 30
0.0
 11
51.59905540867515
 21
224.45939874315755
 31
0.0
  0
TEXT
  5
9C
330
17
100
AcDbEntity
  8
TEXT
100
AcDbText
 10
61.0
 20
257.0
 30
0.0
 40
2.8
  1
两端Ø10 h9；Ra0.1–0.3μm
  7
CJK
 11
61.0
 21
257.0
 31
0.0
100
AcDbText
  0
TEXT
  5
9D
330
17
100
AcDbEntity
  8
TEXT
100
AcDbText
 10
302.0
 20
216.0
 30
0.0
 40
2.65
  1
共同轴线A：两端滑动段
  7
CJK
 11
302.0
 21
216.0
 31
0.0
100
AcDbText
  0
TEXT
  5
9E
330
17
100
AcDbEntity
  8
TEXT
100
AcDbText
 10
302.0
 20
209.0
 30
0.0
 40
2.65
  1
B：左肩面（局部X58）
  7
CJK
 11
302.0
 21
209.0
 31
0.0
100
AcDbText
  0
TEXT
  5
9F
330
17
100
AcDbEntity
  8
TEXT
100
AcDbText
 10
302.0
 20
202.0
 30
0.0
 40
2.65
  1
两端M4×0.7-6H
  7
CJK
 11
302.0
 21
202.0
 31
0.0
100
AcDbText
  0
TEXT
  5
A0
330
17
100
AcDbEntity
  8
TEXT
100
AcDbText
 10
302.0
 20
195.0
 30
0.0
 40
2.65
  1
完整有效牙≥8
  7
CJK
 11
302.0
 21
195.0
 31
0.0
100
AcDbText
  0
TEXT
  5
A1
330
17
100
AcDbEntity
  8
TEXT
100
AcDbText
 10
302.0
 20
188.0
 30
0.0
 40
2.65
  1
底孔Ø3.3深10 MIN
  7
CJK
 11
302.0
 21
188.0
 31
0.0
100
AcDbText
  0
TEXT
  5
A2
330
17
100
AcDbEntity
  8
TEXT
100
AcDbText
 10
302.0
 20
181.0
 30
0.0
 40
2.65
  1
盲孔钻尖允许再深1.0
  7
CJK
 11
302.0
 21
181.0
 31
0.0
100
AcDbText
  0
TEXT
  5
A3
330
17
100
AcDbEntity
  8
TEXT
100
AcDbText
 10
302.0
 20
174.0
 30
0.0
 40
2.65
  1
螺孔同轴度Ø0.10对A
  7
CJK
 11
302.0
 21
174.0
 31
0.0
100
AcDbText
  0
TEXT
  5
A4
330
17
100
AcDbEntity
  8
TEXT
100
AcDbText
 10
302.0
 20
167.0
 30
0.0
 40
2.65
  1
肩面对A垂直度0.02
  7
CJK
 11
302.0
 21
167.0
 31
0.0
100
AcDbText
  0
LWPOLYLINE
  5
A5
330
17
100
AcDbEntity
  8
OUTLINE
100
AcDbPolyline
 90
2
 70
0
 10
257.0
 20
139.5
 10
286.0
 20
139.5
  0
LWPOLYLINE
  5
A6
330
17
100
AcDbEntity
  8
OUTLINE
100
AcDbPolyline
 90
2
 70
0
 10
257.0
 20
139.5
 10
257.0
 20
138.5
  0
LWPOLYLINE
  5
A7
330
17
100
AcDbEntity
  8
OUTLINE
100
AcDbPolyline
 90
2
 70
0
 10
286.0
 20
141.175
 10
286.0
 20
139.5
  0
LWPOLYLINE
  5
A8
330
17
100
AcDbEntity
  8
OUTLINE
100
AcDbPolyline
 90
2
 70
0
 10
257.0
 20
145.5
 10
257.0
 20
144.5
  0
LWPOLYLINE
  5
A9
330
17
100
AcDbEntity
  8
OUTLINE
100
AcDbPolyline
 90
2
 70
0
 10
252.5
 20
145.5
 10
257.0
 20
145.5
  0
LWPOLYLINE
  5
AA
330
17
100
AcDbEntity
  8
OUTLINE
100
AcDbPolyline
 90
2
 70
0
 10
257.0
 20
144.5
 10
286.0
 20
144.5
  0
LWPOLYLINE
  5
AB
330
17
100
AcDbEntity
  8
OUTLINE
100
AcDbPolyline
 90
2
 70
0
 10
71.0
 20
138.5
 10
257.0
 20
138.5
  0
LWPOLYLINE
  5
AC
330
17
100
AcDbEntity
  8
OUTLINE
100
AcDbPolyline
 90
2
 70
0
 10
286.0
 20
144.5
 10
286.0
 20
142.825
  0
LWPOLYLINE
  5
AD
330
17
100
AcDbEntity
  8
OUTLINE
100
AcDbPolyline
 90
2
 70
0
 10
281.0
 20
142.825
 10
286.0
 20
142.825
  0
LWPOLYLINE
  5
AE
330
17
100
AcDbEntity
  8
OUTLINE
100
AcDbPolyline
 90
2
 70
0
 10
281.0
 20
141.175
 10
286.0
 20
141.175
  0
LWPOLYLINE
  5
AF
330
17
100
AcDbEntity
  8
OUTLINE
100
AcDbPolyline
 90
2
 70
0
 10
71.0
 20
139.5
 10
71.0
 20
138.5
  0
LWPOLYLINE
  5
B0
330
17
100
AcDbEntity
  8
OUTLINE
100
AcDbPolyline
 90
2
 70
0
 10
281.0
 20
142.825
 10
281.0
 20
141.175
  0
LWPOLYLINE
  5
B1
330
17
100
AcDbEntity
  8
OUTLINE
100
AcDbPolyline
 90
2
 70
0
 10
252.5
 20
145.5
 10
252.5
 20
144.75
  0
LWPOLYLINE
  5
B2
330
17
100
AcDbEntity
  8
OUTLINE
100
AcDbPolyline
 90
2
 70
0
 10
247.125
 20
144.75
 10
252.5
 20
144.75
  0
LWPOLYLINE
  5
B3
330
17
100
AcDbEntity
  8
OUTLINE
100
AcDbPolyline
 90
2
 70
0
 10
244.0
 20
144.75
 10
245.875
 20
144.75
  0
LWPOLYLINE
  5
B4
330
17
100
AcDbEntity
  8
OUTLINE
100
AcDbPolyline
 90
2
 70
0
 10
244.0
 20
145.5
 10
244.0
 20
144.75
  0
LWPOLYLINE
  5
B5
330
17
100
AcDbEntity
  8
OUTLINE
100
AcDbPolyline
 90
2
 70
0
 10
245.875
 20
141.25
 10
245.875
 20
144.75
  0
LWPOLYLINE
  5
B6
330
17
100
AcDbEntity
  8
OUTLINE
100
AcDbPolyline
 90
2
 70
0
 10
247.125
 20
141.25
 10
247.125
 20
144.75
  0
LWPOLYLINE
  5
B7
330
17
100
AcDbEntity
  8
OUTLINE
100
AcDbPolyline
 90
2
 70
0
 10
71.0
 20
145.5
 10
244.0
 20
145.5
  0
LWPOLYLINE
  5
B8
330
17
100
AcDbEntity
  8
OUTLINE
100
AcDbPolyline
 90
2
 70
0
 10
71.0
 20
145.5
 10
71.0
 20
144.5
  0
LWPOLYLINE
  5
B9
330
17
100
AcDbEntity
  8
OUTLINE
100
AcDbPolyline
 90
2
 70
0
 10
42.0
 20
144.5
 10
71.0
 20
144.5
  0
LWPOLYLINE
  5
BA
330
17
100
AcDbEntity
  8
OUTLINE
100
AcDbPolyline
 90
2
 70
0
 10
42.0
 20
139.5
 10
71.0
 20
139.5
  0
LWPOLYLINE
  5
BB
330
17
100
AcDbEntity
  8
OUTLINE
100
AcDbPolyline
 90
2
 70
0
 10
245.875
 20
141.25
 10
247.125
 20
141.25
  0
LWPOLYLINE
  5
BC
330
17
100
AcDbEntity
  8
OUTLINE
100
AcDbPolyline
 90
2
 70
0
 10
42.0
 20
141.175
 10
42.0
 20
139.5
  0
LWPOLYLINE
  5
BD
330
17
100
AcDbEntity
  8
OUTLINE
100
AcDbPolyline
 90
2
 70
0
 10
42.0
 20
144.5
 10
42.0
 20
142.825
  0
LWPOLYLINE
  5
BE
330
17
100
AcDbEntity
  8
OUTLINE
100
AcDbPolyline
 90
2
 70
0
 10
42.0
 20
142.825
 10
47.0
 20
142.825
  0
LWPOLYLINE
  5
BF
330
17
100
AcDbEntity
  8
OUTLINE
100
AcDbPolyline
 90
2
 70
0
 10
42.0
 20
141.175
 10
47.0
 20
141.175
  0
LWPOLYLINE
  5
C0
330
17
100
AcDbEntity
  8
OUTLINE
100
AcDbPolyline
 90
2
 70
0
 10
47.0
 20
142.825
 10
47.0
 20
141.175
  0
TEXT
  5
C1
330
17
100
AcDbEntity
  8
TEXT
100
AcDbText
 10
42.0
 20
160.0
 30
0.0
 40
2.8
  1
轴心真实剖面 | 1:2
  7
CJK
 11
42.0
 21
160.0
 31
0.0
100
AcDbText
  0
TEXT
  5
C2
330
17
100
AcDbEntity
  8
TEXT
100
AcDbText
 10
26.0
 20
115.0
 30
0.0
 40
2.7
  1
两端共同轴线直线度Ø0.02（全长）；两滑动段圆柱度0.01；中段一般Ra≤1.6μm。
  7
CJK
 11
26.0
 21
115.0
 31
0.0
100
AcDbText
  0
TEXT
  5
C3
330
17
100
AcDbEntity
  8
TEXT
100
AcDbText
 10
26.0
 20
105.0
 30
0.0
 40
2.7
  1
接地铣平：局部X404～421（总装X160～177），平面Z=5.50±0.05；自然交线宽约8.66 REF。
  7
CJK
 11
26.0
 21
105.0
 31
0.0
100
AcDbText
  0
TEXT
  5
C4
330
17
100
AcDbEntity
  8
TEXT
100
AcDbText
 10
26.0
 20
95.0
 30
0.0
 40
2.7
  1
接地孔中心局部(X,Y)=(409±0.05,0±0.05)，轴向Z；M3×0.5-6H有效牙≥6。
  7
CJK
 11
26.0
 21
95.0
 31
0.0
100
AcDbText
  0
TEXT
  5
C5
330
17
100
AcDbEntity
  8
TEXT
100
AcDbText
 10
26.0
 20
85.0
 30
0.0
 40
2.7
  1
接地底孔Ø2.5深7 MIN自平面计，钻尖再深≤0.8；局部无阳极膜，钝化后清洗。
  7
CJK
 11
26.0
 21
85.0
 31
0.0
100
AcDbText
  0
TEXT
  5
C6
330
17
100
AcDbEntity
  8
TEXT
100
AcDbText
 10
26.0
 20
75.0
 30
0.0
 40
2.7
  1
右肩局部X430；总长和肩距优先控制，两端伸出对称度0.03。不得用套管焊接代替。
  7
CJK
 11
26.0
 21
75.0
 31
0.0
100
AcDbText
  0
TEXT
  5
C7
330
17
100
AcDbEntity
  8
TEXT
100
AcDbText
 10
26.0
 20
65.0
 30
0.0
 40
2.7
  1
接地平面/孔在两根导杆上同向安装；禁止自行打磨滑动段降低摩擦。
  7
CJK
 11
26.0
 21
65.0
 31
0.0
100
AcDbText
  0
ENDSEC
  0
SECTION
  2
OBJECTS
  0
DICTIONARY
  5
A
330
0
100
AcDbDictionary
281
1
  3
ACAD_COLOR
350
B
  3
ACAD_GROUP
350
C
  3
ACAD_LAYOUT
350
D
  3
ACAD_MATERIAL
350
E
  3
ACAD_MLEADERSTYLE
350
F
  3
ACAD_MLINESTYLE
350
10
  3
ACAD_PLOTSETTINGS
350
11
  3
ACAD_PLOTSTYLENAME
350
12
  3
ACAD_SCALELIST
350
14
  3
ACAD_TABLESTYLE
350
15
  3
ACAD_VISUALSTYLE
350
16
  3
EZDXF_META
350
2D
  0
DICTIONARY
  5
B
330
A
100
AcDbDictionary
281
1
  0
DICTIONARY
  5
C
330
A
100
AcDbDictionary
281
1
  0
DICTIONARY
  5
D
330
A
100
AcDbDictionary
281
1
  3
Model
350
1A
  3
Layout1
350
1E
  0
DICTIONARY
  5
E
330
A
100
AcDbDictionary
281
1
  3
ByBlock
350
1F
  3
ByLayer
350
20
  3
Global
350
21
  0
DICTIONARY
  5
F
330
A
100
AcDbDictionary
281
1
  3
Standard
350
2C
  0
DICTIONARY
  5
10
330
A
100
AcDbDictionary
281
1
  3
Standard
350
22
  0
DICTIONARY
  5
11
330
A
100
AcDbDictionary
281
1
  0
ACDBDICTIONARYWDFLT
  5
12
330
A
100
AcDbDictionary
281
1
  3
Normal
350
13
100
AcDbDictionaryWithDefault
340
13
  0
ACDBPLACEHOLDER
  5
13
330
12
  0
DICTIONARY
  5
14
330
A
100
AcDbDictionary
281
1
  0
DICTIONARY
  5
15
330
A
100
AcDbDictionary
281
1
  0
DICTIONARY
  5
16
330
A
100
AcDbDictionary
281
1
  0
LAYOUT
  5
1A
330
D
100
AcDbPlotSettings
  1

  4
A3
  6

 40
7.5
 41
20.0
 42
7.5
 43
20.0
 44
420.0
 45
297.0
 46
0.0
 47
0.0
 48
0.0
 49
0.0
140
0.0
141
0.0
142
1.0
143
1.0
 70
1024
 72
1
 73
0
 74
5
  7

 75
16
 76
0
 77
2
 78
300
147
1.0
148
0.0
149
0.0
100
AcDbLayout
  1
Model
 70
1
 71
0
 10
0.0
 20
0.0
 11
420.0
 21
297.0
 12
0.0
 22
0.0
 32
0.0
 14
1e+20
 24
1e+20
 34
1e+20
 15
-1e+20
 25
-1e+20
 35
-1e+20
146
0.0
 13
0.0
 23
0.0
 33
0.0
 16
1.0
 26
0.0
 36
0.0
 17
0.0
 27
1.0
 37
0.0
 76
1
330
17
  0
LAYOUT
  5
1E
330
D
100
AcDbPlotSettings
  1

  4
A3
  6

 40
7.5
 41
20.0
 42
7.5
 43
20.0
 44
420.0
 45
297.0
 46
0.0
 47
0.0
 48
0.0
 49
0.0
140
0.0
141
0.0
142
1.0
143
1.0
 70
0
 72
1
 73
0
 74
5
  7

 75
16
 76
0
 77
2
 78
300
147
1.0
148
0.0
149
0.0
100
AcDbLayout
  1
Layout1
 70
1
 71
1
 10
0.0
 20
0.0
 11
420.0
 21
297.0
 12
0.0
 22
0.0
 32
0.0
 14
1e+20
 24
1e+20
 34
1e+20
 15
-1e+20
 25
-1e+20
 35
-1e+20
146
0.0
 13
0.0
 23
0.0
 33
0.0
 16
1.0
 26
0.0
 36
0.0
 17
0.0
 27
1.0
 37
0.0
 76
1
330
1B
  0
MATERIAL
  5
1F
102
{ACAD_REACTORS
330
E
102
}
330
E
100
AcDbMaterial
  1
ByBlock
  2

 70
0
 40
1.0
 71
1
 41
1.0
 91
-1023410177
 42
1.0
 72
1
  3

 73
1
 74
1
 75
1
 44
0.5
 73
0
 45
1.0
 46
1.0
 77
1
  4

 78
1
 79
1
170
1
 48
1.0
171
1
  6

172
1
173
1
174
1
140
1.0
141
1.0
175
1
  7

176
1
177
1
178
1
143
1.0
179
1
  8

270
1
271
1
272
1
145
1.0
146
1.0
273
1
  9

274
1
275
1
276
1
 42
1.0
 72
1
  3

 73
1
 74
1
 75
1
 94
63
  0
MATERIAL
  5
20
102
{ACAD_REACTORS
330
E
102
}
330
E
100
AcDbMaterial
  1
ByLayer
  2

 70
0
 40
1.0
 71
1
 41
1.0
 91
-1023410177
 42
1.0
 72
1
  3

 73
1
 74
1
 75
1
 44
0.5
 73
0
 45
1.0
 46
1.0
 77
1
  4

 78
1
 79
1
170
1
 48
1.0
171
1
  6

172
1
173
1
174
1
140
1.0
141
1.0
175
1
  7

176
1
177
1
178
1
143
1.0
179
1
  8

270
1
271
1
272
1
145
1.0
146
1.0
273
1
  9

274
1
275
1
276
1
 42
1.0
 72
1
  3

 73
1
 74
1
 75
1
 94
63
  0
MATERIAL
  5
21
102
{ACAD_REACTORS
330
E
102
}
330
E
100
AcDbMaterial
  1
Global
  2

 70
0
 40
1.0
 71
1
 41
1.0
 91
-1023410177
 42
1.0
 72
1
  3

 73
1
 74
1
 75
1
 44
0.5
 73
0
 45
1.0
 46
1.0
 77
1
  4

 78
1
 79
1
170
1
 48
1.0
171
1
  6

172
1
173
1
174
1
140
1.0
141
1.0
175
1
  7

176
1
177
1
178
1
143
1.0
179
1
  8

270
1
271
1
272
1
145
1.0
146
1.0
273
1
  9

274
1
275
1
276
1
 42
1.0
 72
1
  3

 73
1
 74
1
 75
1
 94
63
  0
MLINESTYLE
  5
22
102
{ACAD_REACTORS
330
10
102
}
330
10
100
AcDbMlineStyle
  2
Standard
 70
0
  3

 62
256
 51
90.0
 52
90.0
 71
2
 49
0.5
 62
256
  6
BYLAYER
 49
-0.5
 62
256
  6
BYLAYER
  0
MLEADERSTYLE
  5
2C
102
{ACAD_REACTORS
330
F
102
}
330
F
100
AcDbMLeaderStyle
179
2
170
2
171
1
172
0
 90
2
 40
0.0
 41
0.0
173
1
 91
-1056964608
 92
-2
290
1
 42
2.0
291
1
 43
8.0
  3
Standard
 44
4.0
300

342
29
174
1
175
1
176
0
178
1
 93
-1056964608
 45
4.0
292
0
297
0
 46
4.0
 94
-1056964608
 47
1.0
 49
1.0
140
1.0
294
1
141
0.0
177
0
142
1.0
295
0
296
0
143
3.75
271
0
272
9
273
9
  0
DICTIONARY
  5
2D
330
A
100
AcDbDictionary
280
1
281
1
  3
CREATED_BY_EZDXF
350
2E
  3
WRITTEN_BY_EZDXF
350
CA
  0
DICTIONARYVAR
  5
2E
330
2D
100
DictionaryVariables
280
0
  1
1.4.4 @ 2026-09-13T11:05:27.831934+00:00
  0
DICTIONARYVAR
  5
CA
330
2D
100
DictionaryVariables
280
0
  1
1.4.4 @ 2026-09-13T11:05:27.841696+00:00
  0
ENDSEC
  0
EOF
