  0
SECTION
  2
HEADER
  9
$ACADVER
  1
AC1024
  9
$ACADMAINTVER
 70
6
  9
$DWGCODEPAGE
  3
ANSI_1252
  9
$LASTSAVEDBY
  1
ezdxf
  9
$INSBASE
 10
0.0
 20
0.0
 30
0.0
  9
$EXTMIN
 10
1e+20
 20
1e+20
 30
1e+20
  9
$EXTMAX
 10
-1e+20
 20
-1e+20
 30
-1e+20
  9
$LIMMIN
 10
0.0
 20
0.0
  9
$LIMMAX
 10
420.0
 20
297.0
  9
$ORTHOMODE
 70
0
  9
$REGENMODE
 70
1
  9
$FILLMODE
 70
1
  9
$QTEXTMODE
 70
0
  9
$MIRRTEXT
 70
1
  9
$LTSCALE
 40
1.0
  9
$ATTMODE
 70
1
  9
$TEXTSIZE
 40
2.5
  9
$TRACEWID
 40
1.0
  9
$TEXTSTYLE
  7
Standard
  9
$CLAYER
  8
0
  9
$CELTYPE
  6
ByLayer
  9
$CECOLOR
 62
256
  9
$CELTSCALE
 40
1.0
  9
$DISPSILH
 70
0
  9
$DIMSCALE
 40
1.0
  9
$DIMASZ
 40
2.5
  9
$DIMEXO
 40
0.625
  9
$DIMDLI
 40
3.75
  9
$DIMRND
 40
0.0
  9
$DIMDLE
 40
0.0
  9
$DIMEXE
 40
1.25
  9
$DIMTP
 40
0.0
  9
$DIMTM
 40
0.0
  9
$DIMTXT
 40
2.5
  9
$DIMCEN
 40
2.5
  9
$DIMTSZ
 40
0.0
  9
$DIMTOL
 70
0
  9
$DIMLIM
 70
0
  9
$DIMTIH
 70
0
  9
$DIMTOH
 70
0
  9
$DIMSE1
 70
0
  9
$DIMSE2
 70
0
  9
$DIMTAD
 70
1
  9
$DIMZIN
 70
8
  9
$DIMBLK
  1

  9
$DIMASO
 70
1
  9
$DIMSHO
 70
1
  9
$DIMPOST
  1

  9
$DIMAPOST
  1

  9
$DIMALT
 70
0
  9
$DIMALTD
 70
3
  9
$DIMALTF
 40
0.03937007874
  9
$DIMLFAC
 40
1.0
  9
$DIMTOFL
 70
1
  9
$DIMTVP
 40
0.0
  9
$DIMTIX
 70
0
  9
$DIMSOXD
 70
0
  9
$DIMSAH
 70
0
  9
$DIMBLK1
  1

  9
$DIMBLK2
  1

  9
$DIMSTYLE
  2
ISO-25
  9
$DIMCLRD
 70
0
  9
$DIMCLRE
 70
0
  9
$DIMCLRT
 70
0
  9
$DIMTFAC
 40
1.0
  9
$DIMGAP
 40
0.625
  9
$DIMJUST
 70
0
  9
$DIMSD1
 70
0
  9
$DIMSD2
 70
0
  9
$DIMTOLJ
 70
0
  9
$DIMTZIN
 70
8
  9
$DIMALTZ
 70
0
  9
$DIMALTTZ
 70
0
  9
$DIMUPT
 70
0
  9
$DIMDEC
 70
2
  9
$DIMTDEC
 70
2
  9
$DIMALTU
 70
2
  9
$DIMALTTD
 70
3
  9
$DIMTXSTY
  7
Standard
  9
$DIMAUNIT
 70
0
  9
$DIMADEC
 70
0
  9
$DIMALTRND
 40
0.0
  9
$DIMAZIN
 70
0
  9
$DIMDSEP
 70
44
  9
$DIMATFIT
 70
3
  9
$DIMFRAC
 70
0
  9
$DIMLDRBLK
  1

  9
$DIMLUNIT
 70
2
  9
$DIMLWD
 70
-2
  9
$DIMLWE
 70
-2
  9
$DIMTMOVE
 70
0
  9
$DIMFXL
 40
1.0
  9
$DIMFXLON
 70
0
  9
$DIMJOGANG
 40
0.785398163397
  9
$DIMTFILL
 70
0
  9
$DIMTFILLCLR
 70
0
  9
$DIMARCSYM
 70
0
  9
$DIMLTYPE
  6

  9
$DIMLTEX1
  6

  9
$DIMLTEX2
  6

  9
$DIMTXTDIRECTION
 70
0
  9
$LUNITS
 70
2
  9
$LUPREC
 70
4
  9
$SKETCHINC
 40
1.0
  9
$FILLETRAD
 40
10.0
  9
$AUNITS
 70
0
  9
$AUPREC
 70
2
  9
$MENU
  1
.
  9
$ELEVATION
 40
0.0
  9
$PELEVATION
 40
0.0
  9
$THICKNESS
 40
0.0
  9
$LIMCHECK
 70
0
  9
$CHAMFERA
 40
0.0
  9
$CHAMFERB
 40
0.0
  9
$CHAMFERC
 40
0.0
  9
$CHAMFERD
 40
0.0
  9
$SKPOLY
 70
0
  9
$TDCREATE
 40
2461297.7954513887
  9
$TDUCREATE
 40
2458532.153996898
  9
$TDUPDATE
 40
2461297.7954513887
  9
$TDUUPDATE
 40
2458532.1544311
  9
$TDINDWG
 40
0.0
  9
$TDUSRTIMER
 40
0.0
  9
$USRTIMER
 70
1
  9
$ANGBASE
 50
0.0
  9
$ANGDIR
 70
0
  9
$PDMODE
 70
0
  9
$PDSIZE
 40
0.0
  9
$PLINEWID
 40
0.0
  9
$SPLFRAME
 70
0
  9
$SPLINETYPE
 70
6
  9
$SPLINESEGS
 70
8
  9
$HANDSEED
  5
E3
  9
$SURFTAB1
 70
6
  9
$SURFTAB2
 70
6
  9
$SURFTYPE
 70
6
  9
$SURFU
 70
6
  9
$SURFV
 70
6
  9
$UCSBASE
  2

  9
$UCSNAME
  2

  9
$UCSORG
 10
0.0
 20
0.0
 30
0.0
  9
$UCSXDIR
 10
1.0
 20
0.0
 30
0.0
  9
$UCSYDIR
 10
0.0
 20
1.0
 30
0.0
  9
$UCSORTHOREF
  2

  9
$UCSORTHOVIEW
 70
0
  9
$UCSORGTOP
 10
0.0
 20
0.0
 30
0.0
  9
$UCSORGBOTTOM
 10
0.0
 20
0.0
 30
0.0
  9
$UCSORGLEFT
 10
0.0
 20
0.0
 30
0.0
  9
$UCSORGRIGHT
 10
0.0
 20
0.0
 30
0.0
  9
$UCSORGFRONT
 10
0.0
 20
0.0
 30
0.0
  9
$UCSORGBACK
 10
0.0
 20
0.0
 30
0.0
  9
$PUCSBASE
  2

  9
$PUCSNAME
  2

  9
$PUCSORG
 10
0.0
 20
0.0
 30
0.0
  9
$PUCSXDIR
 10
1.0
 20
0.0
 30
0.0
  9
$PUCSYDIR
 10
0.0
 20
1.0
 30
0.0
  9
$PUCSORTHOREF
  2

  9
$PUCSORTHOVIEW
 70
0
  9
$PUCSORGTOP
 10
0.0
 20
0.0
 30
0.0
  9
$PUCSORGBOTTOM
 10
0.0
 20
0.0
 30
0.0
  9
$PUCSORGLEFT
 10
0.0
 20
0.0
 30
0.0
  9
$PUCSORGRIGHT
 10
0.0
 20
0.0
 30
0.0
  9
$PUCSORGFRONT
 10
0.0
 20
0.0
 30
0.0
  9
$PUCSORGBACK
 10
0.0
 20
0.0
 30
0.0
  9
$USERI1
 70
0
  9
$USERI2
 70
0
  9
$USERI3
 70
0
  9
$USERI4
 70
0
  9
$USERI5
 70
0
  9
$USERR1
 40
0.0
  9
$USERR2
 40
0.0
  9
$USERR3
 40
0.0
  9
$USERR4
 40
0.0
  9
$USERR5
 40
0.0
  9
$WORLDVIEW
 70
1
  9
$SHADEDGE
 70
3
  9
$SHADEDIF
 70
70
  9
$TILEMODE
 70
1
  9
$MAXACTVP
 70
64
  9
$PINSBASE
 10
0.0
 20
0.0
 30
0.0
  9
$PLIMCHECK
 70
0
  9
$PEXTMIN
 10
1e+20
 20
1e+20
 30
1e+20
  9
$PEXTMAX
 10
-1e+20
 20
-1e+20
 30
-1e+20
  9
$PLIMMIN
 10
0.0
 20
0.0
  9
$PLIMMAX
 10
420.0
 20
297.0
  9
$UNITMODE
 70
0
  9
$VISRETAIN
 70
1
  9
$PLINEGEN
 70
0
  9
$PSLTSCALE
 70
1
  9
$TREEDEPTH
 70
3020
  9
$CMLSTYLE
  2
Standard
  9
$CMLJUST
 70
0
  9
$CMLSCALE
 40
20.0
  9
$PROXYGRAPHICS
 70
1
  9
$MEASUREMENT
 70
1
  9
$CELWEIGHT
370
-1
  9
$ENDCAPS
280
0
  9
$JOINSTYLE
280
0
  9
$LWDISPLAY
290
0
  9
$INSUNITS
 70
4
  9
$HYPERLINKBASE
  1

  9
$STYLESHEET
  1

  9
$XEDIT
290
1
  9
$CEPSNTYPE
380
0
  9
$PSTYLEMODE
290
1
  9
$FINGERPRINTGUID
  2
{C79579E4-C64B-4C4C-BAF7-2F77C0C056B7}
  9
$VERSIONGUID
  2
{ACC354D1-59E3-4D66-8EB1-7AFDA571B137}
  9
$EXTNAMES
290
1
  9
$PSVPSCALE
 40
0.0
  9
$OLESTARTUP
290
0
  9
$SORTENTS
280
127
  9
$INDEXCTL
280
0
  9
$HIDETEXT
280
1
  9
$XCLIPFRAME
280
1
  9
$HALOGAP
280
0
  9
$OBSCOLOR
 70
257
  9
$OBSLTYPE
280
0
  9
$INTERSECTIONDISPLAY
280
0
  9
$INTERSECTIONCOLOR
 70
257
  9
$DIMASSOC
280
2
  9
$PROJECTNAME
  1

  9
$CAMERADISPLAY
290
0
  9
$LENSLENGTH
 40
50.0
  9
$CAMERAHEIGHT
 40
0.0
  9
$STEPSPERSEC
 40
24.0
  9
$STEPSIZE
 40
100.0
  9
$3DDWFPREC
 40
2.0
  9
$PSOLWIDTH
 40
0.005
  9
$PSOLHEIGHT
 40
0.08
  9
$LOFTANG1
 40
1.570796326795
  9
$LOFTANG2
 40
1.570796326795
  9
$LOFTMAG1
 40
0.0
  9
$LOFTMAG2
 40
0.0
  9
$LOFTPARAM
 70
7
  9
$LOFTNORMALS
280
1
  9
$LATITUDE
 40
37.795
  9
$LONGITUDE
 40
-122.394
  9
$NORTHDIRECTION
 40
0.0
  9
$TIMEZONE
 70
-8000
  9
$LIGHTGLYPHDISPLAY
280
1
  9
$TILEMODELIGHTSYNCH
280
1
  9
$CMATERIAL
347
20
  9
$SOLIDHIST
280
0
  9
$SHOWHIST
280
1
  9
$DWFFRAME
280
2
  9
$DGNFRAME
280
2
  9
$REALWORLDSCALE
290
1
  9
$INTERFERECOLOR
 62
256
  9
$CSHADOW
280
0
  9
$SHADOWPLANELOCATION
 40
0.0
  0
ENDSEC
  0
SECTION
  2
CLASSES
  0
CLASS
  1
ACDBDICTIONARYWDFLT
  2
AcDbDictionaryWithDefault
  3
ObjectDBX Classes
 90
0
 91
0
280
0
281
0
  0
CLASS
  1
SUN
  2
AcDbSun
  3
SCENEOE
 90
1153
 91
0
280
0
281
0
  0
CLASS
  1
VISUALSTYLE
  2
AcDbVisualStyle
  3
ObjectDBX Classes
 90
4095
 91
0
280
0
281
0
  0
CLASS
  1
MATERIAL
  2
AcDbMaterial
  3
ObjectDBX Classes
 90
1153
 91
0
280
0
281
0
  0
CLASS
  1
SCALE
  2
AcDbScale
  3
ObjectDBX Classes
 90
1153
 91
0
280
0
281
0
  0
CLASS
  1
TABLESTYLE
  2
AcDbTableStyle
  3
ObjectDBX Classes
 90
4095
 91
0
280
0
281
0
  0
CLASS
  1
MLEADERSTYLE
  2
AcDbMLeaderStyle
  3
ACDB_MLEADERSTYLE_CLASS
 90
4095
 91
0
280
0
281
0
  0
CLASS
  1
DICTIONARYVAR
  2
AcDbDictionaryVar
  3
ObjectDBX Classes
 90
0
 91
0
280
0
281
0
  0
CLASS
  1
CELLSTYLEMAP
  2
AcDbCellStyleMap
  3
ObjectDBX Classes
 90
1152
 91
0
280
0
281
0
  0
CLASS
  1
MENTALRAYRENDERSETTINGS
  2
AcDbMentalRayRenderSettings
  3
SCENEOE
 90
1024
 91
0
280
0
281
0
  0
CLASS
  1
ACDBDETAILVIEWSTYLE
  2
AcDbDetailViewStyle
  3
ObjectDBX Classes
 90
1025
 91
0
280
0
281
0
  0
CLASS
  1
ACDBSECTIONVIEWSTYLE
  2
AcDbSectionViewStyle
  3
ObjectDBX Classes
 90
1025
 91
0
280
0
281
0
  0
CLASS
  1
RASTERVARIABLES
  2
AcDbRasterVariables
  3
ISM
 90
0
 91
0
280
0
281
0
  0
CLASS
  1
LAYOUT
  2
AcDbLayout
  3
ObjectDBX Classes
 90
0
 91
0
280
0
281
0
  0
CLASS
  1
ACDBPLACEHOLDER
  2
AcDbPlaceHolder
  3
ObjectDBX Classes
 90
0
 91
0
280
0
281
0
  0
ENDSEC
  0
SECTION
  2
TABLES
  0
TABLE
  2
VPORT
  5
8
330
0
100
AcDbSymbolTable
 70
1
  0
VPORT
  5
23
330
8
100
AcDbSymbolTableRecord
100
AcDbViewportTableRecord
  2
*Active
 70
0
 10
0.0
 20
0.0
 11
1.0
 21
1.0
 12
0.0
 22
0.0
 13
0.0
 23
0.0
 14
0.5
 24
0.5
 15
0.5
 25
0.5
 16
0.0
 26
0.0
 36
1.0
 17
0.0
 27
0.0
 37
0.0
 40
1000.0
 41
1.34
 42
50.0
 43
0.0
 44
0.0
 50
0.0
 51
0.0
 71
0
 72
1000
 73
1
 74
3
 75
0
 76
0
 77
0
 78
0
281
0
 65
0
146
0.0
  0
ENDTAB
  0
TABLE
  2
LTYPE
  5
2
330
0
100
AcDbSymbolTable
 70
3
  0
LTYPE
  5
24
330
2
100
AcDbSymbolTableRecord
100
AcDbLinetypeTableRecord
  2
ByBlock
 70
0
  3

 72
65
 73
0
 40
0.0
  0
LTYPE
  5
25
330
2
100
AcDbSymbolTableRecord
100
AcDbLinetypeTableRecord
  2
ByLayer
 70
0
  3

 72
65
 73
0
 40
0.0
  0
LTYPE
  5
26
330
2
100
AcDbSymbolTableRecord
100
AcDbLinetypeTableRecord
  2
Continuous
 70
0
  3

 72
65
 73
0
 40
0.0
  0
ENDTAB
  0
TABLE
  2
LAYER
  5
1
330
0
100
AcDbSymbolTable
 70
9
  0
LAYER
  5
27
330
1
100
AcDbSymbolTableRecord
100
AcDbLayerTableRecord
  2
0
 70
0
 62
7
  6
Continuous
370
-3
390
13
347
21
  0
LAYER
  5
28
330
1
100
AcDbSymbolTableRecord
100
AcDbLayerTableRecord
  2
Defpoints
 70
0
 62
7
  6
Continuous
290
0
370
-3
390
13
347
21
  0
LAYER
  5
2F
330
1
100
AcDbSymbolTableRecord
100
AcDbLayerTableRecord
  2
OUTLINE
 70
0
 62
7
  6
Continuous
370
-3
390
13
347
21
  0
LAYER
  5
30
330
1
100
AcDbSymbolTableRecord
100
AcDbLayerTableRecord
  2
TANGENT
 70
0
 62
8
  6
Continuous
370
-3
390
13
347
21
  0
LAYER
  5
31
330
1
100
AcDbSymbolTableRecord
100
AcDbLayerTableRecord
  2
HIDDEN
 70
0
 62
8
  6
Continuous
370
-3
390
13
347
21
  0
LAYER
  5
32
330
1
100
AcDbSymbolTableRecord
100
AcDbLayerTableRecord
  2
DIM
 70
0
 62
7
  6
Continuous
370
-3
390
13
347
21
  0
LAYER
  5
33
330
1
100
AcDbSymbolTableRecord
100
AcDbLayerTableRecord
  2
TEXT
 70
0
 62
7
  6
Continuous
370
-3
390
13
347
21
  0
LAYER
  5
34
330
1
100
AcDbSymbolTableRecord
100
AcDbLayerTableRecord
  2
HOLD
 70
0
 62
1
  6
Continuous
370
-3
390
13
347
21
  0
LAYER
  5
35
330
1
100
AcDbSymbolTableRecord
100
AcDbLayerTableRecord
  2
CENTER
 70
0
 62
4
  6
Continuous
370
-3
390
13
347
21
  0
ENDTAB
  0
TABLE
  2
STYLE
  5
5
330
0
100
AcDbSymbolTable
 70
2
  0
STYLE
  5
29
330
5
100
AcDbSymbolTableRecord
100
AcDbTextStyleTableRecord
  2
Standard
 70
0
 40
0.0
 41
1.0
 50
0.0
 71
0
 42
2.5
  3
txt
  4

  0
STYLE
  5
36
330
5
100
AcDbSymbolTableRecord
100
AcDbTextStyleTableRecord
  2
CJK
 70
0
 40
0.0
 41
1.0
 50
0.0
 71
0
 42
2.5
  3
Arial Unicode.ttf
  4

  0
ENDTAB
  0
TABLE
  2
VIEW
  5
7
330
0
100
AcDbSymbolTable
 70
0
  0
ENDTAB
  0
TABLE
  2
UCS
  5
6
330
0
100
AcDbSymbolTable
 70
0
  0
ENDTAB
  0
TABLE
  2
APPID
  5
3
330
0
100
AcDbSymbolTable
 70
3
  0
APPID
  5
2A
330
3
100
AcDbSymbolTableRecord
100
AcDbRegAppTableRecord
  2
ACAD
 70
0
  0
APPID
  5
E0
330
3
100
AcDbSymbolTableRecord
100
AcDbRegAppTableRecord
  2
HATCHBACKGROUNDCOLOR
 70
0
  0
APPID
  5
E1
330
3
100
AcDbSymbolTableRecord
100
AcDbRegAppTableRecord
  2
EZDXF
 70
0
  0
ENDTAB
  0
TABLE
  2
DIMSTYLE
  5
4
330
0
100
AcDbSymbolTable
 70
1
100
AcDbDimStyleTable
  0
DIMSTYLE
105
2B
330
4
100
AcDbSymbolTableRecord
100
AcDbDimStyleTableRecord
  2
Standard
 70
0
 40
1.0
 41
2.5
 42
0.625
 43
3.75
 44
1.25
 45
0.0
 46
0.0
 47
0.0
 48
0.0
 49
2.5
140
2.5
141
2.5
142
0.0
143
0.03937007874
144
1.0
145
0.0
146
1.0
147
0.625
148
0.0
 69
0
 70
0
 71
0
 72
0
 73
0
 74
0
 75
0
 76
0
 77
1
 78
8
 79
3
170
0
171
3
172
1
173
0
174
0
175
0
176
0
177
0
178
0
179
2
271
2
272
2
273
2
274
3
275
0
276
0
277
2
278
44
279
0
280
0
281
0
282
0
283
0
284
8
285
0
286
0
288
0
289
3
290
0
371
-2
372
-2
  0
ENDTAB
  0
TABLE
  2
BLOCK_RECORD
  5
9
330
0
100
AcDbSymbolTable
 70
2
  0
BLOCK_RECORD
  5
17
330
9
100
AcDbSymbolTableRecord
100
AcDbBlockTableRecord
  2
*Model_Space
340
1A
 70
0
280
1
281
0
  0
BLOCK_RECORD
  5
1B
330
9
100
AcDbSymbolTableRecord
100
AcDbBlockTableRecord
  2
*Paper_Space
340
1E
 70
0
280
1
281
0
  0
ENDTAB
  0
ENDSEC
  0
SECTION
  2
BLOCKS
  0
BLOCK
  5
18
330
17
100
AcDbEntity
  8
0
100
AcDbBlockBegin
  2
*Model_Space
 70
0
 10
0.0
 20
0.0
 30
0.0
  3
*Model_Space
  1

  0
ENDBLK
  5
19
330
17
100
AcDbEntity
  8
0
100
AcDbBlockEnd
  0
BLOCK
  5
1C
330
1B
100
AcDbEntity
  8
0
100
AcDbBlockBegin
  2
*Paper_Space
 70
0
 10
0.0
 20
0.0
 30
0.0
  3
*Paper_Space
  1

  0
ENDBLK
  5
1D
330
1B
100
AcDbEntity
  8
0
100
AcDbBlockEnd
  0
ENDSEC
  0
SECTION
  2
ENTITIES
  0
LWPOLYLINE
  5
37
330
17
100
AcDbEntity
  8
OUTLINE
100
AcDbPolyline
 90
5
 70
0
 10
10.0
 20
10.0
 10
410.0
 20
10.0
 10
410.0
 20
287.0
 10
10.0
 20
287.0
 10
10.0
 20
10.0
  0
TEXT
  5
38
330
17
100
AcDbEntity
  8
TEXT
100
AcDbText
 10
15.0
 20
278.0
 30
0.0
 40
5.0
  1
一体叉形端盖 / 机械开启止挡
  7
CJK
 11
15.0
 21
278.0
 31
0.0
100
AcDbText
  0
TEXT
  5
39
330
17
100
AcDbEntity
  8
TEXT
100
AcDbText
 10
405.0
 20
279.0
 30
0.0
 40
3.0
  1
WF300-DH | P1D1 | 07/12
  7
CJK
 72
2
 11
405.0
 21
279.0
 31
0.0
100
AcDbText
  0
LINE
  5
3A
330
17
100
AcDbEntity
  8
OUTLINE
100
AcDbLine
 10
10.0
 20
273.0
 30
0.0
 11
410.0
 21
273.0
 31
0.0
  0
LINE
  5
3B
330
17
100
AcDbEntity
  8
OUTLINE
100
AcDbLine
 10
10.0
 20
38.0
 30
0.0
 11
410.0
 21
38.0
 31
0.0
  0
TEXT
  5
3C
330
17
100
AcDbEntity
  8
HOLD
100
AcDbText
 10
15.0
 20
30.0
 30
0.0
 40
3.3
  1
状态：工程试制 / 首件评审后执行；未获实片使用批准
  7
CJK
 11
15.0
 21
30.0
 31
0.0
100
AcDbText
  0
TEXT
  5
3D
330
17
100
AcDbEntity
  8
TEXT
100
AcDbText
 10
15.0
 20
22.0
 30
0.0
 40
2.6
  1
单位mm；成品尺寸；试制公差见第11页。复杂轮廓依同版STEP；不得量图。
  7
CJK
 11
15.0
 21
22.0
 31
0.0
100
AcDbText
  0
TEXT
  5
3E
330
17
100
AcDbEntity
  8
TEXT
100
AcDbText
 10
15.0
 20
15.0
 30
0.0
 40
2.5
  1
源模型 SHA-256：11d3f112668962898e65…；晶圆厚0.50–0.90；外缘2接触；先假片验收。
  7
CJK
 11
15.0
 21
15.0
 31
0.0
100
AcDbText
  0
LINE
  5
3F
330
17
100
AcDbEntity
  8
OUTLINE
100
AcDbLine
 10
282.0
 20
10.0
 30
0.0
 11
282.0
 21
38.0
 31
0.0
  0
TEXT
  5
40
330
17
100
AcDbEntity
  8
TEXT
100
AcDbText
 10
287.0
 20
30.0
 30
0.0
 40
2.7
  1
图号 WF300-P1-CAP  |  比例 3:1
  7
CJK
 11
287.0
 21
30.0
 31
0.0
100
AcDbText
  0
TEXT
  5
41
330
17
100
AcDbEntity
  8
TEXT
100
AcDbText
 10
287.0
 20
22.0
 30
0.0
 40
2.6
  1
材料/来源：316L / 钝化
  7
CJK
 11
287.0
 21
22.0
 31
0.0
100
AcDbText
  0
TEXT
  5
42
330
17
100
AcDbEntity
  8
TEXT
100
AcDbText
 10
287.0
 20
15.0
 30
0.0
 40
2.6
  1
工艺/质量首件评审签署：待完成
  7
CJK
 11
287.0
 21
15.0
 31
0.0
100
AcDbText
  0
LWPOLYLINE
  5
43
330
17
100
AcDbEntity
  8
HIDDEN
100
AcDbPolyline
 90
15
 70
0
 10
139.0
 20
169.0
 10
139.0
 20
169.75216269999999
 10
139.0
 20
171.9709339
 10
139.0
 20
175.5450556
 10
139.0
 20
180.295306
 10
139.0
 20
185.9834878
 10
139.0
 20
192.3243721
 10
139.0
 20
199.0
 10
139.0
 20
205.6756279
 10
139.0
 20
212.0165122
 10
139.0
 20
217.704694
 10
139.0
 20
222.4549444
 10
139.0
 20
226.0290661
 10
139.0
 20
228.24783730000001
 10
139.0
 20
229.0
  0
LWPOLYLINE
  5
44
330
17
100
AcDbEntity
  8
HIDDEN
100
AcDbPolyline
 90
15
 70
0
 10
109.0
 20
229.0
 10
109.0
 20
228.9968971
 10
109.0
 20
228.987589
 10
109.0
 20
228.9720778
 10
109.0
 20
228.95036679999998
 10
109.0
 20
228.9224602
 10
109.0
 20
228.8883637
 10
109.0
 20
228.8480845
 10
109.0
 20
228.8016313
 10
109.0
 20
228.7490131
 10
109.0
 20
228.69024100000001
 10
109.0
 20
228.6253273
 10
109.0
 20
228.5542855
 10
109.0
 20
228.47713
 10
109.0
 20
228.393877
  0
LWPOLYLINE
  5
45
330
17
100
AcDbEntity
  8
HIDDEN
100
AcDbPolyline
 90
15
 70
0
 10
109.0
 20
228.393877
 10
109.0
 20
228.47713
 10
109.0
 20
228.5542855
 10
109.0
 20
228.6253273
 10
109.0
 20
228.69024100000001
 10
109.0
 20
228.7490131
 10
109.0
 20
228.8016313
 10
109.0
 20
228.8480845
 10
109.0
 20
228.8883637
 10
109.0
 20
228.9224602
 10
109.0
 20
228.95036679999998
 10
109.0
 20
228.9720778
 10
109.0
 20
228.987589
 10
109.0
 20
228.9968971
 10
109.0
 20
229.0
  0
LWPOLYLINE
  5
46
330
17
100
AcDbEntity
  8
HIDDEN
100
AcDbPolyline
 90
2
 70
0
 10
106.0
 20
228.393877
 10
109.0
 20
228.393877
  0
LWPOLYLINE
  5
47
330
17
100
AcDbEntity
  8
HIDDEN
100
AcDbPolyline
 90
15
 70
0
 10
106.0
 20
169.606123
 10
106.0
 20
171.333154
 10
106.0
 20
174.1156963
 10
106.0
 20
177.84759400000002
 10
106.0
 20
182.3864725
 10
106.0
 20
187.55917
 10
106.0
 20
193.1683438
 10
106.0
 20
199.0
 10
106.0
 20
204.8316562
 10
106.0
 20
210.44083
 10
106.0
 20
215.6135275
 10
106.0
 20
220.15240599999998
 10
106.0
 20
223.8843037
 10
106.0
 20
226.666846
 10
106.0
 20
228.393877
  0
LWPOLYLINE
  5
48
330
17
100
AcDbEntity
  8
HIDDEN
100
AcDbPolyline
 90
2
 70
0
 10
106.0
 20
169.606123
 10
109.0
 20
169.606123
  0
LWPOLYLINE
  5
49
330
17
100
AcDbEntity
  8
HIDDEN
100
AcDbPolyline
 90
15
 70
0
 10
109.0
 20
169.0
 10
109.0
 20
169.0031029
 10
109.0
 20
169.012411
 10
109.0
 20
169.0279222
 10
109.0
 20
169.04963320000002
 10
109.0
 20
169.0775398
 10
109.0
 20
169.1116363
 10
109.0
 20
169.1519155
 10
109.0
 20
169.1983687
 10
109.0
 20
169.2509869
 10
109.0
 20
169.30975899999999
 10
109.0
 20
169.3746727
 10
109.0
 20
169.4457145
 10
109.0
 20
169.52287
 10
109.0
 20
169.606123
  0
LWPOLYLINE
  5
4A
330
17
100
AcDbEntity
  8
HIDDEN
100
AcDbPolyline
 90
15
 70
0
 10
109.0
 20
169.606123
 10
109.0
 20
169.52287
 10
109.0
 20
169.4457145
 10
109.0
 20
169.3746727
 10
109.0
 20
169.30975899999999
 10
109.0
 20
169.2509869
 10
109.0
 20
169.1983687
 10
109.0
 20
169.1519155
 10
109.0
 20
169.1116363
 10
109.0
 20
169.0775398
 10
109.0
 20
169.04963320000002
 10
109.0
 20
169.0279222
 10
109.0
 20
169.012411
 10
109.0
 20
169.0031029
 10
109.0
 20
169.0
  0
LWPOLYLINE
  5
4B
330
17
100
AcDbEntity
  8
HIDDEN
100
AcDbPolyline
 90
15
 70
0
 10
139.0
 20
199.0
 10
139.0
 20
198.2442397
 10
139.0
 20
197.4979837
 10
139.0
 20
196.7706163
 10
139.0
 20
196.0712848
 10
139.0
 20
195.4087834
 10
139.0
 20
194.7914437
 10
139.0
 20
194.2270291
 10
139.0
 20
193.7226376
 10
139.0
 20
193.2846118
 10
139.0
 20
192.91846
 10
139.0
 20
192.6287875
 10
139.0
 20
192.4192366
 10
139.0
 20
192.2924425
 10
139.0
 20
192.25
  0
LWPOLYLINE
  5
4C
330
17
100
AcDbEntity
  8
HIDDEN
100
AcDbPolyline
 90
15
 70
0
 10
139.0
 20
192.25
 10
139.0
 20
192.4192366
 10
139.0
 20
192.91846
 10
139.0
 20
193.7226376
 10
139.0
 20
194.7914437
 10
139.0
 20
196.0712848
 10
139.0
 20
197.4979837
 10
139.0
 20
199.0
 10
139.0
 20
200.5020163
 10
139.0
 20
201.9287152
 10
139.0
 20
203.2085563
 10
139.0
 20
204.2773624
 10
139.0
 20
205.08154
 10
139.0
 20
205.5807634
 10
139.0
 20
205.75
  0
LWPOLYLINE
  5
4D
330
17
100
AcDbEntity
  8
HIDDEN
100
AcDbPolyline
 90
15
 70
0
 10
139.0
 20
205.75
 10
139.0
 20
205.7075575
 10
139.0
 20
205.5807634
 10
139.0
 20
205.3712125
 10
139.0
 20
205.08154
 10
139.0
 20
204.7153882
 10
139.0
 20
204.2773624
 10
139.0
 20
203.7729709
 10
139.0
 20
203.2085563
 10
139.0
 20
202.5912166
 10
139.0
 20
201.9287152
 10
139.0
 20
201.2293837
 10
139.0
 20
200.5020163
 10
139.0
 20
199.7557603
 10
139.0
 20
199.0
  0
LWPOLYLINE
  5
4E
330
17
100
AcDbEntity
  8
HIDDEN
100
AcDbPolyline
 90
2
 70
0
 10
106.0
 20
175.0
 10
106.0
 20
169.606123
  0
LWPOLYLINE
  5
4F
330
17
100
AcDbEntity
  8
HIDDEN
100
AcDbPolyline
 90
2
 70
0
 10
106.0
 20
175.0
 10
106.0
 20
169.606123
  0
LWPOLYLINE
  5
50
330
17
100
AcDbEntity
  8
HIDDEN
100
AcDbPolyline
 90
2
 70
0
 10
106.0
 20
228.393877
 10
106.0
 20
223.0
  0
LWPOLYLINE
  5
51
330
17
100
AcDbEntity
  8
HIDDEN
100
AcDbPolyline
 90
2
 70
0
 10
106.0
 20
228.393877
 10
106.0
 20
223.0
  0
LWPOLYLINE
  5
52
330
17
100
AcDbEntity
  8
HIDDEN
100
AcDbPolyline
 90
15
 70
0
 10
106.0
 20
199.0
 10
106.0
 20
197.2869436
 10
106.0
 20
195.5954296
 10
106.0
 20
193.9467304
 10
106.0
 20
192.3615787
 10
106.0
 20
190.8599092
 10
106.0
 20
189.460606
 10
106.0
 20
188.1812662
 10
106.0
 20
187.0379782
 10
106.0
 20
186.0451198
 10
106.0
 20
185.2151764
 10
106.0
 20
184.558585
 10
106.0
 20
184.0836028
 10
106.0
 20
183.7962031
 10
106.0
 20
183.7
  0
LWPOLYLINE
  5
53
330
17
100
AcDbEntity
  8
HIDDEN
100
AcDbPolyline
 90
15
 70
0
 10
106.0
 20
183.7
 10
106.0
 20
184.0836028
 10
106.0
 20
185.2151764
 10
106.0
 20
187.0379782
 10
106.0
 20
189.460606
 10
106.0
 20
192.3615787
 10
106.0
 20
195.5954296
 10
106.0
 20
199.0
 10
106.0
 20
202.4045704
 10
106.0
 20
205.6384213
 10
106.0
 20
208.539394
 10
106.0
 20
210.9620218
 10
106.0
 20
212.7848236
 10
106.0
 20
213.9163972
 10
106.0
 20
214.3
  0
LWPOLYLINE
  5
54
330
17
100
AcDbEntity
  8
HIDDEN
100
AcDbPolyline
 90
15
 70
0
 10
106.0
 20
214.3
 10
106.0
 20
214.2037969
 10
106.0
 20
213.9163972
 10
106.0
 20
213.441415
 10
106.0
 20
212.7848236
 10
106.0
 20
211.9548802
 10
106.0
 20
210.9620218
 10
106.0
 20
209.8187338
 10
106.0
 20
208.539394
 10
106.0
 20
207.1400908
 10
106.0
 20
205.6384213
 10
106.0
 20
204.0532696
 10
106.0
 20
202.4045704
 10
106.0
 20
200.7130564
 10
106.0
 20
199.0
  0
LWPOLYLINE
  5
55
330
17
100
AcDbEntity
  8
HIDDEN
100
AcDbPolyline
 90
2
 70
0
 10
109.0
 20
228.393877
 10
109.0
 20
229.0
  0
LWPOLYLINE
  5
56
330
17
100
AcDbEntity
  8
HIDDEN
100
AcDbPolyline
 90
2
 70
0
 10
40.0
 20
229.0
 10
109.0
 20
229.0
  0
LWPOLYLINE
  5
57
330
17
100
AcDbEntity
  8
HIDDEN
100
AcDbPolyline
 90
2
 70
0
 10
40.0
 20
223.0
 10
106.0
 20
223.0
  0
LWPOLYLINE
  5
58
330
17
100
AcDbEntity
  8
HIDDEN
100
AcDbPolyline
 90
2
 70
0
 10
40.0
 20
223.0
 10
40.0
 20
229.0
  0
LWPOLYLINE
  5
59
330
17
100
AcDbEntity
  8
HIDDEN
100
AcDbPolyline
 90
2
 70
0
 10
40.0
 20
175.0
 10
106.0
 20
175.0
  0
LWPOLYLINE
  5
5A
330
17
100
AcDbEntity
  8
HIDDEN
100
AcDbPolyline
 90
2
 70
0
 10
109.0
 20
169.0
 10
109.0
 20
169.606123
  0
LWPOLYLINE
  5
5B
330
17
100
AcDbEntity
  8
HIDDEN
100
AcDbPolyline
 90
2
 70
0
 10
40.0
 20
169.0
 10
109.0
 20
169.0
  0
LWPOLYLINE
  5
5C
330
17
100
AcDbEntity
  8
HIDDEN
100
AcDbPolyline
 90
2
 70
0
 10
40.0
 20
169.0
 10
40.0
 20
175.0
  0
LWPOLYLINE
  5
5D
330
17
100
AcDbEntity
  8
HIDDEN
100
AcDbPolyline
 90
15
 70
0
 10
130.0
 20
199.0
 10
130.0
 20
198.2442397
 10
130.0
 20
197.4979837
 10
130.0
 20
196.7706163
 10
130.0
 20
196.0712848
 10
130.0
 20
195.4087834
 10
130.0
 20
194.7914437
 10
130.0
 20
194.2270291
 10
130.0
 20
193.7226376
 10
130.0
 20
193.2846118
 10
130.0
 20
192.91846
 10
130.0
 20
192.6287875
 10
130.0
 20
192.4192366
 10
130.0
 20
192.2924425
 10
130.0
 20
192.25
  0
LWPOLYLINE
  5
5E
330
17
100
AcDbEntity
  8
HIDDEN
100
AcDbPolyline
 90
15
 70
0
 10
130.0
 20
192.25
 10
130.0
 20
192.4192366
 10
130.0
 20
192.91846
 10
130.0
 20
193.7226376
 10
130.0
 20
194.7914437
 10
130.0
 20
196.0712848
 10
130.0
 20
197.4979837
 10
130.0
 20
199.0
 10
130.0
 20
200.5020163
 10
130.0
 20
201.9287152
 10
130.0
 20
203.2085563
 10
130.0
 20
204.2773624
 10
130.0
 20
205.08154
 10
130.0
 20
205.5807634
 10
130.0
 20
205.75
  0
LWPOLYLINE
  5
5F
330
17
100
AcDbEntity
  8
HIDDEN
100
AcDbPolyline
 90
15
 70
0
 10
130.0
 20
205.75
 10
130.0
 20
205.7075575
 10
130.0
 20
205.5807634
 10
130.0
 20
205.3712125
 10
130.0
 20
205.08154
 10
130.0
 20
204.7153882
 10
130.0
 20
204.2773624
 10
130.0
 20
203.7729709
 10
130.0
 20
203.2085563
 10
130.0
 20
202.5912166
 10
130.0
 20
201.9287152
 10
130.0
 20
201.2293837
 10
130.0
 20
200.5020163
 10
130.0
 20
199.7557603
 10
130.0
 20
199.0
  0
LWPOLYLINE
  5
60
330
17
100
AcDbEntity
  8
HIDDEN
100
AcDbPolyline
 90
15
 70
0
 10
130.0
 20
199.0
 10
130.0
 20
197.2869436
 10
130.0
 20
195.5954296
 10
130.0
 20
193.9467304
 10
130.0
 20
192.3615787
 10
130.0
 20
190.8599092
 10
130.0
 20
189.460606
 10
130.0
 20
188.1812662
 10
130.0
 20
187.0379782
 10
130.0
 20
186.0451198
 10
130.0
 20
185.2151764
 10
130.0
 20
184.558585
 10
130.0
 20
184.0836028
 10
130.0
 20
183.7962031
 10
130.0
 20
183.7
  0
LWPOLYLINE
  5
61
330
17
100
AcDbEntity
  8
HIDDEN
100
AcDbPolyline
 90
15
 70
0
 10
130.0
 20
183.7
 10
130.0
 20
184.0836028
 10
130.0
 20
185.2151764
 10
130.0
 20
187.0379782
 10
130.0
 20
189.460606
 10
130.0
 20
192.3615787
 10
130.0
 20
195.5954296
 10
130.0
 20
199.0
 10
130.0
 20
202.4045704
 10
130.0
 20
205.6384213
 10
130.0
 20
208.539394
 10
130.0
 20
210.9620218
 10
130.0
 20
212.7848236
 10
130.0
 20
213.9163972
 10
130.0
 20
214.3
  0
LWPOLYLINE
  5
62
330
17
100
AcDbEntity
  8
HIDDEN
100
AcDbPolyline
 90
15
 70
0
 10
130.0
 20
214.3
 10
130.0
 20
214.2037969
 10
130.0
 20
213.9163972
 10
130.0
 20
213.441415
 10
130.0
 20
212.7848236
 10
130.0
 20
211.9548802
 10
130.0
 20
210.9620218
 10
130.0
 20
209.8187338
 10
130.0
 20
208.539394
 10
130.0
 20
207.1400908
 10
130.0
 20
205.6384213
 10
130.0
 20
204.0532696
 10
130.0
 20
202.4045704
 10
130.0
 20
200.7130564
 10
130.0
 20
199.0
  0
LWPOLYLINE
  5
63
330
17
100
AcDbEntity
  8
HIDDEN
100
AcDbPolyline
 90
2
 70
0
 10
106.0
 20
229.0
 10
109.0
 20
229.0
  0
LWPOLYLINE
  5
64
330
17
100
AcDbEntity
  8
HIDDEN
100
AcDbPolyline
 90
2
 70
0
 10
106.0
 20
169.0
 10
109.0
 20
169.0
  0
LWPOLYLINE
  5
65
330
17
100
AcDbEntity
  8
HIDDEN
100
AcDbPolyline
 90
2
 70
0
 10
130.0
 20
192.25
 10
139.0
 20
192.25
  0
LWPOLYLINE
  5
66
330
17
100
AcDbEntity
  8
HIDDEN
100
AcDbPolyline
 90
2
 70
0
 10
130.0
 20
205.75
 10
139.0
 20
205.75
  0
LWPOLYLINE
  5
67
330
17
100
AcDbEntity
  8
HIDDEN
100
AcDbPolyline
 90
2
 70
0
 10
106.0
 20
183.7
 10
130.0
 20
183.7
  0
LWPOLYLINE
  5
68
330
17
100
AcDbEntity
  8
HIDDEN
100
AcDbPolyline
 90
2
 70
0
 10
106.0
 20
214.3
 10
130.0
 20
214.3
  0
LWPOLYLINE
  5
69
330
17
100
AcDbEntity
  8
OUTLINE
100
AcDbPolyline
 90
15
 70
0
 10
139.0
 20
199.0
 10
139.0
 20
195.6410656
 10
139.0
 20
192.3243721
 10
139.0
 20
189.0916282
 10
139.0
 20
185.9834878
 10
139.0
 20
183.0390376
 10
139.0
 20
180.295306
 10
139.0
 20
177.7867966
 10
139.0
 20
175.5450556
 10
139.0
 20
173.598274
 10
139.0
 20
171.9709339
 10
139.0
 20
170.6835001
 10
139.0
 20
169.75216269999999
 10
139.0
 20
169.1886337
 10
139.0
 20
169.0
  0
LWPOLYLINE
  5
6A
330
17
100
AcDbEntity
  8
OUTLINE
100
AcDbPolyline
 90
15
 70
0
 10
139.0
 20
229.0
 10
139.0
 20
228.8113663
 10
139.0
 20
228.24783730000001
 10
139.0
 20
227.3164999
 10
139.0
 20
226.0290661
 10
139.0
 20
224.401726
 10
139.0
 20
222.4549444
 10
139.0
 20
220.2132034
 10
139.0
 20
217.704694
 10
139.0
 20
214.9609624
 10
139.0
 20
212.0165122
 10
139.0
 20
208.9083718
 10
139.0
 20
205.6756279
 10
139.0
 20
202.3589344
 10
139.0
 20
199.0
  0
LWPOLYLINE
  5
6B
330
17
100
AcDbEntity
  8
OUTLINE
100
AcDbPolyline
 90
15
 70
0
 10
106.0
 20
228.393877
 10
106.0
 20
227.6673994
 10
106.0
 20
226.666846
 10
106.0
 20
225.4017826
 10
106.0
 20
223.8843037
 10
106.0
 20
222.1289173
 10
106.0
 20
220.15240599999998
 10
106.0
 20
217.97366590000001
 10
106.0
 20
215.6135275
 10
106.0
 20
213.0945544
 10
106.0
 20
210.44083
 10
106.0
 20
207.677725
 10
106.0
 20
204.8316562
 10
106.0
 20
201.9298336
 10
106.0
 20
199.0
  0
LWPOLYLINE
  5
6C
330
17
100
AcDbEntity
  8
OUTLINE
100
AcDbPolyline
 90
2
 70
0
 10
106.0
 20
228.393877
 10
109.0
 20
228.393877
  0
LWPOLYLINE
  5
6D
330
17
100
AcDbEntity
  8
OUTLINE
100
AcDbPolyline
 90
2
 70
0
 10
106.0
 20
169.606123
 10
109.0
 20
169.606123
  0
LWPOLYLINE
  5
6E
330
17
100
AcDbEntity
  8
OUTLINE
100
AcDbPolyline
 90
15
 70
0
 10
106.0
 20
199.0
 10
106.0
 20
196.0701664
 10
106.0
 20
193.1683438
 10
106.0
 20
190.322275
 10
106.0
 20
187.55917
 10
106.0
 20
184.9054456
 10
106.0
 20
182.3864725
 10
106.0
 20
180.02633409999999
 10
106.0
 20
177.84759400000002
 10
106.0
 20
175.8710827
 10
106.0
 20
174.1156963
 10
106.0
 20
172.5982174
 10
106.0
 20
171.333154
 10
106.0
 20
170.3326006
 10
106.0
 20
169.606123
  0
LWPOLYLINE
  5
6F
330
17
100
AcDbEntity
  8
OUTLINE
100
AcDbPolyline
 90
2
 70
0
 10
40.0
 20
229.0
 10
109.0
 20
229.0
  0
LWPOLYLINE
  5
70
330
17
100
AcDbEntity
  8
OUTLINE
100
AcDbPolyline
 90
2
 70
0
 10
109.0
 20
228.393877
 10
109.0
 20
229.0
  0
LWPOLYLINE
  5
71
330
17
100
AcDbEntity
  8
OUTLINE
100
AcDbPolyline
 90
2
 70
0
 10
40.0
 20
223.0
 10
106.0
 20
223.0
  0
LWPOLYLINE
  5
72
330
17
100
AcDbEntity
  8
OUTLINE
100
AcDbPolyline
 90
2
 70
0
 10
40.0
 20
223.0
 10
40.0
 20
229.0
  0
LWPOLYLINE
  5
73
330
17
100
AcDbEntity
  8
OUTLINE
100
AcDbPolyline
 90
2
 70
0
 10
109.0
 20
169.0
 10
109.0
 20
169.606123
  0
LWPOLYLINE
  5
74
330
17
100
AcDbEntity
  8
OUTLINE
100
AcDbPolyline
 90
2
 70
0
 10
40.0
 20
175.0
 10
106.0
 20
175.0
  0
LWPOLYLINE
  5
75
330
17
100
AcDbEntity
  8
OUTLINE
100
AcDbPolyline
 90
2
 70
0
 10
40.0
 20
169.0
 10
109.0
 20
169.0
  0
LWPOLYLINE
  5
76
330
17
100
AcDbEntity
  8
OUTLINE
100
AcDbPolyline
 90
2
 70
0
 10
40.0
 20
169.0
 10
40.0
 20
175.0
  0
LWPOLYLINE
  5
77
330
17
100
AcDbEntity
  8
OUTLINE
100
AcDbPolyline
 90
2
 70
0
 10
109.0
 20
169.0
 10
139.0
 20
169.0
  0
LWPOLYLINE
  5
78
330
17
100
AcDbEntity
  8
OUTLINE
100
AcDbPolyline
 90
2
 70
0
 10
109.0
 20
229.0
 10
139.0
 20
229.0
  0
LINE
  5
79
330
17
100
AcDbEntity
  8
DIM
100
AcDbLine
 10
40.0
 20
229.0
 30
0.0
 11
40.0
 21
249.5
 31
0.0
  0
LINE
  5
7A
330
17
100
AcDbEntity
  8
DIM
100
AcDbLine
 10
139.0
 20
229.0
 30
0.0
 11
139.0
 21
249.5
 31
0.0
  0
LINE
  5
7B
330
17
100
AcDbEntity
  8
DIM
100
AcDbLine
 10
40.0
 20
248.0
 30
0.0
 11
139.0
 21
248.0
 31
0.0
  0
LINE
  5
7C
330
17
100
AcDbEntity
  8
DIM
100
AcDbLine
 10
40.0
 20
248.0
 30
0.0
 11
41.87874542569476
 21
247.31420438508908
 31
0.0
  0
LINE
  5
7D
330
17
100
AcDbEntity
  8
DIM
100
AcDbLine
 10
40.0
 20
248.0
 30
0.0
 11
41.87874542569476
 21
248.68579561491092
 31
0.0
  0
LINE
  5
7E
330
17
100
AcDbEntity
  8
DIM
100
AcDbLine
 10
139.0
 20
248.0
 30
0.0
 11
137.12125457430525
 21
248.68579561491092
 31
0.0
  0
LINE
  5
7F
330
17
100
AcDbEntity
  8
DIM
100
AcDbLine
 10
139.0
 20
248.0
 30
0.0
 11
137.12125457430525
 21
247.31420438508908
 31
0.0
  0
TEXT
  5
80
330
17
100
AcDbEntity
  8
TEXT
100
AcDbText
 10
89.5
 20
249.8
 30
0.0
 40
2.8
  1
33 REF
  7
CJK
 72
1
 11
89.5
 21
249.8
 31
0.0
100
AcDbText
  0
LINE
  5
81
330
17
100
AcDbEntity
  8
DIM
100
AcDbLine
 10
40.0
 20
169.0
 30
0.0
 11
40.0
 21
156.5
 31
0.0
  0
LINE
  5
82
330
17
100
AcDbEntity
  8
DIM
100
AcDbLine
 10
106.0
 20
169.0
 30
0.0
 11
106.0
 21
156.5
 31
0.0
  0
LINE
  5
83
330
17
100
AcDbEntity
  8
DIM
100
AcDbLine
 10
40.0
 20
155.0
 30
0.0
 11
106.0
 21
155.0
 31
0.0
  0
LINE
  5
84
330
17
100
AcDbEntity
  8
DIM
100
AcDbLine
 10
40.0
 20
155.0
 30
0.0
 11
41.87874542569476
 21
154.31420438508908
 31
0.0
  0
LINE
  5
85
330
17
100
AcDbEntity
  8
DIM
100
AcDbLine
 10
40.0
 20
155.0
 30
0.0
 11
41.87874542569476
 21
155.68579561491092
 31
0.0
  0
LINE
  5
86
330
17
100
AcDbEntity
  8
DIM
100
AcDbLine
 10
106.0
 20
155.0
 30
0.0
 11
104.12125457430524
 21
155.68579561491092
 31
0.0
  0
LINE
  5
87
330
17
100
AcDbEntity
  8
DIM
100
AcDbLine
 10
106.0
 20
155.0
 30
0.0
 11
104.12125457430524
 21
154.31420438508908
 31
0.0
  0
TEXT
  5
88
330
17
100
AcDbEntity
  8
TEXT
100
AcDbText
 10
73.0
 20
156.8
 30
0.0
 40
2.8
  1
22±0.03 叉齿伸出
  7
CJK
 72
1
 11
73.0
 21
156.8
 31
0.0
100
AcDbText
  0
LINE
  5
89
330
17
100
AcDbEntity
  8
DIM
100
AcDbLine
 10
106.0
 20
169.0
 30
0.0
 11
106.0
 21
141.5
 31
0.0
  0
LINE
  5
8A
330
17
100
AcDbEntity
  8
DIM
100
AcDbLine
 10
139.0
 20
169.0
 30
0.0
 11
139.0
 21
141.5
 31
0.0
  0
LINE
  5
8B
330
17
100
AcDbEntity
  8
DIM
100
AcDbLine
 10
106.0
 20
140.0
 30
0.0
 11
139.0
 21
140.0
 31
0.0
  0
LINE
  5
8C
330
17
100
AcDbEntity
  8
DIM
100
AcDbLine
 10
106.0
 20
140.0
 30
0.0
 11
107.87874542569476
 21
139.31420438508908
 31
0.0
  0
LINE
  5
8D
330
17
100
AcDbEntity
  8
DIM
100
AcDbLine
 10
106.0
 20
140.0
 30
0.0
 11
107.87874542569476
 21
140.68579561491092
 31
0.0
  0
LINE
  5
8E
330
17
100
AcDbEntity
  8
DIM
100
AcDbLine
 10
139.0
 20
140.0
 30
0.0
 11
137.12125457430525
 21
140.68579561491092
 31
0.0
  0
LINE
  5
8F
330
17
100
AcDbEntity
  8
DIM
100
AcDbLine
 10
139.0
 20
140.0
 30
0.0
 11
137.12125457430525
 21
139.31420438508908
 31
0.0
  0
TEXT
  5
90
330
17
100
AcDbEntity
  8
TEXT
100
AcDbText
 10
122.5
 20
141.8
 30
0.0
 40
2.8
  1
11±0.03
  7
CJK
 72
1
 11
122.5
 21
141.8
 31
0.0
100
AcDbText
  0
LINE
  5
91
330
17
100
AcDbEntity
  8
DIM
100
AcDbLine
 10
139.0
 20
169.0
 30
0.0
 11
155.5
 21
169.0
 31
0.0
  0
LINE
  5
92
330
17
100
AcDbEntity
  8
DIM
100
AcDbLine
 10
139.0
 20
229.0
 30
0.0
 11
155.5
 21
229.0
 31
0.0
  0
LINE
  5
93
330
17
100
AcDbEntity
  8
DIM
100
AcDbLine
 10
154.0
 20
169.0
 30
0.0
 11
154.0
 21
229.0
 31
0.0
  0
LINE
  5
94
330
17
100
AcDbEntity
  8
DIM
100
AcDbLine
 10
154.0
 20
169.0
 30
0.0
 11
154.68579561491092
 21
170.87874542569475
 31
0.0
  0
LINE
  5
95
330
17
100
AcDbEntity
  8
DIM
100
AcDbLine
 10
154.0
 20
169.0
 30
0.0
 11
153.31420438508908
 21
170.87874542569475
 31
0.0
  0
LINE
  5
96
330
17
100
AcDbEntity
  8
DIM
100
AcDbLine
 10
154.0
 20
229.0
 30
0.0
 11
153.31420438508908
 21
227.12125457430525
 31
0.0
  0
LINE
  5
97
330
17
100
AcDbEntity
  8
DIM
100
AcDbLine
 10
154.0
 20
229.0
 30
0.0
 11
154.68579561491092
 21
227.12125457430525
 31
0.0
  0
TEXT
  5
98
330
17
100
AcDbEntity
  8
TEXT
100
AcDbText
 10
152.2
 20
199.0
 30
0.0
 40
2.8
  1
Ø20±0.05
 50
90.0
  7
CJK
 72
1
 11
152.2
 21
199.0
 31
0.0
100
AcDbText
  0
LWPOLYLINE
  5
99
330
17
100
AcDbEntity
  8
HIDDEN
100
AcDbPolyline
 90
19
 70
0
 10
248.393877
 20
206.0
 10
247.8528105
 20
208.2167708
 10
247.14482040000001
 20
210.3860045
 10
246.274002
 20
212.4951515
 10
245.2453938
 20
214.5320096
 10
244.06494659999998
 20
216.4847945
 10
242.7394896
 20
218.3422091
 10
241.2766908
 20
220.0935074
 10
239.6850135
 20
221.7285575
 10
237.97366590000001
 20
223.2379001
 10
236.1525489
 20
224.6128028
 10
234.2321979
 20
225.8453117
 10
232.2237234
 20
226.9282961
 10
230.1387447
 20
227.8554908
 10
227.9893245
 20
228.6215312
 10
225.7878978
 20
229.2219857
 10
223.5472005
 20
229.6533803
 10
221.2801962
 20
229.9132196
 10
219.0
 20
230.0
  0
LWPOLYLINE
  5
9A
330
17
100
AcDbEntity
  8
HIDDEN
100
AcDbPolyline
 90
4
 70
0
 10
249.0
 20
200.0
 10
248.9324502
 20
202.0120676
 10
248.7301056
 20
204.0150743
 10
248.393877
 20
206.0
  0
LWPOLYLINE
  5
9B
330
17
100
AcDbEntity
  8
HIDDEN
100
AcDbPolyline
 90
4
 70
0
 10
248.393877
 20
194.0
 10
248.7301056
 20
195.9849257
 10
248.9324502
 20
197.9879324
 10
249.0
 20
200.0
  0
LWPOLYLINE
  5
9C
330
17
100
AcDbEntity
  8
HIDDEN
100
AcDbPolyline
 90
36
 70
0
 10
189.606123
 20
194.0
 10
190.1651184
 20
191.720531
 10
190.9005978
 20
189.4917365
 10
191.80806
 20
187.3272581
 10
192.8819502
 20
185.2403429
 10
194.1156963
 20
183.2437646
 10
195.5017467
 20
181.3497428
 10
197.0316186
 20
179.5698698
 10
198.6959478
 20
177.9150398
 10
200.4845484
 20
176.3953808
 10
202.3864725
 20
175.020194
 10
204.3900801
 20
173.7978962
 10
206.4831075
 20
172.7359685
 10
208.652745
 20
171.8409107
 10
210.8857125
 20
171.1182005
 10
213.1683438
 20
170.5722617
 10
215.4866679
 20
170.2064354
 10
217.8264951
 20
170.0229608
 10
220.1735049
 20
170.0229608
 10
222.5133321
 20
170.2064354
 10
224.8316562
 20
170.5722617
 10
227.1142875
 20
171.1182005
 10
229.347255
 20
171.8409107
 10
231.5168925
 20
172.7359685
 10
233.6099199
 20
173.7978962
 10
235.6135275
 20
175.020194
 10
237.5154516
 20
176.3953808
 10
239.3040522
 20
177.9150398
 10
240.9683814
 20
179.5698698
 10
242.4982533
 20
181.3497428
 10
243.8843037
 20
183.2437646
 10
245.1180498
 20
185.2403429
 10
246.19194
 20
187.3272581
 10
247.0994022
 20
189.4917365
 10
247.8348816
 20
191.720531
 10
248.393877
 20
194.0
  0
LWPOLYLINE
  5
9D
330
17
100
AcDbEntity
  8
HIDDEN
100
AcDbPolyline
 90
4
 70
0
 10
189.0
 20
200.0
 10
189.0675498
 20
197.9879324
 10
189.2698944
 20
195.9849257
 10
189.606123
 20
194.0
  0
LWPOLYLINE
  5
9E
330
17
100
AcDbEntity
  8
HIDDEN
100
AcDbPolyline
 90
4
 70
0
 10
189.606123
 20
206.0
 10
189.2698944
 20
204.0150743
 10
189.0675498
 20
202.0120676
 10
189.0
 20
200.0
  0
LWPOLYLINE
  5
9F
330
17
100
AcDbEntity
  8
HIDDEN
100
AcDbPolyline
 90
19
 70
0
 10
219.0
 20
230.0
 10
216.7198038
 20
229.9132196
 10
214.4527995
 20
229.6533803
 10
212.2121022
 20
229.2219857
 10
210.0106755
 20
228.6215312
 10
207.8612553
 20
227.8554908
 10
205.7762766
 20
226.9282961
 10
203.7678021
 20
225.8453117
 10
201.8474511
 20
224.6128028
 10
200.02633409999999
 20
223.2379001
 10
198.3149865
 20
221.7285575
 10
196.7233092
 20
220.0935074
 10
195.2605104
 20
218.3422091
 10
193.93505340000002
 20
216.4847945
 10
192.7546062
 20
214.5320096
 10
191.725998
 20
212.4951515
 10
190.85517959999999
 20
210.3860045
 10
190.1471895
 20
208.2167708
 10
189.606123
 20
206.0
  0
LWPOLYLINE
  5
A0
330
17
100
AcDbEntity
  8
HIDDEN
100
AcDbPolyline
 90
2
 70
0
 10
195.0
 20
194.0
 10
189.606123
 20
194.0
  0
LWPOLYLINE
  5
A1
330
17
100
AcDbEntity
  8
HIDDEN
100
AcDbPolyline
 90
2
 70
0
 10
195.0
 20
194.0
 10
195.0
 20
206.0
  0
LWPOLYLINE
  5
A2
330
17
100
AcDbEntity
  8
HIDDEN
100
AcDbPolyline
 90
2
 70
0
 10
195.0
 20
206.0
 10
189.606123
 20
206.0
  0
LWPOLYLINE
  5
A3
330
17
100
AcDbEntity
  8
HIDDEN
100
AcDbPolyline
 90
2
 70
0
 10
248.393877
 20
206.0
 10
243.0
 20
206.0
  0
LWPOLYLINE
  5
A4
330
17
100
AcDbEntity
  8
HIDDEN
100
AcDbPolyline
 90
2
 70
0
 10
243.0
 20
194.0
 10
243.0
 20
206.0
  0
LWPOLYLINE
  5
A5
330
17
100
AcDbEntity
  8
HIDDEN
100
AcDbPolyline
 90
2
 70
0
 10
248.393877
 20
194.0
 10
243.0
 20
194.0
  0
LWPOLYLINE
  5
A6
330
17
100
AcDbEntity
  8
HIDDEN
100
AcDbPolyline
 90
58
 70
0
 10
219.0
 20
215.3
 10
217.3168743
 20
215.2071395
 10
215.6541792
 20
214.9296848
 10
214.0320981
 20
214.4710037
 10
212.4703206
 20
213.8366645
 10
210.9878043
 20
213.034367
 10
209.6025456
 20
212.0738498
 10
208.3313589
 20
210.9667724
 10
207.1896753
 20
209.7265733
 10
206.191353
 20
208.3683068
 10
205.3485102
 20
206.9084603
 10
204.6713781
 20
205.3647545
 10
204.1681758
 20
203.755928
 10
203.84501219999999
 20
202.1015093
 10
203.7058092
 20
200.4215813
 10
203.7522573
 20
198.7365359
 10
203.9837922
 20
197.0668274
 10
204.3976035
 20
195.4327235
 10
204.988668
 20
193.8540599
 10
205.7498112
 20
192.35
 10
206.671794
 20
190.9388006
 10
207.7434243
 20
189.637592
 10
208.9516941
 20
188.4621689
 10
210.2819367
 20
187.4267993
 10
211.7180049
 20
186.5440517
 10
213.2424666
 20
185.8246409
 10
214.8368169
 20
185.2772996
 10
216.4817028
 20
184.9086722
 10
218.1571572
 20
184.7232329
 10
219.8428428
 20
184.7232329
 10
221.5182972
 20
184.9086722
 10
223.1631831
 20
185.2772996
 10
224.7575334
 20
185.8246409
 10
226.2819951
 20
186.5440517
 10
227.7180633
 20
187.4267993
 10
229.0483059
 20
188.4621689
 10
230.2565757
 20
189.637592
 10
231.328206
 20
190.9388006
 10
232.2501888
 20
192.35
 10
233.011332
 20
193.8540599
 10
233.6023965
 20
195.4327235
 10
234.0162078
 20
197.0668274
 10
234.2477427
 20
198.7365359
 10
234.2941908
 20
200.4215813
 10
234.15498780000001
 20
202.1015093
 10
233.8318242
 20
203.755928
 10
233.3286219
 20
205.3647545
 10
232.6514898
 20
206.9084603
 10
231.808647
 20
208.3683068
 10
230.8103247
 20
209.7265733
 10
229.6686411
 20
210.9667724
 10
228.3974544
 20
212.0738498
 10
227.0121957
 20
213.034367
 10
225.5296794
 20
213.8366645
 10
223.9679019
 20
214.4710037
 10
222.3458208
 20
214.9296848
 10
220.6831257
 20
215.2071395
 10
219.0
 20
215.3
  0
LWPOLYLINE
  5
A7
330
17
100
AcDbEntity
  8
HIDDEN
100
AcDbPolyline
 90
2
 70
0
 10
243.0
 20
206.0
 10
249.0
 20
206.0
  0
LWPOLYLINE
  5
A8
330
17
100
AcDbEntity
  8
HIDDEN
100
AcDbPolyline
 90
2
 70
0
 10
243.0
 20
194.0
 10
249.0
 20
194.0
  0
LWPOLYLINE
  5
A9
330
17
100
AcDbEntity
  8
HIDDEN
100
AcDbPolyline
 90
2
 70
0
 10
189.0
 20
194.0
 10
195.0
 20
194.0
  0
LWPOLYLINE
  5
AA
330
17
100
AcDbEntity
  8
HIDDEN
100
AcDbPolyline
 90
2
 70
0
 10
189.0
 20
206.0
 10
195.0
 20
206.0
  0
LWPOLYLINE
  5
AB
330
17
100
AcDbEntity
  8
HIDDEN
100
AcDbPolyline
 90
39
 70
0
 10
219.0
 20
206.75
 10
217.8889866
 20
206.6579387
 10
216.8082786
 20
206.3842664
 10
215.7873552
 20
205.9364477
 10
214.8540642
 20
205.3266983
 10
214.0338636
 20
204.5716505
 10
213.3491262
 20
203.6919002
 10
212.81853
 20
202.7114441
 10
212.4565482
 20
201.6570269
 10
212.2730547
 20
200.5574105
 10
212.2730547
 20
199.4425895
 10
212.4565482
 20
198.3429731
 10
212.81853
 20
197.2885559
 10
213.3491262
 20
196.3080998
 10
214.0338636
 20
195.4283495
 10
214.8540642
 20
194.6733017
 10
215.7873552
 20
194.0635523
 10
216.8082786
 20
193.6157336
 10
217.8889866
 20
193.3420613
 10
219.0
 20
193.25
 10
220.1110134
 20
193.3420613
 10
221.1917214
 20
193.6157336
 10
222.2126448
 20
194.0635523
 10
223.1459358
 20
194.6733017
 10
223.9661364
 20
195.4283495
 10
224.6508738
 20
196.3080998
 10
225.18147
 20
197.2885559
 10
225.5434518
 20
198.3429731
 10
225.7269453
 20
199.4425895
 10
225.7269453
 20
200.5574105
 10
225.5434518
 20
201.6570269
 10
225.18147
 20
202.7114441
 10
224.6508738
 20
203.6919002
 10
223.9661364
 20
204.5716505
 10
223.1459358
 20
205.3266983
 10
222.2126448
 20
205.9364477
 10
221.1917214
 20
206.3842664
 10
220.1110134
 20
206.6579387
 10
219.0
 20
206.75
  0
LWPOLYLINE
  5
AC
330
17
100
AcDbEntity
  8
HIDDEN
100
AcDbPolyline
 90
2
 70
0
 10
195.0
 20
194.0
 10
195.0
 20
206.0
  0
LWPOLYLINE
  5
AD
330
17
100
AcDbEntity
  8
HIDDEN
100
AcDbPolyline
 90
2
 70
0
 10
243.0
 20
194.0
 10
243.0
 20
206.0
  0
LWPOLYLINE
  5
AE
330
17
100
AcDbEntity
  8
HIDDEN
100
AcDbPolyline
 90
58
 70
0
 10
219.0
 20
215.3
 10
217.3168743
 20
215.2071395
 10
215.6541792
 20
214.9296848
 10
214.0320981
 20
214.4710037
 10
212.4703206
 20
213.8366645
 10
210.9878043
 20
213.034367
 10
209.6025456
 20
212.0738498
 10
208.3313589
 20
210.9667724
 10
207.1896753
 20
209.7265733
 10
206.191353
 20
208.3683068
 10
205.3485102
 20
206.9084603
 10
204.6713781
 20
205.3647545
 10
204.1681758
 20
203.755928
 10
203.84501219999999
 20
202.1015093
 10
203.7058092
 20
200.4215813
 10
203.7522573
 20
198.7365359
 10
203.9837922
 20
197.0668274
 10
204.3976035
 20
195.4327235
 10
204.988668
 20
193.8540599
 10
205.7498112
 20
192.35
 10
206.671794
 20
190.9388006
 10
207.7434243
 20
189.637592
 10
208.9516941
 20
188.4621689
 10
210.2819367
 20
187.4267993
 10
211.7180049
 20
186.5440517
 10
213.2424666
 20
185.8246409
 10
214.8368169
 20
185.2772996
 10
216.4817028
 20
184.9086722
 10
218.1571572
 20
184.7232329
 10
219.8428428
 20
184.7232329
 10
221.5182972
 20
184.9086722
 10
223.1631831
 20
185.2772996
 10
224.7575334
 20
185.8246409
 10
226.2819951
 20
186.5440517
 10
227.7180633
 20
187.4267993
 10
229.0483059
 20
188.4621689
 10
230.2565757
 20
189.637592
 10
231.328206
 20
190.9388006
 10
232.2501888
 20
192.35
 10
233.011332
 20
193.8540599
 10
233.6023965
 20
195.4327235
 10
234.0162078
 20
197.0668274
 10
234.2477427
 20
198.7365359
 10
234.2941908
 20
200.4215813
 10
234.15498780000001
 20
202.1015093
 10
233.8318242
 20
203.755928
 10
233.3286219
 20
205.3647545
 10
232.6514898
 20
206.9084603
 10
231.808647
 20
208.3683068
 10
230.8103247
 20
209.7265733
 10
229.6686411
 20
210.9667724
 10
228.3974544
 20
212.0738498
 10
227.0121957
 20
213.034367
 10
225.5296794
 20
213.8366645
 10
223.9679019
 20
214.4710037
 10
222.3458208
 20
214.9296848
 10
220.6831257
 20
215.2071395
 10
219.0
 20
215.3
  0
LWPOLYLINE
  5
AF
330
17
100
AcDbEntity
  8
HIDDEN
100
AcDbPolyline
 90
2
 70
0
 10
249.0
 20
194.0
 10
249.0
 20
206.0
  0
LWPOLYLINE
  5
B0
330
17
100
AcDbEntity
  8
HIDDEN
100
AcDbPolyline
 90
2
 70
0
 10
189.0
 20
194.0
 10
189.0
 20
206.0
  0
LWPOLYLINE
  5
B1
330
17
100
AcDbEntity
  8
OUTLINE
100
AcDbPolyline
 90
80
 70
0
 10
219.0
 20
230.0
 10
216.6164949
 20
229.9051652
 10
214.2480594
 20
229.6212602
 10
211.9096668
 20
229.1500802
 10
209.6161017
 20
228.49460390000002
 10
207.3818649
 20
227.6589755
 10
205.2210813
 20
226.6484783
 10
203.1474126
 20
225.4695008
 10
201.1739691
 20
224.1294971
 10
199.3132275
 20
222.6369386
 10
197.576952
 20
221.0012621
 10
195.97611990000001
 20
219.2328092
 10
194.5208523
 20
217.34276
 10
193.2203496
 20
215.3430644
 10
192.0828342
 20
213.246365
 10
191.1154977
 20
211.0659176
 10
190.3244562
 20
208.8155081
 10
189.7147107
 20
206.5093643
 10
189.2901159
 20
204.1620659
 10
189.0533568
 20
201.7884539
 10
189.0059301
 20
199.4035343
 10
189.1481355
 20
197.022386
 10
189.4790739
 20
194.660063
 10
189.9966531
 20
192.3315011
 10
190.697601
 20
190.0514216
 10
191.5774857
 20
187.8342404
 10
192.6307443
 20
185.693975
 10
193.85071770000002
 20
183.64415689999998
 10
195.22969319999999
 20
181.6977455
 10
196.7589522
 20
179.8670471
 10
198.42882600000002
 20
178.1636357
 10
200.2287576
 20
176.5982807
 10
202.1473671
 20
175.1808791
 10
204.1725243
 20
173.9203919
 10
206.2914255
 20
172.8247883
 10
208.4906745
 20
171.900995
 10
210.7563669
 20
171.154853
 10
213.074178
 20
170.5910789
 10
215.4294543
 20
170.2132379
 10
217.8073044
 20
170.023718
 10
220.1926956
 20
170.023718
 10
222.5705457
 20
170.2132379
 10
224.925822
 20
170.5910789
 10
227.2436331
 20
171.154853
 10
229.5093255
 20
171.900995
 10
231.7085745
 20
172.8247883
 10
233.8274757
 20
173.9203919
 10
235.8526329
 20
175.1808791
 10
237.7712424
 20
176.5982807
 10
239.57117399999998
 20
178.1636357
 10
241.2410478
 20
179.8670471
 10
242.77030680000001
 20
181.6977455
 10
244.14928229999998
 20
183.64415689999998
 10
245.3692557
 20
185.693975
 10
246.4225143
 20
187.8342404
 10
247.302399
 20
190.0514216
 10
248.0033469
 20
192.3315011
 10
248.5209261
 20
194.660063
 10
248.8518645
 20
197.022386
 10
248.9940699
 20
199.4035343
 10
248.9466432
 20
201.7884539
 10
248.7098841
 20
204.1620659
 10
248.2852893
 20
206.5093643
 10
247.6755438
 20
208.8155081
 10
246.8845023
 20
211.0659176
 10
245.9171658
 20
213.246365
 10
244.7796504
 20
215.3430644
 10
243.4791477
 20
217.34276
 10
242.02388009999999
 20
219.2328092
 10
240.423048
 20
221.0012621
 10
238.6867725
 20
222.6369386
 10
236.8260309
 20
224.1294971
 10
234.8525874
 20
225.4695008
 10
232.7789187
 20
226.6484783
 10
230.6181351
 20
227.6589755
 10
228.3838983
 20
228.49460390000002
 10
226.0903332
 20
229.1500802
 10
223.7519406
 20
229.6212602
 10
221.3835051
 20
229.9051652
 10
219.0
 20
230.0
  0
LWPOLYLINE
  5
B2
330
17
100
AcDbEntity
  8
OUTLINE
100
AcDbPolyline
 90
39
 70
0
 10
219.0
 20
206.75
 10
217.8889866
 20
206.6579387
 10
216.8082786
 20
206.3842664
 10
215.7873552
 20
205.9364477
 10
214.8540642
 20
205.3266983
 10
214.0338636
 20
204.5716505
 10
213.3491262
 20
203.6919002
 10
212.81853
 20
202.7114441
 10
212.4565482
 20
201.6570269
 10
212.2730547
 20
200.5574105
 10
212.2730547
 20
199.4425895
 10
212.4565482
 20
198.3429731
 10
212.81853
 20
197.2885559
 10
213.3491262
 20
196.3080998
 10
214.0338636
 20
195.4283495
 10
214.8540642
 20
194.6733017
 10
215.7873552
 20
194.0635523
 10
216.8082786
 20
193.6157336
 10
217.8889866
 20
193.3420613
 10
219.0
 20
193.25
 10
220.1110134
 20
193.3420613
 10
221.1917214
 20
193.6157336
 10
222.2126448
 20
194.0635523
 10
223.1459358
 20
194.6733017
 10
223.9661364
 20
195.4283495
 10
224.6508738
 20
196.3080998
 10
225.18147
 20
197.2885559
 10
225.5434518
 20
198.3429731
 10
225.7269453
 20
199.4425895
 10
225.7269453
 20
200.5574105
 10
225.5434518
 20
201.6570269
 10
225.18147
 20
202.7114441
 10
224.6508738
 20
203.6919002
 10
223.9661364
 20
204.5716505
 10
223.1459358
 20
205.3266983
 10
222.2126448
 20
205.9364477
 10
221.1917214
 20
206.3842664
 10
220.1110134
 20
206.6579387
 10
219.0
 20
206.75
  0
LWPOLYLINE
  5
B3
330
17
100
AcDbEntity
  8
OUTLINE
100
AcDbPolyline
 90
2
 70
0
 10
248.393877
 20
206.0
 10
249.0
 20
206.0
  0
LWPOLYLINE
  5
B4
330
17
100
AcDbEntity
  8
OUTLINE
100
AcDbPolyline
 90
2
 70
0
 10
249.0
 20
200.0
 10
249.0
 20
206.0
  0
LWPOLYLINE
  5
B5
330
17
100
AcDbEntity
  8
OUTLINE
100
AcDbPolyline
 90
2
 70
0
 10
249.0
 20
194.0
 10
249.0
 20
200.0
  0
LWPOLYLINE
  5
B6
330
17
100
AcDbEntity
  8
OUTLINE
100
AcDbPolyline
 90
2
 70
0
 10
248.393877
 20
194.0
 10
249.0
 20
194.0
  0
LWPOLYLINE
  5
B7
330
17
100
AcDbEntity
  8
OUTLINE
100
AcDbPolyline
 90
2
 70
0
 10
189.0
 20
194.0
 10
189.606123
 20
194.0
  0
LWPOLYLINE
  5
B8
330
17
100
AcDbEntity
  8
OUTLINE
100
AcDbPolyline
 90
2
 70
0
 10
189.0
 20
194.0
 10
189.0
 20
200.0
  0
LWPOLYLINE
  5
B9
330
17
100
AcDbEntity
  8
OUTLINE
100
AcDbPolyline
 90
2
 70
0
 10
189.0
 20
200.0
 10
189.0
 20
206.0
  0
LWPOLYLINE
  5
BA
330
17
100
AcDbEntity
  8
OUTLINE
100
AcDbPolyline
 90
2
 70
0
 10
189.0
 20
206.0
 10
189.606123
 20
206.0
  0
TEXT
  5
BB
330
17
100
AcDbEntity
  8
TEXT
100
AcDbText
 10
219.0
 20
249.0
 30
0.0
 40
3.0
  1
端视 +X | 3:1
  7
CJK
 72
1
 11
219.0
 21
249.0
 31
0.0
100
AcDbText
  0
LWPOLYLINE
  5
BC
330
17
100
AcDbEntity
  8
DIM
100
AcDbPolyline
 90
3
 70
0
 10
225.75
 20
200.0
 10
238.0
 20
164.0
 10
241.0
 20
164.0
  0
LINE
  5
BD
330
17
100
AcDbEntity
  8
DIM
100
AcDbLine
 10
225.75
 20
200.0
 30
0.0
 11
225.70597851483413
 21
198.00048453148173
 31
0.0
  0
LINE
  5
BE
330
17
100
AcDbEntity
  8
DIM
100
AcDbLine
 10
225.75
 20
200.0
 30
0.0
 11
227.00445374172304
 21
198.442326796187
 31
0.0
  0
TEXT
  5
BF
330
17
100
AcDbEntity
  8
TEXT
100
AcDbText
 10
242.0
 20
165.0
 30
0.0
 40
2.8
  1
Ø4.5 +0.10/0 通孔
  7
CJK
 11
242.0
 21
165.0
 31
0.0
100
AcDbText
  0
TEXT
  5
C0
330
17
100
AcDbEntity
  8
TEXT
100
AcDbText
 10
282.0
 20
246.0
 30
0.0
 40
2.7
  1
两叉齿截面2×4±0.05
  7
CJK
 11
282.0
 21
246.0
 31
0.0
100
AcDbText
  0
TEXT
  5
C1
330
17
100
AcDbEntity
  8
TEXT
100
AcDbText
 10
282.0
 20
239.0
 30
0.0
 40
2.7
  1
Y=+8～+10 / -10～-8
  7
CJK
 11
282.0
 21
239.0
 31
0.0
100
AcDbText
  0
TEXT
  5
C2
330
17
100
AcDbEntity
  8
TEXT
100
AcDbText
 10
282.0
 20
232.0
 30
0.0
 40
2.7
  1
Z=-2～+2
  7
CJK
 11
282.0
 21
232.0
 31
0.0
100
AcDbText
  0
TEXT
  5
C3
330
17
100
AcDbEntity
  8
TEXT
100
AcDbText
 10
282.0
 20
225.0
 30
0.0
 40
2.7
  1
内孔Ø10.2 +0.05/0
  7
CJK
 11
282.0
 21
225.0
 31
0.0
100
AcDbText
  0
TEXT
  5
C4
330
17
100
AcDbEntity
  8
TEXT
100
AcDbText
 10
282.0
 20
218.0
 30
0.0
 40
2.7
  1
孔深8±0.02
  7
CJK
 11
282.0
 21
218.0
 31
0.0
100
AcDbText
  0
TEXT
  5
C5
330
17
100
AcDbEntity
  8
TEXT
100
AcDbText
 10
282.0
 20
211.0
 30
0.0
 40
2.7
  1
端壁厚3 REF
  7
CJK
 11
282.0
 21
211.0
 31
0.0
100
AcDbText
  0
TEXT
  5
C6
330
17
100
AcDbEntity
  8
TEXT
100
AcDbText
 10
282.0
 20
204.0
 30
0.0
 40
2.7
  1
内孔轴A；底面X30为B
  7
CJK
 11
282.0
 21
204.0
 31
0.0
100
AcDbText
  0
TEXT
  5
C7
330
17
100
AcDbEntity
  8
TEXT
100
AcDbText
 10
282.0
 20
197.0
 30
0.0
 40
2.7
  1
螺孔位置度Ø0.08对A
  7
CJK
 11
282.0
 21
197.0
 31
0.0
100
AcDbText
  0
TEXT
  5
C8
330
17
100
AcDbEntity
  8
TEXT
100
AcDbText
 10
282.0
 20
190.0
 30
0.0
 40
2.7
  1
叉尖对A垂直度0.03
  7
CJK
 11
282.0
 21
190.0
 31
0.0
100
AcDbText
  0
TEXT
  5
C9
330
17
100
AcDbEntity
  8
TEXT
100
AcDbText
 10
282.0
 20
183.0
 30
0.0
 40
2.7
  1
一般Ra≤1.6μm
  7
CJK
 11
282.0
 21
183.0
 31
0.0
100
AcDbText
  0
LWPOLYLINE
  5
CA
330
17
100
AcDbEntity
  8
OUTLINE
100
AcDbPolyline
 90
2
 70
0
 10
346.0
 20
82.0
 10
379.0
 20
82.0
  0
LWPOLYLINE
  5
CB
330
17
100
AcDbEntity
  8
OUTLINE
100
AcDbPolyline
 90
2
 70
0
 10
346.0
 20
96.7
 10
346.0
 20
82.0
  0
LWPOLYLINE
  5
CC
330
17
100
AcDbEntity
  8
OUTLINE
100
AcDbPolyline
 90
2
 70
0
 10
379.0
 20
105.25
 10
379.0
 20
82.0
  0
LWPOLYLINE
  5
CD
330
17
100
AcDbEntity
  8
OUTLINE
100
AcDbPolyline
 90
2
 70
0
 10
379.0
 20
142.0
 10
379.0
 20
118.75
  0
LWPOLYLINE
  5
CE
330
17
100
AcDbEntity
  8
OUTLINE
100
AcDbPolyline
 90
2
 70
0
 10
346.0
 20
142.0
 10
379.0
 20
142.0
  0
LWPOLYLINE
  5
CF
330
17
100
AcDbEntity
  8
OUTLINE
100
AcDbPolyline
 90
2
 70
0
 10
370.0
 20
118.75
 10
379.0
 20
118.75
  0
LWPOLYLINE
  5
D0
330
17
100
AcDbEntity
  8
OUTLINE
100
AcDbPolyline
 90
2
 70
0
 10
370.0
 20
105.25
 10
379.0
 20
105.25
  0
LWPOLYLINE
  5
D1
330
17
100
AcDbEntity
  8
OUTLINE
100
AcDbPolyline
 90
2
 70
0
 10
346.0
 20
142.0
 10
346.0
 20
127.3
  0
LWPOLYLINE
  5
D2
330
17
100
AcDbEntity
  8
OUTLINE
100
AcDbPolyline
 90
2
 70
0
 10
346.0
 20
127.3
 10
370.0
 20
127.3
  0
LWPOLYLINE
  5
D3
330
17
100
AcDbEntity
  8
OUTLINE
100
AcDbPolyline
 90
2
 70
0
 10
346.0
 20
96.7
 10
370.0
 20
96.7
  0
LWPOLYLINE
  5
D4
330
17
100
AcDbEntity
  8
OUTLINE
100
AcDbPolyline
 90
2
 70
0
 10
370.0
 20
105.25
 10
370.0
 20
96.7
  0
LWPOLYLINE
  5
D5
330
17
100
AcDbEntity
  8
OUTLINE
100
AcDbPolyline
 90
2
 70
0
 10
370.0
 20
127.3
 10
370.0
 20
118.75
  0
TEXT
  5
D6
330
17
100
AcDbEntity
  8
TEXT
100
AcDbText
 10
280.0
 20
145.0
 30
0.0
 40
2.7
  1
轴心剖面（不穿过偏置叉齿）
  7
CJK
 11
280.0
 21
145.0
 31
0.0
100
AcDbText
  0
LWPOLYLINE
  5
D7
330
17
100
AcDbEntity
  8
DIM
100
AcDbPolyline
 90
3
 70
0
 10
358.0
 20
127.3
 10
306.0
 20
138.0
 10
309.0
 20
138.0
  0
LINE
  5
D8
330
17
100
AcDbEntity
  8
DIM
100
AcDbLine
 10
358.0
 20
127.3
 30
0.0
 11
356.29802824725675
 21
128.350377147916
 31
0.0
  0
LINE
  5
D9
330
17
100
AcDbEntity
  8
DIM
100
AcDbLine
 10
358.0
 20
127.3
 30
0.0
 11
356.0215886649777
 21
127.0069324489896
 31
0.0
  0
TEXT
  5
DA
330
17
100
AcDbEntity
  8
TEXT
100
AcDbText
 10
310.0
 20
139.0
 30
0.0
 40
2.8
  1
Ø10.2 孔深8±0.02
  7
CJK
 11
310.0
 21
139.0
 31
0.0
100
AcDbText
  0
TEXT
  5
DB
330
17
100
AcDbEntity
  8
TEXT
100
AcDbText
 10
27.0
 20
114.0
 30
0.0
 40
2.75
  1
端盖孔底靠导杆端面；叉齿朝支架。两叉尖共面度0.03。
  7
CJK
 11
27.0
 21
114.0
 31
0.0
100
AcDbText
  0
TEXT
  5
DC
330
17
100
AcDbEntity
  8
TEXT
100
AcDbText
 10
27.0
 20
104.0
 30
0.0
 40
2.75
  1
一体车铣，禁止焊接叉齿；叉根保留模型轮廓，去毛刺。
  7
CJK
 11
27.0
 21
104.0
 31
0.0
100
AcDbText
  0
TEXT
  5
DD
330
17
100
AcDbEntity
  8
TEXT
100
AcDbText
 10
27.0
 20
94.0
 30
0.0
 40
2.75
  1
压缩后弹簧实测外径必须≤14.5，距叉齿名义≥0.75。
  7
CJK
 11
27.0
 21
94.0
 31
0.0
100
AcDbText
  0
TEXT
  5
DE
330
17
100
AcDbEntity
  8
TEXT
100
AcDbText
 10
27.0
 20
84.0
 30
0.0
 40
2.75
  1
闭合支架端面|X|206；叉尖|X|214；单侧行程8±0.20。
  7
CJK
 11
27.0
 21
84.0
 31
0.0
100
AcDbText
  0
TEXT
  5
DF
330
17
100
AcDbEntity
  8
TEXT
100
AcDbText
 10
27.0
 20
74.0
 30
0.0
 40
2.75
  1
螺纹与固定端壁检查见装配说明；不依赖螺纹胶防松。
  7
CJK
 11
27.0
 21
74.0
 31
0.0
100
AcDbText
  0
ENDSEC
  0
SECTION
  2
OBJECTS
  0
DICTIONARY
  5
A
330
0
100
AcDbDictionary
281
1
  3
ACAD_COLOR
350
B
  3
ACAD_GROUP
350
C
  3
ACAD_LAYOUT
350
D
  3
ACAD_MATERIAL
350
E
  3
ACAD_MLEADERSTYLE
350
F
  3
ACAD_MLINESTYLE
350
10
  3
ACAD_PLOTSETTINGS
350
11
  3
ACAD_PLOTSTYLENAME
350
12
  3
ACAD_SCALELIST
350
14
  3
ACAD_TABLESTYLE
350
15
  3
ACAD_VISUALSTYLE
350
16
  3
EZDXF_META
350
2D
  0
DICTIONARY
  5
B
330
A
100
AcDbDictionary
281
1
  0
DICTIONARY
  5
C
330
A
100
AcDbDictionary
281
1
  0
DICTIONARY
  5
D
330
A
100
AcDbDictionary
281
1
  3
Model
350
1A
  3
Layout1
350
1E
  0
DICTIONARY
  5
E
330
A
100
AcDbDictionary
281
1
  3
ByBlock
350
1F
  3
ByLayer
350
20
  3
Global
350
21
  0
DICTIONARY
  5
F
330
A
100
AcDbDictionary
281
1
  3
Standard
350
2C
  0
DICTIONARY
  5
10
330
A
100
AcDbDictionary
281
1
  3
Standard
350
22
  0
DICTIONARY
  5
11
330
A
100
AcDbDictionary
281
1
  0
ACDBDICTIONARYWDFLT
  5
12
330
A
100
AcDbDictionary
281
1
  3
Normal
350
13
100
AcDbDictionaryWithDefault
340
13
  0
ACDBPLACEHOLDER
  5
13
330
12
  0
DICTIONARY
  5
14
330
A
100
AcDbDictionary
281
1
  0
DICTIONARY
  5
15
330
A
100
AcDbDictionary
281
1
  0
DICTIONARY
  5
16
330
A
100
AcDbDictionary
281
1
  0
LAYOUT
  5
1A
330
D
100
AcDbPlotSettings
  1

  4
A3
  6

 40
7.5
 41
20.0
 42
7.5
 43
20.0
 44
420.0
 45
297.0
 46
0.0
 47
0.0
 48
0.0
 49
0.0
140
0.0
141
0.0
142
1.0
143
1.0
 70
1024
 72
1
 73
0
 74
5
  7

 75
16
 76
0
 77
2
 78
300
147
1.0
148
0.0
149
0.0
100
AcDbLayout
  1
Model
 70
1
 71
0
 10
0.0
 20
0.0
 11
420.0
 21
297.0
 12
0.0
 22
0.0
 32
0.0
 14
1e+20
 24
1e+20
 34
1e+20
 15
-1e+20
 25
-1e+20
 35
-1e+20
146
0.0
 13
0.0
 23
0.0
 33
0.0
 16
1.0
 26
0.0
 36
0.0
 17
0.0
 27
1.0
 37
0.0
 76
1
330
17
  0
LAYOUT
  5
1E
330
D
100
AcDbPlotSettings
  1

  4
A3
  6

 40
7.5
 41
20.0
 42
7.5
 43
20.0
 44
420.0
 45
297.0
 46
0.0
 47
0.0
 48
0.0
 49
0.0
140
0.0
141
0.0
142
1.0
143
1.0
 70
0
 72
1
 73
0
 74
5
  7

 75
16
 76
0
 77
2
 78
300
147
1.0
148
0.0
149
0.0
100
AcDbLayout
  1
Layout1
 70
1
 71
1
 10
0.0
 20
0.0
 11
420.0
 21
297.0
 12
0.0
 22
0.0
 32
0.0
 14
1e+20
 24
1e+20
 34
1e+20
 15
-1e+20
 25
-1e+20
 35
-1e+20
146
0.0
 13
0.0
 23
0.0
 33
0.0
 16
1.0
 26
0.0
 36
0.0
 17
0.0
 27
1.0
 37
0.0
 76
1
330
1B
  0
MATERIAL
  5
1F
102
{ACAD_REACTORS
330
E
102
}
330
E
100
AcDbMaterial
  1
ByBlock
  2

 70
0
 40
1.0
 71
1
 41
1.0
 91
-1023410177
 42
1.0
 72
1
  3

 73
1
 74
1
 75
1
 44
0.5
 73
0
 45
1.0
 46
1.0
 77
1
  4

 78
1
 79
1
170
1
 48
1.0
171
1
  6

172
1
173
1
174
1
140
1.0
141
1.0
175
1
  7

176
1
177
1
178
1
143
1.0
179
1
  8

270
1
271
1
272
1
145
1.0
146
1.0
273
1
  9

274
1
275
1
276
1
 42
1.0
 72
1
  3

 73
1
 74
1
 75
1
 94
63
  0
MATERIAL
  5
20
102
{ACAD_REACTORS
330
E
102
}
330
E
100
AcDbMaterial
  1
ByLayer
  2

 70
0
 40
1.0
 71
1
 41
1.0
 91
-1023410177
 42
1.0
 72
1
  3

 73
1
 74
1
 75
1
 44
0.5
 73
0
 45
1.0
 46
1.0
 77
1
  4

 78
1
 79
1
170
1
 48
1.0
171
1
  6

172
1
173
1
174
1
140
1.0
141
1.0
175
1
  7

176
1
177
1
178
1
143
1.0
179
1
  8

270
1
271
1
272
1
145
1.0
146
1.0
273
1
  9

274
1
275
1
276
1
 42
1.0
 72
1
  3

 73
1
 74
1
 75
1
 94
63
  0
MATERIAL
  5
21
102
{ACAD_REACTORS
330
E
102
}
330
E
100
AcDbMaterial
  1
Global
  2

 70
0
 40
1.0
 71
1
 41
1.0
 91
-1023410177
 42
1.0
 72
1
  3

 73
1
 74
1
 75
1
 44
0.5
 73
0
 45
1.0
 46
1.0
 77
1
  4

 78
1
 79
1
170
1
 48
1.0
171
1
  6

172
1
173
1
174
1
140
1.0
141
1.0
175
1
  7

176
1
177
1
178
1
143
1.0
179
1
  8

270
1
271
1
272
1
145
1.0
146
1.0
273
1
  9

274
1
275
1
276
1
 42
1.0
 72
1
  3

 73
1
 74
1
 75
1
 94
63
  0
MLINESTYLE
  5
22
102
{ACAD_REACTORS
330
10
102
}
330
10
100
AcDbMlineStyle
  2
Standard
 70
0
  3

 62
256
 51
90.0
 52
90.0
 71
2
 49
0.5
 62
256
  6
BYLAYER
 49
-0.5
 62
256
  6
BYLAYER
  0
MLEADERSTYLE
  5
2C
102
{ACAD_REACTORS
330
F
102
}
330
F
100
AcDbMLeaderStyle
179
2
170
2
171
1
172
0
 90
2
 40
0.0
 41
0.0
173
1
 91
-1056964608
 92
-2
290
1
 42
2.0
291
1
 43
8.0
  3
Standard
 44
4.0
300

342
29
174
1
175
1
176
0
178
1
 93
-1056964608
 45
4.0
292
0
297
0
 46
4.0
 94
-1056964608
 47
1.0
 49
1.0
140
1.0
294
1
141
0.0
177
0
142
1.0
295
0
296
0
143
3.75
271
0
272
9
273
9
  0
DICTIONARY
  5
2D
330
A
100
AcDbDictionary
280
1
281
1
  3
CREATED_BY_EZDXF
350
2E
  3
WRITTEN_BY_EZDXF
350
E2
  0
DICTIONARYVAR
  5
2E
330
2D
100
DictionaryVariables
280
0
  1
1.4.4 @ 2026-09-13T11:05:27.849386+00:00
  0
DICTIONARYVAR
  5
E2
330
2D
100
DictionaryVariables
280
0
  1
1.4.4 @ 2026-09-13T11:05:27.860516+00:00
  0
ENDSEC
  0
EOF
