  0
SECTION
  2
HEADER
  9
$ACADVER
  1
AC1024
  9
$ACADMAINTVER
 70
6
  9
$DWGCODEPAGE
  3
ANSI_1252
  9
$LASTSAVEDBY
  1
ezdxf
  9
$INSBASE
 10
0.0
 20
0.0
 30
0.0
  9
$EXTMIN
 10
1e+20
 20
1e+20
 30
1e+20
  9
$EXTMAX
 10
-1e+20
 20
-1e+20
 30
-1e+20
  9
$LIMMIN
 10
0.0
 20
0.0
  9
$LIMMAX
 10
420.0
 20
297.0
  9
$ORTHOMODE
 70
0
  9
$REGENMODE
 70
1
  9
$FILLMODE
 70
1
  9
$QTEXTMODE
 70
0
  9
$MIRRTEXT
 70
1
  9
$LTSCALE
 40
1.0
  9
$ATTMODE
 70
1
  9
$TEXTSIZE
 40
2.5
  9
$TRACEWID
 40
1.0
  9
$TEXTSTYLE
  7
Standard
  9
$CLAYER
  8
0
  9
$CELTYPE
  6
ByLayer
  9
$CECOLOR
 62
256
  9
$CELTSCALE
 40
1.0
  9
$DISPSILH
 70
0
  9
$DIMSCALE
 40
1.0
  9
$DIMASZ
 40
2.5
  9
$DIMEXO
 40
0.625
  9
$DIMDLI
 40
3.75
  9
$DIMRND
 40
0.0
  9
$DIMDLE
 40
0.0
  9
$DIMEXE
 40
1.25
  9
$DIMTP
 40
0.0
  9
$DIMTM
 40
0.0
  9
$DIMTXT
 40
2.5
  9
$DIMCEN
 40
2.5
  9
$DIMTSZ
 40
0.0
  9
$DIMTOL
 70
0
  9
$DIMLIM
 70
0
  9
$DIMTIH
 70
0
  9
$DIMTOH
 70
0
  9
$DIMSE1
 70
0
  9
$DIMSE2
 70
0
  9
$DIMTAD
 70
1
  9
$DIMZIN
 70
8
  9
$DIMBLK
  1

  9
$DIMASO
 70
1
  9
$DIMSHO
 70
1
  9
$DIMPOST
  1

  9
$DIMAPOST
  1

  9
$DIMALT
 70
0
  9
$DIMALTD
 70
3
  9
$DIMALTF
 40
0.03937007874
  9
$DIMLFAC
 40
1.0
  9
$DIMTOFL
 70
1
  9
$DIMTVP
 40
0.0
  9
$DIMTIX
 70
0
  9
$DIMSOXD
 70
0
  9
$DIMSAH
 70
0
  9
$DIMBLK1
  1

  9
$DIMBLK2
  1

  9
$DIMSTYLE
  2
ISO-25
  9
$DIMCLRD
 70
0
  9
$DIMCLRE
 70
0
  9
$DIMCLRT
 70
0
  9
$DIMTFAC
 40
1.0
  9
$DIMGAP
 40
0.625
  9
$DIMJUST
 70
0
  9
$DIMSD1
 70
0
  9
$DIMSD2
 70
0
  9
$DIMTOLJ
 70
0
  9
$DIMTZIN
 70
8
  9
$DIMALTZ
 70
0
  9
$DIMALTTZ
 70
0
  9
$DIMUPT
 70
0
  9
$DIMDEC
 70
2
  9
$DIMTDEC
 70
2
  9
$DIMALTU
 70
2
  9
$DIMALTTD
 70
3
  9
$DIMTXSTY
  7
Standard
  9
$DIMAUNIT
 70
0
  9
$DIMADEC
 70
0
  9
$DIMALTRND
 40
0.0
  9
$DIMAZIN
 70
0
  9
$DIMDSEP
 70
44
  9
$DIMATFIT
 70
3
  9
$DIMFRAC
 70
0
  9
$DIMLDRBLK
  1

  9
$DIMLUNIT
 70
2
  9
$DIMLWD
 70
-2
  9
$DIMLWE
 70
-2
  9
$DIMTMOVE
 70
0
  9
$DIMFXL
 40
1.0
  9
$DIMFXLON
 70
0
  9
$DIMJOGANG
 40
0.785398163397
  9
$DIMTFILL
 70
0
  9
$DIMTFILLCLR
 70
0
  9
$DIMARCSYM
 70
0
  9
$DIMLTYPE
  6

  9
$DIMLTEX1
  6

  9
$DIMLTEX2
  6

  9
$DIMTXTDIRECTION
 70
0
  9
$LUNITS
 70
2
  9
$LUPREC
 70
4
  9
$SKETCHINC
 40
1.0
  9
$FILLETRAD
 40
10.0
  9
$AUNITS
 70
0
  9
$AUPREC
 70
2
  9
$MENU
  1
.
  9
$ELEVATION
 40
0.0
  9
$PELEVATION
 40
0.0
  9
$THICKNESS
 40
0.0
  9
$LIMCHECK
 70
0
  9
$CHAMFERA
 40
0.0
  9
$CHAMFERB
 40
0.0
  9
$CHAMFERC
 40
0.0
  9
$CHAMFERD
 40
0.0
  9
$SKPOLY
 70
0
  9
$TDCREATE
 40
2461297.7954513887
  9
$TDUCREATE
 40
2458532.153996898
  9
$TDUPDATE
 40
2461297.7954513887
  9
$TDUUPDATE
 40
2458532.1544311
  9
$TDINDWG
 40
0.0
  9
$TDUSRTIMER
 40
0.0
  9
$USRTIMER
 70
1
  9
$ANGBASE
 50
0.0
  9
$ANGDIR
 70
0
  9
$PDMODE
 70
0
  9
$PDSIZE
 40
0.0
  9
$PLINEWID
 40
0.0
  9
$SPLFRAME
 70
0
  9
$SPLINETYPE
 70
6
  9
$SPLINESEGS
 70
8
  9
$HANDSEED
  5
8D
  9
$SURFTAB1
 70
6
  9
$SURFTAB2
 70
6
  9
$SURFTYPE
 70
6
  9
$SURFU
 70
6
  9
$SURFV
 70
6
  9
$UCSBASE
  2

  9
$UCSNAME
  2

  9
$UCSORG
 10
0.0
 20
0.0
 30
0.0
  9
$UCSXDIR
 10
1.0
 20
0.0
 30
0.0
  9
$UCSYDIR
 10
0.0
 20
1.0
 30
0.0
  9
$UCSORTHOREF
  2

  9
$UCSORTHOVIEW
 70
0
  9
$UCSORGTOP
 10
0.0
 20
0.0
 30
0.0
  9
$UCSORGBOTTOM
 10
0.0
 20
0.0
 30
0.0
  9
$UCSORGLEFT
 10
0.0
 20
0.0
 30
0.0
  9
$UCSORGRIGHT
 10
0.0
 20
0.0
 30
0.0
  9
$UCSORGFRONT
 10
0.0
 20
0.0
 30
0.0
  9
$UCSORGBACK
 10
0.0
 20
0.0
 30
0.0
  9
$PUCSBASE
  2

  9
$PUCSNAME
  2

  9
$PUCSORG
 10
0.0
 20
0.0
 30
0.0
  9
$PUCSXDIR
 10
1.0
 20
0.0
 30
0.0
  9
$PUCSYDIR
 10
0.0
 20
1.0
 30
0.0
  9
$PUCSORTHOREF
  2

  9
$PUCSORTHOVIEW
 70
0
  9
$PUCSORGTOP
 10
0.0
 20
0.0
 30
0.0
  9
$PUCSORGBOTTOM
 10
0.0
 20
0.0
 30
0.0
  9
$PUCSORGLEFT
 10
0.0
 20
0.0
 30
0.0
  9
$PUCSORGRIGHT
 10
0.0
 20
0.0
 30
0.0
  9
$PUCSORGFRONT
 10
0.0
 20
0.0
 30
0.0
  9
$PUCSORGBACK
 10
0.0
 20
0.0
 30
0.0
  9
$USERI1
 70
0
  9
$USERI2
 70
0
  9
$USERI3
 70
0
  9
$USERI4
 70
0
  9
$USERI5
 70
0
  9
$USERR1
 40
0.0
  9
$USERR2
 40
0.0
  9
$USERR3
 40
0.0
  9
$USERR4
 40
0.0
  9
$USERR5
 40
0.0
  9
$WORLDVIEW
 70
1
  9
$SHADEDGE
 70
3
  9
$SHADEDIF
 70
70
  9
$TILEMODE
 70
1
  9
$MAXACTVP
 70
64
  9
$PINSBASE
 10
0.0
 20
0.0
 30
0.0
  9
$PLIMCHECK
 70
0
  9
$PEXTMIN
 10
1e+20
 20
1e+20
 30
1e+20
  9
$PEXTMAX
 10
-1e+20
 20
-1e+20
 30
-1e+20
  9
$PLIMMIN
 10
0.0
 20
0.0
  9
$PLIMMAX
 10
420.0
 20
297.0
  9
$UNITMODE
 70
0
  9
$VISRETAIN
 70
1
  9
$PLINEGEN
 70
0
  9
$PSLTSCALE
 70
1
  9
$TREEDEPTH
 70
3020
  9
$CMLSTYLE
  2
Standard
  9
$CMLJUST
 70
0
  9
$CMLSCALE
 40
20.0
  9
$PROXYGRAPHICS
 70
1
  9
$MEASUREMENT
 70
1
  9
$CELWEIGHT
370
-1
  9
$ENDCAPS
280
0
  9
$JOINSTYLE
280
0
  9
$LWDISPLAY
290
0
  9
$INSUNITS
 70
4
  9
$HYPERLINKBASE
  1

  9
$STYLESHEET
  1

  9
$XEDIT
290
1
  9
$CEPSNTYPE
380
0
  9
$PSTYLEMODE
290
1
  9
$FINGERPRINTGUID
  2
{A7B2508B-6D93-4DF4-A425-718ED9385167}
  9
$VERSIONGUID
  2
{256174B8-23F8-4F7F-B8D6-50CDF73392CD}
  9
$EXTNAMES
290
1
  9
$PSVPSCALE
 40
0.0
  9
$OLESTARTUP
290
0
  9
$SORTENTS
280
127
  9
$INDEXCTL
280
0
  9
$HIDETEXT
280
1
  9
$XCLIPFRAME
280
1
  9
$HALOGAP
280
0
  9
$OBSCOLOR
 70
257
  9
$OBSLTYPE
280
0
  9
$INTERSECTIONDISPLAY
280
0
  9
$INTERSECTIONCOLOR
 70
257
  9
$DIMASSOC
280
2
  9
$PROJECTNAME
  1

  9
$CAMERADISPLAY
290
0
  9
$LENSLENGTH
 40
50.0
  9
$CAMERAHEIGHT
 40
0.0
  9
$STEPSPERSEC
 40
24.0
  9
$STEPSIZE
 40
100.0
  9
$3DDWFPREC
 40
2.0
  9
$PSOLWIDTH
 40
0.005
  9
$PSOLHEIGHT
 40
0.08
  9
$LOFTANG1
 40
1.570796326795
  9
$LOFTANG2
 40
1.570796326795
  9
$LOFTMAG1
 40
0.0
  9
$LOFTMAG2
 40
0.0
  9
$LOFTPARAM
 70
7
  9
$LOFTNORMALS
280
1
  9
$LATITUDE
 40
37.795
  9
$LONGITUDE
 40
-122.394
  9
$NORTHDIRECTION
 40
0.0
  9
$TIMEZONE
 70
-8000
  9
$LIGHTGLYPHDISPLAY
280
1
  9
$TILEMODELIGHTSYNCH
280
1
  9
$CMATERIAL
347
20
  9
$SOLIDHIST
280
0
  9
$SHOWHIST
280
1
  9
$DWFFRAME
280
2
  9
$DGNFRAME
280
2
  9
$REALWORLDSCALE
290
1
  9
$INTERFERECOLOR
 62
256
  9
$CSHADOW
280
0
  9
$SHADOWPLANELOCATION
 40
0.0
  0
ENDSEC
  0
SECTION
  2
CLASSES
  0
CLASS
  1
ACDBDICTIONARYWDFLT
  2
AcDbDictionaryWithDefault
  3
ObjectDBX Classes
 90
0
 91
0
280
0
281
0
  0
CLASS
  1
SUN
  2
AcDbSun
  3
SCENEOE
 90
1153
 91
0
280
0
281
0
  0
CLASS
  1
VISUALSTYLE
  2
AcDbVisualStyle
  3
ObjectDBX Classes
 90
4095
 91
0
280
0
281
0
  0
CLASS
  1
MATERIAL
  2
AcDbMaterial
  3
ObjectDBX Classes
 90
1153
 91
0
280
0
281
0
  0
CLASS
  1
SCALE
  2
AcDbScale
  3
ObjectDBX Classes
 90
1153
 91
0
280
0
281
0
  0
CLASS
  1
TABLESTYLE
  2
AcDbTableStyle
  3
ObjectDBX Classes
 90
4095
 91
0
280
0
281
0
  0
CLASS
  1
MLEADERSTYLE
  2
AcDbMLeaderStyle
  3
ACDB_MLEADERSTYLE_CLASS
 90
4095
 91
0
280
0
281
0
  0
CLASS
  1
DICTIONARYVAR
  2
AcDbDictionaryVar
  3
ObjectDBX Classes
 90
0
 91
0
280
0
281
0
  0
CLASS
  1
CELLSTYLEMAP
  2
AcDbCellStyleMap
  3
ObjectDBX Classes
 90
1152
 91
0
280
0
281
0
  0
CLASS
  1
MENTALRAYRENDERSETTINGS
  2
AcDbMentalRayRenderSettings
  3
SCENEOE
 90
1024
 91
0
280
0
281
0
  0
CLASS
  1
ACDBDETAILVIEWSTYLE
  2
AcDbDetailViewStyle
  3
ObjectDBX Classes
 90
1025
 91
0
280
0
281
0
  0
CLASS
  1
ACDBSECTIONVIEWSTYLE
  2
AcDbSectionViewStyle
  3
ObjectDBX Classes
 90
1025
 91
0
280
0
281
0
  0
CLASS
  1
RASTERVARIABLES
  2
AcDbRasterVariables
  3
ISM
 90
0
 91
0
280
0
281
0
  0
CLASS
  1
LAYOUT
  2
AcDbLayout
  3
ObjectDBX Classes
 90
0
 91
0
280
0
281
0
  0
CLASS
  1
ACDBPLACEHOLDER
  2
AcDbPlaceHolder
  3
ObjectDBX Classes
 90
0
 91
0
280
0
281
0
  0
ENDSEC
  0
SECTION
  2
TABLES
  0
TABLE
  2
VPORT
  5
8
330
0
100
AcDbSymbolTable
 70
1
  0
VPORT
  5
23
330
8
100
AcDbSymbolTableRecord
100
AcDbViewportTableRecord
  2
*Active
 70
0
 10
0.0
 20
0.0
 11
1.0
 21
1.0
 12
0.0
 22
0.0
 13
0.0
 23
0.0
 14
0.5
 24
0.5
 15
0.5
 25
0.5
 16
0.0
 26
0.0
 36
1.0
 17
0.0
 27
0.0
 37
0.0
 40
1000.0
 41
1.34
 42
50.0
 43
0.0
 44
0.0
 50
0.0
 51
0.0
 71
0
 72
1000
 73
1
 74
3
 75
0
 76
0
 77
0
 78
0
281
0
 65
0
146
0.0
  0
ENDTAB
  0
TABLE
  2
LTYPE
  5
2
330
0
100
AcDbSymbolTable
 70
3
  0
LTYPE
  5
24
330
2
100
AcDbSymbolTableRecord
100
AcDbLinetypeTableRecord
  2
ByBlock
 70
0
  3

 72
65
 73
0
 40
0.0
  0
LTYPE
  5
25
330
2
100
AcDbSymbolTableRecord
100
AcDbLinetypeTableRecord
  2
ByLayer
 70
0
  3

 72
65
 73
0
 40
0.0
  0
LTYPE
  5
26
330
2
100
AcDbSymbolTableRecord
100
AcDbLinetypeTableRecord
  2
Continuous
 70
0
  3

 72
65
 73
0
 40
0.0
  0
ENDTAB
  0
TABLE
  2
LAYER
  5
1
330
0
100
AcDbSymbolTable
 70
9
  0
LAYER
  5
27
330
1
100
AcDbSymbolTableRecord
100
AcDbLayerTableRecord
  2
0
 70
0
 62
7
  6
Continuous
370
-3
390
13
347
21
  0
LAYER
  5
28
330
1
100
AcDbSymbolTableRecord
100
AcDbLayerTableRecord
  2
Defpoints
 70
0
 62
7
  6
Continuous
290
0
370
-3
390
13
347
21
  0
LAYER
  5
2F
330
1
100
AcDbSymbolTableRecord
100
AcDbLayerTableRecord
  2
OUTLINE
 70
0
 62
7
  6
Continuous
370
-3
390
13
347
21
  0
LAYER
  5
30
330
1
100
AcDbSymbolTableRecord
100
AcDbLayerTableRecord
  2
TANGENT
 70
0
 62
8
  6
Continuous
370
-3
390
13
347
21
  0
LAYER
  5
31
330
1
100
AcDbSymbolTableRecord
100
AcDbLayerTableRecord
  2
HIDDEN
 70
0
 62
8
  6
Continuous
370
-3
390
13
347
21
  0
LAYER
  5
32
330
1
100
AcDbSymbolTableRecord
100
AcDbLayerTableRecord
  2
DIM
 70
0
 62
7
  6
Continuous
370
-3
390
13
347
21
  0
LAYER
  5
33
330
1
100
AcDbSymbolTableRecord
100
AcDbLayerTableRecord
  2
TEXT
 70
0
 62
7
  6
Continuous
370
-3
390
13
347
21
  0
LAYER
  5
34
330
1
100
AcDbSymbolTableRecord
100
AcDbLayerTableRecord
  2
HOLD
 70
0
 62
1
  6
Continuous
370
-3
390
13
347
21
  0
LAYER
  5
35
330
1
100
AcDbSymbolTableRecord
100
AcDbLayerTableRecord
  2
CENTER
 70
0
 62
4
  6
Continuous
370
-3
390
13
347
21
  0
ENDTAB
  0
TABLE
  2
STYLE
  5
5
330
0
100
AcDbSymbolTable
 70
2
  0
STYLE
  5
29
330
5
100
AcDbSymbolTableRecord
100
AcDbTextStyleTableRecord
  2
Standard
 70
0
 40
0.0
 41
1.0
 50
0.0
 71
0
 42
2.5
  3
txt
  4

  0
STYLE
  5
36
330
5
100
AcDbSymbolTableRecord
100
AcDbTextStyleTableRecord
  2
CJK
 70
0
 40
0.0
 41
1.0
 50
0.0
 71
0
 42
2.5
  3
Arial Unicode.ttf
  4

  0
ENDTAB
  0
TABLE
  2
VIEW
  5
7
330
0
100
AcDbSymbolTable
 70
0
  0
ENDTAB
  0
TABLE
  2
UCS
  5
6
330
0
100
AcDbSymbolTable
 70
0
  0
ENDTAB
  0
TABLE
  2
APPID
  5
3
330
0
100
AcDbSymbolTable
 70
3
  0
APPID
  5
2A
330
3
100
AcDbSymbolTableRecord
100
AcDbRegAppTableRecord
  2
ACAD
 70
0
  0
APPID
  5
8A
330
3
100
AcDbSymbolTableRecord
100
AcDbRegAppTableRecord
  2
HATCHBACKGROUNDCOLOR
 70
0
  0
APPID
  5
8B
330
3
100
AcDbSymbolTableRecord
100
AcDbRegAppTableRecord
  2
EZDXF
 70
0
  0
ENDTAB
  0
TABLE
  2
DIMSTYLE
  5
4
330
0
100
AcDbSymbolTable
 70
1
100
AcDbDimStyleTable
  0
DIMSTYLE
105
2B
330
4
100
AcDbSymbolTableRecord
100
AcDbDimStyleTableRecord
  2
Standard
 70
0
 40
1.0
 41
2.5
 42
0.625
 43
3.75
 44
1.25
 45
0.0
 46
0.0
 47
0.0
 48
0.0
 49
2.5
140
2.5
141
2.5
142
0.0
143
0.03937007874
144
1.0
145
0.0
146
1.0
147
0.625
148
0.0
 69
0
 70
0
 71
0
 72
0
 73
0
 74
0
 75
0
 76
0
 77
1
 78
8
 79
3
170
0
171
3
172
1
173
0
174
0
175
0
176
0
177
0
178
0
179
2
271
2
272
2
273
2
274
3
275
0
276
0
277
2
278
44
279
0
280
0
281
0
282
0
283
0
284
8
285
0
286
0
288
0
289
3
290
0
371
-2
372
-2
  0
ENDTAB
  0
TABLE
  2
BLOCK_RECORD
  5
9
330
0
100
AcDbSymbolTable
 70
2
  0
BLOCK_RECORD
  5
17
330
9
100
AcDbSymbolTableRecord
100
AcDbBlockTableRecord
  2
*Model_Space
340
1A
 70
0
280
1
281
0
  0
BLOCK_RECORD
  5
1B
330
9
100
AcDbSymbolTableRecord
100
AcDbBlockTableRecord
  2
*Paper_Space
340
1E
 70
0
280
1
281
0
  0
ENDTAB
  0
ENDSEC
  0
SECTION
  2
BLOCKS
  0
BLOCK
  5
18
330
17
100
AcDbEntity
  8
0
100
AcDbBlockBegin
  2
*Model_Space
 70
0
 10
0.0
 20
0.0
 30
0.0
  3
*Model_Space
  1

  0
ENDBLK
  5
19
330
17
100
AcDbEntity
  8
0
100
AcDbBlockEnd
  0
BLOCK
  5
1C
330
1B
100
AcDbEntity
  8
0
100
AcDbBlockBegin
  2
*Paper_Space
 70
0
 10
0.0
 20
0.0
 30
0.0
  3
*Paper_Space
  1

  0
ENDBLK
  5
1D
330
1B
100
AcDbEntity
  8
0
100
AcDbBlockEnd
  0
ENDSEC
  0
SECTION
  2
ENTITIES
  0
LWPOLYLINE
  5
37
330
17
100
AcDbEntity
  8
OUTLINE
100
AcDbPolyline
 90
5
 70
0
 10
10.0
 20
10.0
 10
410.0
 20
10.0
 10
410.0
 20
287.0
 10
10.0
 20
287.0
 10
10.0
 20
10.0
  0
TEXT
  5
38
330
17
100
AcDbEntity
  8
TEXT
100
AcDbText
 10
15.0
 20
278.0
 30
0.0
 40
5.0
  1
螺纹连接 / 装配检验与首件扭矩试验
  7
CJK
 11
15.0
 21
278.0
 31
0.0
100
AcDbText
  0
TEXT
  5
39
330
17
100
AcDbEntity
  8
TEXT
100
AcDbText
 10
405.0
 20
279.0
 30
0.0
 40
3.0
  1
WF300-DH | P1D1 | 10/12
  7
CJK
 72
2
 11
405.0
 21
279.0
 31
0.0
100
AcDbText
  0
LINE
  5
3A
330
17
100
AcDbEntity
  8
OUTLINE
100
AcDbLine
 10
10.0
 20
273.0
 30
0.0
 11
410.0
 21
273.0
 31
0.0
  0
LINE
  5
3B
330
17
100
AcDbEntity
  8
OUTLINE
100
AcDbLine
 10
10.0
 20
38.0
 30
0.0
 11
410.0
 21
38.0
 31
0.0
  0
TEXT
  5
3C
330
17
100
AcDbEntity
  8
HOLD
100
AcDbText
 10
15.0
 20
30.0
 30
0.0
 40
3.3
  1
状态：工程试制 / 首件评审后执行；未获实片使用批准
  7
CJK
 11
15.0
 21
30.0
 31
0.0
100
AcDbText
  0
TEXT
  5
3D
330
17
100
AcDbEntity
  8
TEXT
100
AcDbText
 10
15.0
 20
22.0
 30
0.0
 40
2.6
  1
单位mm；成品尺寸；试制公差见第11页。复杂轮廓依同版STEP；不得量图。
  7
CJK
 11
15.0
 21
22.0
 31
0.0
100
AcDbText
  0
TEXT
  5
3E
330
17
100
AcDbEntity
  8
TEXT
100
AcDbText
 10
15.0
 20
15.0
 30
0.0
 40
2.5
  1
源模型 SHA-256：11d3f112668962898e65…；晶圆厚0.50–0.90；外缘2接触；先假片验收。
  7
CJK
 11
15.0
 21
15.0
 31
0.0
100
AcDbText
  0
LINE
  5
3F
330
17
100
AcDbEntity
  8
OUTLINE
100
AcDbLine
 10
282.0
 20
10.0
 30
0.0
 11
282.0
 21
38.0
 31
0.0
  0
TEXT
  5
40
330
17
100
AcDbEntity
  8
TEXT
100
AcDbText
 10
287.0
 20
30.0
 30
0.0
 40
2.7
  1
图号 WF300-P1-JOINTS  |  比例 标准件示意
  7
CJK
 11
287.0
 21
30.0
 31
0.0
100
AcDbText
  0
TEXT
  5
41
330
17
100
AcDbEntity
  8
TEXT
100
AcDbText
 10
287.0
 20
22.0
 30
0.0
 40
2.6
  1
材料/来源：ISO4762 A4-70
  7
CJK
 11
287.0
 21
22.0
 31
0.0
100
AcDbText
  0
TEXT
  5
42
330
17
100
AcDbEntity
  8
TEXT
100
AcDbText
 10
287.0
 20
15.0
 30
0.0
 40
2.6
  1
工艺/质量首件评审签署：待完成
  7
CJK
 11
287.0
 21
15.0
 31
0.0
100
AcDbText
  0
LWPOLYLINE
  5
43
330
17
100
AcDbEntity
  8
TANGENT
100
AcDbPolyline
 90
15
 70
0
 10
69.0
 20
254.72
 10
70.31371648
 20
254.72
 10
71.61091242666667
 20
254.72
 10
72.87527424
 20
254.72
 10
74.09090261333333
 20
254.72
 10
75.24250965333333
 20
254.72
 10
76.31561386666667
 20
254.72
 10
77.29671936
 20
254.72
 10
78.17348949333334
 20
254.72
 10
78.93489706666666
 20
254.72
 10
79.57136810666667
 20
254.72
 10
80.07489792
 20
254.72
 10
80.43915434666667
 20
254.72
 10
80.65955669333333
 20
254.72
 10
80.73333333333333
 20
254.72
  0
LWPOLYLINE
  5
44
330
17
100
AcDbEntity
  8
TANGENT
100
AcDbPolyline
 90
15
 70
0
 10
57.266666666666666
 20
254.72
 10
57.340443306666664
 20
254.72
 10
57.56084565333333
 20
254.72
 10
57.92510208
 20
254.72
 10
58.42863189333333
 20
254.72
 10
59.065102933333335
 20
254.72
 10
59.826510506666665
 20
254.72
 10
60.70328064
 20
254.72
 10
61.684386133333334
 20
254.72
 10
62.757490346666664
 20
254.72
 10
63.909097386666666
 20
254.72
 10
65.12472576
 20
254.72
 10
66.38908757333333
 20
254.72
 10
67.68628352
 20
254.72
 10
69.0
 20
254.72
  0
LWPOLYLINE
  5
45
330
17
100
AcDbEntity
  8
TANGENT
100
AcDbPolyline
 90
15
 70
0
 10
69.0
 20
242.7733333333333
 10
69.71657258666667
 20
242.7733333333333
 10
70.42413397333334
 20
242.7733333333333
 10
71.11378602666667
 20
242.7733333333333
 10
71.77685589333333
 20
242.7733333333333
 10
72.40500522666667
 20
242.7733333333333
 10
72.99033471999999
 20
242.7733333333333
 10
73.52548352
 20
242.7733333333333
 10
74.00372138666667
 20
242.7733333333333
 10
74.41903488
 20
242.7733333333333
 10
74.76620074666667
 20
242.7733333333333
 10
75.04085333333333
 20
242.7733333333333
 10
75.23953877333334
 20
242.7733333333333
 10
75.35975808
 20
242.7733333333333
 10
75.4
 20
242.7733333333333
  0
LWPOLYLINE
  5
46
330
17
100
AcDbEntity
  8
TANGENT
100
AcDbPolyline
 90
15
 70
0
 10
62.6
 20
242.7733333333333
 10
62.64024192
 20
242.7733333333333
 10
62.76046122666666
 20
242.7733333333333
 10
62.95914666666667
 20
242.7733333333333
 10
63.23379925333333
 20
242.7733333333333
 10
63.58096512
 20
242.7733333333333
 10
63.99627861333333
 20
242.7733333333333
 10
64.47451648
 20
242.7733333333333
 10
65.00966528000001
 20
242.7733333333333
 10
65.59499477333333
 20
242.7733333333333
 10
66.22314410666667
 20
242.7733333333333
 10
66.88621397333333
 20
242.7733333333333
 10
67.57586602666666
 20
242.7733333333333
 10
68.28342741333333
 20
242.7733333333333
 10
69.0
 20
242.7733333333333
  0
LWPOLYLINE
  5
47
330
17
100
AcDbEntity
  8
OUTLINE
100
AcDbPolyline
 90
15
 70
0
 10
69.0
 20
256.0
 10
70.17040213333334
 20
256.0
 10
71.32608554666666
 20
256.0
 10
72.45251712
 20
256.0
 10
73.53553152
 20
256.0
 10
74.56150869333334
 20
256.0
 10
75.51754666666666
 20
256.0
 10
76.39162282666666
 20
256.0
 10
77.17274496
 20
256.0
 10
77.85109034666667
 20
256.0
 10
78.41812778666667
 20
256.0
 10
78.86672725333334
 20
256.0
 10
79.19124650666666
 20
256.0
 10
79.38760490666667
 20
256.0
 10
79.45333333333333
 20
256.0
  0
LWPOLYLINE
  5
48
330
17
100
AcDbEntity
  8
OUTLINE
100
AcDbPolyline
 90
15
 70
0
 10
58.54666666666667
 20
256.0
 10
58.61239509333333
 20
256.0
 10
58.808753493333334
 20
256.0
 10
59.13327274666667
 20
256.0
 10
59.581872213333334
 20
256.0
 10
60.148909653333334
 20
256.0
 10
60.82725504
 20
256.0
 10
61.60837717333333
 20
256.0
 10
62.48245333333333
 20
256.0
 10
63.43849130666666
 20
256.0
 10
64.46446848
 20
256.0
 10
65.54748288
 20
256.0
 10
66.67391445333334
 20
256.0
 10
67.82959786666666
 20
256.0
 10
69.0
 20
256.0
  0
LWPOLYLINE
  5
49
330
17
100
AcDbEntity
  8
OUTLINE
100
AcDbPolyline
 90
15
 70
0
 10
69.0
 20
244.11733333333333
 10
70.31371648
 20
244.11733333333333
 10
71.61091242666667
 20
244.11733333333333
 10
72.87527424
 20
244.11733333333333
 10
74.09090261333333
 20
244.11733333333333
 10
75.24250965333333
 20
244.11733333333333
 10
76.31561386666667
 20
244.11733333333333
 10
77.29671936
 20
244.11733333333333
 10
78.17348949333334
 20
244.11733333333333
 10
78.93489706666666
 20
244.11733333333333
 10
79.57136810666667
 20
244.11733333333333
 10
80.07489792
 20
244.11733333333333
 10
80.43915434666667
 20
244.11733333333333
 10
80.65955669333333
 20
244.11733333333333
 10
80.73333333333333
 20
244.11733333333333
  0
LWPOLYLINE
  5
4A
330
17
100
AcDbEntity
  8
OUTLINE
100
AcDbPolyline
 90
15
 70
0
 10
57.266666666666666
 20
244.11733333333333
 10
57.340443306666664
 20
244.11733333333333
 10
57.56084565333333
 20
244.11733333333333
 10
57.92510208
 20
244.11733333333333
 10
58.42863189333333
 20
244.11733333333333
 10
59.065102933333335
 20
244.11733333333333
 10
59.826510506666665
 20
244.11733333333333
 10
60.70328064
 20
244.11733333333333
 10
61.684386133333334
 20
244.11733333333333
 10
62.757490346666664
 20
244.11733333333333
 10
63.909097386666666
 20
244.11733333333333
 10
65.12472576
 20
244.11733333333333
 10
66.38908757333333
 20
244.11733333333333
 10
67.68628352
 20
244.11733333333333
 10
69.0
 20
244.11733333333333
  0
LWPOLYLINE
  5
4B
330
17
100
AcDbEntity
  8
OUTLINE
100
AcDbPolyline
 90
15
 70
0
 10
69.0
 20
243.2
 10
70.21100757333333
 20
243.2
 10
71.40678656
 20
243.2
 10
72.57229824
 20
243.2
 10
73.69288661333333
 20
243.2
 10
74.75445888
 20
243.2
 10
75.74366549333334
 20
243.2
 10
76.64806698666666
 20
243.2
 10
77.45628928
 20
243.2
 10
78.15816874666666
 20
243.2
 10
78.74487936
 20
243.2
 10
79.20904192
 20
243.2
 10
79.54482048
 20
243.2
 10
79.74799146666666
 20
243.2
 10
79.816
 20
243.2
  0
LWPOLYLINE
  5
4C
330
17
100
AcDbEntity
  8
OUTLINE
100
AcDbPolyline
 90
15
 70
0
 10
58.184
 20
243.2
 10
58.25200853333333
 20
243.2
 10
58.45517952
 20
243.2
 10
58.790958079999996
 20
243.2
 10
59.25512064
 20
243.2
 10
59.84183125333333
 20
243.2
 10
60.54371072
 20
243.2
 10
61.35193301333334
 20
243.2
 10
62.25633450666667
 20
243.2
 10
63.24554112
 20
243.2
 10
64.30711338666667
 20
243.2
 10
65.42770176
 20
243.2
 10
66.59321344
 20
243.2
 10
67.78899242666667
 20
243.2
 10
69.0
 20
243.2
  0
LWPOLYLINE
  5
4D
330
17
100
AcDbEntity
  8
OUTLINE
100
AcDbPolyline
 90
15
 70
0
 10
69.0
 20
193.28
 10
69.71657258666667
 20
193.28
 10
70.42413397333334
 20
193.28
 10
71.11378602666667
 20
193.28
 10
71.77685589333333
 20
193.28
 10
72.40500522666667
 20
193.28
 10
72.99033471999999
 20
193.28
 10
73.52548352
 20
193.28
 10
74.00372138666667
 20
193.28
 10
74.41903488
 20
193.28
 10
74.76620074666667
 20
193.28
 10
75.04085333333333
 20
193.28
 10
75.23953877333334
 20
193.28
 10
75.35975808
 20
193.28
 10
75.4
 20
193.28
  0
LWPOLYLINE
  5
4E
330
17
100
AcDbEntity
  8
OUTLINE
100
AcDbPolyline
 90
15
 70
0
 10
62.6
 20
193.28
 10
62.64024192
 20
193.28
 10
62.76046122666666
 20
193.28
 10
62.95914666666667
 20
193.28
 10
63.23379925333333
 20
193.28
 10
63.58096512
 20
193.28
 10
63.99627861333333
 20
193.28
 10
64.47451648
 20
193.28
 10
65.00966528000001
 20
193.28
 10
65.59499477333333
 20
193.28
 10
66.22314410666667
 20
193.28
 10
66.88621397333333
 20
193.28
 10
67.57586602666666
 20
193.28
 10
68.28342741333333
 20
193.28
 10
69.0
 20
193.28
  0
LWPOLYLINE
  5
4F
330
17
100
AcDbEntity
  8
OUTLINE
100
AcDbPolyline
 90
15
 70
0
 10
69.0
 20
192.0
 10
69.57325824
 20
192.0
 10
70.13930709333333
 20
192.0
 10
70.69102890666667
 20
192.0
 10
71.2214848
 20
192.0
 10
71.72400426666667
 20
192.0
 10
72.19226794666666
 20
192.0
 10
72.62038656
 20
192.0
 10
73.00297728
 20
192.0
 10
73.33522773333334
 20
192.0
 10
73.61296042666666
 20
192.0
 10
73.83268266666667
 20
192.0
 10
73.99163093333334
 20
192.0
 10
74.08780672
 20
192.0
 10
74.12
 20
192.0
  0
LWPOLYLINE
  5
50
330
17
100
AcDbEntity
  8
OUTLINE
100
AcDbPolyline
 90
15
 70
0
 10
63.88
 20
192.0
 10
63.91219328
 20
192.0
 10
64.00836906666666
 20
192.0
 10
64.16731733333333
 20
192.0
 10
64.38703957333334
 20
192.0
 10
64.66477226666666
 20
192.0
 10
64.99702272
 20
192.0
 10
65.37961344
 20
192.0
 10
65.80773205333334
 20
192.0
 10
66.27599573333333
 20
192.0
 10
66.7785152
 20
192.0
 10
67.30897109333333
 20
192.0
 10
67.86069290666667
 20
192.0
 10
68.42674176
 20
192.0
 10
69.0
 20
192.0
  0
LWPOLYLINE
  5
51
330
17
100
AcDbEntity
  8
OUTLINE
100
AcDbPolyline
 90
5
 70
0
 10
80.73333333333333
 20
254.72
 10
80.61142357333333
 20
255.26518442666665
 10
80.36551082666666
 20
255.61796010666666
 10
79.89620821333334
 20
255.92094165333333
 10
79.45333333333333
 20
256.0
  0
LWPOLYLINE
  5
52
330
17
100
AcDbEntity
  8
OUTLINE
100
AcDbPolyline
 90
5
 70
0
 10
57.266666666666666
 20
254.72
 10
57.38857642666667
 20
255.26518442666665
 10
57.634489173333336
 20
255.61796010666666
 10
58.10379178666667
 20
255.92094165333333
 10
58.54666666666667
 20
256.0
  0
LWPOLYLINE
  5
53
330
17
100
AcDbEntity
  8
OUTLINE
100
AcDbPolyline
 90
2
 70
0
 10
57.266666666666666
 20
254.72
 10
57.266666666666666
 20
244.11733333333333
  0
LWPOLYLINE
  5
54
330
17
100
AcDbEntity
  8
OUTLINE
100
AcDbPolyline
 90
2
 70
0
 10
80.73333333333333
 20
254.72
 10
80.73333333333333
 20
244.11733333333333
  0
LWPOLYLINE
  5
55
330
17
100
AcDbEntity
  8
OUTLINE
100
AcDbPolyline
 90
2
 70
0
 10
79.816
 20
243.2
 10
80.73333333333333
 20
244.11733333333333
  0
LWPOLYLINE
  5
56
330
17
100
AcDbEntity
  8
OUTLINE
100
AcDbPolyline
 90
2
 70
0
 10
58.184
 20
243.2
 10
57.266666666666666
 20
244.11733333333333
  0
LWPOLYLINE
  5
57
330
17
100
AcDbEntity
  8
OUTLINE
100
AcDbPolyline
 90
3
 70
0
 10
75.4
 20
242.7733333333333
 10
75.52260736
 20
243.07265322666666
 10
75.82666666666667
 20
243.2
  0
LWPOLYLINE
  5
58
330
17
100
AcDbEntity
  8
OUTLINE
100
AcDbPolyline
 90
3
 70
0
 10
62.6
 20
242.7733333333333
 10
62.47739264
 20
243.07265322666666
 10
62.17333333333333
 20
243.2
  0
LWPOLYLINE
  5
59
330
17
100
AcDbEntity
  8
OUTLINE
100
AcDbPolyline
 90
2
 70
0
 10
62.6
 20
242.7733333333333
 10
62.6
 20
193.28
  0
LWPOLYLINE
  5
5A
330
17
100
AcDbEntity
  8
OUTLINE
100
AcDbPolyline
 90
2
 70
0
 10
75.4
 20
242.7733333333333
 10
75.4
 20
193.28
  0
LWPOLYLINE
  5
5B
330
17
100
AcDbEntity
  8
OUTLINE
100
AcDbPolyline
 90
2
 70
0
 10
74.12
 20
192.0
 10
75.4
 20
193.28
  0
LWPOLYLINE
  5
5C
330
17
100
AcDbEntity
  8
OUTLINE
100
AcDbPolyline
 90
2
 70
0
 10
63.88
 20
192.0
 10
62.6
 20
193.28
  0
LWPOLYLINE
  5
5D
330
17
100
AcDbEntity
  8
TANGENT
100
AcDbPolyline
 90
15
 70
0
 10
205.0
 20
254.17142857142858
 10
206.79143177142856
 20
254.17142857142858
 10
208.56033508571429
 20
254.17142857142858
 10
210.2844649142857
 20
254.17142857142858
 10
211.94213988571428
 20
254.17142857142858
 10
213.51251337142858
 20
254.17142857142858
 10
214.9758368
 20
254.17142857142858
 10
216.31370834285715
 20
254.17142857142858
 10
217.50930377142856
 20
254.17142857142858
 10
218.5475872
 20
254.17142857142858
 10
219.4155017142857
 20
254.17142857142858
 10
220.1021334857143
 20
254.17142857142858
 10
220.59884662857144
 20
254.17142857142858
 10
220.89939520000001
 20
254.17142857142858
 10
221.0
 20
254.17142857142858
  0
LWPOLYLINE
  5
5E
330
17
100
AcDbEntity
  8
TANGENT
100
AcDbPolyline
 90
15
 70
0
 10
189.0
 20
254.17142857142858
 10
189.10060479999999
 20
254.17142857142858
 10
189.40115337142856
 20
254.17142857142858
 10
189.8978665142857
 20
254.17142857142858
 10
190.5844982857143
 20
254.17142857142858
 10
191.4524128
 20
254.17142857142858
 10
192.49069622857144
 20
254.17142857142858
 10
193.68629165714285
 20
254.17142857142858
 10
195.0241632
 20
254.17142857142858
 10
196.48748662857142
 20
254.17142857142858
 10
198.05786011428572
 20
254.17142857142858
 10
199.7155350857143
 20
254.17142857142858
 10
201.43966491428571
 20
254.17142857142858
 10
203.20856822857144
 20
254.17142857142858
 10
205.0
 20
254.17142857142858
  0
LWPOLYLINE
  5
5F
330
17
100
AcDbEntity
  8
TANGENT
100
AcDbPolyline
 90
15
 70
0
 10
205.0
 20
236.8
 10
206.02367542857144
 20
236.8
 10
207.03447725714287
 20
236.8
 10
208.01969417142857
 20
236.8
 10
208.96693714285715
 20
236.8
 10
209.86429348571428
 20
236.8
 10
210.70047817142859
 20
236.8
 10
211.46497645714285
 20
236.8
 10
212.14817371428572
 20
236.8
 10
212.7414784
 20
236.8
 10
213.23742948571427
 20
236.8
 10
213.6297906285714
 20
236.8
 10
213.9136265142857
 20
236.8
 10
214.0853686857143
 20
236.8
 10
214.14285714285714
 20
236.8
  0
LWPOLYLINE
  5
60
330
17
100
AcDbEntity
  8
TANGENT
100
AcDbPolyline
 90
15
 70
0
 10
195.85714285714286
 20
236.8
 10
195.9146313142857
 20
236.8
 10
196.0863734857143
 20
236.8
 10
196.3702093714286
 20
236.8
 10
196.76257051428573
 20
236.8
 10
197.2585216
 20
236.8
 10
197.85182628571428
 20
236.8
 10
198.53502354285715
 20
236.8
 10
199.29952182857141
 20
236.8
 10
200.13570651428572
 20
236.8
 10
201.03306285714285
 20
236.8
 10
201.98030582857143
 20
236.8
 10
202.96552274285713
 20
236.8
 10
203.97632457142856
 20
236.8
 10
205.0
 20
236.8
  0
LWPOLYLINE
  5
61
330
17
100
AcDbEntity
  8
OUTLINE
100
AcDbPolyline
 90
15
 70
0
 10
205.0
 20
256.0
 10
206.5866966857143
 20
256.0
 10
208.15343954285714
 20
256.0
 10
209.68052617142857
 20
256.0
 10
211.14875245714285
 20
256.0
 10
212.5396544
 20
256.0
 10
213.83574125714284
 20
256.0
 10
215.02071314285715
 20
256.0
 10
216.07966902857143
 20
256.0
 10
216.99929142857144
 20
256.0
 10
217.768016
 20
256.0
 10
218.3761750857143
 20
256.0
 10
218.81612114285713
 20
256.0
 10
219.08232182857142
 20
256.0
 10
219.17142857142858
 20
256.0
  0
LWPOLYLINE
  5
62
330
17
100
AcDbEntity
  8
OUTLINE
100
AcDbPolyline
 90
15
 70
0
 10
190.82857142857142
 20
256.0
 10
190.91767817142858
 20
256.0
 10
191.18387885714287
 20
256.0
 10
191.6238249142857
 20
256.0
 10
192.231984
 20
256.0
 10
193.00070857142856
 20
256.0
 10
193.92033097142857
 20
256.0
 10
194.97928685714285
 20
256.0
 10
196.16425874285716
 20
256.0
 10
197.4603456
 20
256.0
 10
198.85124754285715
 20
256.0
 10
200.31947382857143
 20
256.0
 10
201.84656045714286
 20
256.0
 10
203.4133033142857
 20
256.0
 10
205.0
 20
256.0
  0
LWPOLYLINE
  5
63
330
17
100
AcDbEntity
  8
OUTLINE
100
AcDbPolyline
 90
15
 70
0
 10
205.0
 20
238.78857142857143
 10
206.79143177142856
 20
238.78857142857143
 10
208.56033508571429
 20
238.78857142857143
 10
210.2844649142857
 20
238.78857142857143
 10
211.94213988571428
 20
238.78857142857143
 10
213.51251337142858
 20
238.78857142857143
 10
214.9758368
 20
238.78857142857143
 10
216.31370834285715
 20
238.78857142857143
 10
217.50930377142856
 20
238.78857142857143
 10
218.5475872
 20
238.78857142857143
 10
219.4155017142857
 20
238.78857142857143
 10
220.1021334857143
 20
238.78857142857143
 10
220.59884662857144
 20
238.78857142857143
 10
220.89939520000001
 20
238.78857142857143
 10
221.0
 20
238.78857142857143
  0
LWPOLYLINE
  5
64
330
17
100
AcDbEntity
  8
OUTLINE
100
AcDbPolyline
 90
15
 70
0
 10
189.0
 20
238.78857142857143
 10
189.10060479999999
 20
238.78857142857143
 10
189.40115337142856
 20
238.78857142857143
 10
189.8978665142857
 20
238.78857142857143
 10
190.5844982857143
 20
238.78857142857143
 10
191.4524128
 20
238.78857142857143
 10
192.49069622857144
 20
238.78857142857143
 10
193.68629165714285
 20
238.78857142857143
 10
195.0241632
 20
238.78857142857143
 10
196.48748662857142
 20
238.78857142857143
 10
198.05786011428572
 20
238.78857142857143
 10
199.7155350857143
 20
238.78857142857143
 10
201.43966491428571
 20
238.78857142857143
 10
203.20856822857144
 20
238.78857142857143
 10
205.0
 20
238.78857142857143
  0
LWPOLYLINE
  5
65
330
17
100
AcDbEntity
  8
OUTLINE
100
AcDbPolyline
 90
15
 70
0
 10
205.0
 20
237.71428571428572
 10
206.67114971428572
 20
237.71428571428572
 10
208.32128365714286
 20
237.71428571428572
 10
209.92965074285715
 20
237.71428571428572
 10
211.4760246857143
 20
237.71428571428572
 10
212.94095862857142
 20
237.71428571428572
 10
214.30603062857142
 20
237.71428571428572
 10
215.5540736
 20
237.71428571428572
 10
216.66939337142858
 20
237.71428571428572
 10
217.63796342857142
 20
237.71428571428572
 10
218.44760411428572
 20
237.71428571428572
 10
219.08813302857143
 20
237.71428571428572
 10
219.55149531428572
 20
237.71428571428572
 10
219.8318646857143
 20
237.71428571428572
 10
219.9257142857143
 20
237.71428571428572
  0
LWPOLYLINE
  5
66
330
17
100
AcDbEntity
  8
OUTLINE
100
AcDbPolyline
 90
15
 70
0
 10
190.0742857142857
 20
237.71428571428572
 10
190.1681353142857
 20
237.71428571428572
 10
190.44850468571428
 20
237.71428571428572
 10
190.91186697142857
 20
237.71428571428572
 10
191.55239588571428
 20
237.71428571428572
 10
192.36203657142858
 20
237.71428571428572
 10
193.33060662857142
 20
237.71428571428572
 10
194.4459264
 20
237.71428571428572
 10
195.69396937142858
 20
237.71428571428572
 10
197.05904137142858
 20
237.71428571428572
 10
198.5239753142857
 20
237.71428571428572
 10
200.07034925714285
 20
237.71428571428572
 10
201.67871634285714
 20
237.71428571428572
 10
203.32885028571428
 20
237.71428571428572
 10
205.0
 20
237.71428571428572
  0
LWPOLYLINE
  5
67
330
17
100
AcDbEntity
  8
OUTLINE
100
AcDbPolyline
 90
15
 70
0
 10
205.0
 20
193.82857142857145
 10
206.02367542857144
 20
193.82857142857145
 10
207.03447725714287
 20
193.82857142857145
 10
208.01969417142857
 20
193.82857142857145
 10
208.96693714285715
 20
193.82857142857145
 10
209.86429348571428
 20
193.82857142857145
 10
210.70047817142859
 20
193.82857142857145
 10
211.46497645714285
 20
193.82857142857145
 10
212.14817371428572
 20
193.82857142857145
 10
212.7414784
 20
193.82857142857145
 10
213.23742948571427
 20
193.82857142857145
 10
213.6297906285714
 20
193.82857142857145
 10
213.9136265142857
 20
193.82857142857145
 10
214.0853686857143
 20
193.82857142857145
 10
214.14285714285714
 20
193.82857142857145
  0
LWPOLYLINE
  5
68
330
17
100
AcDbEntity
  8
OUTLINE
100
AcDbPolyline
 90
15
 70
0
 10
195.85714285714286
 20
193.82857142857145
 10
195.9146313142857
 20
193.82857142857145
 10
196.0863734857143
 20
193.82857142857145
 10
196.3702093714286
 20
193.82857142857145
 10
196.76257051428573
 20
193.82857142857145
 10
197.2585216
 20
193.82857142857145
 10
197.85182628571428
 20
193.82857142857145
 10
198.53502354285715
 20
193.82857142857145
 10
199.29952182857141
 20
193.82857142857145
 10
200.13570651428572
 20
193.82857142857145
 10
201.03306285714285
 20
193.82857142857145
 10
201.98030582857143
 20
193.82857142857145
 10
202.96552274285713
 20
193.82857142857145
 10
203.97632457142856
 20
193.82857142857145
 10
205.0
 20
193.82857142857145
  0
LWPOLYLINE
  5
69
330
17
100
AcDbEntity
  8
OUTLINE
100
AcDbPolyline
 90
15
 70
0
 10
205.0
 20
192.0
 10
205.81894034285713
 20
192.0
 10
206.62758171428572
 20
192.0
 10
207.41575542857143
 20
192.0
 10
208.1735497142857
 20
192.0
 10
208.89143451428572
 20
192.0
 10
209.56038262857143
 20
192.0
 10
210.1719808
 20
192.0
 10
210.7185389714286
 20
192.0
 10
211.19318262857144
 20
192.0
 10
211.58994377142858
 20
192.0
 10
211.90383222857142
 20
192.0
 10
212.13090148571428
 20
192.0
 10
212.26829485714285
 20
192.0
 10
212.31428571428572
 20
192.0
  0
LWPOLYLINE
  5
6A
330
17
100
AcDbEntity
  8
OUTLINE
100
AcDbPolyline
 90
15
 70
0
 10
197.68571428571428
 20
192.0
 10
197.73170514285715
 20
192.0
 10
197.86909851428572
 20
192.0
 10
198.09616777142858
 20
192.0
 10
198.41005622857142
 20
192.0
 10
198.80681737142856
 20
192.0
 10
199.2814610285714
 20
192.0
 10
199.8280192
 20
192.0
 10
200.43961737142857
 20
192.0
 10
201.10856548571428
 20
192.0
 10
201.8264502857143
 20
192.0
 10
202.58424457142857
 20
192.0
 10
203.37241828571428
 20
192.0
 10
204.18105965714287
 20
192.0
 10
205.0
 20
192.0
  0
LWPOLYLINE
  5
6B
330
17
100
AcDbEntity
  8
OUTLINE
100
AcDbPolyline
 90
5
 70
0
 10
221.0
 20
254.17142857142858
 10
220.8688489142857
 20
254.85145645714286
 10
220.47453897142856
 20
255.45422902857143
 10
219.9040608
 20
255.84681600000002
 10
219.17142857142858
 20
256.0
  0
LWPOLYLINE
  5
6C
330
17
100
AcDbEntity
  8
OUTLINE
100
AcDbPolyline
 90
5
 70
0
 10
189.0
 20
254.17142857142858
 10
189.1311510857143
 20
254.85145645714286
 10
189.52546102857144
 20
255.45422902857143
 10
190.0959392
 20
255.84681600000002
 10
190.82857142857142
 20
256.0
  0
LWPOLYLINE
  5
6D
330
17
100
AcDbEntity
  8
OUTLINE
100
AcDbPolyline
 90
2
 70
0
 10
189.0
 20
254.17142857142858
 10
189.0
 20
238.78857142857143
  0
LWPOLYLINE
  5
6E
330
17
100
AcDbEntity
  8
OUTLINE
100
AcDbPolyline
 90
2
 70
0
 10
221.0
 20
254.17142857142858
 10
221.0
 20
238.78857142857143
  0
LWPOLYLINE
  5
6F
330
17
100
AcDbEntity
  8
OUTLINE
100
AcDbPolyline
 90
2
 70
0
 10
219.9257142857143
 20
237.71428571428572
 10
221.0
 20
238.78857142857143
  0
LWPOLYLINE
  5
70
330
17
100
AcDbEntity
  8
OUTLINE
100
AcDbPolyline
 90
2
 70
0
 10
190.0742857142857
 20
237.71428571428572
 10
189.0
 20
238.78857142857143
  0
LWPOLYLINE
  5
71
330
17
100
AcDbEntity
  8
OUTLINE
100
AcDbPolyline
 90
5
 70
0
 10
214.14285714285714
 20
236.8
 10
214.2724192
 20
237.2691757714286
 10
214.40558765714286
 20
237.44140022857144
 10
214.70394651428572
 20
237.64330925714287
 10
215.05714285714285
 20
237.71428571428572
  0
LWPOLYLINE
  5
72
330
17
100
AcDbEntity
  8
OUTLINE
100
AcDbPolyline
 90
5
 70
0
 10
195.85714285714286
 20
236.8
 10
195.7275808
 20
237.2691757714286
 10
195.59441234285714
 20
237.44140022857144
 10
195.29605348571428
 20
237.64330925714287
 10
194.94285714285715
 20
237.71428571428572
  0
LWPOLYLINE
  5
73
330
17
100
AcDbEntity
  8
OUTLINE
100
AcDbPolyline
 90
2
 70
0
 10
195.85714285714286
 20
236.8
 10
195.85714285714286
 20
193.82857142857145
  0
LWPOLYLINE
  5
74
330
17
100
AcDbEntity
  8
OUTLINE
100
AcDbPolyline
 90
2
 70
0
 10
214.14285714285714
 20
236.8
 10
214.14285714285714
 20
193.82857142857145
  0
LWPOLYLINE
  5
75
330
17
100
AcDbEntity
  8
OUTLINE
100
AcDbPolyline
 90
2
 70
0
 10
212.31428571428572
 20
192.0
 10
214.14285714285714
 20
193.82857142857145
  0
LWPOLYLINE
  5
76
330
17
100
AcDbEntity
  8
OUTLINE
100
AcDbPolyline
 90
2
 70
0
 10
197.68571428571428
 20
192.0
 10
195.85714285714286
 20
193.82857142857145
  0
TEXT
  5
77
330
17
100
AcDbEntity
  8
TEXT
100
AcDbText
 10
70.0
 20
263.0
 30
0.0
 40
3.5
  1
M3×12 / 8件
  7
CJK
 72
1
 11
70.0
 21
263.0
 31
0.0
100
AcDbText
  0
TEXT
  5
78
330
17
100
AcDbEntity
  8
TEXT
100
AcDbText
 10
205.0
 20
263.0
 30
0.0
 40
3.5
  1
M4×10 / 4件
  7
CJK
 72
1
 11
205.0
 21
263.0
 31
0.0
100
AcDbText
  0
TEXT
  5
79
330
17
100
AcDbEntity
  8
TEXT
100
AcDbText
 10
284.0
 20
251.0
 30
0.0
 40
2.8
  1
另4×M3×6用于接地
  7
CJK
 11
284.0
 21
251.0
 31
0.0
100
AcDbText
  0
TEXT
  5
7A
330
17
100
AcDbEntity
  8
TEXT
100
AcDbText
 10
284.0
 20
242.0
 30
0.0
 40
2.8
  1
全部使用A4-70全螺纹
  7
CJK
 11
284.0
 21
242.0
 31
0.0
100
AcDbText
  0
TEXT
  5
7B
330
17
100
AcDbEntity
  8
TEXT
100
AcDbText
 10
284.0
 20
233.0
 30
0.0
 40
2.8
  1
不得写成316L螺钉
  7
CJK
 11
284.0
 21
233.0
 31
0.0
100
AcDbText
  0
TEXT
  5
7C
330
17
100
AcDbEntity
  8
TEXT
100
AcDbText
 10
284.0
 20
224.0
 30
0.0
 40
2.8
  1
CAD为Fasteners WB
  7
CJK
 11
284.0
 21
224.0
 31
0.0
100
AcDbText
  0
TEXT
  5
7D
330
17
100
AcDbEntity
  8
TEXT
100
AcDbText
 10
284.0
 20
215.0
 30
0.0
 40
2.8
  1
ISO4762原生简化螺纹
  7
CJK
 11
284.0
 21
215.0
 31
0.0
100
AcDbText
  0
TEXT
  5
7E
330
17
100
AcDbEntity
  8
TEXT
100
AcDbText
 10
284.0
 20
206.0
 30
0.0
 40
2.8
  1
固定版本79a06dc067b5…
  7
CJK
 11
284.0
 21
206.0
 31
0.0
100
AcDbText
  0
TEXT
  5
7F
330
17
100
AcDbEntity
  8
TEXT
100
AcDbText
 10
284.0
 20
197.0
 30
0.0
 40
2.8
  1
无新增不可信脚本代理
  7
CJK
 11
284.0
 21
197.0
 31
0.0
100
AcDbText
  0
TEXT
  5
80
330
17
100
AcDbEntity
  8
TEXT
100
AcDbText
 10
284.0
 20
188.0
 30
0.0
 40
2.8
  1
共16个连接逐一建档
  7
CJK
 11
284.0
 21
188.0
 31
0.0
100
AcDbText
  0
TEXT
  5
81
330
17
100
AcDbEntity
  8
TEXT
100
AcDbText
 10
27.0
 20
170.0
 30
0.0
 40
2.9
  1
连接K1：M3×12穿过8厚PEEK，名义铝内啮合4；有效啮合实测≥3.5 mm。
  7
CJK
 11
27.0
 21
170.0
 31
0.0
100
AcDbText
  0
TEXT
  5
82
330
17
100
AcDbEntity
  8
TEXT
100
AcDbText
 10
27.0
 20
159.0
 30
0.0
 40
2.9
  1
连接K2：M4×10穿3厚端壁，名义杆内啮合7；有效啮合实测≥6.5 mm。
  7
CJK
 11
27.0
 21
159.0
 31
0.0
100
AcDbText
  0
TEXT
  5
83
330
17
100
AcDbEntity
  8
TEXT
100
AcDbText
 10
27.0
 20
148.0
 30
0.0
 40
2.9
  1
连接K3：M3×6穿0.84端子舌片，名义啮合5.16；实际需≥4.5且距盲孔底≥0.5 mm。
  7
CJK
 11
27.0
 21
148.0
 31
0.0
100
AcDbText
  0
TEXT
  5
84
330
17
100
AcDbEntity
  8
TEXT
100
AcDbText
 10
27.0
 20
137.0
 30
0.0
 40
2.9
  1
CAD中螺纹底孔并非光孔制造要求。检查GO/NO-GO、有效牙深及螺钉实际长度。
  7
CJK
 11
27.0
 21
137.0
 31
0.0
100
AcDbText
  0
TEXT
  5
85
330
17
100
AcDbEntity
  8
TEXT
100
AcDbText
 10
27.0
 20
126.0
 30
0.0
 40
2.9
  1
首件接头试验起始扭矩：K1 0.08 N·m；K2 0.20 N·m；K3 0.15 N·m。
  7
CJK
 11
27.0
 21
126.0
 31
0.0
100
AcDbText
  0
TEXT
  5
86
330
17
100
AcDbEntity
  8
TEXT
100
AcDbText
 10
27.0
 20
115.0
 30
0.0
 40
2.9
  1
上述只是试验起点，不是合格拧紧窗口：同批材料试件确定窗口后填入工艺卡才可最终装配。
  7
CJK
 11
27.0
 21
115.0
 31
0.0
100
AcDbText
  0
TEXT
  5
87
330
17
100
AcDbEntity
  8
TEXT
100
AcDbText
 10
27.0
 20
104.0
 30
0.0
 40
2.9
  1
窗口确认：落座/防转、无PEEK压痕裂纹、无滑牙/咬死；24小时及100/1000次复检保持。
  7
CJK
 11
27.0
 21
104.0
 31
0.0
100
AcDbText
  0
TEXT
  5
88
330
17
100
AcDbEntity
  8
TEXT
100
AcDbText
 10
27.0
 20
93.0
 30
0.0
 40
2.9
  1
禁止直接套金属通用扭矩、加螺纹胶或随意增加垫圈；如需机械防松件，需更新图和BOM。
  7
CJK
 11
27.0
 21
93.0
 31
0.0
100
AcDbText
  0
TEXT
  5
89
330
17
100
AcDbEntity
  8
TEXT
100
AcDbText
 10
27.0
 20
82.0
 30
0.0
 40
2.9
  1
16个连接记录覆盖率100%；实測扭矩、工具、操作者、日期和复检栏留空供首件填写。
  7
CJK
 11
27.0
 21
82.0
 31
0.0
100
AcDbText
  0
ENDSEC
  0
SECTION
  2
OBJECTS
  0
DICTIONARY
  5
A
330
0
100
AcDbDictionary
281
1
  3
ACAD_COLOR
350
B
  3
ACAD_GROUP
350
C
  3
ACAD_LAYOUT
350
D
  3
ACAD_MATERIAL
350
E
  3
ACAD_MLEADERSTYLE
350
F
  3
ACAD_MLINESTYLE
350
10
  3
ACAD_PLOTSETTINGS
350
11
  3
ACAD_PLOTSTYLENAME
350
12
  3
ACAD_SCALELIST
350
14
  3
ACAD_TABLESTYLE
350
15
  3
ACAD_VISUALSTYLE
350
16
  3
EZDXF_META
350
2D
  0
DICTIONARY
  5
B
330
A
100
AcDbDictionary
281
1
  0
DICTIONARY
  5
C
330
A
100
AcDbDictionary
281
1
  0
DICTIONARY
  5
D
330
A
100
AcDbDictionary
281
1
  3
Model
350
1A
  3
Layout1
350
1E
  0
DICTIONARY
  5
E
330
A
100
AcDbDictionary
281
1
  3
ByBlock
350
1F
  3
ByLayer
350
20
  3
Global
350
21
  0
DICTIONARY
  5
F
330
A
100
AcDbDictionary
281
1
  3
Standard
350
2C
  0
DICTIONARY
  5
10
330
A
100
AcDbDictionary
281
1
  3
Standard
350
22
  0
DICTIONARY
  5
11
330
A
100
AcDbDictionary
281
1
  0
ACDBDICTIONARYWDFLT
  5
12
330
A
100
AcDbDictionary
281
1
  3
Normal
350
13
100
AcDbDictionaryWithDefault
340
13
  0
ACDBPLACEHOLDER
  5
13
330
12
  0
DICTIONARY
  5
14
330
A
100
AcDbDictionary
281
1
  0
DICTIONARY
  5
15
330
A
100
AcDbDictionary
281
1
  0
DICTIONARY
  5
16
330
A
100
AcDbDictionary
281
1
  0
LAYOUT
  5
1A
330
D
100
AcDbPlotSettings
  1

  4
A3
  6

 40
7.5
 41
20.0
 42
7.5
 43
20.0
 44
420.0
 45
297.0
 46
0.0
 47
0.0
 48
0.0
 49
0.0
140
0.0
141
0.0
142
1.0
143
1.0
 70
1024
 72
1
 73
0
 74
5
  7

 75
16
 76
0
 77
2
 78
300
147
1.0
148
0.0
149
0.0
100
AcDbLayout
  1
Model
 70
1
 71
0
 10
0.0
 20
0.0
 11
420.0
 21
297.0
 12
0.0
 22
0.0
 32
0.0
 14
1e+20
 24
1e+20
 34
1e+20
 15
-1e+20
 25
-1e+20
 35
-1e+20
146
0.0
 13
0.0
 23
0.0
 33
0.0
 16
1.0
 26
0.0
 36
0.0
 17
0.0
 27
1.0
 37
0.0
 76
1
330
17
  0
LAYOUT
  5
1E
330
D
100
AcDbPlotSettings
  1

  4
A3
  6

 40
7.5
 41
20.0
 42
7.5
 43
20.0
 44
420.0
 45
297.0
 46
0.0
 47
0.0
 48
0.0
 49
0.0
140
0.0
141
0.0
142
1.0
143
1.0
 70
0
 72
1
 73
0
 74
5
  7

 75
16
 76
0
 77
2
 78
300
147
1.0
148
0.0
149
0.0
100
AcDbLayout
  1
Layout1
 70
1
 71
1
 10
0.0
 20
0.0
 11
420.0
 21
297.0
 12
0.0
 22
0.0
 32
0.0
 14
1e+20
 24
1e+20
 34
1e+20
 15
-1e+20
 25
-1e+20
 35
-1e+20
146
0.0
 13
0.0
 23
0.0
 33
0.0
 16
1.0
 26
0.0
 36
0.0
 17
0.0
 27
1.0
 37
0.0
 76
1
330
1B
  0
MATERIAL
  5
1F
102
{ACAD_REACTORS
330
E
102
}
330
E
100
AcDbMaterial
  1
ByBlock
  2

 70
0
 40
1.0
 71
1
 41
1.0
 91
-1023410177
 42
1.0
 72
1
  3

 73
1
 74
1
 75
1
 44
0.5
 73
0
 45
1.0
 46
1.0
 77
1
  4

 78
1
 79
1
170
1
 48
1.0
171
1
  6

172
1
173
1
174
1
140
1.0
141
1.0
175
1
  7

176
1
177
1
178
1
143
1.0
179
1
  8

270
1
271
1
272
1
145
1.0
146
1.0
273
1
  9

274
1
275
1
276
1
 42
1.0
 72
1
  3

 73
1
 74
1
 75
1
 94
63
  0
MATERIAL
  5
20
102
{ACAD_REACTORS
330
E
102
}
330
E
100
AcDbMaterial
  1
ByLayer
  2

 70
0
 40
1.0
 71
1
 41
1.0
 91
-1023410177
 42
1.0
 72
1
  3

 73
1
 74
1
 75
1
 44
0.5
 73
0
 45
1.0
 46
1.0
 77
1
  4

 78
1
 79
1
170
1
 48
1.0
171
1
  6

172
1
173
1
174
1
140
1.0
141
1.0
175
1
  7

176
1
177
1
178
1
143
1.0
179
1
  8

270
1
271
1
272
1
145
1.0
146
1.0
273
1
  9

274
1
275
1
276
1
 42
1.0
 72
1
  3

 73
1
 74
1
 75
1
 94
63
  0
MATERIAL
  5
21
102
{ACAD_REACTORS
330
E
102
}
330
E
100
AcDbMaterial
  1
Global
  2

 70
0
 40
1.0
 71
1
 41
1.0
 91
-1023410177
 42
1.0
 72
1
  3

 73
1
 74
1
 75
1
 44
0.5
 73
0
 45
1.0
 46
1.0
 77
1
  4

 78
1
 79
1
170
1
 48
1.0
171
1
  6

172
1
173
1
174
1
140
1.0
141
1.0
175
1
  7

176
1
177
1
178
1
143
1.0
179
1
  8

270
1
271
1
272
1
145
1.0
146
1.0
273
1
  9

274
1
275
1
276
1
 42
1.0
 72
1
  3

 73
1
 74
1
 75
1
 94
63
  0
MLINESTYLE
  5
22
102
{ACAD_REACTORS
330
10
102
}
330
10
100
AcDbMlineStyle
  2
Standard
 70
0
  3

 62
256
 51
90.0
 52
90.0
 71
2
 49
0.5
 62
256
  6
BYLAYER
 49
-0.5
 62
256
  6
BYLAYER
  0
MLEADERSTYLE
  5
2C
102
{ACAD_REACTORS
330
F
102
}
330
F
100
AcDbMLeaderStyle
179
2
170
2
171
1
172
0
 90
2
 40
0.0
 41
0.0
173
1
 91
-1056964608
 92
-2
290
1
 42
2.0
291
1
 43
8.0
  3
Standard
 44
4.0
300

342
29
174
1
175
1
176
0
178
1
 93
-1056964608
 45
4.0
292
0
297
0
 46
4.0
 94
-1056964608
 47
1.0
 49
1.0
140
1.0
294
1
141
0.0
177
0
142
1.0
295
0
296
0
143
3.75
271
0
272
9
273
9
  0
DICTIONARY
  5
2D
330
A
100
AcDbDictionary
280
1
281
1
  3
CREATED_BY_EZDXF
350
2E
  3
WRITTEN_BY_EZDXF
350
8C
  0
DICTIONARYVAR
  5
2E
330
2D
100
DictionaryVariables
280
0
  1
1.4.4 @ 2026-09-13T11:05:27.885218+00:00
  0
DICTIONARYVAR
  5
8C
330
2D
100
DictionaryVariables
280
0
  1
1.4.4 @ 2026-09-13T11:05:27.892220+00:00
  0
ENDSEC
  0
EOF
