ISO-10303-21;
HEADER;
FILE_DESCRIPTION(('FreeCAD Model'),'2;1');
FILE_NAME('Open CASCADE Shape Model','2026-09-13T19:00:02',('FreeCAD'),(
    'FreeCAD'),'Open CASCADE STEP processor 7.8','FreeCAD','Unknown');
FILE_SCHEMA(('AUTOMOTIVE_DESIGN { 1 0 10303 214 1 1 1 1 }'));
ENDSEC;
DATA;
#1 = APPLICATION_PROTOCOL_DEFINITION('international standard',
  'automotive_design',2000,#2);
#2 = APPLICATION_CONTEXT(
  'core data for automotive mechanical design processes');
#3 = SHAPE_DEFINITION_REPRESENTATION(#4,#10);
#4 = PRODUCT_DEFINITION_SHAPE('','',#5);
#5 = PRODUCT_DEFINITION('design','',#6,#9);
#6 = PRODUCT_DEFINITION_FORMATION('','',#7);
#7 = PRODUCT('Open CASCADE STEP translator 7.8 15',
  'Open CASCADE STEP translator 7.8 15','',(#8));
#8 = PRODUCT_CONTEXT('',#2,'mechanical');
#9 = PRODUCT_DEFINITION_CONTEXT('part definition',#2,'design');
#10 = ADVANCED_BREP_SHAPE_REPRESENTATION('',(#11,#15),#1195);
#11 = AXIS2_PLACEMENT_3D('',#12,#13,#14);
#12 = CARTESIAN_POINT('',(0.,0.,0.));
#13 = DIRECTION('',(0.,0.,1.));
#14 = DIRECTION('',(1.,0.,-0.));
#15 = MANIFOLD_SOLID_BREP('',#16);
#16 = CLOSED_SHELL('',(#17,#57,#90,#131,#156,#189,#245,#262,#286,#335,
    #352,#475,#493,#526,#559,#592,#619,#637,#670,#703,#728,#757,#782,
    #814,#838,#862,#887,#912,#936,#960,#978,#1003,#1014,#1031,#1048,
    #1065,#1093,#1110,#1121,#1138,#1155,#1171,#1183));
#17 = ADVANCED_FACE('',(#18),#52,.F.);
#18 = FACE_BOUND('',#19,.F.);
#19 = EDGE_LOOP('',(#20,#30,#38,#46));
#20 = ORIENTED_EDGE('',*,*,#21,.F.);
#21 = EDGE_CURVE('',#22,#24,#26,.T.);
#22 = VERTEX_POINT('',#23);
#23 = CARTESIAN_POINT('',(2.84217094304E-14,-10.6,0.4));
#24 = VERTEX_POINT('',#25);
#25 = CARTESIAN_POINT('',(2.84217094304E-14,-10.6,3.4));
#26 = LINE('',#27,#28);
#27 = CARTESIAN_POINT('',(2.84217094304E-14,-10.6,-8.881784197001E-16));
#28 = VECTOR('',#29,1.);
#29 = DIRECTION('',(0.,0.,1.));
#30 = ORIENTED_EDGE('',*,*,#31,.T.);
#31 = EDGE_CURVE('',#22,#32,#34,.T.);
#32 = VERTEX_POINT('',#33);
#33 = CARTESIAN_POINT('',(2.84217094304E-14,10.6,0.4));
#34 = LINE('',#35,#36);
#35 = CARTESIAN_POINT('',(2.84217094304E-14,-11.,0.4));
#36 = VECTOR('',#37,1.);
#37 = DIRECTION('',(5.551115123126E-17,1.,0.));
#38 = ORIENTED_EDGE('',*,*,#39,.T.);
#39 = EDGE_CURVE('',#32,#40,#42,.T.);
#40 = VERTEX_POINT('',#41);
#41 = CARTESIAN_POINT('',(2.84217094304E-14,10.6,3.4));
#42 = LINE('',#43,#44);
#43 = CARTESIAN_POINT('',(2.84217094304E-14,10.6,-8.881784197001E-16));
#44 = VECTOR('',#45,1.);
#45 = DIRECTION('',(0.,0.,1.));
#46 = ORIENTED_EDGE('',*,*,#47,.T.);
#47 = EDGE_CURVE('',#40,#24,#48,.T.);
#48 = LINE('',#49,#50);
#49 = CARTESIAN_POINT('',(2.84217094304E-14,-11.5,3.4));
#50 = VECTOR('',#51,1.);
#51 = DIRECTION('',(-5.551115123126E-17,-1.,0.));
#52 = PLANE('',#53);
#53 = AXIS2_PLACEMENT_3D('',#54,#55,#56);
#54 = CARTESIAN_POINT('',(2.84217094304E-14,-11.,-8.881784197001E-16));
#55 = DIRECTION('',(1.,-5.551115123126E-17,0.));
#56 = DIRECTION('',(0.,0.,1.));
#57 = ADVANCED_FACE('',(#58),#85,.T.);
#58 = FACE_BOUND('',#59,.T.);
#59 = EDGE_LOOP('',(#60,#61,#70,#78));
#60 = ORIENTED_EDGE('',*,*,#21,.F.);
#61 = ORIENTED_EDGE('',*,*,#62,.T.);
#62 = EDGE_CURVE('',#22,#63,#65,.T.);
#63 = VERTEX_POINT('',#64);
#64 = CARTESIAN_POINT('',(0.4,-11.,0.4));
#65 = CIRCLE('',#66,0.4);
#66 = AXIS2_PLACEMENT_3D('',#67,#68,#69);
#67 = CARTESIAN_POINT('',(0.4,-10.6,0.4));
#68 = DIRECTION('',(0.,0.,1.));
#69 = DIRECTION('',(-1.,5.551115123126E-17,0.));
#70 = ORIENTED_EDGE('',*,*,#71,.T.);
#71 = EDGE_CURVE('',#63,#72,#74,.T.);
#72 = VERTEX_POINT('',#73);
#73 = CARTESIAN_POINT('',(0.4,-11.,3.4));
#74 = LINE('',#75,#76);
#75 = CARTESIAN_POINT('',(0.4,-11.,-8.881784197001E-16));
#76 = VECTOR('',#77,1.);
#77 = DIRECTION('',(0.,0.,1.));
#78 = ORIENTED_EDGE('',*,*,#79,.F.);
#79 = EDGE_CURVE('',#24,#72,#80,.T.);
#80 = CIRCLE('',#81,0.4);
#81 = AXIS2_PLACEMENT_3D('',#82,#83,#84);
#82 = CARTESIAN_POINT('',(0.4,-10.6,3.4));
#83 = DIRECTION('',(0.,0.,1.));
#84 = DIRECTION('',(-1.,5.551115123126E-17,0.));
#85 = CYLINDRICAL_SURFACE('',#86,0.4);
#86 = AXIS2_PLACEMENT_3D('',#87,#88,#89);
#87 = CARTESIAN_POINT('',(0.4,-10.6,-8.881784197001E-16));
#88 = DIRECTION('',(0.,0.,1.));
#89 = DIRECTION('',(-1.,5.551115123126E-17,0.));
#90 = ADVANCED_FACE('',(#91),#126,.T.);
#91 = FACE_BOUND('',#92,.T.);
#92 = EDGE_LOOP('',(#93,#103,#111,#118,#119,#120));
#93 = ORIENTED_EDGE('',*,*,#94,.T.);
#94 = EDGE_CURVE('',#95,#97,#99,.T.);
#95 = VERTEX_POINT('',#96);
#96 = CARTESIAN_POINT('',(1.6,-11.,3.4));
#97 = VERTEX_POINT('',#98);
#98 = CARTESIAN_POINT('',(1.6,11.,3.4));
#99 = LINE('',#100,#101);
#100 = CARTESIAN_POINT('',(1.6,-12.,3.4));
#101 = VECTOR('',#102,1.);
#102 = DIRECTION('',(5.551115123126E-17,1.,0.));
#103 = ORIENTED_EDGE('',*,*,#104,.F.);
#104 = EDGE_CURVE('',#105,#97,#107,.T.);
#105 = VERTEX_POINT('',#106);
#106 = CARTESIAN_POINT('',(0.4,11.,3.4));
#107 = LINE('',#108,#109);
#108 = CARTESIAN_POINT('',(-1.3,11.,3.4));
#109 = VECTOR('',#110,1.);
#110 = DIRECTION('',(1.,-5.551115123126E-17,0.));
#111 = ORIENTED_EDGE('',*,*,#112,.T.);
#112 = EDGE_CURVE('',#105,#40,#113,.T.);
#113 = CIRCLE('',#114,0.4);
#114 = AXIS2_PLACEMENT_3D('',#115,#116,#117);
#115 = CARTESIAN_POINT('',(0.4,10.6,3.4));
#116 = DIRECTION('',(0.,0.,1.));
#117 = DIRECTION('',(-1.,5.551115123126E-17,0.));
#118 = ORIENTED_EDGE('',*,*,#47,.T.);
#119 = ORIENTED_EDGE('',*,*,#79,.T.);
#120 = ORIENTED_EDGE('',*,*,#121,.T.);
#121 = EDGE_CURVE('',#72,#95,#122,.T.);
#122 = LINE('',#123,#124);
#123 = CARTESIAN_POINT('',(-1.3,-11.,3.4));
#124 = VECTOR('',#125,1.);
#125 = DIRECTION('',(1.,-5.551115123126E-17,0.));
#126 = PLANE('',#127);
#127 = AXIS2_PLACEMENT_3D('',#128,#129,#130);
#128 = CARTESIAN_POINT('',(-2.6,-12.,3.4));
#129 = DIRECTION('',(0.,0.,1.));
#130 = DIRECTION('',(1.,-5.551115123126E-17,0.));
#131 = ADVANCED_FACE('',(#132),#151,.T.);
#132 = FACE_BOUND('',#133,.F.);
#133 = EDGE_LOOP('',(#134,#135,#144,#150));
#134 = ORIENTED_EDGE('',*,*,#39,.F.);
#135 = ORIENTED_EDGE('',*,*,#136,.T.);
#136 = EDGE_CURVE('',#32,#137,#139,.T.);
#137 = VERTEX_POINT('',#138);
#138 = CARTESIAN_POINT('',(0.4,11.,0.4));
#139 = CIRCLE('',#140,0.4);
#140 = AXIS2_PLACEMENT_3D('',#141,#142,#143);
#141 = CARTESIAN_POINT('',(0.4,10.6,0.4));
#142 = DIRECTION('',(-0.,0.,-1.));
#143 = DIRECTION('',(-1.,-4.384488848769E-15,0.));
#144 = ORIENTED_EDGE('',*,*,#145,.T.);
#145 = EDGE_CURVE('',#137,#105,#146,.T.);
#146 = LINE('',#147,#148);
#147 = CARTESIAN_POINT('',(0.4,11.,-8.881784197001E-16));
#148 = VECTOR('',#149,1.);
#149 = DIRECTION('',(0.,0.,1.));
#150 = ORIENTED_EDGE('',*,*,#112,.T.);
#151 = CYLINDRICAL_SURFACE('',#152,0.4);
#152 = AXIS2_PLACEMENT_3D('',#153,#154,#155);
#153 = CARTESIAN_POINT('',(0.4,10.6,-8.881784197001E-16));
#154 = DIRECTION('',(0.,0.,1.));
#155 = DIRECTION('',(-1.,5.551115123126E-17,0.));
#156 = ADVANCED_FACE('',(#157),#184,.T.);
#157 = FACE_BOUND('',#158,.F.);
#158 = EDGE_LOOP('',(#159,#168,#176,#183));
#159 = ORIENTED_EDGE('',*,*,#160,.F.);
#160 = EDGE_CURVE('',#161,#22,#163,.T.);
#161 = VERTEX_POINT('',#162);
#162 = CARTESIAN_POINT('',(0.4,-10.6,-8.881784197001E-16));
#163 = CIRCLE('',#164,0.4);
#164 = AXIS2_PLACEMENT_3D('',#165,#166,#167);
#165 = CARTESIAN_POINT('',(0.4,-10.6,0.4));
#166 = DIRECTION('',(5.551115123126E-17,1.,-0.));
#167 = DIRECTION('',(-1.,5.551115123126E-17,0.));
#168 = ORIENTED_EDGE('',*,*,#169,.T.);
#169 = EDGE_CURVE('',#161,#170,#172,.T.);
#170 = VERTEX_POINT('',#171);
#171 = CARTESIAN_POINT('',(0.4,10.6,-8.881784197001E-16));
#172 = LINE('',#173,#174);
#173 = CARTESIAN_POINT('',(0.4,-11.,-8.881784197001E-16));
#174 = VECTOR('',#175,1.);
#175 = DIRECTION('',(5.551115123126E-17,1.,0.));
#176 = ORIENTED_EDGE('',*,*,#177,.T.);
#177 = EDGE_CURVE('',#170,#32,#178,.T.);
#178 = CIRCLE('',#179,0.4);
#179 = AXIS2_PLACEMENT_3D('',#180,#181,#182);
#180 = CARTESIAN_POINT('',(0.4,10.6,0.4));
#181 = DIRECTION('',(-4.384488848769E-15,1.,0.));
#182 = DIRECTION('',(-1.,-4.384488848769E-15,0.));
#183 = ORIENTED_EDGE('',*,*,#31,.F.);
#184 = CYLINDRICAL_SURFACE('',#185,0.4);
#185 = AXIS2_PLACEMENT_3D('',#186,#187,#188);
#186 = CARTESIAN_POINT('',(0.4,-11.,0.4));
#187 = DIRECTION('',(5.551115123126E-17,1.,0.));
#188 = DIRECTION('',(-1.,5.551115123126E-17,0.));
#189 = ADVANCED_FACE('',(#190),#240,.F.);
#190 = FACE_BOUND('',#191,.F.);
#191 = EDGE_LOOP('',(#192,#200,#201,#202,#210,#218,#226,#234));
#192 = ORIENTED_EDGE('',*,*,#193,.F.);
#193 = EDGE_CURVE('',#63,#194,#196,.T.);
#194 = VERTEX_POINT('',#195);
#195 = CARTESIAN_POINT('',(13.,-11.,0.4));
#196 = LINE('',#197,#198);
#197 = CARTESIAN_POINT('',(2.84217094304E-14,-11.,0.4));
#198 = VECTOR('',#199,1.);
#199 = DIRECTION('',(1.,-5.551115123126E-17,0.));
#200 = ORIENTED_EDGE('',*,*,#71,.T.);
#201 = ORIENTED_EDGE('',*,*,#121,.T.);
#202 = ORIENTED_EDGE('',*,*,#203,.F.);
#203 = EDGE_CURVE('',#204,#95,#206,.T.);
#204 = VERTEX_POINT('',#205);
#205 = CARTESIAN_POINT('',(1.6,-11.,4.6));
#206 = LINE('',#207,#208);
#207 = CARTESIAN_POINT('',(1.6,-11.,1.7));
#208 = VECTOR('',#209,1.);
#209 = DIRECTION('',(0.,0.,-1.));
#210 = ORIENTED_EDGE('',*,*,#211,.F.);
#211 = EDGE_CURVE('',#212,#204,#214,.T.);
#212 = VERTEX_POINT('',#213);
#213 = CARTESIAN_POINT('',(0.4,-11.,4.6));
#214 = LINE('',#215,#216);
#215 = CARTESIAN_POINT('',(-1.3,-11.,4.6));
#216 = VECTOR('',#217,1.);
#217 = DIRECTION('',(1.,-5.551115123126E-17,0.));
#218 = ORIENTED_EDGE('',*,*,#219,.T.);
#219 = EDGE_CURVE('',#212,#220,#222,.T.);
#220 = VERTEX_POINT('',#221);
#221 = CARTESIAN_POINT('',(0.4,-11.,7.6));
#222 = LINE('',#223,#224);
#223 = CARTESIAN_POINT('',(0.4,-11.,-8.881784197001E-16));
#224 = VECTOR('',#225,1.);
#225 = DIRECTION('',(0.,0.,1.));
#226 = ORIENTED_EDGE('',*,*,#227,.T.);
#227 = EDGE_CURVE('',#220,#228,#230,.T.);
#228 = VERTEX_POINT('',#229);
#229 = CARTESIAN_POINT('',(13.,-11.,7.6));
#230 = LINE('',#231,#232);
#231 = CARTESIAN_POINT('',(2.84217094304E-14,-11.,7.6));
#232 = VECTOR('',#233,1.);
#233 = DIRECTION('',(1.,-5.551115123126E-17,0.));
#234 = ORIENTED_EDGE('',*,*,#235,.F.);
#235 = EDGE_CURVE('',#194,#228,#236,.T.);
#236 = LINE('',#237,#238);
#237 = CARTESIAN_POINT('',(13.,-11.,-8.881784197001E-16));
#238 = VECTOR('',#239,1.);
#239 = DIRECTION('',(0.,0.,1.));
#240 = PLANE('',#241);
#241 = AXIS2_PLACEMENT_3D('',#242,#243,#244);
#242 = CARTESIAN_POINT('',(2.84217094304E-14,-11.,-8.881784197001E-16));
#243 = DIRECTION('',(5.551115123126E-17,1.,0.));
#244 = DIRECTION('',(0.,0.,1.));
#245 = ADVANCED_FACE('',(#246),#257,.T.);
#246 = FACE_BOUND('',#247,.T.);
#247 = EDGE_LOOP('',(#248,#249,#256));
#248 = ORIENTED_EDGE('',*,*,#160,.F.);
#249 = ORIENTED_EDGE('',*,*,#250,.T.);
#250 = EDGE_CURVE('',#161,#63,#251,.T.);
#251 = CIRCLE('',#252,0.4);
#252 = AXIS2_PLACEMENT_3D('',#253,#254,#255);
#253 = CARTESIAN_POINT('',(0.4,-10.6,0.4));
#254 = DIRECTION('',(-1.,1.155111512313E-16,0.));
#255 = DIRECTION('',(-1.155111512313E-16,-1.,0.));
#256 = ORIENTED_EDGE('',*,*,#62,.F.);
#257 = SPHERICAL_SURFACE('',#258,0.4);
#258 = AXIS2_PLACEMENT_3D('',#259,#260,#261);
#259 = CARTESIAN_POINT('',(0.4,-10.6,0.4));
#260 = DIRECTION('',(0.,0.,1.));
#261 = DIRECTION('',(-1.,5.551115123126E-17,0.));
#262 = ADVANCED_FACE('',(#263),#281,.F.);
#263 = FACE_BOUND('',#264,.F.);
#264 = EDGE_LOOP('',(#265,#273,#274,#275));
#265 = ORIENTED_EDGE('',*,*,#266,.F.);
#266 = EDGE_CURVE('',#204,#267,#269,.T.);
#267 = VERTEX_POINT('',#268);
#268 = CARTESIAN_POINT('',(1.6,11.,4.6));
#269 = LINE('',#270,#271);
#270 = CARTESIAN_POINT('',(1.6,-12.,4.6));
#271 = VECTOR('',#272,1.);
#272 = DIRECTION('',(5.551115123126E-17,1.,0.));
#273 = ORIENTED_EDGE('',*,*,#203,.T.);
#274 = ORIENTED_EDGE('',*,*,#94,.T.);
#275 = ORIENTED_EDGE('',*,*,#276,.F.);
#276 = EDGE_CURVE('',#267,#97,#277,.T.);
#277 = LINE('',#278,#279);
#278 = CARTESIAN_POINT('',(1.6,11.,1.7));
#279 = VECTOR('',#280,1.);
#280 = DIRECTION('',(0.,0.,-1.));
#281 = PLANE('',#282);
#282 = AXIS2_PLACEMENT_3D('',#283,#284,#285);
#283 = CARTESIAN_POINT('',(1.6,-12.,3.4));
#284 = DIRECTION('',(1.,-5.551115123126E-17,0.));
#285 = DIRECTION('',(0.,0.,1.));
#286 = ADVANCED_FACE('',(#287),#330,.T.);
#287 = FACE_BOUND('',#288,.T.);
#288 = EDGE_LOOP('',(#289,#297,#298,#299,#300,#308,#316,#324));
#289 = ORIENTED_EDGE('',*,*,#290,.F.);
#290 = EDGE_CURVE('',#137,#291,#293,.T.);
#291 = VERTEX_POINT('',#292);
#292 = CARTESIAN_POINT('',(13.,11.,0.4));
#293 = LINE('',#294,#295);
#294 = CARTESIAN_POINT('',(2.84217094304E-14,11.,0.4));
#295 = VECTOR('',#296,1.);
#296 = DIRECTION('',(1.,-5.551115123126E-17,0.));
#297 = ORIENTED_EDGE('',*,*,#145,.T.);
#298 = ORIENTED_EDGE('',*,*,#104,.T.);
#299 = ORIENTED_EDGE('',*,*,#276,.F.);
#300 = ORIENTED_EDGE('',*,*,#301,.F.);
#301 = EDGE_CURVE('',#302,#267,#304,.T.);
#302 = VERTEX_POINT('',#303);
#303 = CARTESIAN_POINT('',(0.4,11.,4.6));
#304 = LINE('',#305,#306);
#305 = CARTESIAN_POINT('',(-1.3,11.,4.6));
#306 = VECTOR('',#307,1.);
#307 = DIRECTION('',(1.,-5.551115123126E-17,0.));
#308 = ORIENTED_EDGE('',*,*,#309,.T.);
#309 = EDGE_CURVE('',#302,#310,#312,.T.);
#310 = VERTEX_POINT('',#311);
#311 = CARTESIAN_POINT('',(0.4,11.,7.6));
#312 = LINE('',#313,#314);
#313 = CARTESIAN_POINT('',(0.4,11.,-8.881784197001E-16));
#314 = VECTOR('',#315,1.);
#315 = DIRECTION('',(0.,0.,1.));
#316 = ORIENTED_EDGE('',*,*,#317,.T.);
#317 = EDGE_CURVE('',#310,#318,#320,.T.);
#318 = VERTEX_POINT('',#319);
#319 = CARTESIAN_POINT('',(13.,11.,7.6));
#320 = LINE('',#321,#322);
#321 = CARTESIAN_POINT('',(2.84217094304E-14,11.,7.6));
#322 = VECTOR('',#323,1.);
#323 = DIRECTION('',(1.,-5.551115123126E-17,0.));
#324 = ORIENTED_EDGE('',*,*,#325,.F.);
#325 = EDGE_CURVE('',#291,#318,#326,.T.);
#326 = LINE('',#327,#328);
#327 = CARTESIAN_POINT('',(13.,11.,-8.881784197001E-16));
#328 = VECTOR('',#329,1.);
#329 = DIRECTION('',(0.,0.,1.));
#330 = PLANE('',#331);
#331 = AXIS2_PLACEMENT_3D('',#332,#333,#334);
#332 = CARTESIAN_POINT('',(2.84217094304E-14,11.,-8.881784197001E-16));
#333 = DIRECTION('',(5.551115123126E-17,1.,0.));
#334 = DIRECTION('',(0.,0.,1.));
#335 = ADVANCED_FACE('',(#336),#347,.T.);
#336 = FACE_BOUND('',#337,.F.);
#337 = EDGE_LOOP('',(#338,#339,#346));
#338 = ORIENTED_EDGE('',*,*,#177,.F.);
#339 = ORIENTED_EDGE('',*,*,#340,.T.);
#340 = EDGE_CURVE('',#170,#137,#341,.T.);
#341 = CIRCLE('',#342,0.4);
#342 = AXIS2_PLACEMENT_3D('',#343,#344,#345);
#343 = CARTESIAN_POINT('',(0.4,10.6,0.4));
#344 = DIRECTION('',(1.,4.488848768742E-18,-0.));
#345 = DIRECTION('',(-4.488848768742E-18,1.,0.));
#346 = ORIENTED_EDGE('',*,*,#136,.F.);
#347 = SPHERICAL_SURFACE('',#348,0.4);
#348 = AXIS2_PLACEMENT_3D('',#349,#350,#351);
#349 = CARTESIAN_POINT('',(0.4,10.6,0.4));
#350 = DIRECTION('',(0.,0.,1.));
#351 = DIRECTION('',(-1.,-4.384488848769E-15,0.));
#352 = ADVANCED_FACE('',(#353,#378,#389,#459),#470,.F.);
#353 = FACE_BOUND('',#354,.F.);
#354 = EDGE_LOOP('',(#355,#356,#364,#372));
#355 = ORIENTED_EDGE('',*,*,#169,.F.);
#356 = ORIENTED_EDGE('',*,*,#357,.T.);
#357 = EDGE_CURVE('',#161,#358,#360,.T.);
#358 = VERTEX_POINT('',#359);
#359 = CARTESIAN_POINT('',(13.,-10.6,-8.881784197001E-16));
#360 = LINE('',#361,#362);
#361 = CARTESIAN_POINT('',(2.84217094304E-14,-10.6,-8.881784197001E-16)
  );
#362 = VECTOR('',#363,1.);
#363 = DIRECTION('',(1.,-5.551115123126E-17,0.));
#364 = ORIENTED_EDGE('',*,*,#365,.T.);
#365 = EDGE_CURVE('',#358,#366,#368,.T.);
#366 = VERTEX_POINT('',#367);
#367 = CARTESIAN_POINT('',(13.,10.6,-8.881784197001E-16));
#368 = LINE('',#369,#370);
#369 = CARTESIAN_POINT('',(13.,-11.,-8.881784197001E-16));
#370 = VECTOR('',#371,1.);
#371 = DIRECTION('',(5.551115123126E-17,1.,0.));
#372 = ORIENTED_EDGE('',*,*,#373,.F.);
#373 = EDGE_CURVE('',#170,#366,#374,.T.);
#374 = LINE('',#375,#376);
#375 = CARTESIAN_POINT('',(2.84217094304E-14,10.6,-8.881784197001E-16));
#376 = VECTOR('',#377,1.);
#377 = DIRECTION('',(1.,-5.551115123126E-17,0.));
#378 = FACE_BOUND('',#379,.F.);
#379 = EDGE_LOOP('',(#380));
#380 = ORIENTED_EDGE('',*,*,#381,.F.);
#381 = EDGE_CURVE('',#382,#382,#384,.T.);
#382 = VERTEX_POINT('',#383);
#383 = CARTESIAN_POINT('',(9.6,-5.5,-8.881784197001E-16));
#384 = CIRCLE('',#385,1.7);
#385 = AXIS2_PLACEMENT_3D('',#386,#387,#388);
#386 = CARTESIAN_POINT('',(7.9,-5.5,-8.881784197001E-16));
#387 = DIRECTION('',(-0.,0.,1.));
#388 = DIRECTION('',(1.,-5.551115123126E-17,0.));
#389 = FACE_BOUND('',#390,.F.);
#390 = EDGE_LOOP('',(#391,#402,#410,#419,#427,#436,#444,#453));
#391 = ORIENTED_EDGE('',*,*,#392,.F.);
#392 = EDGE_CURVE('',#393,#395,#397,.T.);
#393 = VERTEX_POINT('',#394);
#394 = CARTESIAN_POINT('',(4.38,-1.52,-8.881784197001E-16));
#395 = VERTEX_POINT('',#396);
#396 = CARTESIAN_POINT('',(4.88,-2.02,-8.881784197001E-16));
#397 = CIRCLE('',#398,0.5);
#398 = AXIS2_PLACEMENT_3D('',#399,#400,#401);
#399 = CARTESIAN_POINT('',(4.88,-1.52,-8.881784197001E-16));
#400 = DIRECTION('',(0.,0.,1.));
#401 = DIRECTION('',(-1.,5.551115123126E-17,0.));
#402 = ORIENTED_EDGE('',*,*,#403,.T.);
#403 = EDGE_CURVE('',#393,#404,#406,.T.);
#404 = VERTEX_POINT('',#405);
#405 = CARTESIAN_POINT('',(4.38,1.52,-8.881784197001E-16));
#406 = LINE('',#407,#408);
#407 = CARTESIAN_POINT('',(4.38,-6.51,-8.881784197001E-16));
#408 = VECTOR('',#409,1.);
#409 = DIRECTION('',(5.551115123126E-17,1.,0.));
#410 = ORIENTED_EDGE('',*,*,#411,.F.);
#411 = EDGE_CURVE('',#412,#404,#414,.T.);
#412 = VERTEX_POINT('',#413);
#413 = CARTESIAN_POINT('',(4.88,2.02,-8.881784197001E-16));
#414 = CIRCLE('',#415,0.5);
#415 = AXIS2_PLACEMENT_3D('',#416,#417,#418);
#416 = CARTESIAN_POINT('',(4.88,1.52,-8.881784197001E-16));
#417 = DIRECTION('',(0.,0.,1.));
#418 = DIRECTION('',(-1.,5.551115123126E-17,0.));
#419 = ORIENTED_EDGE('',*,*,#420,.F.);
#420 = EDGE_CURVE('',#421,#412,#423,.T.);
#421 = VERTEX_POINT('',#422);
#422 = CARTESIAN_POINT('',(10.92,2.02,-8.881784197001E-16));
#423 = LINE('',#424,#425);
#424 = CARTESIAN_POINT('',(2.19,2.02,-8.881784197001E-16));
#425 = VECTOR('',#426,1.);
#426 = DIRECTION('',(-1.,5.551115123126E-17,0.));
#427 = ORIENTED_EDGE('',*,*,#428,.F.);
#428 = EDGE_CURVE('',#429,#421,#431,.T.);
#429 = VERTEX_POINT('',#430);
#430 = CARTESIAN_POINT('',(11.42,1.52,-8.881784197001E-16));
#431 = CIRCLE('',#432,0.5);
#432 = AXIS2_PLACEMENT_3D('',#433,#434,#435);
#433 = CARTESIAN_POINT('',(10.92,1.52,-8.881784197001E-16));
#434 = DIRECTION('',(-0.,0.,1.));
#435 = DIRECTION('',(1.,-5.551115123126E-17,0.));
#436 = ORIENTED_EDGE('',*,*,#437,.F.);
#437 = EDGE_CURVE('',#438,#429,#440,.T.);
#438 = VERTEX_POINT('',#439);
#439 = CARTESIAN_POINT('',(11.42,-1.52,-8.881784197001E-16));
#440 = LINE('',#441,#442);
#441 = CARTESIAN_POINT('',(11.42,-6.51,-8.881784197001E-16));
#442 = VECTOR('',#443,1.);
#443 = DIRECTION('',(5.551115123126E-17,1.,0.));
#444 = ORIENTED_EDGE('',*,*,#445,.F.);
#445 = EDGE_CURVE('',#446,#438,#448,.T.);
#446 = VERTEX_POINT('',#447);
#447 = CARTESIAN_POINT('',(10.92,-2.02,-8.881784197001E-16));
#448 = CIRCLE('',#449,0.5);
#449 = AXIS2_PLACEMENT_3D('',#450,#451,#452);
#450 = CARTESIAN_POINT('',(10.92,-1.52,-8.881784197001E-16));
#451 = DIRECTION('',(-0.,0.,1.));
#452 = DIRECTION('',(1.,-5.551115123126E-17,0.));
#453 = ORIENTED_EDGE('',*,*,#454,.T.);
#454 = EDGE_CURVE('',#446,#395,#455,.T.);
#455 = LINE('',#456,#457);
#456 = CARTESIAN_POINT('',(2.19,-2.02,-8.881784197001E-16));
#457 = VECTOR('',#458,1.);
#458 = DIRECTION('',(-1.,5.551115123126E-17,0.));
#459 = FACE_BOUND('',#460,.F.);
#460 = EDGE_LOOP('',(#461));
#461 = ORIENTED_EDGE('',*,*,#462,.F.);
#462 = EDGE_CURVE('',#463,#463,#465,.T.);
#463 = VERTEX_POINT('',#464);
#464 = CARTESIAN_POINT('',(9.6,5.5,-8.881784197001E-16));
#465 = CIRCLE('',#466,1.7);
#466 = AXIS2_PLACEMENT_3D('',#467,#468,#469);
#467 = CARTESIAN_POINT('',(7.9,5.5,-8.881784197001E-16));
#468 = DIRECTION('',(-0.,0.,1.));
#469 = DIRECTION('',(1.,-5.551115123126E-17,0.));
#470 = PLANE('',#471);
#471 = AXIS2_PLACEMENT_3D('',#472,#473,#474);
#472 = CARTESIAN_POINT('',(2.84217094304E-14,-11.,-8.881784197001E-16));
#473 = DIRECTION('',(0.,0.,1.));
#474 = DIRECTION('',(1.,-5.551115123126E-17,0.));
#475 = ADVANCED_FACE('',(#476),#488,.T.);
#476 = FACE_BOUND('',#477,.T.);
#477 = EDGE_LOOP('',(#478,#479,#480,#487));
#478 = ORIENTED_EDGE('',*,*,#250,.F.);
#479 = ORIENTED_EDGE('',*,*,#357,.T.);
#480 = ORIENTED_EDGE('',*,*,#481,.T.);
#481 = EDGE_CURVE('',#358,#194,#482,.T.);
#482 = CIRCLE('',#483,0.4);
#483 = AXIS2_PLACEMENT_3D('',#484,#485,#486);
#484 = CARTESIAN_POINT('',(13.,-10.6,0.4));
#485 = DIRECTION('',(-1.,-4.488848768742E-18,0.));
#486 = DIRECTION('',(4.488848768742E-18,-1.,0.));
#487 = ORIENTED_EDGE('',*,*,#193,.F.);
#488 = CYLINDRICAL_SURFACE('',#489,0.4);
#489 = AXIS2_PLACEMENT_3D('',#490,#491,#492);
#490 = CARTESIAN_POINT('',(2.84217094304E-14,-10.6,0.4));
#491 = DIRECTION('',(1.,-5.551115123126E-17,0.));
#492 = DIRECTION('',(-5.551115123126E-17,-1.,0.));
#493 = ADVANCED_FACE('',(#494),#521,.T.);
#494 = FACE_BOUND('',#495,.F.);
#495 = EDGE_LOOP('',(#496,#506,#513,#514));
#496 = ORIENTED_EDGE('',*,*,#497,.F.);
#497 = EDGE_CURVE('',#498,#500,#502,.T.);
#498 = VERTEX_POINT('',#499);
#499 = CARTESIAN_POINT('',(13.4,-10.6,0.4));
#500 = VERTEX_POINT('',#501);
#501 = CARTESIAN_POINT('',(13.4,-10.6,7.6));
#502 = LINE('',#503,#504);
#503 = CARTESIAN_POINT('',(13.4,-10.6,-8.881784197001E-16));
#504 = VECTOR('',#505,1.);
#505 = DIRECTION('',(0.,0.,1.));
#506 = ORIENTED_EDGE('',*,*,#507,.T.);
#507 = EDGE_CURVE('',#498,#194,#508,.T.);
#508 = CIRCLE('',#509,0.4);
#509 = AXIS2_PLACEMENT_3D('',#510,#511,#512);
#510 = CARTESIAN_POINT('',(13.,-10.6,0.4));
#511 = DIRECTION('',(0.,-0.,-1.));
#512 = DIRECTION('',(1.,-5.551115123126E-17,0.));
#513 = ORIENTED_EDGE('',*,*,#235,.T.);
#514 = ORIENTED_EDGE('',*,*,#515,.F.);
#515 = EDGE_CURVE('',#500,#228,#516,.T.);
#516 = CIRCLE('',#517,0.4);
#517 = AXIS2_PLACEMENT_3D('',#518,#519,#520);
#518 = CARTESIAN_POINT('',(13.,-10.6,7.6));
#519 = DIRECTION('',(0.,-0.,-1.));
#520 = DIRECTION('',(1.,-5.551115123126E-17,0.));
#521 = CYLINDRICAL_SURFACE('',#522,0.4);
#522 = AXIS2_PLACEMENT_3D('',#523,#524,#525);
#523 = CARTESIAN_POINT('',(13.,-10.6,-8.881784197001E-16));
#524 = DIRECTION('',(0.,0.,1.));
#525 = DIRECTION('',(1.,-5.551115123126E-17,0.));
#526 = ADVANCED_FACE('',(#527),#554,.T.);
#527 = FACE_BOUND('',#528,.F.);
#528 = EDGE_LOOP('',(#529,#538,#546,#553));
#529 = ORIENTED_EDGE('',*,*,#530,.F.);
#530 = EDGE_CURVE('',#531,#220,#533,.T.);
#531 = VERTEX_POINT('',#532);
#532 = CARTESIAN_POINT('',(0.4,-10.6,8.));
#533 = CIRCLE('',#534,0.4);
#534 = AXIS2_PLACEMENT_3D('',#535,#536,#537);
#535 = CARTESIAN_POINT('',(0.4,-10.6,7.6));
#536 = DIRECTION('',(1.,-1.155111512313E-16,0.));
#537 = DIRECTION('',(-1.155111512313E-16,-1.,0.));
#538 = ORIENTED_EDGE('',*,*,#539,.T.);
#539 = EDGE_CURVE('',#531,#540,#542,.T.);
#540 = VERTEX_POINT('',#541);
#541 = CARTESIAN_POINT('',(13.,-10.6,8.));
#542 = LINE('',#543,#544);
#543 = CARTESIAN_POINT('',(2.84217094304E-14,-10.6,8.));
#544 = VECTOR('',#545,1.);
#545 = DIRECTION('',(1.,-5.551115123126E-17,0.));
#546 = ORIENTED_EDGE('',*,*,#547,.T.);
#547 = EDGE_CURVE('',#540,#228,#548,.T.);
#548 = CIRCLE('',#549,0.4);
#549 = AXIS2_PLACEMENT_3D('',#550,#551,#552);
#550 = CARTESIAN_POINT('',(13.,-10.6,7.6));
#551 = DIRECTION('',(1.,4.488848768742E-18,0.));
#552 = DIRECTION('',(4.488848768742E-18,-1.,0.));
#553 = ORIENTED_EDGE('',*,*,#227,.F.);
#554 = CYLINDRICAL_SURFACE('',#555,0.4);
#555 = AXIS2_PLACEMENT_3D('',#556,#557,#558);
#556 = CARTESIAN_POINT('',(2.84217094304E-14,-10.6,7.6));
#557 = DIRECTION('',(1.,-5.551115123126E-17,0.));
#558 = DIRECTION('',(-5.551115123126E-17,-1.,0.));
#559 = ADVANCED_FACE('',(#560),#587,.T.);
#560 = FACE_BOUND('',#561,.T.);
#561 = EDGE_LOOP('',(#562,#572,#579,#580));
#562 = ORIENTED_EDGE('',*,*,#563,.F.);
#563 = EDGE_CURVE('',#564,#566,#568,.T.);
#564 = VERTEX_POINT('',#565);
#565 = CARTESIAN_POINT('',(2.84217094304E-14,-10.6,4.6));
#566 = VERTEX_POINT('',#567);
#567 = CARTESIAN_POINT('',(2.84217094304E-14,-10.6,7.6));
#568 = LINE('',#569,#570);
#569 = CARTESIAN_POINT('',(2.84217094304E-14,-10.6,-8.881784197001E-16)
  );
#570 = VECTOR('',#571,1.);
#571 = DIRECTION('',(0.,0.,1.));
#572 = ORIENTED_EDGE('',*,*,#573,.T.);
#573 = EDGE_CURVE('',#564,#212,#574,.T.);
#574 = CIRCLE('',#575,0.4);
#575 = AXIS2_PLACEMENT_3D('',#576,#577,#578);
#576 = CARTESIAN_POINT('',(0.4,-10.6,4.6));
#577 = DIRECTION('',(0.,0.,1.));
#578 = DIRECTION('',(-1.,5.551115123126E-17,0.));
#579 = ORIENTED_EDGE('',*,*,#219,.T.);
#580 = ORIENTED_EDGE('',*,*,#581,.F.);
#581 = EDGE_CURVE('',#566,#220,#582,.T.);
#582 = CIRCLE('',#583,0.4);
#583 = AXIS2_PLACEMENT_3D('',#584,#585,#586);
#584 = CARTESIAN_POINT('',(0.4,-10.6,7.6));
#585 = DIRECTION('',(0.,0.,1.));
#586 = DIRECTION('',(-1.,5.551115123126E-17,0.));
#587 = CYLINDRICAL_SURFACE('',#588,0.4);
#588 = AXIS2_PLACEMENT_3D('',#589,#590,#591);
#589 = CARTESIAN_POINT('',(0.4,-10.6,-8.881784197001E-16));
#590 = DIRECTION('',(0.,0.,1.));
#591 = DIRECTION('',(-1.,5.551115123126E-17,0.));
#592 = ADVANCED_FACE('',(#593),#614,.F.);
#593 = FACE_BOUND('',#594,.F.);
#594 = EDGE_LOOP('',(#595,#596,#597,#606,#612,#613));
#595 = ORIENTED_EDGE('',*,*,#266,.T.);
#596 = ORIENTED_EDGE('',*,*,#301,.F.);
#597 = ORIENTED_EDGE('',*,*,#598,.T.);
#598 = EDGE_CURVE('',#302,#599,#601,.T.);
#599 = VERTEX_POINT('',#600);
#600 = CARTESIAN_POINT('',(2.84217094304E-14,10.6,4.6));
#601 = CIRCLE('',#602,0.4);
#602 = AXIS2_PLACEMENT_3D('',#603,#604,#605);
#603 = CARTESIAN_POINT('',(0.4,10.6,4.6));
#604 = DIRECTION('',(0.,0.,1.));
#605 = DIRECTION('',(-1.,5.551115123126E-17,0.));
#606 = ORIENTED_EDGE('',*,*,#607,.T.);
#607 = EDGE_CURVE('',#599,#564,#608,.T.);
#608 = LINE('',#609,#610);
#609 = CARTESIAN_POINT('',(2.84217094304E-14,-11.5,4.6));
#610 = VECTOR('',#611,1.);
#611 = DIRECTION('',(-5.551115123126E-17,-1.,0.));
#612 = ORIENTED_EDGE('',*,*,#573,.T.);
#613 = ORIENTED_EDGE('',*,*,#211,.T.);
#614 = PLANE('',#615);
#615 = AXIS2_PLACEMENT_3D('',#616,#617,#618);
#616 = CARTESIAN_POINT('',(-2.6,-12.,4.6));
#617 = DIRECTION('',(0.,0.,1.));
#618 = DIRECTION('',(1.,-5.551115123126E-17,0.));
#619 = ADVANCED_FACE('',(#620),#632,.T.);
#620 = FACE_BOUND('',#621,.F.);
#621 = EDGE_LOOP('',(#622,#623,#624,#631));
#622 = ORIENTED_EDGE('',*,*,#340,.F.);
#623 = ORIENTED_EDGE('',*,*,#373,.T.);
#624 = ORIENTED_EDGE('',*,*,#625,.T.);
#625 = EDGE_CURVE('',#366,#291,#626,.T.);
#626 = CIRCLE('',#627,0.4);
#627 = AXIS2_PLACEMENT_3D('',#628,#629,#630);
#628 = CARTESIAN_POINT('',(13.,10.6,0.4));
#629 = DIRECTION('',(1.,-1.155111512313E-16,0.));
#630 = DIRECTION('',(1.155111512313E-16,1.,0.));
#631 = ORIENTED_EDGE('',*,*,#290,.F.);
#632 = CYLINDRICAL_SURFACE('',#633,0.4);
#633 = AXIS2_PLACEMENT_3D('',#634,#635,#636);
#634 = CARTESIAN_POINT('',(2.84217094304E-14,10.6,0.4));
#635 = DIRECTION('',(1.,-5.551115123126E-17,0.));
#636 = DIRECTION('',(5.551115123126E-17,1.,0.));
#637 = ADVANCED_FACE('',(#638),#665,.T.);
#638 = FACE_BOUND('',#639,.T.);
#639 = EDGE_LOOP('',(#640,#650,#657,#658));
#640 = ORIENTED_EDGE('',*,*,#641,.F.);
#641 = EDGE_CURVE('',#642,#644,#646,.T.);
#642 = VERTEX_POINT('',#643);
#643 = CARTESIAN_POINT('',(13.4,10.6,0.4));
#644 = VERTEX_POINT('',#645);
#645 = CARTESIAN_POINT('',(13.4,10.6,7.6));
#646 = LINE('',#647,#648);
#647 = CARTESIAN_POINT('',(13.4,10.6,-8.881784197001E-16));
#648 = VECTOR('',#649,1.);
#649 = DIRECTION('',(0.,0.,1.));
#650 = ORIENTED_EDGE('',*,*,#651,.T.);
#651 = EDGE_CURVE('',#642,#291,#652,.T.);
#652 = CIRCLE('',#653,0.4);
#653 = AXIS2_PLACEMENT_3D('',#654,#655,#656);
#654 = CARTESIAN_POINT('',(13.,10.6,0.4));
#655 = DIRECTION('',(-0.,0.,1.));
#656 = DIRECTION('',(1.,-4.495511151231E-15,0.));
#657 = ORIENTED_EDGE('',*,*,#325,.T.);
#658 = ORIENTED_EDGE('',*,*,#659,.T.);
#659 = EDGE_CURVE('',#318,#644,#660,.T.);
#660 = CIRCLE('',#661,0.4);
#661 = AXIS2_PLACEMENT_3D('',#662,#663,#664);
#662 = CARTESIAN_POINT('',(13.,10.6,7.6));
#663 = DIRECTION('',(1.11E-15,-6.16173778667E-32,-1.));
#664 = DIRECTION('',(1.,-5.551115123126E-17,1.11E-15));
#665 = CYLINDRICAL_SURFACE('',#666,0.4);
#666 = AXIS2_PLACEMENT_3D('',#667,#668,#669);
#667 = CARTESIAN_POINT('',(13.,10.6,-8.881784197001E-16));
#668 = DIRECTION('',(0.,0.,1.));
#669 = DIRECTION('',(1.,-5.551115123126E-17,0.));
#670 = ADVANCED_FACE('',(#671),#698,.T.);
#671 = FACE_BOUND('',#672,.T.);
#672 = EDGE_LOOP('',(#673,#682,#690,#697));
#673 = ORIENTED_EDGE('',*,*,#674,.T.);
#674 = EDGE_CURVE('',#310,#675,#677,.T.);
#675 = VERTEX_POINT('',#676);
#676 = CARTESIAN_POINT('',(0.4,10.6,8.));
#677 = CIRCLE('',#678,0.4);
#678 = AXIS2_PLACEMENT_3D('',#679,#680,#681);
#679 = CARTESIAN_POINT('',(0.4,10.6,7.6));
#680 = DIRECTION('',(1.,-5.551115123126E-17,6.E-17));
#681 = DIRECTION('',(-6.E-17,3.330669073875E-33,1.));
#682 = ORIENTED_EDGE('',*,*,#683,.T.);
#683 = EDGE_CURVE('',#675,#684,#686,.T.);
#684 = VERTEX_POINT('',#685);
#685 = CARTESIAN_POINT('',(13.,10.6,8.));
#686 = LINE('',#687,#688);
#687 = CARTESIAN_POINT('',(2.84217094304E-14,10.6,8.));
#688 = VECTOR('',#689,1.);
#689 = DIRECTION('',(1.,-5.551115123126E-17,0.));
#690 = ORIENTED_EDGE('',*,*,#691,.F.);
#691 = EDGE_CURVE('',#318,#684,#692,.T.);
#692 = CIRCLE('',#693,0.4);
#693 = AXIS2_PLACEMENT_3D('',#694,#695,#696);
#694 = CARTESIAN_POINT('',(13.,10.6,7.6));
#695 = DIRECTION('',(1.,-5.551115123126E-17,-6.E-17));
#696 = DIRECTION('',(6.E-17,-3.330669073875E-33,1.));
#697 = ORIENTED_EDGE('',*,*,#317,.F.);
#698 = CYLINDRICAL_SURFACE('',#699,0.4);
#699 = AXIS2_PLACEMENT_3D('',#700,#701,#702);
#700 = CARTESIAN_POINT('',(2.84217094304E-14,10.6,7.6));
#701 = DIRECTION('',(1.,-5.551115123126E-17,0.));
#702 = DIRECTION('',(5.551115123126E-17,1.,0.));
#703 = ADVANCED_FACE('',(#704),#723,.T.);
#704 = FACE_BOUND('',#705,.F.);
#705 = EDGE_LOOP('',(#706,#714,#715,#716));
#706 = ORIENTED_EDGE('',*,*,#707,.F.);
#707 = EDGE_CURVE('',#599,#708,#710,.T.);
#708 = VERTEX_POINT('',#709);
#709 = CARTESIAN_POINT('',(2.84217094304E-14,10.6,7.6));
#710 = LINE('',#711,#712);
#711 = CARTESIAN_POINT('',(2.84217094304E-14,10.6,-8.881784197001E-16));
#712 = VECTOR('',#713,1.);
#713 = DIRECTION('',(0.,0.,1.));
#714 = ORIENTED_EDGE('',*,*,#598,.F.);
#715 = ORIENTED_EDGE('',*,*,#309,.T.);
#716 = ORIENTED_EDGE('',*,*,#717,.T.);
#717 = EDGE_CURVE('',#310,#708,#718,.T.);
#718 = CIRCLE('',#719,0.4);
#719 = AXIS2_PLACEMENT_3D('',#720,#721,#722);
#720 = CARTESIAN_POINT('',(0.4,10.6,7.6));
#721 = DIRECTION('',(1.11E-15,-6.16173778667E-32,1.));
#722 = DIRECTION('',(-1.,5.551115123126E-17,1.11E-15));
#723 = CYLINDRICAL_SURFACE('',#724,0.4);
#724 = AXIS2_PLACEMENT_3D('',#725,#726,#727);
#725 = CARTESIAN_POINT('',(0.4,10.6,-8.881784197001E-16));
#726 = DIRECTION('',(0.,0.,1.));
#727 = DIRECTION('',(-1.,5.551115123126E-17,0.));
#728 = ADVANCED_FACE('',(#729),#752,.T.);
#729 = FACE_BOUND('',#730,.T.);
#730 = EDGE_LOOP('',(#731,#738,#739,#746));
#731 = ORIENTED_EDGE('',*,*,#732,.F.);
#732 = EDGE_CURVE('',#358,#498,#733,.T.);
#733 = CIRCLE('',#734,0.4);
#734 = AXIS2_PLACEMENT_3D('',#735,#736,#737);
#735 = CARTESIAN_POINT('',(13.,-10.6,0.4));
#736 = DIRECTION('',(-5.551115123126E-17,-1.,0.));
#737 = DIRECTION('',(1.,-5.551115123126E-17,0.));
#738 = ORIENTED_EDGE('',*,*,#365,.T.);
#739 = ORIENTED_EDGE('',*,*,#740,.T.);
#740 = EDGE_CURVE('',#366,#642,#741,.T.);
#741 = CIRCLE('',#742,0.4);
#742 = AXIS2_PLACEMENT_3D('',#743,#744,#745);
#743 = CARTESIAN_POINT('',(13.,10.6,0.4));
#744 = DIRECTION('',(-4.495511151231E-15,-1.,0.));
#745 = DIRECTION('',(1.,-4.495511151231E-15,0.));
#746 = ORIENTED_EDGE('',*,*,#747,.F.);
#747 = EDGE_CURVE('',#498,#642,#748,.T.);
#748 = LINE('',#749,#750);
#749 = CARTESIAN_POINT('',(13.4,-11.,0.4));
#750 = VECTOR('',#751,1.);
#751 = DIRECTION('',(5.551115123126E-17,1.,0.));
#752 = CYLINDRICAL_SURFACE('',#753,0.4);
#753 = AXIS2_PLACEMENT_3D('',#754,#755,#756);
#754 = CARTESIAN_POINT('',(13.,-11.,0.4));
#755 = DIRECTION('',(5.551115123126E-17,1.,0.));
#756 = DIRECTION('',(1.,-5.551115123126E-17,0.));
#757 = ADVANCED_FACE('',(#758),#777,.F.);
#758 = FACE_BOUND('',#759,.F.);
#759 = EDGE_LOOP('',(#760,#769,#775,#776));
#760 = ORIENTED_EDGE('',*,*,#761,.F.);
#761 = EDGE_CURVE('',#762,#762,#764,.T.);
#762 = VERTEX_POINT('',#763);
#763 = CARTESIAN_POINT('',(9.6,-5.5,8.));
#764 = CIRCLE('',#765,1.7);
#765 = AXIS2_PLACEMENT_3D('',#766,#767,#768);
#766 = CARTESIAN_POINT('',(7.9,-5.5,8.));
#767 = DIRECTION('',(-0.,0.,1.));
#768 = DIRECTION('',(1.,-5.551115123126E-17,0.));
#769 = ORIENTED_EDGE('',*,*,#770,.F.);
#770 = EDGE_CURVE('',#382,#762,#771,.T.);
#771 = LINE('',#772,#773);
#772 = CARTESIAN_POINT('',(9.6,-5.5,-0.1));
#773 = VECTOR('',#774,1.);
#774 = DIRECTION('',(0.,0.,1.));
#775 = ORIENTED_EDGE('',*,*,#381,.T.);
#776 = ORIENTED_EDGE('',*,*,#770,.T.);
#777 = CYLINDRICAL_SURFACE('',#778,1.7);
#778 = AXIS2_PLACEMENT_3D('',#779,#780,#781);
#779 = CARTESIAN_POINT('',(7.9,-5.5,-0.1));
#780 = DIRECTION('',(0.,0.,1.));
#781 = DIRECTION('',(1.,-5.551115123126E-17,0.));
#782 = ADVANCED_FACE('',(#783),#809,.F.);
#783 = FACE_BOUND('',#784,.F.);
#784 = EDGE_LOOP('',(#785,#793,#794,#802));
#785 = ORIENTED_EDGE('',*,*,#786,.F.);
#786 = EDGE_CURVE('',#393,#787,#789,.T.);
#787 = VERTEX_POINT('',#788);
#788 = CARTESIAN_POINT('',(4.38,-1.52,2.05));
#789 = LINE('',#790,#791);
#790 = CARTESIAN_POINT('',(4.38,-1.52,-0.1));
#791 = VECTOR('',#792,1.);
#792 = DIRECTION('',(0.,0.,1.));
#793 = ORIENTED_EDGE('',*,*,#392,.T.);
#794 = ORIENTED_EDGE('',*,*,#795,.T.);
#795 = EDGE_CURVE('',#395,#796,#798,.T.);
#796 = VERTEX_POINT('',#797);
#797 = CARTESIAN_POINT('',(4.88,-2.02,2.05));
#798 = LINE('',#799,#800);
#799 = CARTESIAN_POINT('',(4.88,-2.02,-0.1));
#800 = VECTOR('',#801,1.);
#801 = DIRECTION('',(0.,0.,1.));
#802 = ORIENTED_EDGE('',*,*,#803,.F.);
#803 = EDGE_CURVE('',#787,#796,#804,.T.);
#804 = CIRCLE('',#805,0.5);
#805 = AXIS2_PLACEMENT_3D('',#806,#807,#808);
#806 = CARTESIAN_POINT('',(4.88,-1.52,2.05));
#807 = DIRECTION('',(0.,0.,1.));
#808 = DIRECTION('',(-5.551115123126E-17,-1.,0.));
#809 = CYLINDRICAL_SURFACE('',#810,0.5);
#810 = AXIS2_PLACEMENT_3D('',#811,#812,#813);
#811 = CARTESIAN_POINT('',(4.88,-1.52,-0.1));
#812 = DIRECTION('',(0.,0.,1.));
#813 = DIRECTION('',(-1.,5.551115123126E-17,0.));
#814 = ADVANCED_FACE('',(#815),#833,.T.);
#815 = FACE_BOUND('',#816,.T.);
#816 = EDGE_LOOP('',(#817,#825,#826,#827));
#817 = ORIENTED_EDGE('',*,*,#818,.F.);
#818 = EDGE_CURVE('',#787,#819,#821,.T.);
#819 = VERTEX_POINT('',#820);
#820 = CARTESIAN_POINT('',(4.38,1.52,2.05));
#821 = LINE('',#822,#823);
#822 = CARTESIAN_POINT('',(4.38,-2.02,2.05));
#823 = VECTOR('',#824,1.);
#824 = DIRECTION('',(5.551115123126E-17,1.,0.));
#825 = ORIENTED_EDGE('',*,*,#786,.F.);
#826 = ORIENTED_EDGE('',*,*,#403,.T.);
#827 = ORIENTED_EDGE('',*,*,#828,.T.);
#828 = EDGE_CURVE('',#404,#819,#829,.T.);
#829 = LINE('',#830,#831);
#830 = CARTESIAN_POINT('',(4.38,1.52,-0.1));
#831 = VECTOR('',#832,1.);
#832 = DIRECTION('',(0.,0.,1.));
#833 = PLANE('',#834);
#834 = AXIS2_PLACEMENT_3D('',#835,#836,#837);
#835 = CARTESIAN_POINT('',(4.38,-2.02,-0.1));
#836 = DIRECTION('',(1.,-5.551115123126E-17,0.));
#837 = DIRECTION('',(0.,0.,1.));
#838 = ADVANCED_FACE('',(#839),#857,.T.);
#839 = FACE_BOUND('',#840,.T.);
#840 = EDGE_LOOP('',(#841,#842,#843,#851));
#841 = ORIENTED_EDGE('',*,*,#454,.T.);
#842 = ORIENTED_EDGE('',*,*,#795,.T.);
#843 = ORIENTED_EDGE('',*,*,#844,.T.);
#844 = EDGE_CURVE('',#796,#845,#847,.T.);
#845 = VERTEX_POINT('',#846);
#846 = CARTESIAN_POINT('',(10.92,-2.02,2.05));
#847 = LINE('',#848,#849);
#848 = CARTESIAN_POINT('',(4.38,-2.02,2.05));
#849 = VECTOR('',#850,1.);
#850 = DIRECTION('',(1.,-5.551115123126E-17,0.));
#851 = ORIENTED_EDGE('',*,*,#852,.F.);
#852 = EDGE_CURVE('',#446,#845,#853,.T.);
#853 = LINE('',#854,#855);
#854 = CARTESIAN_POINT('',(10.92,-2.02,-0.1));
#855 = VECTOR('',#856,1.);
#856 = DIRECTION('',(0.,0.,1.));
#857 = PLANE('',#858);
#858 = AXIS2_PLACEMENT_3D('',#859,#860,#861);
#859 = CARTESIAN_POINT('',(4.38,-2.02,-0.1));
#860 = DIRECTION('',(5.551115123126E-17,1.,0.));
#861 = DIRECTION('',(0.,0.,1.));
#862 = ADVANCED_FACE('',(#863),#882,.F.);
#863 = FACE_BOUND('',#864,.T.);
#864 = EDGE_LOOP('',(#865,#866,#867,#875));
#865 = ORIENTED_EDGE('',*,*,#828,.F.);
#866 = ORIENTED_EDGE('',*,*,#411,.F.);
#867 = ORIENTED_EDGE('',*,*,#868,.T.);
#868 = EDGE_CURVE('',#412,#869,#871,.T.);
#869 = VERTEX_POINT('',#870);
#870 = CARTESIAN_POINT('',(4.88,2.02,2.05));
#871 = LINE('',#872,#873);
#872 = CARTESIAN_POINT('',(4.88,2.02,-0.1));
#873 = VECTOR('',#874,1.);
#874 = DIRECTION('',(0.,0.,1.));
#875 = ORIENTED_EDGE('',*,*,#876,.F.);
#876 = EDGE_CURVE('',#819,#869,#877,.T.);
#877 = CIRCLE('',#878,0.5);
#878 = AXIS2_PLACEMENT_3D('',#879,#880,#881);
#879 = CARTESIAN_POINT('',(4.88,1.52,2.05));
#880 = DIRECTION('',(-0.,0.,-1.));
#881 = DIRECTION('',(-5.551115123126E-17,-1.,0.));
#882 = CYLINDRICAL_SURFACE('',#883,0.5);
#883 = AXIS2_PLACEMENT_3D('',#884,#885,#886);
#884 = CARTESIAN_POINT('',(4.88,1.52,-0.1));
#885 = DIRECTION('',(0.,0.,1.));
#886 = DIRECTION('',(-1.,5.551115123126E-17,0.));
#887 = ADVANCED_FACE('',(#888),#907,.F.);
#888 = FACE_BOUND('',#889,.T.);
#889 = EDGE_LOOP('',(#890,#898,#899,#900));
#890 = ORIENTED_EDGE('',*,*,#891,.F.);
#891 = EDGE_CURVE('',#438,#892,#894,.T.);
#892 = VERTEX_POINT('',#893);
#893 = CARTESIAN_POINT('',(11.42,-1.52,2.05));
#894 = LINE('',#895,#896);
#895 = CARTESIAN_POINT('',(11.42,-1.52,-0.1));
#896 = VECTOR('',#897,1.);
#897 = DIRECTION('',(0.,0.,1.));
#898 = ORIENTED_EDGE('',*,*,#445,.F.);
#899 = ORIENTED_EDGE('',*,*,#852,.T.);
#900 = ORIENTED_EDGE('',*,*,#901,.F.);
#901 = EDGE_CURVE('',#892,#845,#902,.T.);
#902 = CIRCLE('',#903,0.5);
#903 = AXIS2_PLACEMENT_3D('',#904,#905,#906);
#904 = CARTESIAN_POINT('',(10.92,-1.52,2.05));
#905 = DIRECTION('',(-0.,0.,-1.));
#906 = DIRECTION('',(-5.551115123126E-17,-1.,0.));
#907 = CYLINDRICAL_SURFACE('',#908,0.5);
#908 = AXIS2_PLACEMENT_3D('',#909,#910,#911);
#909 = CARTESIAN_POINT('',(10.92,-1.52,-0.1));
#910 = DIRECTION('',(0.,0.,1.));
#911 = DIRECTION('',(1.,-5.551115123126E-17,0.));
#912 = ADVANCED_FACE('',(#913),#931,.F.);
#913 = FACE_BOUND('',#914,.F.);
#914 = EDGE_LOOP('',(#915,#916,#917,#925));
#915 = ORIENTED_EDGE('',*,*,#420,.T.);
#916 = ORIENTED_EDGE('',*,*,#868,.T.);
#917 = ORIENTED_EDGE('',*,*,#918,.T.);
#918 = EDGE_CURVE('',#869,#919,#921,.T.);
#919 = VERTEX_POINT('',#920);
#920 = CARTESIAN_POINT('',(10.92,2.02,2.05));
#921 = LINE('',#922,#923);
#922 = CARTESIAN_POINT('',(4.38,2.02,2.05));
#923 = VECTOR('',#924,1.);
#924 = DIRECTION('',(1.,-5.551115123126E-17,0.));
#925 = ORIENTED_EDGE('',*,*,#926,.F.);
#926 = EDGE_CURVE('',#421,#919,#927,.T.);
#927 = LINE('',#928,#929);
#928 = CARTESIAN_POINT('',(10.92,2.02,-0.1));
#929 = VECTOR('',#930,1.);
#930 = DIRECTION('',(0.,0.,1.));
#931 = PLANE('',#932);
#932 = AXIS2_PLACEMENT_3D('',#933,#934,#935);
#933 = CARTESIAN_POINT('',(4.38,2.02,-0.1));
#934 = DIRECTION('',(5.551115123126E-17,1.,0.));
#935 = DIRECTION('',(0.,0.,1.));
#936 = ADVANCED_FACE('',(#937),#955,.F.);
#937 = FACE_BOUND('',#938,.F.);
#938 = EDGE_LOOP('',(#939,#947,#948,#949));
#939 = ORIENTED_EDGE('',*,*,#940,.F.);
#940 = EDGE_CURVE('',#892,#941,#943,.T.);
#941 = VERTEX_POINT('',#942);
#942 = CARTESIAN_POINT('',(11.42,1.52,2.05));
#943 = LINE('',#944,#945);
#944 = CARTESIAN_POINT('',(11.42,-2.02,2.05));
#945 = VECTOR('',#946,1.);
#946 = DIRECTION('',(5.551115123126E-17,1.,0.));
#947 = ORIENTED_EDGE('',*,*,#891,.F.);
#948 = ORIENTED_EDGE('',*,*,#437,.T.);
#949 = ORIENTED_EDGE('',*,*,#950,.T.);
#950 = EDGE_CURVE('',#429,#941,#951,.T.);
#951 = LINE('',#952,#953);
#952 = CARTESIAN_POINT('',(11.42,1.52,-0.1));
#953 = VECTOR('',#954,1.);
#954 = DIRECTION('',(0.,0.,1.));
#955 = PLANE('',#956);
#956 = AXIS2_PLACEMENT_3D('',#957,#958,#959);
#957 = CARTESIAN_POINT('',(11.42,-2.02,-0.1));
#958 = DIRECTION('',(1.,-5.551115123126E-17,0.));
#959 = DIRECTION('',(0.,0.,1.));
#960 = ADVANCED_FACE('',(#961),#973,.F.);
#961 = FACE_BOUND('',#962,.F.);
#962 = EDGE_LOOP('',(#963,#964,#965,#966));
#963 = ORIENTED_EDGE('',*,*,#950,.F.);
#964 = ORIENTED_EDGE('',*,*,#428,.T.);
#965 = ORIENTED_EDGE('',*,*,#926,.T.);
#966 = ORIENTED_EDGE('',*,*,#967,.F.);
#967 = EDGE_CURVE('',#941,#919,#968,.T.);
#968 = CIRCLE('',#969,0.5);
#969 = AXIS2_PLACEMENT_3D('',#970,#971,#972);
#970 = CARTESIAN_POINT('',(10.92,1.52,2.05));
#971 = DIRECTION('',(0.,0.,1.));
#972 = DIRECTION('',(-5.551115123126E-17,-1.,0.));
#973 = CYLINDRICAL_SURFACE('',#974,0.5);
#974 = AXIS2_PLACEMENT_3D('',#975,#976,#977);
#975 = CARTESIAN_POINT('',(10.92,1.52,-0.1));
#976 = DIRECTION('',(0.,0.,1.));
#977 = DIRECTION('',(1.,-5.551115123126E-17,0.));
#978 = ADVANCED_FACE('',(#979),#998,.F.);
#979 = FACE_BOUND('',#980,.F.);
#980 = EDGE_LOOP('',(#981,#990,#996,#997));
#981 = ORIENTED_EDGE('',*,*,#982,.F.);
#982 = EDGE_CURVE('',#983,#983,#985,.T.);
#983 = VERTEX_POINT('',#984);
#984 = CARTESIAN_POINT('',(9.6,5.5,8.));
#985 = CIRCLE('',#986,1.7);
#986 = AXIS2_PLACEMENT_3D('',#987,#988,#989);
#987 = CARTESIAN_POINT('',(7.9,5.5,8.));
#988 = DIRECTION('',(-0.,0.,1.));
#989 = DIRECTION('',(1.,-5.551115123126E-17,0.));
#990 = ORIENTED_EDGE('',*,*,#991,.F.);
#991 = EDGE_CURVE('',#463,#983,#992,.T.);
#992 = LINE('',#993,#994);
#993 = CARTESIAN_POINT('',(9.6,5.5,-0.1));
#994 = VECTOR('',#995,1.);
#995 = DIRECTION('',(0.,0.,1.));
#996 = ORIENTED_EDGE('',*,*,#462,.T.);
#997 = ORIENTED_EDGE('',*,*,#991,.T.);
#998 = CYLINDRICAL_SURFACE('',#999,1.7);
#999 = AXIS2_PLACEMENT_3D('',#1000,#1001,#1002);
#1000 = CARTESIAN_POINT('',(7.9,5.5,-0.1));
#1001 = DIRECTION('',(0.,0.,1.));
#1002 = DIRECTION('',(1.,-5.551115123126E-17,0.));
#1003 = ADVANCED_FACE('',(#1004),#1009,.T.);
#1004 = FACE_BOUND('',#1005,.F.);
#1005 = EDGE_LOOP('',(#1006,#1007,#1008));
#1006 = ORIENTED_EDGE('',*,*,#732,.F.);
#1007 = ORIENTED_EDGE('',*,*,#481,.T.);
#1008 = ORIENTED_EDGE('',*,*,#507,.F.);
#1009 = SPHERICAL_SURFACE('',#1010,0.4);
#1010 = AXIS2_PLACEMENT_3D('',#1011,#1012,#1013);
#1011 = CARTESIAN_POINT('',(13.,-10.6,0.4));
#1012 = DIRECTION('',(0.,0.,1.));
#1013 = DIRECTION('',(1.,-5.551115123126E-17,0.));
#1014 = ADVANCED_FACE('',(#1015),#1026,.T.);
#1015 = FACE_BOUND('',#1016,.T.);
#1016 = EDGE_LOOP('',(#1017,#1018,#1019,#1020));
#1017 = ORIENTED_EDGE('',*,*,#497,.F.);
#1018 = ORIENTED_EDGE('',*,*,#747,.T.);
#1019 = ORIENTED_EDGE('',*,*,#641,.T.);
#1020 = ORIENTED_EDGE('',*,*,#1021,.F.);
#1021 = EDGE_CURVE('',#500,#644,#1022,.T.);
#1022 = LINE('',#1023,#1024);
#1023 = CARTESIAN_POINT('',(13.4,-11.,7.6));
#1024 = VECTOR('',#1025,1.);
#1025 = DIRECTION('',(5.551115123126E-17,1.,0.));
#1026 = PLANE('',#1027);
#1027 = AXIS2_PLACEMENT_3D('',#1028,#1029,#1030);
#1028 = CARTESIAN_POINT('',(13.4,-11.,-8.881784197001E-16));
#1029 = DIRECTION('',(1.,-5.551115123126E-17,0.));
#1030 = DIRECTION('',(0.,0.,1.));
#1031 = ADVANCED_FACE('',(#1032),#1043,.T.);
#1032 = FACE_BOUND('',#1033,.T.);
#1033 = EDGE_LOOP('',(#1034,#1041,#1042));
#1034 = ORIENTED_EDGE('',*,*,#1035,.F.);
#1035 = EDGE_CURVE('',#540,#500,#1036,.T.);
#1036 = CIRCLE('',#1037,0.4);
#1037 = AXIS2_PLACEMENT_3D('',#1038,#1039,#1040);
#1038 = CARTESIAN_POINT('',(13.,-10.6,7.6));
#1039 = DIRECTION('',(5.551115123126E-17,1.,0.));
#1040 = DIRECTION('',(1.,-5.551115123126E-17,0.));
#1041 = ORIENTED_EDGE('',*,*,#547,.T.);
#1042 = ORIENTED_EDGE('',*,*,#515,.F.);
#1043 = SPHERICAL_SURFACE('',#1044,0.4);
#1044 = AXIS2_PLACEMENT_3D('',#1045,#1046,#1047);
#1045 = CARTESIAN_POINT('',(13.,-10.6,7.6));
#1046 = DIRECTION('',(-0.,0.,-1.));
#1047 = DIRECTION('',(1.,-5.551115123126E-17,0.));
#1048 = ADVANCED_FACE('',(#1049),#1060,.T.);
#1049 = FACE_BOUND('',#1050,.F.);
#1050 = EDGE_LOOP('',(#1051,#1058,#1059));
#1051 = ORIENTED_EDGE('',*,*,#1052,.F.);
#1052 = EDGE_CURVE('',#531,#566,#1053,.T.);
#1053 = CIRCLE('',#1054,0.4);
#1054 = AXIS2_PLACEMENT_3D('',#1055,#1056,#1057);
#1055 = CARTESIAN_POINT('',(0.4,-10.6,7.6));
#1056 = DIRECTION('',(-5.551115123126E-17,-1.,0.));
#1057 = DIRECTION('',(-1.,5.551115123126E-17,0.));
#1058 = ORIENTED_EDGE('',*,*,#530,.T.);
#1059 = ORIENTED_EDGE('',*,*,#581,.F.);
#1060 = SPHERICAL_SURFACE('',#1061,0.4);
#1061 = AXIS2_PLACEMENT_3D('',#1062,#1063,#1064);
#1062 = CARTESIAN_POINT('',(0.4,-10.6,7.6));
#1063 = DIRECTION('',(-0.,0.,-1.));
#1064 = DIRECTION('',(-1.,5.551115123126E-17,0.));
#1065 = ADVANCED_FACE('',(#1066,#1082,#1085),#1088,.T.);
#1066 = FACE_BOUND('',#1067,.T.);
#1067 = EDGE_LOOP('',(#1068,#1074,#1075,#1081));
#1068 = ORIENTED_EDGE('',*,*,#1069,.F.);
#1069 = EDGE_CURVE('',#531,#675,#1070,.T.);
#1070 = LINE('',#1071,#1072);
#1071 = CARTESIAN_POINT('',(0.4,-11.,8.));
#1072 = VECTOR('',#1073,1.);
#1073 = DIRECTION('',(5.551115123126E-17,1.,0.));
#1074 = ORIENTED_EDGE('',*,*,#539,.T.);
#1075 = ORIENTED_EDGE('',*,*,#1076,.T.);
#1076 = EDGE_CURVE('',#540,#684,#1077,.T.);
#1077 = LINE('',#1078,#1079);
#1078 = CARTESIAN_POINT('',(13.,-11.,8.));
#1079 = VECTOR('',#1080,1.);
#1080 = DIRECTION('',(5.551115123126E-17,1.,0.));
#1081 = ORIENTED_EDGE('',*,*,#683,.F.);
#1082 = FACE_BOUND('',#1083,.T.);
#1083 = EDGE_LOOP('',(#1084));
#1084 = ORIENTED_EDGE('',*,*,#761,.F.);
#1085 = FACE_BOUND('',#1086,.T.);
#1086 = EDGE_LOOP('',(#1087));
#1087 = ORIENTED_EDGE('',*,*,#982,.F.);
#1088 = PLANE('',#1089);
#1089 = AXIS2_PLACEMENT_3D('',#1090,#1091,#1092);
#1090 = CARTESIAN_POINT('',(2.84217094304E-14,-11.,8.));
#1091 = DIRECTION('',(0.,0.,1.));
#1092 = DIRECTION('',(1.,-5.551115123126E-17,0.));
#1093 = ADVANCED_FACE('',(#1094),#1105,.F.);
#1094 = FACE_BOUND('',#1095,.F.);
#1095 = EDGE_LOOP('',(#1096,#1097,#1098,#1099));
#1096 = ORIENTED_EDGE('',*,*,#563,.F.);
#1097 = ORIENTED_EDGE('',*,*,#607,.F.);
#1098 = ORIENTED_EDGE('',*,*,#707,.T.);
#1099 = ORIENTED_EDGE('',*,*,#1100,.F.);
#1100 = EDGE_CURVE('',#566,#708,#1101,.T.);
#1101 = LINE('',#1102,#1103);
#1102 = CARTESIAN_POINT('',(2.84217094304E-14,-11.,7.6));
#1103 = VECTOR('',#1104,1.);
#1104 = DIRECTION('',(5.551115123126E-17,1.,0.));
#1105 = PLANE('',#1106);
#1106 = AXIS2_PLACEMENT_3D('',#1107,#1108,#1109);
#1107 = CARTESIAN_POINT('',(2.84217094304E-14,-11.,-8.881784197001E-16)
  );
#1108 = DIRECTION('',(1.,-5.551115123126E-17,0.));
#1109 = DIRECTION('',(0.,0.,1.));
#1110 = ADVANCED_FACE('',(#1111),#1116,.T.);
#1111 = FACE_BOUND('',#1112,.T.);
#1112 = EDGE_LOOP('',(#1113,#1114,#1115));
#1113 = ORIENTED_EDGE('',*,*,#740,.F.);
#1114 = ORIENTED_EDGE('',*,*,#625,.T.);
#1115 = ORIENTED_EDGE('',*,*,#651,.F.);
#1116 = SPHERICAL_SURFACE('',#1117,0.4);
#1117 = AXIS2_PLACEMENT_3D('',#1118,#1119,#1120);
#1118 = CARTESIAN_POINT('',(13.,10.6,0.4));
#1119 = DIRECTION('',(0.,0.,1.));
#1120 = DIRECTION('',(1.,-4.495511151231E-15,0.));
#1121 = ADVANCED_FACE('',(#1122),#1133,.T.);
#1122 = FACE_BOUND('',#1123,.T.);
#1123 = EDGE_LOOP('',(#1124,#1125,#1126));
#1124 = ORIENTED_EDGE('',*,*,#659,.F.);
#1125 = ORIENTED_EDGE('',*,*,#691,.T.);
#1126 = ORIENTED_EDGE('',*,*,#1127,.F.);
#1127 = EDGE_CURVE('',#644,#684,#1128,.T.);
#1128 = CIRCLE('',#1129,0.4);
#1129 = AXIS2_PLACEMENT_3D('',#1130,#1131,#1132);
#1130 = CARTESIAN_POINT('',(13.,10.6,7.6));
#1131 = DIRECTION('',(-5.551115123126E-17,-1.,0.));
#1132 = DIRECTION('',(1.,-5.551115123126E-17,1.11E-15));
#1133 = SPHERICAL_SURFACE('',#1134,0.4);
#1134 = AXIS2_PLACEMENT_3D('',#1135,#1136,#1137);
#1135 = CARTESIAN_POINT('',(13.,10.6,7.6));
#1136 = DIRECTION('',(-5.551115123126E-17,-1.,0.));
#1137 = DIRECTION('',(1.,-5.551115123126E-17,1.11E-15));
#1138 = ADVANCED_FACE('',(#1139),#1150,.T.);
#1139 = FACE_BOUND('',#1140,.F.);
#1140 = EDGE_LOOP('',(#1141,#1142,#1143));
#1141 = ORIENTED_EDGE('',*,*,#717,.F.);
#1142 = ORIENTED_EDGE('',*,*,#674,.T.);
#1143 = ORIENTED_EDGE('',*,*,#1144,.F.);
#1144 = EDGE_CURVE('',#708,#675,#1145,.T.);
#1145 = CIRCLE('',#1146,0.4);
#1146 = AXIS2_PLACEMENT_3D('',#1147,#1148,#1149);
#1147 = CARTESIAN_POINT('',(0.4,10.6,7.6));
#1148 = DIRECTION('',(5.551115123126E-17,1.,0.));
#1149 = DIRECTION('',(-1.,5.551115123126E-17,1.11E-15));
#1150 = SPHERICAL_SURFACE('',#1151,0.4);
#1151 = AXIS2_PLACEMENT_3D('',#1152,#1153,#1154);
#1152 = CARTESIAN_POINT('',(0.4,10.6,7.6));
#1153 = DIRECTION('',(-5.551115123126E-17,-1.,0.));
#1154 = DIRECTION('',(-1.,5.551115123126E-17,1.11E-15));
#1155 = ADVANCED_FACE('',(#1156),#1166,.F.);
#1156 = FACE_BOUND('',#1157,.F.);
#1157 = EDGE_LOOP('',(#1158,#1159,#1160,#1161,#1162,#1163,#1164,#1165));
#1158 = ORIENTED_EDGE('',*,*,#818,.F.);
#1159 = ORIENTED_EDGE('',*,*,#803,.T.);
#1160 = ORIENTED_EDGE('',*,*,#844,.T.);
#1161 = ORIENTED_EDGE('',*,*,#901,.F.);
#1162 = ORIENTED_EDGE('',*,*,#940,.T.);
#1163 = ORIENTED_EDGE('',*,*,#967,.T.);
#1164 = ORIENTED_EDGE('',*,*,#918,.F.);
#1165 = ORIENTED_EDGE('',*,*,#876,.F.);
#1166 = PLANE('',#1167);
#1167 = AXIS2_PLACEMENT_3D('',#1168,#1169,#1170);
#1168 = CARTESIAN_POINT('',(4.38,-2.02,2.05));
#1169 = DIRECTION('',(0.,0.,1.));
#1170 = DIRECTION('',(1.,-5.551115123126E-17,0.));
#1171 = ADVANCED_FACE('',(#1172),#1178,.T.);
#1172 = FACE_BOUND('',#1173,.F.);
#1173 = EDGE_LOOP('',(#1174,#1175,#1176,#1177));
#1174 = ORIENTED_EDGE('',*,*,#1035,.F.);
#1175 = ORIENTED_EDGE('',*,*,#1076,.T.);
#1176 = ORIENTED_EDGE('',*,*,#1127,.F.);
#1177 = ORIENTED_EDGE('',*,*,#1021,.F.);
#1178 = CYLINDRICAL_SURFACE('',#1179,0.4);
#1179 = AXIS2_PLACEMENT_3D('',#1180,#1181,#1182);
#1180 = CARTESIAN_POINT('',(13.,-11.,7.6));
#1181 = DIRECTION('',(5.551115123126E-17,1.,0.));
#1182 = DIRECTION('',(1.,-5.551115123126E-17,0.));
#1183 = ADVANCED_FACE('',(#1184),#1190,.T.);
#1184 = FACE_BOUND('',#1185,.T.);
#1185 = EDGE_LOOP('',(#1186,#1187,#1188,#1189));
#1186 = ORIENTED_EDGE('',*,*,#1052,.F.);
#1187 = ORIENTED_EDGE('',*,*,#1069,.T.);
#1188 = ORIENTED_EDGE('',*,*,#1144,.F.);
#1189 = ORIENTED_EDGE('',*,*,#1100,.F.);
#1190 = CYLINDRICAL_SURFACE('',#1191,0.4);
#1191 = AXIS2_PLACEMENT_3D('',#1192,#1193,#1194);
#1192 = CARTESIAN_POINT('',(0.4,-11.,7.6));
#1193 = DIRECTION('',(5.551115123126E-17,1.,0.));
#1194 = DIRECTION('',(-1.,5.551115123126E-17,0.));
#1195 = ( GEOMETRIC_REPRESENTATION_CONTEXT(3) 
GLOBAL_UNCERTAINTY_ASSIGNED_CONTEXT((#1199)) 
GLOBAL_UNIT_ASSIGNED_CONTEXT((#1196,#1197,#1198)) REPRESENTATION_CONTEXT
('Context #1','3D Context with UNIT and UNCERTAINTY') );
#1196 = ( LENGTH_UNIT() NAMED_UNIT(*) SI_UNIT(.MILLI.,.METRE.) );
#1197 = ( NAMED_UNIT(*) PLANE_ANGLE_UNIT() SI_UNIT($,.RADIAN.) );
#1198 = ( NAMED_UNIT(*) SI_UNIT($,.STERADIAN.) SOLID_ANGLE_UNIT() );
#1199 = UNCERTAINTY_MEASURE_WITH_UNIT(LENGTH_MEASURE(1.E-07),#1196,
  'distance_accuracy_value','confusion accuracy');
#1200 = PRODUCT_RELATED_PRODUCT_CATEGORY('part',$,(#7));
ENDSEC;
END-ISO-10303-21;
